<?xml version="1.0" encoding="utf-8"?>
<!-- Generator: Adobe Illustrator 20.0.0, SVG Export Plug-In . SVG Version: 6.00 Build 0)  -->
<svg version="1.1" id="Layer_1" xmlns="http://www.w3.org/2000/svg" xmlns:xlink="http://www.w3.org/1999/xlink" x="0px" y="0px"
	 viewBox="0 0 65.509 64.435" enable-background="new 0 0 65.509 64.435" xml:space="preserve">
<g>
	
		<polyline fill="none" stroke="#000000" stroke-width="2.3967" stroke-linecap="round" stroke-linejoin="round" stroke-miterlimit="10" points="
		6.479,58.554 33.171,31.573 60.115,58.554 	"/>
	
		<path fill="none" stroke="#000000" stroke-width="2.3967" stroke-linecap="round" stroke-linejoin="round" stroke-miterlimit="10" d="
		M46.706,13.373L34.072,3.775c-0.533-0.408-1.269-0.408-1.801,0l-12.383,9.598"/>
	
		<path fill="none" stroke="#000000" stroke-width="2.3967" stroke-linecap="round" stroke-linejoin="round" stroke-miterlimit="10" d="
		M12.439,19.397l-6.681,4.709c-0.484,0.371-0.769,0.95-0.769,1.566v32.423c0,1.085,0.87,1.965,1.944,1.965h52.729
		c1.073,0,1.944-0.88,1.944-1.965V25.672c0-0.615-0.285-1.194-0.769-1.566l-6.681-4.709"/>
	
		<line fill="none" stroke="#000000" stroke-width="2.3967" stroke-linecap="round" stroke-linejoin="round" stroke-miterlimit="10" x1="43.726" y1="41.988" x2="60.115" y2="25.422"/>
	
		<line fill="none" stroke="#000000" stroke-width="2.3967" stroke-linecap="round" stroke-linejoin="round" stroke-miterlimit="10" x1="6.479" y1="25.422" x2="21.378" y2="40.482"/>
	<polygon fill="#FFCC05" points="12.439,13.373 12.439,31.446 22.868,41.988 33.171,31.573 43.861,41.988 54.156,31.446 
		54.156,13.373 	"/>
	
		<polygon fill="none" stroke="#000000" stroke-width="2.3967" stroke-linecap="round" stroke-linejoin="round" stroke-miterlimit="10" points="
		12.439,13.373 12.439,31.446 22.868,41.988 33.171,31.573 43.861,41.988 54.156,31.446 54.156,13.373 	"/>
</g>
</svg>
