<?xml version="1.0" encoding="UTF-8"?>
 <!DOCTYPE svg PUBLIC "-//W3C//DTD SVG 1.1//EN"
   "http://www.w3.org/Graphics/SVG/1.1/DTD/svg11.dtd">
 <svg xmlns="http://www.w3.org/2000/svg" version="1.1"
   xmlns:xlink="http://www.w3.org/1999/xlink" width="400" height="400">
  <circle cx="200.724" cy="61.6" r="45" fill="#990000" />
  <path d="M 291.578,51.758 266.08,77.255 C 286.705,95.398 299.725,121.98201 299.725,151.61 299.725,206.28601 255.401,250.61 200.724,250.61 146.048,250.61 101.724,206.28601 101.724,151.61 101.724,121.98201 114.744,95.398009 135.369,77.255009 L 109.871,51.757009 C 82.748,76.449009 65.724,112.04101 65.724,151.61 65.724,226.16901 126.165,286.61 200.724,286.61 275.284,286.61 335.725,226.16901 335.725,151.61 335.725,112.04201 318.7,76.45 291.578,51.758 z" fill="#006699" />
  <path d="M 191.724,133.61101 148.14,90.026009 C 130.758,104.88201 119.724,126.95201 119.724,151.61 119.724,193.30101 151.227,227.62201 191.724,232.10001 L 191.724,133.61101 z M 253.31,90.026009 209.725,133.61 209.725,232.10001 C 250.223,227.62101 281.725,193.30101 281.725,151.61 281.725,126.95201 270.691,104.88301 253.31,90.026009 z" fill="#339966" />
  <path d="M 379.047,340.05501 367.344,340.05501 364.254,332.36701 347.793,332.36701 344.648,340.05501 332.945,340.05501 349.707,302.14901 362.34,302.14901 379.047,340.05501 z M 361.629,325.77401 356.078,311.93001 350.473,325.77401 361.629,325.77401 z M 327.836,340.05501 316.43,340.05501 316.43,302.14901 327.836,302.14901 327.836,340.05501 z M 309.316,321.79901 C 309.316,325.68001 308.609,328.79501 307.196,331.14501 305.783,333.49701 304.119,335.4 302.205,336.858 299.49,338.98901 295.693,340.05501 290.812,340.05501 L 290.239,340.05501 270.379,340.05501 270.379,302.14901 286.114,302.14901 C 288.482,302.14901 290.508,302.27201 292.193,302.52001 293.877,302.76601 295.393,303.11401 296.741,303.56101 298.089,304.01001 299.236,304.51201 300.183,305.07101 301.13,305.62801 301.976,306.22701 302.724,306.86701 304.018,307.92501 305.154,309.17401 306.128,310.61401 307.105,312.05401 307.88,313.72201 308.454,315.61801 309.029,317.51401 309.316,319.57501 309.316,321.79901 z M 297.691,321.30701 C 297.691,318.22801 297.103,315.82801 295.928,314.10601 294.753,312.38401 293.341,311.23101 291.692,310.64901 290.043,310.06501 288.363,309.77401 286.65,309.77401 L 281.785,309.77401 281.785,332.21201 286.65,332.21201 C 289.638,332.21201 292.224,331.50101 294.412,330.08101 296.598,328.65901 297.691,325.73501 297.691,321.30701 z M 262.699,340.05501 234.148,340.05501 234.148,302.14901 262.234,302.14901 262.234,309.77401 245.554,309.77401 245.554,316.71201 261.468,316.71201 261.468,324.33701 245.554,324.33701 245.554,332.43101 262.699,332.43101 262.699,340.05501 z M 224.531,340.05501 213.124,340.05501 213.124,318.08601 202.809,330.80501 201.906,330.80501 191.563,318.08601 191.563,340.05501 180.469,340.05501 180.469,302.14901 190.825,302.14901 202.48,316.36801 214.189,302.14901 224.532,302.14901 224.532,340.05501 224.531,340.05501 z M 170.882,340.05501 159.476,340.05501 159.476,302.14901 170.882,302.14901 170.882,340.05501 z M 154.445,340.05501 140.5,340.05501 126.008,322.30501 126.008,340.05501 114.602,340.05501 114.602,302.14901 126.008,302.14901 126.008,319.11801 139.735,302.14901 152.149,302.14901 138.04,319.89901 154.445,340.05501 z M 104.984,340.05501 93.578,340.05501 93.578,302.14901 104.984,302.14901 104.984,340.05501 104.984,340.05501 z M 88.273,302.14901 71.867,340.55501 65.25,340.55501 55.406,318.21101 45.316,340.55501 38.644,340.55501 22.566,302.14901 34.406,302.14901 42.281,323.14901 51.304,302.14901 59.48,302.14901 68.339,323.14901 76.569,302.14901 88.273,302.14901 z" fill="#484848" />
  <path d="M 326.218,381.05401 320.113,381.05401 308.312,368.39801 308.312,381.05401 301.531,381.05401 301.531,358.30401 307.607,358.30401 319.375,370.92901 319.375,358.30401 326.219,358.30401 326.219,381.05401 326.218,381.05401 z M 297.722,369.67101 C 297.722,371.79001 297.234,373.73901 296.255,375.52101 295.276,377.30001 293.821,378.71501 291.888,379.76301 289.952,380.81201 287.599,381.33601 284.824,381.33601 282.015,381.33601 279.638,380.79001 277.695,379.69801 275.75,378.60601 274.304,377.16901 273.359,375.38901 272.414,373.60801 271.941,371.70201 271.941,369.67001 271.941,367.62901 272.412,365.72001 273.351,363.94501 274.29,362.17001 275.736,360.74001 277.685,359.65201 279.636,358.56601 282.015,358.02201 284.824,358.02201 286.922,358.02201 288.793,358.33401 290.437,358.95701 292.082,359.57901 293.433,360.42301 294.494,361.48701 295.553,362.55201 296.357,363.79201 296.902,365.20601 297.448,366.62201 297.722,368.11001 297.722,369.67101 z M 290.753,369.67101 C 290.753,368.82101 290.628,368.04501 290.376,367.34201 290.124,366.63901 289.743,366.02901 289.233,365.51101 288.723,364.99301 288.102,364.59001 287.37,364.30101 286.636,364.01201 285.786,363.86701 284.823,363.86701 282.983,363.86701 281.538,364.40101 280.485,365.47001 279.434,366.53801 278.909,367.93901 278.909,369.67101 278.909,371.40501 279.438,372.80801 280.495,373.88201 281.552,374.95601 282.993,375.49201 284.823,375.49201 286.083,375.49201 287.155,375.24501 288.042,374.74901 288.929,374.25301 289.603,373.56501 290.063,372.68801 290.522,371.81101 290.753,370.80501 290.753,369.67101 z M 267.683,381.05401 260.839,381.05401 260.839,358.30401 267.683,358.30401 267.683,381.05401 z M 256.771,363.83601 248.439,363.83601 248.439,381.05501 241.595,381.05501 241.595,363.83601 233.261,363.83601 233.261,358.30501 256.771,358.30501 256.771,363.83601 z M 235.319,381.05401 228.299,381.05401 226.445,376.46001 216.57,376.46001 214.683,381.05401 207.662,381.05401 217.718,358.30401 225.296,358.30401 235.319,381.05401 z M 224.87,372.49201 221.541,364.18001 218.179,372.49201 224.87,372.49201 z M 207.551,370.10201 C 207.551,372.43201 207.127,374.30301 206.28,375.71301 205.432,377.12501 204.434,378.26801 203.288,379.14301 201.661,380.41701 199.384,381.05401 196.458,381.05401 L 196.114,381.05401 184.207,381.05401 184.207,358.30401 193.641,358.30401 C 195.06,358.30401 196.275,358.37801 197.285,358.52601 198.295,358.67301 199.204,358.88101 200.012,359.14901 200.819,359.41801 201.508,359.71801 202.075,360.05201 202.643,360.38601 203.151,360.74401 203.598,361.12701 204.374,361.76201 205.055,362.51301 205.639,363.37901 206.225,364.24401 206.689,365.24601 207.034,366.38701 207.378,367.52601 207.551,368.76401 207.551,370.10201 z M 200.582,369.80501 C 200.582,367.95301 200.229,366.50901 199.525,365.47301 198.821,364.43701 197.975,363.74401 196.987,363.39301 195.999,363.04201 194.992,362.86701 193.966,362.86701 L 191.051,362.86701 191.051,376.36701 193.966,376.36701 C 195.757,376.36701 197.307,375.94001 198.617,375.08501 199.927,374.23001 200.582,372.46901 200.582,369.80501 z M 178.462,381.05401 172.357,381.05401 160.556,368.39801 160.556,381.05401 153.775,381.05401 153.775,358.30401 159.852,358.30401 171.619,370.92901 171.619,358.30401 178.463,358.30401 178.463,381.05401 178.462,381.05401 z M 148.391,370.85401 C 148.391,372.80001 148.027,374.45901 147.301,375.83301 146.574,377.20501 145.613,378.29001 144.416,379.08901 143.219,379.88801 141.93,380.46201 140.547,380.81201 139.164,381.16201 137.785,381.33601 136.408,381.33601 134.484,381.33601 132.613,381.00901 130.793,380.35301 128.973,379.69701 127.451,378.58201 126.227,377.00501 125.003,375.43101 124.391,373.38001 124.391,370.85501 L 124.391,358.30501 131.235,358.30501 131.235,369.09501 C 131.235,370.59501 131.451,371.83501 131.882,372.81601 132.313,373.79701 132.915,374.51301 133.686,374.96701 134.457,375.42101 135.366,375.64901 136.415,375.64901 137.42,375.64901 138.311,375.42501 139.087,374.97601 139.863,374.52701 140.467,373.81601 140.899,372.84101 141.331,371.86601 141.547,370.62801 141.547,369.12801 L 141.547,358.30501 148.391,358.30501 148.391,370.85401 z M 120.419,369.67101 C 120.419,371.79001 119.93,373.73901 118.952,375.52101 117.974,377.30001 116.518,378.71501 114.584,379.76301 112.65,380.81201 110.295,381.33601 107.52,381.33601 104.712,381.33601 102.335,380.79001 100.391,379.69801 98.446,378.60601 97.001,377.16901 96.056,375.38901 95.111,373.60801 94.639,371.70201 94.639,369.67001 94.639,367.62901 95.109,365.72001 96.048,363.94501 96.987,362.17001 98.433,360.74001 100.383,359.65201 102.333,358.56601 104.713,358.02201 107.521,358.02201 109.619,358.02201 111.49,358.33401 113.134,358.95701 114.779,359.57901 116.131,360.42301 117.191,361.48701 118.251,362.55201 119.054,363.79201 119.6,365.20601 120.146,366.62201 120.419,368.11001 120.419,369.67101 z M 113.451,369.67101 C 113.451,368.82101 113.325,368.04501 113.073,367.34201 112.821,366.63901 112.44,366.02901 111.931,365.51101 111.422,364.99301 110.8,364.59001 110.067,364.30101 109.333,364.01201 108.484,363.86701 107.521,363.86701 105.681,363.86701 104.235,364.40101 103.184,365.47001 102.133,366.53901 101.607,367.93901 101.607,369.67101 101.607,371.40501 102.135,372.80801 103.192,373.88201 104.249,374.95601 105.692,375.49201 107.521,375.49201 108.78,375.49201 109.854,375.24501 110.741,374.74901 111.628,374.25301 112.302,373.56501 112.762,372.68801 113.222,371.81101 113.451,370.80501 113.451,369.67101 z M 91.512,371.83601 82.08,371.83601 82.08,381.05501 75.236,381.05501 75.236,358.30501 91.511,358.30501 91.511,362.86701 82.079,362.86701 82.079,367.27301 91.511,367.27301 91.511,371.83601 91.512,371.83601 z" fill="#666666" />
 </svg>