<svg viewBox="0 0 1200 760" xmlns="http://www.w3.org/2000/svg" font-family="-apple-system, 'Segoe UI', Roboto, Helvetica, Arial, sans-serif">
  <defs>
    <filter id="shadow" x="-10%" y="-10%" width="120%" height="130%">
      <feDropShadow dx="0" dy="2" stdDeviation="2.5" flood-color="#000" flood-opacity="0.12"/>
    </filter>
    <filter id="shadowStrong" x="-10%" y="-10%" width="120%" height="130%">
      <feDropShadow dx="0" dy="3" stdDeviation="4" flood-color="#000" flood-opacity="0.18"/>
    </filter>
    <marker id="arrowGray" viewBox="0 0 10 10" refX="9" refY="5" markerWidth="7" markerHeight="7" orient="auto">
      <path d="M 0 0 L 10 5 L 0 10 z" fill="#6B7280"/>
    </marker>
    <linearGradient id="scatterBg" x1="0" y1="0" x2="0" y2="1">
      <stop offset="0" stop-color="#EEF2FF"/>
      <stop offset="1" stop-color="#E0E7FF"/>
    </linearGradient>
    <linearGradient id="concatBg" x1="0" y1="0" x2="0" y2="1">
      <stop offset="0" stop-color="#ECFDF5"/>
      <stop offset="1" stop-color="#D1FAE5"/>
    </linearGradient>
  </defs>

  <!-- Legend -->
  <g transform="translate(880, 24)">
    <rect x="0" y="0" width="280" height="80" rx="10" fill="#F9FAFB" stroke="#E5E7EB" stroke-width="1"/>
    <text x="16" y="22" font-size="13" font-weight="700" fill="#111827">Keys (group-by values)</text>
    <rect x="16" y="34" width="22" height="22" rx="4" fill="#6366F1"/><text x="46" y="50" font-size="13" fill="#111827">a</text>
    <rect x="76" y="34" width="22" height="22" rx="4" fill="#F97316"/><text x="106" y="50" font-size="13" fill="#111827">b</text>
    <rect x="136" y="34" width="22" height="22" rx="4" fill="#10B981"/><text x="166" y="50" font-size="13" fill="#111827">c</text>
    <rect x="196" y="34" width="22" height="22" rx="4" fill="#EC4899"/><text x="226" y="50" font-size="13" fill="#111827">d</text>
  </g>

  <!-- Title -->
  <text x="40" y="52" font-size="28" font-weight="700" fill="#111827">Ursa — partitioned GROUP BY</text>
  <text x="40" y="82" font-size="16" fill="#6B7280">scatter by hash first, so each thread sees a disjoint key partition — no merge stage</text>

  <!-- ===== STAGE 1: SCATTER ===== -->
  <g transform="translate(40, 120)">
    <circle cx="14" cy="14" r="14" fill="#4F46E5"/>
    <text x="14" y="19" text-anchor="middle" font-size="15" font-weight="700" fill="#fff">1</text>
    <text x="40" y="20" font-size="16" font-weight="700" fill="#1F2937">Scatter by hash — redistribute rows so each key goes to a single thread</text>
  </g>

  <!-- Input blocks -->
  <g font-family="ui-monospace, 'SF Mono', Menlo, monospace">
    <!-- Block 1 -->
    <g transform="translate(60, 150)" filter="url(#shadow)">
      <rect x="0" y="0" width="200" height="60" rx="8" fill="#fff" stroke="#D1D5DB" stroke-width="1.5"/>
      <rect x="14"  y="14" width="40" height="32" rx="5" fill="#6366F1"/><text x="34"  y="36" text-anchor="middle" font-size="18" font-weight="700" fill="#fff">a</text>
      <rect x="58"  y="14" width="40" height="32" rx="5" fill="#F97316"/><text x="78"  y="36" text-anchor="middle" font-size="18" font-weight="700" fill="#fff">b</text>
      <rect x="102" y="14" width="40" height="32" rx="5" fill="#10B981"/><text x="122" y="36" text-anchor="middle" font-size="18" font-weight="700" fill="#fff">c</text>
      <rect x="146" y="14" width="40" height="32" rx="5" fill="#EC4899"/><text x="166" y="36" text-anchor="middle" font-size="18" font-weight="700" fill="#fff">d</text>
    </g>
    <!-- Block 2 -->
    <g transform="translate(340, 150)" filter="url(#shadow)">
      <rect x="0" y="0" width="200" height="60" rx="8" fill="#fff" stroke="#D1D5DB" stroke-width="1.5"/>
      <rect x="14"  y="14" width="40" height="32" rx="5" fill="#F97316"/><text x="34"  y="36" text-anchor="middle" font-size="18" font-weight="700" fill="#fff">b</text>
      <rect x="58"  y="14" width="40" height="32" rx="5" fill="#10B981"/><text x="78"  y="36" text-anchor="middle" font-size="18" font-weight="700" fill="#fff">c</text>
      <rect x="102" y="14" width="40" height="32" rx="5" fill="#EC4899"/><text x="122" y="36" text-anchor="middle" font-size="18" font-weight="700" fill="#fff">d</text>
      <rect x="146" y="14" width="40" height="32" rx="5" fill="#6366F1"/><text x="166" y="36" text-anchor="middle" font-size="18" font-weight="700" fill="#fff">a</text>
    </g>
    <!-- Block 3 -->
    <g transform="translate(620, 150)" filter="url(#shadow)">
      <rect x="0" y="0" width="200" height="60" rx="8" fill="#fff" stroke="#D1D5DB" stroke-width="1.5"/>
      <rect x="14"  y="14" width="40" height="32" rx="5" fill="#10B981"/><text x="34"  y="36" text-anchor="middle" font-size="18" font-weight="700" fill="#fff">c</text>
      <rect x="58"  y="14" width="40" height="32" rx="5" fill="#EC4899"/><text x="78"  y="36" text-anchor="middle" font-size="18" font-weight="700" fill="#fff">d</text>
      <rect x="102" y="14" width="40" height="32" rx="5" fill="#6366F1"/><text x="122" y="36" text-anchor="middle" font-size="18" font-weight="700" fill="#fff">a</text>
      <rect x="146" y="14" width="40" height="32" rx="5" fill="#F97316"/><text x="166" y="36" text-anchor="middle" font-size="18" font-weight="700" fill="#fff">b</text>
    </g>
    <!-- Block 4 -->
    <g transform="translate(900, 150)" filter="url(#shadow)">
      <rect x="0" y="0" width="200" height="60" rx="8" fill="#fff" stroke="#D1D5DB" stroke-width="1.5"/>
      <rect x="14"  y="14" width="40" height="32" rx="5" fill="#EC4899"/><text x="34"  y="36" text-anchor="middle" font-size="18" font-weight="700" fill="#fff">d</text>
      <rect x="58"  y="14" width="40" height="32" rx="5" fill="#6366F1"/><text x="78"  y="36" text-anchor="middle" font-size="18" font-weight="700" fill="#fff">a</text>
      <rect x="102" y="14" width="40" height="32" rx="5" fill="#F97316"/><text x="122" y="36" text-anchor="middle" font-size="18" font-weight="700" fill="#fff">b</text>
      <rect x="146" y="14" width="40" height="32" rx="5" fill="#10B981"/><text x="166" y="36" text-anchor="middle" font-size="18" font-weight="700" fill="#fff">c</text>
    </g>
  </g>

  <!-- arrows from blocks to scatter -->
  <line x1="160"  y1="216" x2="160"  y2="254" stroke="#6B7280" stroke-width="2" marker-end="url(#arrowGray)"/>
  <line x1="440"  y1="216" x2="440"  y2="254" stroke="#6B7280" stroke-width="2" marker-end="url(#arrowGray)"/>
  <line x1="720"  y1="216" x2="720"  y2="254" stroke="#6B7280" stroke-width="2" marker-end="url(#arrowGray)"/>
  <line x1="1000" y1="216" x2="1000" y2="254" stroke="#6B7280" stroke-width="2" marker-end="url(#arrowGray)"/>

  <!-- Scatter transform box -->
  <g transform="translate(60, 260)" filter="url(#shadowStrong)">
    <rect x="0" y="0" width="1040" height="70" rx="12" fill="url(#scatterBg)" stroke="#A5B4FC" stroke-width="2"/>
    <text x="520" y="32" text-anchor="middle" font-size="18" font-weight="700" fill="#3730A3">ScatterByPartitionTransform</text>
    <text x="520" y="54" text-anchor="middle" font-size="14" font-family="ui-monospace, 'SF Mono', Menlo, monospace" fill="#4338CA">partition = hash(key) % N  →  each key lands on a single thread</text>
  </g>

  <!-- crossing arrows from scatter to threads (showing redistribution by key) -->
  <g stroke-width="2.5" fill="none" opacity="0.95">
    <path d="M 240 330 L 160 384" stroke="#6366F1" marker-end="url(#arrowGray)"/>
    <path d="M 440 330 L 440 384" stroke="#F97316" marker-end="url(#arrowGray)"/>
    <path d="M 640 330 L 720 384" stroke="#10B981" marker-end="url(#arrowGray)"/>
    <path d="M 920 330 L 1000 384" stroke="#EC4899" marker-end="url(#arrowGray)"/>
  </g>

  <!-- ===== STAGE 2: LOCAL AGG ===== -->
  <g transform="translate(40, 360)">
    <circle cx="14" cy="14" r="14" fill="#059669"/>
    <text x="14" y="19" text-anchor="middle" font-size="15" font-weight="700" fill="#fff">2</text>
    <text x="40" y="20" font-size="16" font-weight="700" fill="#1F2937">Local aggregation — each thread now owns a disjoint key partition</text>
  </g>

  <!-- Thread hash tables: each contains ONE key -->
  <g>
    <!-- Thread 1 HT (only 'a') -->
    <g transform="translate(60, 395)" filter="url(#shadow)">
      <rect x="0" y="0" width="200" height="110" rx="10" fill="#fff" stroke="#9CA3AF" stroke-width="1.5"/>
      <text x="100" y="26" text-anchor="middle" font-size="14" font-weight="700" fill="#374151">Thread 1 hash table</text>
      <g font-family="ui-monospace, 'SF Mono', Menlo, monospace" font-size="17">
        <rect x="60" y="52" width="30" height="30" rx="5" fill="#6366F1"/><text x="75" y="74" text-anchor="middle" font-weight="700" fill="#fff">a</text><text x="104" y="74" fill="#111827">: 4</text>
      </g>
    </g>
    <!-- Thread 2 HT (only 'b') -->
    <g transform="translate(340, 395)" filter="url(#shadow)">
      <rect x="0" y="0" width="200" height="110" rx="10" fill="#fff" stroke="#9CA3AF" stroke-width="1.5"/>
      <text x="100" y="26" text-anchor="middle" font-size="14" font-weight="700" fill="#374151">Thread 2 hash table</text>
      <g font-family="ui-monospace, 'SF Mono', Menlo, monospace" font-size="17">
        <rect x="60" y="52" width="30" height="30" rx="5" fill="#F97316"/><text x="75" y="74" text-anchor="middle" font-weight="700" fill="#fff">b</text><text x="104" y="74" fill="#111827">: 4</text>
      </g>
    </g>
    <!-- Thread 3 HT (only 'c') -->
    <g transform="translate(620, 395)" filter="url(#shadow)">
      <rect x="0" y="0" width="200" height="110" rx="10" fill="#fff" stroke="#9CA3AF" stroke-width="1.5"/>
      <text x="100" y="26" text-anchor="middle" font-size="14" font-weight="700" fill="#374151">Thread 3 hash table</text>
      <g font-family="ui-monospace, 'SF Mono', Menlo, monospace" font-size="17">
        <rect x="60" y="52" width="30" height="30" rx="5" fill="#10B981"/><text x="75" y="74" text-anchor="middle" font-weight="700" fill="#fff">c</text><text x="104" y="74" fill="#111827">: 4</text>
      </g>
    </g>
    <!-- Thread 4 HT (only 'd') -->
    <g transform="translate(900, 395)" filter="url(#shadow)">
      <rect x="0" y="0" width="200" height="110" rx="10" fill="#fff" stroke="#9CA3AF" stroke-width="1.5"/>
      <text x="100" y="26" text-anchor="middle" font-size="14" font-weight="700" fill="#374151">Thread 4 hash table</text>
      <g font-family="ui-monospace, 'SF Mono', Menlo, monospace" font-size="17">
        <rect x="60" y="52" width="30" height="30" rx="5" fill="#EC4899"/><text x="75" y="74" text-anchor="middle" font-weight="700" fill="#fff">d</text><text x="104" y="74" fill="#111827">: 4</text>
      </g>
    </g>
  </g>

  <!-- "disjoint partitions" annotation -->
  <text x="1160" y="533" font-size="13" font-style="italic" fill="#059669" text-anchor="end">each key lives in exactly one thread's hash table</text>

  <!-- straight arrows down to concatenation -->
  <line x1="160"  y1="511" x2="160"  y2="556" stroke="#6B7280" stroke-width="2" marker-end="url(#arrowGray)"/>
  <line x1="440"  y1="511" x2="440"  y2="556" stroke="#6B7280" stroke-width="2" marker-end="url(#arrowGray)"/>
  <line x1="720"  y1="511" x2="720"  y2="556" stroke="#6B7280" stroke-width="2" marker-end="url(#arrowGray)"/>
  <line x1="1000" y1="511" x2="1000" y2="556" stroke="#6B7280" stroke-width="2" marker-end="url(#arrowGray)"/>

  <!-- Concatenate box -->
  <g transform="translate(280, 562)" filter="url(#shadowStrong)">
    <rect x="0" y="0" width="640" height="80" rx="12" fill="url(#concatBg)" stroke="#6EE7B7" stroke-width="2"/>
    <text x="320" y="34" text-anchor="middle" font-size="20" font-weight="700" fill="#065F46">CONCATENATE</text>
    <text x="320" y="60" text-anchor="middle" font-size="13" fill="#064E3B">no merge — partitions are already disjoint, just stitch them together</text>
  </g>

  <!-- arrow down -->
  <line x1="600" y1="647" x2="600" y2="684" stroke="#6B7280" stroke-width="2" marker-end="url(#arrowGray)"/>

  <!-- Final HT -->
  <g transform="translate(380, 690)" filter="url(#shadow)">
    <rect x="0" y="0" width="440" height="60" rx="10" fill="#fff" stroke="#9CA3AF" stroke-width="1.5"/>
    <text x="20" y="36" font-size="14" font-weight="700" fill="#374151">Final hash table</text>
    <g font-family="ui-monospace, 'SF Mono', Menlo, monospace" font-size="15">
      <rect x="150" y="20" width="22" height="22" rx="4" fill="#6366F1"/><text x="161" y="37" text-anchor="middle" font-weight="700" fill="#fff">a</text><text x="188" y="37" fill="#111827">: 4</text>
      <rect x="222" y="20" width="22" height="22" rx="4" fill="#F97316"/><text x="233" y="37" text-anchor="middle" font-weight="700" fill="#fff">b</text><text x="260" y="37" fill="#111827">: 4</text>
      <rect x="294" y="20" width="22" height="22" rx="4" fill="#10B981"/><text x="305" y="37" text-anchor="middle" font-weight="700" fill="#fff">c</text><text x="332" y="37" fill="#111827">: 4</text>
      <rect x="366" y="20" width="22" height="22" rx="4" fill="#EC4899"/><text x="377" y="37" text-anchor="middle" font-weight="700" fill="#fff">d</text><text x="404" y="37" fill="#111827">: 4</text>
    </g>
  </g>
</svg>
