<?xml version="1.0" encoding="utf-8"?>
<!-- Generator: Adobe Illustrator 21.0.2, SVG Export Plug-In . SVG Version: 6.00 Build 0)  -->
<svg version="1.1" id="Layer_1" xmlns="http://www.w3.org/2000/svg" xmlns:xlink="http://www.w3.org/1999/xlink" x="0px" y="0px"
	 viewBox="0 0 74.7 70.5" style="enable-background:new 0 0 74.7 70.5;" xml:space="preserve">
<style type="text/css">
	
		.st0{clip-path:url(#SVGID_2_);fill:none;stroke:#000000;stroke-width:2.3616;stroke-linecap:round;stroke-linejoin:round;stroke-miterlimit:10;}
	.st1{fill:none;stroke:#000000;stroke-width:2.4238;stroke-miterlimit:10;}
	.st2{fill:none;stroke:#000000;stroke-width:2.4238;stroke-linejoin:round;stroke-miterlimit:10;}
	.st3{fill:none;stroke:#000000;stroke-width:2.4242;stroke-miterlimit:10;}
	.st4{clip-path:url(#SVGID_4_);fill:none;stroke:#000000;stroke-width:1.9669;stroke-miterlimit:10;}
	.st5{clip-path:url(#SVGID_6_);fill:none;stroke:#000000;stroke-width:1.9669;stroke-miterlimit:10;}
	.st6{clip-path:url(#SVGID_8_);fill:#FFFFFF;}
	.st7{clip-path:url(#SVGID_10_);fill:none;stroke:#000000;stroke-width:1.9669;stroke-miterlimit:10;}
	.st8{clip-path:url(#SVGID_12_);fill:#FFFFFF;}
	.st9{clip-path:url(#SVGID_14_);fill:none;stroke:#000000;stroke-width:1.9669;stroke-miterlimit:10;}
	.st10{clip-path:url(#SVGID_16_);fill:#FFFFFF;}
	.st11{clip-path:url(#SVGID_18_);fill:none;stroke:#000000;stroke-width:1.9669;stroke-miterlimit:10;}
	.st12{clip-path:url(#SVGID_20_);fill:none;stroke:#000000;stroke-width:1.9669;stroke-miterlimit:10;}
	.st13{clip-path:url(#SVGID_22_);fill:none;stroke:#000000;stroke-width:1.9669;stroke-miterlimit:10;}
	.st14{clip-path:url(#SVGID_24_);fill:none;stroke:#000000;stroke-width:1.9669;stroke-miterlimit:10;}
	.st15{fill:none;stroke:#12100B;stroke-width:2.4736;stroke-linecap:round;stroke-linejoin:round;stroke-miterlimit:10;}
	.st16{fill:#FFFFFF;}
	.st17{fill:none;stroke:#12100B;stroke-width:2.474;stroke-linecap:round;stroke-linejoin:round;stroke-miterlimit:10;}
	.st18{fill:none;stroke:#1E1B15;stroke-width:2.474;stroke-linecap:round;stroke-linejoin:round;stroke-miterlimit:10;}
	.st19{fill:#1E1B15;}
	.st20{fill:none;stroke:#000000;stroke-width:2.474;stroke-miterlimit:10;}
</style>
<g id="Artwork_8">
	<g>
		<g>
			<path class="st16" d="M51.2,20.5c0,7.9-6.4,14.2-14.2,14.2s-14.2-6.4-14.2-14.2S29.1,6.3,37,6.3S51.2,12.6,51.2,20.5"/>
			<ellipse class="st17" cx="37" cy="20.5" rx="14.2" ry="14.2"/>
			<path class="st16" d="M42.9,20.5c0,3.3-2.6,5.9-5.9,5.9s-5.9-2.6-5.9-5.9s2.6-5.9,5.9-5.9C40.2,14.6,42.9,17.3,42.9,20.5"/>
			<ellipse class="st17" cx="37" cy="20.5" rx="5.9" ry="5.9"/>
			<path class="st16" d="M43.6,47.3c1.5,0,5.9-2,7.7-3.1c6.1-3.8,1.6-10.7-3.1-7.7c-5.8,3.7-14.6,4.7-22.5,0
				c-4.7-2.8-9.2,3.8-3.1,7.7c1.8,1.1,6.1,3.1,7.7,3.1s-5.6,7.1-7.7,9.2c-3.8,3.8,2.3,10,6.1,6.1c3.9-3.9,6.4-6.4,7.7-7.7
				c0.3-0.3,0.7-0.3,1,0c1.3,1.3,3.8,3.8,7.7,7.7c3.8,3.8,10-2.3,6.1-6.1C49.2,54.3,42.1,47.3,43.6,47.3"/>
			<path class="st17" d="M43.6,47.3c1.5,0,5.9-2,7.7-3.1c6.1-3.8,1.6-10.7-3.1-7.7c-5.8,3.7-14.6,4.7-22.5,0
				c-4.7-2.8-9.2,3.8-3.1,7.7c1.8,1.1,6.1,3.1,7.7,3.1s-5.6,7.1-7.7,9.2c-3.8,3.8,2.3,10,6.1,6.1c3.9-3.9,6.4-6.4,7.7-7.7
				c0.3-0.3,0.7-0.3,1,0c1.3,1.3,3.8,3.8,7.7,7.7c3.8,3.8,10-2.3,6.1-6.1C49.2,54.3,42.1,47.3,43.6,47.3z"/>
		</g>
	</g>
</g>
</svg>
