<?xml version="1.0" standalone="no"?> <!DOCTYPE svg PUBLIC "-//W3C//DTD SVG 1.0//EN" "http://www.w3.org/TR/2001/REC-SVG-20010904/DTD/svg10.dtd" > <svg xmlns="http://www.w3.org/2000/svg" width="100%" height="100%">
<defs >
<font id="Yandex" horiz-adv-x="517" ><font-face
    font-family="Yandex Sans Display Web"
    units-per-em="1000"
    panose-1="0 0 0 0 0 0 0 0 0 0"
    ascent="800"
    descent="-99"
    alphabetic="0" />
<missing-glyph horiz-adv-x="216" />
<glyph unicode=" " glyph-name="space" horiz-adv-x="216" />
<glyph unicode="!" glyph-name="exclam" horiz-adv-x="250" d="M157 689L146 174H104L93 689H157ZM125 -4Q105 -4 93 9T80 40Q80 60 92 72T125 85Q145 85 157 73T170 40Q170 22 158 9T125 -4Z" />
<glyph unicode="&quot;" glyph-name="quotedbl" horiz-adv-x="332" d="M67 695H130L120 513H76L67 695ZM203 695H266L256 513H212L203 695Z" />
<glyph unicode="#" glyph-name="numbersign" horiz-adv-x="647" d="M422 456H258L226 259H389L422 456ZM381 210H218L183 0H134L168 210H39V259H176L209 456H65V505H217L248 695H298L267 505H430L461 695H511L480 505H608V456H471L439 259H582V210H431L396 0H347L381
210Z" />
<glyph unicode="$" glyph-name="dollar" horiz-adv-x="554" d="M119 526Q119 498 129 478T159 442T203 416T257 396V653Q191 648 155 615T119 526ZM438 183Q438 212 428 233T400 269T357 297T302 319V42Q362 50 400 85T438 183ZM256 -122V-10Q213 -10 178 -4T115
12T68 33T36 54L54 106Q66 97 84 86T128 65T185 48T256 40V333Q219 345 184 358T120 393T75 445T57 523Q57 603 109 650T257 703V803H303V704Q369 702 409 690T473 664L459 609Q430 627 393 639T303 654V382Q339 371 374 358T438 323T485 269T503 187Q503 140 487
105T444 47T380 10T302 -8V-122H256Z" />
<glyph unicode="%" glyph-name="percent" horiz-adv-x="764" d="M151 -10L561 704H612L201 -10H151ZM325 512Q325 467 313 433T281 375T234 339T175 326Q144 326 117 337T70 372T38 429T26 508Q26 553 37 588T69 647T117 683T175 695Q206 695 233 684T281 649T313
591T325 512ZM80 510Q80 433 106 400T175 367Q216 367 243 400T270 510Q270 587 243 620T175 654Q134 654 107 621T80 510ZM737 186Q737 141 726 107T694 48T647 12T589 0Q557 0 530 11T483 46T452 104T440 183Q440 228 451 262T483 321T530 357T589 369Q620 369
647 358T694 323T725 265T737 186ZM589 328Q547 328 521 295T494 184Q494 108 520 75T589 41Q630 41 657 74T685 184Q685 222 678 249T657 294T627 320T589 328Z" />
<glyph unicode="&amp;" glyph-name="ampersand" horiz-adv-x="706" d="M172 539Q172 516 179 496T199 457T226 422T256 388Q325 418 367 454T410 548Q410 591 384 623T300 655Q269 655 246 646T206 620T181 582T172 539ZM271 39Q322 39 363 58T438 108Q420 126
402 146T363 187L228 332Q173 310 138 276T103 181Q103 151 113 125T144 80T196 50T271 39ZM632 1Q587 1 550 20T474 73Q434 36 383 13T268 -10Q209 -10 167 5T96 45T54 106T40 180Q40 218 52 247T86 299T135 339T195 368Q160 407 135 447T110 538Q110 572 122
602T159 654T219 690T299 704Q343 704 375 692T429 658T460 608T471 547Q471 510 456 481T414 428T355 387T288 354L413 221Q430 204 445 187T476 152Q515 205 538 267T569 382L620 366Q612 310 586 242T513 115Q543 87 574 69T642 51Q662 51 677 54T696 58L699
13Q695 11 678 6T632 1Z" />
<glyph unicode="&apos;" glyph-name="quotesingle" horiz-adv-x="196" d="M67 695H130L120 513H76L67 695Z" />
<glyph unicode="(" glyph-name="parenleft" horiz-adv-x="317" d="M234 -135Q192 -92 162 -42T113 63T85 177T76 298Q76 359 85 420T113 538T162 644T234 733H284Q247 695 219 646T173 540T145 423T135 301Q135 177 172 65T284 -135H234Z" />
<glyph unicode=")" glyph-name="parenright" horiz-adv-x="317" d="M76 -135Q118 -92 148 -42T197 63T225 177T234 298Q234 359 225 420T197 538T148 644T76 733H26Q63 695 91 646T137 540T165 423T175 301Q175 177 138 65T26 -135H76Z" />
<glyph unicode="*" glyph-name="asterisk" horiz-adv-x="402" d="M201 506L129 387L84 420L174 527L42 559L59 611L184 559L174 695H228L218 559L343 611L360 559L229 527L317 420L274 387L201 506Z" />
<glyph unicode="+" glyph-name="plus" horiz-adv-x="541" d="M300 306V93H242V306H48V352H242V565H300V352H494V306H300Z" />
<glyph unicode="," glyph-name="comma" horiz-adv-x="202" d="M50 -93Q67 -73 79 -46T95 1Q79 3 69 15T59 43Q59 62 71 74T103 87Q123 87 135 74T148 36Q148 18 143 0T131 -36T114 -69T96 -93H50Z" />
<glyph unicode="-" glyph-name="hyphen" horiz-adv-x="345" d="M56 320H289V268H56V320Z" />
<glyph unicode="." glyph-name="period" horiz-adv-x="201" d="M101 -4Q81 -4 68 9T55 42Q55 62 68 74T101 87Q121 87 134 75T147 42Q147 23 134 10T101 -4Z" />
<glyph unicode="/" glyph-name="slash" horiz-adv-x="364" d="M0 -116L314 733H364L50 -116H0Z" />
<glyph unicode="0" glyph-name="zero" horiz-adv-x="651" d="M326 -10Q268 -10 218 12T132 80T74 192T53 348Q53 437 74 503T131 614T218 681T326 704Q384 704 434 682T520 616T577 505T598 350Q598 262 578 195T521 82T434 13T326 -10ZM325 37Q370 37 408 54T473
109T517 206T533 347Q533 430 518 489T474 585T409 640T326 657Q281 657 243 640T178 586T134 489T118 347Q118 265 133 206T177 110T242 55T325 37Z" />
<glyph unicode="1" glyph-name="one" horiz-adv-x="363" d="M202 0V631L51 492L35 543L203 695H266V0H202Z" />
<glyph unicode="2" glyph-name="two" horiz-adv-x="556" d="M51 0V54Q147 135 214 196T324 309T386 405T406 499Q406 532 397 561T368 611T317 645T242 657Q194 657 152 642T76 602L61 654Q93 675 141 689T247 704Q304 704 346 690T415 649T457 585T471 504Q471
446 449 394T381 289T270 177T115 49H478V0H51Z" />
<glyph unicode="3" glyph-name="three" horiz-adv-x="531" d="M228 -10Q162 -10 113 5T35 42L49 94Q77 72 121 56T232 39Q277 39 310 51T366 85T399 134T410 196Q410 265 368 303T241 342H157V392H245Q311 392 348 427T385 525Q385 553 377 577T350 619T301 647T226
657Q136 657 64 604L52 656Q85 679 131 691T232 704Q337 704 392 656T448 529Q448 494 438 467T410 421T369 389T321 372Q351 366 379 353T428 317T462 265T475 195Q475 148 457 111T407 46T329 5T228 -10Z" />
<glyph unicode="4" glyph-name="four" horiz-adv-x="578" d="M383 625L88 220H383V625ZM444 171V0H383V171H34V227L375 695H444V220H543V171H444Z" />
<glyph unicode="5" glyph-name="five" horiz-adv-x="527" d="M229 -10Q175 -10 127 2T52 35L67 83Q93 65 135 52T226 39Q274 39 311 52T373 89T410 146T423 220Q423 264 411 295T377 347T325 377T258 387Q231 387 210 382T173 369T147 353T129 340H78V695H455V646H136V395Q143
401 154 408T183 421T222 432T273 437Q318 437 357 424T426 383T471 316T488 221Q488 170 470 128T419 55T337 7T229 -10Z" />
<glyph unicode="6" glyph-name="six" horiz-adv-x="577" d="M295 -10Q242 -10 197 7T119 57T68 141T49 256Q49 340 81 411T161 537T267 632T375 695H455V688Q389 655 333 618T234 537T163 446T122 345Q152 394 200 421T314 448Q359 448 399 434T469 391T516 320T533
222Q533 170 515 127T464 54T389 7T295 -10ZM293 37Q329 37 361 48T416 83T454 140T468 221Q468 311 422 357T301 403Q240 403 194 373T115 288Q114 280 114 272T114 256Q114 197 128 156T167 88T224 49T293 37Z" />
<glyph unicode="7" glyph-name="seven" horiz-adv-x="527" d="M117 0L429 642H50V695H490V635L184 0H117Z" />
<glyph unicode="8" glyph-name="eight" horiz-adv-x="569" d="M285 -10Q233 -10 189 3T114 42T64 104T46 187Q46 260 90 306T206 370Q146 386 109 426T71 529Q71 571 87 604T132 659T200 692T286 704Q331 704 370 693T438 660T483 606T500 531Q500 466 463 426T365
371Q436 354 479 309T523 190Q523 143 505 106T455 43T380 4T285 -10ZM286 395Q317 395 345 403T393 428T426 467T438 522Q438 555 427 580T395 622T347 648T286 657Q253 657 225 648T177 622T145 580T133 522Q133 492 145 468T177 428T226 404T286 395ZM285 37Q323
37 355 48T410 80T446 130T459 198Q459 233 446 261T409 308T355 337T286 347Q248 347 216 337T160 308T123 261T110 198Q110 123 158 80T285 37Z" />
<glyph unicode="9" glyph-name="nine" horiz-adv-x="577" d="M143 5Q205 36 258 74T353 157T421 250T457 350Q428 303 379 275T265 247Q219 247 179 261T109 304T62 375T44 473Q44 525 62 567T113 640T190 687T286 704Q335 704 379 687T457 637T509 553T529 436Q529
350 501 280T429 155T336 62T240 0H143V5ZM285 657Q248 657 216 646T160 611T123 554T109 474Q109 429 121 396T156 339T210 305T278 293Q339 293 384 322T463 408Q464 416 464 423T464 439Q464 497 450 538T412 606T355 645T285 657Z" />
<glyph unicode=":" glyph-name="colon" horiz-adv-x="201" d="M101 368Q81 368 68 381T55 414Q55 434 68 446T101 459Q121 459 134 447T147 414Q147 395 134 382T101 368ZM101 -4Q81 -4 68 9T55 42Q55 62 68 74T101 87Q121 87 134 75T147 42Q147 23 134 10T101 -4Z" />
<glyph unicode=";" glyph-name="semicolon" horiz-adv-x="202" d="M50 -93Q67 -73 79 -46T95 1Q79 3 69 15T59 43Q59 62 71 74T103 87Q123 87 135 74T148 36Q148 18 143 0T131 -36T114 -69T96 -93H50ZM101 368Q81 368 68 381T55 414Q55 434 68 446T101 459Q121
459 134 447T147 414Q147 395 134 382T101 368Z" />
<glyph unicode="&lt;" glyph-name="less" horiz-adv-x="484" d="M48 295V360L437 545V491L95 327L437 163V109L48 295Z" />
<glyph unicode="=" glyph-name="equal" horiz-adv-x="542" d="M48 402V448H494V402H48ZM48 206V253H494V206H48Z" />
<glyph unicode="&gt;" glyph-name="greater" horiz-adv-x="484" d="M48 163L390 327L48 491V545L437 359V294L48 109V163Z" />
<glyph unicode="?" glyph-name="question" horiz-adv-x="456" d="M404 528Q404 493 395 466T371 417T336 378T294 343Q270 325 249 309T213 275T189 238T180 191V174H130V194Q130 227 139 252T165 299T206 341T259 383Q277 397 292 411T319 443T336 481T342 528Q342
550 336 572T313 612T267 641T194 653Q168 653 147 648T108 636T80 623T63 612L45 664Q50 668 63 674T95 687T141 699T200 704Q253 704 291 691T355 653T392 597T404 528ZM160 -4Q140 -4 128 9T116 40Q116 60 128 72T160 85Q180 85 192 73T205 40Q205 22 193 9T160
-4Z" />
<glyph unicode="@" glyph-name="at" horiz-adv-x="1007" d="M512 -180Q414 -180 329 -154T180 -75T80 56T43 238Q43 341 79 427T179 574T333 670T528 704Q618 704 697 679T836 606T929 488T964 326Q964 266 950 214T909 122T842 61T748 38Q716 38 692 46T651 68T624
102T609 143Q583 91 541 65T446 38Q414 38 384 49T330 83T292 144T278 235Q278 287 293 333T336 413T402 466T488 486Q542 486 579 458T630 372L661 459H702L663 223Q659 199 661 174T673 128T702 94T754 80Q787 80 816 96T866 143T900 218T913 318Q913 400 883
464T801 573T677 641T524 664Q429 664 351 633T215 547T127 414T95 242Q95 146 127 75T215 -44T348 -115T514 -139Q593 -139 651 -125T735 -96L743 -138Q729 -146 705 -153T650 -167T584 -176T512 -180ZM344 231Q344 189 354 160T380 114T418 88T460 80Q496 80
523 98T570 145T599 213T609 291Q609 330 600 358T576 405T540 433T496 442Q459 442 431 424T383 377T354 309T344 231Z" />
<glyph unicode="A" glyph-name="A" horiz-adv-x="607" d="M297 645L168 268H427L297 645ZM444 220H152L77 0H19L257 695H349L589 0H520L444 220Z" />
<glyph unicode="B" glyph-name="B" horiz-adv-x="580" d="M151 646V385H260Q337 385 384 419T431 525Q431 591 390 618T270 646H151ZM151 336V49H279Q321 49 355 57T413 83T450 129T464 198Q464 270 420 303T279 336H151ZM85 695H270Q382 695 439 655T497 528Q497
456 459 418T356 365Q444 356 488 316T533 199Q533 147 514 110T462 48T381 12T279 0H85V695Z" />
<glyph unicode="C" glyph-name="C" horiz-adv-x="622" d="M372 -10Q301 -10 242 14T139 85T72 197T48 346Q48 430 73 496T142 609T248 679T383 704Q452 704 500 688T583 648L566 591Q529 618 482 636T377 654Q320 654 273 634T191 574T137 477T118 346Q118 274
136 217T188 121T269 61T375 40Q429 40 476 56T561 101L578 55Q549 30 498 10T372 -10Z" />
<glyph unicode="D" glyph-name="D" horiz-adv-x="685" d="M150 646V49H301Q357 49 405 68T489 126T545 224T566 365Q566 446 546 500T491 586T410 632T311 646H150ZM85 695H311Q378 695 437 679T540 624T610 523T636 369Q636 277 610 208T539 93T433 23T300 0H85V695Z" />
<glyph unicode="E" glyph-name="E" horiz-adv-x="539" d="M85 695H477V646H150V389H436V340H150V49H482V0H85V695Z" />
<glyph unicode="F" glyph-name="F" horiz-adv-x="523" d="M150 320V0H85V695H471V646H150V369H431V320H150Z" />
<glyph unicode="G" glyph-name="G" horiz-adv-x="723" d="M669 270Q669 208 651 157T597 68T508 11T384 -10Q311 -10 250 15T145 86T76 198T51 346Q51 429 76 495T146 607T256 679T400 704Q483 704 539 686T627 645L610 587Q574 616 524 635T402 654Q337 654 285
633T197 572T141 475T121 346Q121 275 140 219T193 122T276 61T384 39Q439 39 480 56T549 102T590 173T604 262V307H360V356H669V270V270Z" />
<glyph unicode="H" glyph-name="H" horiz-adv-x="698" d="M548 320H150V0H85V695H150V369H548V695H613V0H548V320Z" />
<glyph unicode="I" glyph-name="I" horiz-adv-x="235" d="M150 695V0H85V695H150Z" />
<glyph unicode="J" glyph-name="J" horiz-adv-x="350" d="M269 695V143Q269 111 261 83T235 35T189 2T122 -10Q96 -10 71 -5T30 11L41 59Q55 51 73 46T114 41Q162 41 183 69T204 147V695H269Z" />
<glyph unicode="K" glyph-name="K" horiz-adv-x="610" d="M503 0L177 354L498 695H566L251 361L585 0H503ZM150 695V0H85V695H150Z" />
<glyph unicode="L" glyph-name="L" horiz-adv-x="527" d="M85 695H150V49H479V0H85V695Z" />
<glyph unicode="M" glyph-name="M" horiz-adv-x="816" d="M167 616L129 0H73L116 695H201L406 167L616 695H700L743 0H678L640 613L434 99L401 98H371L167 616Z" />
<glyph unicode="N" glyph-name="N" horiz-adv-x="702" d="M141 626V0H85V695H169L561 73V695H618V0H535L141 626Z" />
<glyph unicode="O" glyph-name="O" horiz-adv-x="753" d="M376 -10Q308 -10 249 15T145 86T74 199T48 350Q48 434 74 500T144 611T248 680T376 704Q445 704 505 680T609 611T679 500T705 350Q705 266 680 200T610 87T505 15T376 -10ZM376 40Q431 40 478 59T560
117T615 213T635 347Q635 423 615 481T561 577T479 635T376 655Q321 655 274 636T193 578T138 481T118 347Q118 271 138 214T192 118T274 60T376 40Z" />
<glyph unicode="P" glyph-name="P" horiz-adv-x="580" d="M150 646V323H287Q371 323 421 364T471 495Q471 571 426 608T296 646H150ZM150 274V0H85V695H296Q409 695 473 646T537 496Q537 439 519 397T468 328T389 288T287 274H150Z" />
<glyph unicode="Q" glyph-name="Q" horiz-adv-x="756" d="M688 -126Q611 -111 549 -94T436 -59T341 -23T259 11Q214 29 176 59T110 132T66 229T50 349Q50 433 76 499T146 610T250 680T378 704Q447 704 507 680T611 611T681 500T707 350Q707 274 686 212T626 105T534
32T416 -3Q480 -24 550 -39T712 -66L688 -126ZM378 40Q434 40 481 59T563 117T617 213T637 347Q637 423 617 481T563 577T481 635T378 655Q323 655 276 636T195 578T140 481T120 347Q120 271 140 214T194 118T276 60T378 40Z" />
<glyph unicode="R" glyph-name="R" horiz-adv-x="604" d="M150 646V334H286Q326 334 360 343T419 373T457 424T471 500Q471 576 425 611T297 646H150ZM150 285V0H85V695H297Q412 695 475 647T538 500Q538 411 494 362T379 295L564 0H490L311 286Q305 285 299 285T286
285H150Z" />
<glyph unicode="S" glyph-name="S" horiz-adv-x="530" d="M245 -10Q201 -10 167 -4T106 11T61 30T30 51L48 106Q60 96 78 85T122 63T178 47T248 40Q326 40 375 75T424 183Q424 217 411 240T374 279T318 308T247 331Q210 343 175 356T112 391T67 444T50 523Q50
608 110 656T278 704Q352 704 394 691T461 664L447 609Q415 629 376 641T278 654Q198 654 155 620T112 526Q112 495 124 474T158 437T207 410T269 389Q306 377 345 364T417 329T469 274T490 187Q490 134 471 97T417 36T339 1T245 -10Z" />
<glyph unicode="T" glyph-name="T" horiz-adv-x="541" d="M304 646V0H238V646H30V695H512V646H304Z" />
<glyph unicode="U" glyph-name="U" horiz-adv-x="668" d="M70 695H136V239Q136 138 191 90T338 42Q381 42 418 54T482 90T525 151T541 240V695L599 696V243Q599 181 579 134T523 55T439 7T335 -10Q278 -10 230 5T146 52T90 130T70 239V695Z" />
<glyph unicode="V" glyph-name="V" horiz-adv-x="592" d="M17 695H85L301 45L517 695H576L345 0H248L17 695Z" />
<glyph unicode="W" glyph-name="W" horiz-adv-x="871" d="M33 695H101L246 61L413 695H477L642 69L786 695H843L684 0H595L440 592L284 0H193L33 695Z" />
<glyph unicode="X" glyph-name="X" horiz-adv-x="607" d="M297 314L84 0H18L265 361L39 695H115L312 407L510 695H576L345 360L590 0H512L297 314Z" />
<glyph unicode="Y" glyph-name="Y" horiz-adv-x="588" d="M262 0V300L19 695H93L300 354L507 695H569L328 301V0H262Z" />
<glyph unicode="Z" glyph-name="Z" horiz-adv-x="560" d="M45 0V56L447 646H55V695H514V639L110 49H515V0H45Z" />
<glyph unicode="[" glyph-name="bracketleft" horiz-adv-x="370" d="M96 733H343V689H155V-91H343V-135H96V733Z" />
<glyph unicode="\" glyph-name="backslash" horiz-adv-x="362" d="M0 733H50L364 -116H314L0 733Z" />
<glyph unicode="]" glyph-name="bracketright" horiz-adv-x="370" d="M252 733H5V689H193V-91H5V-135H252V733Z" />
<glyph unicode="^" glyph-name="asciicircum" horiz-adv-x="443" d="M222 654L82 444H36L187 695H257L407 444H360L222 654Z" />
<glyph unicode="_" glyph-name="underscore" horiz-adv-x="390" d="M3 -61H387V-108H3V-61Z" />
<glyph unicode="`" glyph-name="grave" horiz-adv-x="427" d="M244 575L148 716H222L292 575H244Z" />
<glyph unicode="a" glyph-name="a" horiz-adv-x="501" d="M221 36Q253 36 277 45T318 70T348 103T367 138V250H297Q197 250 152 225T106 137Q106 87 138 62T221 36ZM381 0Q372 30 369 84Q360 67 347 51T315 21T270 -1T209 -10Q174 -10 144 -1T92 27T58 72T45 134Q45
213 107 251T292 290H367V341Q367 405 338 435T239 466Q190 466 153 451T87 413L68 463Q92 480 139 496T246 513Q335 513 381 474T428 349V88Q428 66 430 40T436 0H381Z" />
<glyph unicode="b" glyph-name="b" horiz-adv-x="589" d="M319 -10Q254 -10 208 21T135 107L127 0H77V725H138V403Q164 454 210 483T321 513Q367 513 407 497T478 448T527 366T545 252Q545 187 527 138T478 56T406 7T319 -10ZM311 35Q348 35 379 48T433 88T469
156T482 252Q482 307 469 347T434 415T380 455T311 469Q274 469 242 456T185 416T147 348T133 252Q133 196 147 156T185 88T241 48T311 35Z" />
<glyph unicode="c" glyph-name="c" horiz-adv-x="479" d="M291 -10Q238 -10 193 7T116 59T65 141T46 252Q46 313 65 361T118 444T197 495T296 513Q341 513 378 504T442 478L424 423Q395 445 365 455T293 466Q254 466 220 452T161 411T122 344T108 252Q108 148
159 93T297 38Q367 38 423 77L439 33Q413 15 376 3T291 -10Z" />
<glyph unicode="d" glyph-name="d" horiz-adv-x="591" d="M281 35Q318 35 350 48T407 89T446 156T460 251Q460 305 446 346T408 414T351 455T281 469Q245 469 214 455T160 414T123 346T109 252Q109 199 122 159T159 91T214 49T281 35ZM457 112Q432 56 386 23T273
-10Q228 -10 188 6T116 56T66 138T47 252Q47 317 65 366T115 447T187 496T273 513Q336 513 382 485T454 405V725H515V0H464L457 112Z" />
<glyph unicode="e" glyph-name="e" horiz-adv-x="512" d="M272 469Q210 469 165 425T110 292H408Q412 337 403 370T376 425T330 458T272 469ZM456 39Q429 18 387 4T284 -10Q170 -10 108 58T46 252Q46 313 63 361T112 444T184 495T274 513Q323 513 362 496T428
446T465 364T466 248H108Q110 145 155 92T289 39Q335 39 372 51T441 83L456 39Z" />
<glyph unicode="f" glyph-name="f" horiz-adv-x="349" d="M170 458V0H109V458H44V503H109V557Q109 641 150 687T266 734Q292 734 309 731T335 724L322 677Q315 680 300 683T265 687Q170 687 170 557V503H322V458H170Z" />
<glyph unicode="g" glyph-name="g" horiz-adv-x="595" d="M283 51Q319 51 351 65T408 105T446 171T460 260Q460 310 446 349T408 414T352 455T282 469Q244 469 212 455T157 415T120 349T107 260Q107 210 120 171T156 106T212 65T283 51ZM267 -189Q193 -189 149
-173T82 -143L103 -91Q113 -98 128 -106T164 -122T210 -135T268 -140Q366 -140 410 -96T455 39V120Q429 68 383 37T273 6Q226 6 185 23T112 72T64 152T46 260Q46 320 64 367T112 447T184 496T274 513Q339 513 386 482T459 396L460 403Q460 435 462 462T466 503H521Q519
490 518 462T516 403V40Q516 -68 456 -128T267 -189Z" />
<glyph unicode="h" glyph-name="h" horiz-adv-x="562" d="M138 0H77V725H138V402H139Q149 424 165 444T205 479T258 504T325 513Q402 513 446 473T490 353V0H429V350Q429 411 398 437T310 464Q276 464 249 455T201 429T165 391T138 346V0Z" />
<glyph unicode="i" glyph-name="i" horiz-adv-x="214" d="M107 597Q87 597 76 609T65 639Q65 656 76 669T107 682Q126 682 137 669T149 639Q149 622 138 610T107 597ZM138 503V0H77V503H138Z" />
<glyph unicode="j" glyph-name="j" horiz-adv-x="218" d="M112 597Q92 597 81 609T69 639Q69 656 80 669T112 682Q131 682 142 669T154 639Q154 622 143 610T112 597ZM143 -26Q143 -59 135 -88T109 -141T62 -179T-9 -196L-17 -146Q35 -141 58 -113T82 -35V503H143V-26Z" />
<glyph unicode="k" glyph-name="k" horiz-adv-x="477" d="M138 725V0H77V725H138ZM383 0L157 267L376 503H441L224 274L456 0H383Z" />
<glyph unicode="l" glyph-name="l" horiz-adv-x="214" d="M138 725V0H77V725H138Z" />
<glyph unicode="m" glyph-name="m" horiz-adv-x="856" d="M138 0H77V503H130L136 401H138Q148 423 163 443T200 479T249 504T312 513Q371 513 409 483T457 393Q479 446 522 479T635 513Q704 513 744 473T784 353V0H722V346Q722 408 694 435T618 463Q586 463 562
453T519 425T486 384T460 335V0H399V352Q399 414 371 438T295 463Q263 463 239 454T197 428T164 390T138 342V0Z" />
<glyph unicode="n" glyph-name="n" horiz-adv-x="563" d="M310 464Q276 464 249 455T201 429T165 391T138 346V0H77V503H133L136 401H138Q148 423 164 443T204 479T258 504T325 513Q403 513 447 473T491 353V0H429V350Q429 411 398 437T310 464Z" />
<glyph unicode="o" glyph-name="o" horiz-adv-x="572" d="M285 -10Q236 -10 193 7T117 58T65 141T46 252Q46 315 65 363T116 445T192 495T285 513Q334 513 378 496T455 445T507 364T527 252Q527 190 508 141T455 59T378 8T285 -10ZM285 36Q321 36 353 48T410 87T449
154T464 252Q464 309 450 349T410 416T353 455T285 468Q250 468 219 456T162 417T123 350T108 252Q108 195 122 155T162 88T218 49T285 36Z" />
<glyph unicode="p" glyph-name="p" horiz-adv-x="590" d="M308 35Q345 35 377 48T432 88T468 156T481 252Q481 306 468 347T432 415T377 455T308 469Q271 469 239 456T182 416T143 348T129 252Q129 196 143 156T181 88T238 48T308 35ZM316 -10Q256 -10 211 17T138
94V-187H77V503H130L136 405Q163 456 209 484T319 513Q364 513 405 497T477 448T526 366T544 252Q544 187 526 138T476 56T404 7T316 -10Z" />
<glyph unicode="q" glyph-name="q" horiz-adv-x="591" d="M452 -187V106Q427 52 382 21T271 -10Q226 -10 186 6T114 56T65 138T46 252Q46 317 64 366T114 447T186 496T272 513Q335 513 381 485T453 404Q454 435 457 463T462 503H518Q516 490 515 461T513 392V-187H452ZM280
35Q317 35 349 48T406 89T445 156T459 251Q459 305 445 345T407 413T350 455T280 469Q244 469 213 455T159 414T122 346T108 252Q108 199 121 159T158 91T213 49T280 35Z" />
<glyph unicode="r" glyph-name="r" horiz-adv-x="338" d="M306 450Q248 449 204 419T138 329V0H77V503H130L136 385H138Q157 432 197 469T306 511V450V450Z" />
<glyph unicode="s" glyph-name="s" horiz-adv-x="446" d="M215 -10Q176 -10 147 -5T96 7T60 23T37 38L56 89Q62 84 75 75T109 58T156 44T215 38Q243 38 267 43T309 60T337 89T347 133Q347 155 339 171T314 198T273 217T216 234Q185 241 155 250T102 275T65 315T50
376Q50 445 99 479T234 513Q291 513 327 503T383 482L369 432Q351 442 319 454T236 467Q209 467 185 463T144 448T117 421T107 380Q107 358 116 343T143 318T182 300T231 287Q261 280 292 271T349 246T391 204T407 137Q407 96 391 68T347 23T286 -2T215 -10Z" />
<glyph unicode="t" glyph-name="t" horiz-adv-x="345" d="M312 9Q300 1 277 -4T228 -10Q160 -10 129 25T97 122V458H32V503H97V604H158V503H298V458H158V127Q158 85 174 63T233 40Q253 40 271 44T301 55L312 9V9Z" />
<glyph unicode="u" glyph-name="u" horiz-adv-x="549" d="M412 101Q402 78 387 58T349 23T297 -1T232 -10Q158 -10 115 32T72 161V503H134V161Q134 127 142 104T166 67T202 47T248 41Q313 41 350 74T412 158V503H473V0H419L413 101H412V101Z" />
<glyph unicode="v" glyph-name="v" horiz-adv-x="484" d="M16 503H80L246 39L411 503H468L285 0H198L16 503Z" />
<glyph unicode="w" glyph-name="w" horiz-adv-x="695" d="M28 503H91L194 45L323 503H383L510 50L612 503H667L552 0H465L348 418L230 0H145L28 503Z" />
<glyph unicode="x" glyph-name="x" horiz-adv-x="470" d="M228 220L77 0H18L199 260L33 503H105L245 303L382 503H442L273 262L453 0H381L228 220Z" />
<glyph unicode="y" glyph-name="y" horiz-adv-x="496" d="M107 -196Q85 -196 70 -193T43 -186L53 -136Q62 -140 74 -143T104 -147Q137 -147 163 -120T219 -29L16 503H82L251 49L424 503H480L289 7Q271 -42 253 -79T213 -143T166 -182T107 -196Z" />
<glyph unicode="z" glyph-name="z" horiz-adv-x="432" d="M35 0V45L330 460H43V503H393V455L100 43H394V0H35Z" />
<glyph unicode="{" glyph-name="braceleft" horiz-adv-x="398" d="M353 -128Q299 -141 261 -136T199 -113T164 -67T152 -4Q152 20 156 40T164 80T173 121T176 166Q176 187 172 205T156 238T124 263T69 276V323Q103 326 124 336T156 361T172 394T176 434Q176 458
173 478T165 518T156 558T152 601Q152 635 163 663T199 710T262 733T353 727V685Q313 693 286 690T243 675T221 643T214 599Q214 576 217 557T224 519T231 480T234 436Q234 416 230 396T215 357T183 323T129 299Q162 290 182 275T214 242T230 204T234 164Q234 140
231 120T224 80T217 42T214 -1Q214 -25 220 -44T243 -76T286 -91T353 -87V-128V-128Z" />
<glyph unicode="|" glyph-name="bar" horiz-adv-x="238" d="M145 733V-116H93V733H145Z" />
<glyph unicode="}" glyph-name="braceright" horiz-adv-x="398" d="M38 -128Q92 -141 130 -136T192 -113T227 -67T239 -4Q239 20 235 40T227 80T218 121T215 166Q215 187 219 205T235 238T267 263T322 276V323Q288 326 267 336T235 361T219 394T215 434Q215 458
218 478T226 518T235 558T239 601Q239 635 228 663T192 710T129 733T38 727V685Q78 693 105 690T148 675T170 643T177 599Q177 576 174 557T167 519T160 480T157 436Q157 416 161 396T176 357T208 323T262 299Q229 290 209 275T177 242T161 204T157 164Q157 140
160 120T167 80T174 42T177 -1Q177 -25 171 -44T148 -76T105 -91T38 -87V-128V-128Z" />
<glyph unicode="~" glyph-name="asciitilde" horiz-adv-x="572" d="M49 244Q46 275 51 303T72 354T112 389T175 402Q216 402 245 387T299 352T347 318T399 302Q436 302 454 326T471 408H523Q527 377 522 349T501 298T461 263T399 249Q358 249 329 265T275 299T227
334T176 350Q139 350 120 325T102 244H49V244Z" />
<glyph unicode="&#xa0;" glyph-name="uni00A0" horiz-adv-x="216" />
<glyph unicode="&#xa1;" glyph-name="exclamdown" horiz-adv-x="250" d="M93 -181L104 334H146L157 -181H93ZM125 512Q145 512 157 499T170 468Q170 448 158 436T125 423Q105 423 93 435T80 468Q80 486 92 499T125 512Z" />
<glyph unicode="&#xa2;" glyph-name="cent" horiz-adv-x="526" d="M469 33Q445 16 411 4T331 -10V-130H286V-9Q238 -4 197 15T127 68T81 148T64 252Q64 309 80 354T127 433T197 486T286 511V612H331V513Q376 512 412 504T473 478L454 423Q427 443 399 453T331
466V38Q366 40 397 50T454 77L469 33ZM126 252Q126 158 169 105T286 41V464Q217 453 172 400T126 252Z" />
<glyph unicode="&#xa3;" glyph-name="sterling" horiz-adv-x="561" d="M519 0H64V35Q116 77 138 119T161 217Q161 242 157 265T146 311H61V356H132Q120 390 111 425T101 501Q101 594 158 649T324 704Q389 704 430 689T495 653L475 602Q451 624 415 639T326 654Q281
654 251 642T201 608T174 558T166 496Q166 458 175 424T195 356H390V311H209Q214 291 217 271T220 229Q220 175 203 134T140 49H519V0Z" />
<glyph unicode="&#xa4;" glyph-name="currency" horiz-adv-x="519" d="M377 181Q353 163 323 153T260 142Q227 142 197 152T142 182L76 116L42 149L108 215Q89 240 79 270T68 333Q68 366 78 396T108 450L42 517L76 550L141 484Q166 503 196 513T260 524Q294 524
323 514T378 484L444 550L477 517L411 450Q430 426 440 397T451 333Q451 300 441 270T411 216L477 149L443 116L377 181ZM260 480Q231 480 206 470T161 440T131 394T120 333Q120 300 131 273T161 226T205 197T260 186Q289 186 314 196T358 226T388 272T399 333Q399
367 388 394T359 440T315 469T260 480Z" />
<glyph unicode="&#xa5;" glyph-name="yen" horiz-adv-x="596" d="M329 166V0H268V166H101V210H268V310H101V354H250L37 695H107L304 379L500 695H559L345 354H497V310H329V210H497V166H329Z" />
<glyph unicode="&#xa6;" glyph-name="brokenbar" horiz-adv-x="242" d="M147 733V345H95V733H147ZM147 272V-116H95V272H147Z" />
<glyph unicode="&#xa7;" glyph-name="section" horiz-adv-x="553" d="M287 153Q359 153 402 180T446 263Q446 320 400 348T268 377Q190 377 148 350T105 269Q105 234 122 212T165 177T223 158T287 153ZM253 -181Q208 -181 172 -175T110 -158T65 -138T37 -118L58
-70Q69 -80 87 -91T130 -111T185 -127T252 -134Q284 -134 312 -128T362 -107T396 -71T409 -18Q409 11 398 31T366 64T313 87T241 104Q203 111 168 122T106 152T63 197T46 263Q46 327 89 365T207 408Q147 425 116 460T85 548Q85 623 141 663T300 704Q333 704 358
701T404 693T441 680T472 665L458 617Q428 635 390 646T300 657Q144 657 144 550Q144 522 156 503T189 470T238 449T298 435Q333 429 370 419T438 390T488 342T508 268Q508 208 468 172T354 124Q409 109 439 74T469 -16Q469 -62 451 -93T402 -144T332 -172T253
-181Z" />
<glyph unicode="&#xa8;" glyph-name="dieresis" horiz-adv-x="427" d="M310 596Q290 596 279 609T267 639Q267 657 278 669T310 682Q330 682 341 670T353 639Q353 622 342 609T310 596ZM117 596Q98 596 86 609T74 639Q74 657 86 669T117 682Q137 682 148 670T160
639Q160 622 149 609T117 596Z" />
<glyph unicode="&#xa9;" glyph-name="copyright" horiz-adv-x="879" d="M439 -93Q353 -93 280 -64T154 19T71 146T41 307Q41 394 71 466T154 592T280 674T439 704Q526 704 599 675T725 592T808 467T838 307Q838 220 808 147T725 20T599 -63T439 -93ZM439 -54Q517
-54 581 -27T692 48T764 162T790 307Q790 385 765 450T693 563T582 638T439 665Q362 665 298 638T187 564T115 451T89 307Q89 229 114 163T186 48T297 -27T439 -54ZM455 97Q410 97 373 111T309 153T269 218T254 306Q254 404 306 458T454 513Q494 513 523 504T570
481L557 438Q538 452 512 460T456 469Q311 469 311 306Q311 225 348 183T458 141Q517 141 562 180L577 140Q557 120 527 109T455 97Z" />
<glyph unicode="&#xaa;" glyph-name="ordfeminine" horiz-adv-x="447" d="M193 347Q231 347 257 363T299 400T322 441T329 469V533H245Q169 533 135 509T100 438Q100 395 124 371T193 347ZM331 400Q324 384 312 368T282 337T239 314T181 305Q119 305 82 339T44
435Q44 505 94 538T239 572H329V610Q329 664 304 689T218 715Q173 715 139 701T82 669L72 713Q92 729 131 744T223 759Q301 759 343 725T386 621V389Q386 371 387 349T390 313H340Q332 343 332 390L331 400Z" />
<glyph unicode="&#xab;" glyph-name="guillemotleft" horiz-adv-x="457" d="M179 87L43 256L179 425H238L104 256L238 87H179ZM355 87L218 256L355 425H414L279 256L414 87H355Z" />
<glyph unicode="&#xac;" glyph-name="logicalnot" horiz-adv-x="559" d="M454 106V315H48V361H512V106H454Z" />
<glyph unicode="&#xae;" glyph-name="registered" horiz-adv-x="879" d="M439 -93Q353 -93 280 -64T154 19T71 146T41 307Q41 394 71 466T154 592T280 674T439 704Q526 704 599 675T725 592T808 467T838 307Q838 220 808 147T725 20T599 -63T439 -93ZM439 -54Q517
-54 581 -27T692 48T764 162T790 307Q790 385 765 450T693 563T582 638T439 665Q362 665 298 638T187 564T115 451T89 307Q89 229 114 163T186 48T297 -27T439 -54ZM367 465V307H444Q486 307 510 326T535 390Q535 432 513 448T449 465H367ZM446 264H367V104H312V508H449Q518
508 555 480T592 392Q592 340 568 312T502 272L604 104H542L446 264Z" />
<glyph unicode="&#xaf;" glyph-name="macron" horiz-adv-x="427" d="M86 661H342V615H86V661Z" />
<glyph unicode="&#xb0;" glyph-name="degree" horiz-adv-x="470" d="M235 351Q197 351 165 364T109 401T72 457T59 528Q59 567 72 599T108 654T164 691T235 704Q273 704 305 691T361 655T398 599T412 528Q412 490 399 458T362 402T306 365T235 351ZM235 391Q292
391 327 428T362 528Q362 590 327 627T235 664Q177 664 143 627T108 528Q108 466 142 429T235 391Z" />
<glyph unicode="&#xb1;" glyph-name="plusminus" horiz-adv-x="542" d="M300 306V111H242V306H48V352H242V565H300V352H494V306H300ZM48 0V47H494V0H48Z" />
<glyph unicode="&#xb2;" glyph-name="twosuperior" horiz-adv-x="364" d="M159 309Q117 309 85 319T35 343L47 382Q64 371 91 361T157 351Q214 351 239 375T265 440Q265 481 240 502T167 524H107V566H170Q205 566 227 584T250 639Q250 673 229 694T156 716Q123
716 98 707T53 685L46 729Q66 743 95 751T162 759Q232 759 269 728T306 645Q306 602 284 578T231 547Q269 542 296 514T324 437Q324 379 281 344T159 309Z" />
<glyph unicode="&#xb3;" glyph-name="threesuperior" horiz-adv-x="365" d="M38 315V351Q100 399 143 436T213 506T252 566T264 623Q264 666 238 691T159 716Q127 716 101 707T57 684L48 728Q65 741 95 750T165 759Q243 759 282 724T322 627Q322 593 310 562T273
499T208 432T115 357H326V315H38Z" />
<glyph unicode="&#xb4;" glyph-name="acute" horiz-adv-x="427" d="M209 716H284L188 575H140L209 716Z" />
<glyph unicode="&#xb6;" glyph-name="paragraph" horiz-adv-x="593" d="M511 -187H459V695H511V-187ZM319 -187V271H288Q233 271 188 284T110 324T59 389T41 482Q41 588 103 641T280 695H372V-187H319Z" />
<glyph unicode="&#xb7;" glyph-name="periodcentered" horiz-adv-x="203" d="M102 220Q82 220 69 233T56 266Q56 286 69 298T102 311Q122 311 135 299T148 266Q148 247 135 234T102 220Z" />
<glyph unicode="&#xb8;" glyph-name="cedilla" horiz-adv-x="427" d="M205 -187Q179 -187 163 -183T139 -174L146 -137Q154 -142 168 -147T202 -152Q222 -152 233 -144T245 -116Q245 -96 230 -88T184 -80H171L199 3H238L219 -51Q261 -53 279 -71T297 -116Q297
-153 270 -170T205 -187Z" />
<glyph unicode="&#xb9;" glyph-name="onesuperior" horiz-adv-x="276" d="M132 315V693L33 604V657L141 753H189V315H132Z" />
<glyph unicode="&#xba;" glyph-name="ordmasculine" horiz-adv-x="487" d="M243 305Q198 305 160 320T94 364T50 436T34 533Q34 587 50 629T94 700T160 744T243 759Q288 759 326 744T393 700T437 629T453 533Q453 479 437 437T393 365T327 320T243 305ZM243 348Q309
348 352 394T396 533Q396 626 353 671T243 716Q210 716 183 705T135 671T104 614T92 533Q92 487 103 453T135 395T182 360T243 348Z" />
<glyph unicode="&#xbb;" glyph-name="guillemotright" horiz-adv-x="457" d="M177 257L43 425H102L238 256L102 87H43L177 257ZM352 256L219 425H278L414 256L278 87H219L352 256Z" />
<glyph unicode="&#xbc;" glyph-name="onequarter" horiz-adv-x="903" d="M152 257V635L53 546V599L161 695H209V257H152ZM133 0L699 695H755L188 0H133ZM730 369L562 144H730V369ZM785 103V1H730V103H510V140L736 439H785V144H850V103H785Z" />
<glyph unicode="&#xbd;" glyph-name="onehalf" horiz-adv-x="969" d="M152 257V635L53 546V599L161 695H209V257H152ZM133 0L699 695H755L188 0H133ZM619 1V37Q681 85 724 122T794 192T833 252T845 309Q845 352 819 377T740 402Q708 402 682 393T638 370L629 414Q646
427 676 436T746 445Q824 445 863 410T903 313Q903 279 891 248T854 185T789 118T696 43H907V1H619Z" />
<glyph unicode="&#xbe;" glyph-name="threequarters" horiz-adv-x="959" d="M179 251Q137 251 105 261T55 285L67 324Q84 313 111 303T177 293Q234 293 259 317T285 382Q285 423 260 444T187 466H127V508H190Q225 508 247 526T270 581Q270 615 249 636T176 658Q143
658 118 649T73 627L66 671Q86 685 115 693T182 701Q252 701 289 670T326 587Q326 544 304 520T251 489Q289 484 316 456T344 379Q344 321 301 286T179 251ZM188 0L754 695H810L243 0H188ZM786 369L618 144H786V369ZM841 103V1H786V103H566V140L792 439H841V144H906V103H841Z"
/>
<glyph unicode="&#xbf;" glyph-name="questiondown" horiz-adv-x="456" d="M30 -21Q30 14 39 41T63 90T98 129T140 164Q164 182 185 198T221 232T245 269T254 316V333H304V313Q304 280 295 255T269 208T228 166T175 124Q157 110 142 96T115 64T98 26T92 -21Q92
-43 98 -65T121 -105T167 -134T240 -146Q266 -146 287 -141T326 -129T354 -116T371 -105L389 -157Q384 -161 371 -167T339 -180T293 -192T234 -197Q181 -197 143 -184T79 -146T42 -90T30 -21ZM274 511Q294 511 306 498T318 467Q318 447 306 435T274 422Q254 422
242 434T229 467Q229 485 241 498T274 511Z" />
<glyph unicode="&#xc0;" glyph-name="Agrave" horiz-adv-x="607" d="M297 645L168 268H427L297 645ZM444 220H152L77 0H19L257 695H349L589 0H520L444 220ZM285 750L187 867H269L340 750H285Z" />
<glyph unicode="&#xc1;" glyph-name="Aacute" horiz-adv-x="607" d="M297 645L168 268H427L297 645ZM444 220H152L77 0H19L257 695H349L589 0H520L444 220ZM341 867H424L325 750H270L341 867Z" />
<glyph unicode="&#xc2;" glyph-name="Acircumflex" horiz-adv-x="607" d="M297 645L168 268H427L297 645ZM444 220H152L77 0H19L257 695H349L589 0H520L444 220ZM302 828L221 754H172L265 867H340L433 754H383L302 828Z" />
<glyph unicode="&#xc3;" glyph-name="Atilde" horiz-adv-x="607" d="M297 645L168 268H427L297 645ZM444 220H152L77 0H19L257 695H349L589 0H520L444 220ZM151 763Q147 802 165 832T228 863Q252 863 271 856T308 839T342 822T375 814Q412 814 412 866H454Q458
827 439 797T377 766Q353 766 333 774T296 791T263 808T230 816Q191 816 193 763H151Z" />
<glyph unicode="&#xc4;" glyph-name="Adieresis" horiz-adv-x="607" d="M297 645L168 268H427L297 645ZM444 220H152L77 0H19L257 695H349L589 0H520L444 220ZM406 769Q387 769 375 781T363 811Q363 829 375 841T406 854Q426 854 437 842T449 811Q449 794 438
782T406 769ZM201 769Q182 769 171 781T159 811Q159 829 170 841T201 854Q221 854 232 842T244 811Q244 794 233 782T201 769Z" />
<glyph unicode="&#xc5;" glyph-name="Aring" horiz-adv-x="607" d="M297 645L168 268H427L297 645ZM444 220H152L77 0H19L257 695H349L589 0H520L444 220ZM303 727Q264 727 238 752T212 818Q212 858 238 883T303 908Q343 908 369 883T396 818Q396 778 370 753T303
727ZM303 762Q326 762 341 777T356 818Q356 842 341 857T303 873Q280 873 266 858T251 818Q251 792 265 777T303 762Z" />
<glyph unicode="&#xc6;" glyph-name="AE" horiz-adv-x="915" d="M464 644L240 267H464V644ZM464 217H211L82 0H21L432 695H853V646H530V389H811V340H530V49H858V0H464V217Z" />
<glyph unicode="&#xc7;" glyph-name="Ccedilla" horiz-adv-x="622" d="M329 -187Q303 -187 287 -183T263 -174L270 -137Q278 -142 292 -147T326 -152Q346 -152 357 -144T369 -116Q369 -96 354 -88T308 -80H295L320 -6Q259 2 209 30T123 103T68 209T48 346Q48 430
73 496T142 609T248 679T383 704Q452 704 500 688T583 648L566 591Q529 618 482 636T377 654Q320 654 273 634T191 574T137 477T118 346Q118 274 136 217T188 121T269 61T375 40Q429 40 476 56T561 101L578 55Q549 30 498 10T372 -10Q368 -10 365 -10T357 -9L343
-51Q385 -53 403 -71T421 -116Q421 -153 394 -170T329 -187Z" />
<glyph unicode="&#xc8;" glyph-name="Egrave" horiz-adv-x="539" d="M85 695H477V646H150V389H436V340H150V49H482V0H85V695ZM272 750L174 867H256L327 750H272Z" />
<glyph unicode="&#xc9;" glyph-name="Eacute" horiz-adv-x="539" d="M85 695H477V646H150V389H436V340H150V49H482V0H85V695ZM329 867H412L313 750H258L329 867Z" />
<glyph unicode="&#xca;" glyph-name="Ecircumflex" horiz-adv-x="539" d="M85 695H477V646H150V389H436V340H150V49H482V0H85V695ZM287 828L206 754H157L250 867H325L418 754H368L287 828Z" />
<glyph unicode="&#xcb;" glyph-name="Edieresis" horiz-adv-x="539" d="M85 695H477V646H150V389H436V340H150V49H482V0H85V695ZM387 769Q368 769 356 781T344 811Q344 829 356 841T387 854Q407 854 418 842T430 811Q430 794 419 782T387 769ZM182 769Q163 769
152 781T140 811Q140 829 151 841T182 854Q202 854 213 842T225 811Q225 794 214 782T182 769Z" />
<glyph unicode="&#xcc;" glyph-name="Igrave" horiz-adv-x="235" d="M150 695V0H85V695H150ZM96 750L-2 867H80L151 750H96Z" />
<glyph unicode="&#xcd;" glyph-name="Iacute" horiz-adv-x="235" d="M150 695V0H85V695H150ZM413 867H496L397 750H342L413 867Z" />
<glyph unicode="&#xce;" glyph-name="Icircumflex" horiz-adv-x="235" d="M150 695V0H85V695H150ZM372 828L291 754H242L335 867H410L503 754H453L372 828Z" />
<glyph unicode="&#xcf;" glyph-name="Idieresis" horiz-adv-x="235" d="M198 769Q178 769 167 781T155 811Q155 829 166 841T198 854Q218 854 229 842T241 811Q241 794 230 782T198 769ZM38 769Q18 769 7 781T-5 811Q-5 829 6 841T38 854Q57 854 68 842T80 811Q80
794 69 782T38 769ZM150 695V0H85V695H150Z" />
<glyph unicode="&#xd0;" glyph-name="Eth" horiz-adv-x="711" d="M175 331V49H331Q388 49 435 68T517 126T571 224T591 365Q591 446 572 500T519 587T440 632T342 646H175V377H389V331H175ZM109 331H19V377H109V695H342Q409 695 467 679T568 624T637 523T662 369Q662
277 637 208T568 93T462 23T330 0H109V331Z" />
<glyph unicode="&#xd1;" glyph-name="Ntilde" horiz-adv-x="702" d="M141 626V0H85V695H169L561 73V695H618V0H535L141 626ZM212 763Q208 802 226 832T289 863Q313 863 332 856T369 839T403 822T436 814Q473 814 473 866H515Q519 827 500 797T438 766Q414 766
394 774T357 791T324 808T291 816Q252 816 254 763H212Z" />
<glyph unicode="&#xd2;" glyph-name="Ograve" horiz-adv-x="753" d="M376 -10Q308 -10 249 15T145 86T74 199T48 350Q48 434 74 500T144 611T248 680T376 704Q445 704 505 680T609 611T679 500T705 350Q705 266 680 200T610 87T505 15T376 -10ZM376 40Q431 40
478 59T560 117T615 213T635 347Q635 423 615 481T561 577T479 635T376 655Q321 655 274 636T193 578T138 481T118 347Q118 271 138 214T192 118T274 60T376 40ZM355 750L257 867H339L410 750H355Z" />
<glyph unicode="&#xd3;" glyph-name="Oacute" horiz-adv-x="753" d="M376 -10Q308 -10 249 15T145 86T74 199T48 350Q48 434 74 500T144 611T248 680T376 704Q445 704 505 680T609 611T679 500T705 350Q705 266 680 200T610 87T505 15T376 -10ZM376 40Q431 40
478 59T560 117T615 213T635 347Q635 423 615 481T561 577T479 635T376 655Q321 655 274 636T193 578T138 481T118 347Q118 271 138 214T192 118T274 60T376 40ZM416 867H499L400 750H345L416 867Z" />
<glyph unicode="&#xd4;" glyph-name="Ocircumflex" horiz-adv-x="753" d="M376 -10Q308 -10 249 15T145 86T74 199T48 350Q48 434 74 500T144 611T248 680T376 704Q445 704 505 680T609 611T679 500T705 350Q705 266 680 200T610 87T505 15T376 -10ZM376 40Q431
40 478 59T560 117T615 213T635 347Q635 423 615 481T561 577T479 635T376 655Q321 655 274 636T193 578T138 481T118 347Q118 271 138 214T192 118T274 60T376 40ZM375 828L294 754H245L338 867H413L506 754H456L375 828Z" />
<glyph unicode="&#xd5;" glyph-name="Otilde" horiz-adv-x="753" d="M376 -10Q308 -10 249 15T145 86T74 199T48 350Q48 434 74 500T144 611T248 680T376 704Q445 704 505 680T609 611T679 500T705 350Q705 266 680 200T610 87T505 15T376 -10ZM376 40Q431 40
478 59T560 117T615 213T635 347Q635 423 615 481T561 577T479 635T376 655Q321 655 274 636T193 578T138 481T118 347Q118 271 138 214T192 118T274 60T376 40ZM225 763Q221 802 239 832T302 863Q326 863 345 856T382 839T416 822T449 814Q486 814 486 866H528Q532
827 513 797T451 766Q427 766 407 774T370 791T337 808T304 816Q265 816 267 763H225Z" />
<glyph unicode="&#xd6;" glyph-name="Odieresis" horiz-adv-x="753" d="M376 -10Q308 -10 249 15T145 86T74 199T48 350Q48 434 74 500T144 611T248 680T376 704Q445 704 505 680T609 611T679 500T705 350Q705 266 680 200T610 87T505 15T376 -10ZM376 40Q431
40 478 59T560 117T615 213T635 347Q635 423 615 481T561 577T479 635T376 655Q321 655 274 636T193 578T138 481T118 347Q118 271 138 214T192 118T274 60T376 40ZM479 769Q460 769 448 781T436 811Q436 829 448 841T479 854Q499 854 510 842T522 811Q522 794
511 782T479 769ZM274 769Q255 769 244 781T232 811Q232 829 243 841T274 854Q294 854 305 842T317 811Q317 794 306 782T274 769Z" />
<glyph unicode="&#xd7;" glyph-name="multiply" horiz-adv-x="518" d="M258 294L82 119L48 153L223 329L48 504L83 539L258 364L436 542L471 507L293 329L471 151L436 116L258 294Z" />
<glyph unicode="&#xd8;" glyph-name="Oslash" horiz-adv-x="756" d="M378 -10Q310 -10 250 15Q227 25 205 38L154 -43H98L167 66Q156 76 146 86Q102 133 76 199T50 350Q50 434 76 500T146 611T250 680T378 704Q447 704 507 680Q526 672 543 662L590 737H647L583
636Q598 624 611 611Q656 566 681 500T707 350Q707 266 682 200T612 87T507 15T378 -10ZM378 40Q433 40 480 59T562 117T617 213T637 347Q637 423 617 481T562 577Q557 583 552 588L233 82Q253 69 276 59Q323 40 378 40ZM480 635Q433 655 378 655Q323 655 276 636T195
578T140 481T120 347Q120 271 140 214T194 117Q196 116 197 114L515 618Q498 628 480 635Z" />
<glyph unicode="&#xd9;" glyph-name="Ugrave" horiz-adv-x="668" d="M70 695H136V239Q136 138 191 90T338 42Q381 42 418 54T482 90T525 151T541 240V695L599 696V243Q599 181 579 134T523 55T439 7T335 -10Q278 -10 230 5T146 52T90 130T70 239V695ZM319 751L221
868H303L374 751H319Z" />
<glyph unicode="&#xda;" glyph-name="Uacute" horiz-adv-x="668" d="M70 695H136V239Q136 138 191 90T338 42Q381 42 418 54T482 90T525 151T541 240V695L599 696V243Q599 181 579 134T523 55T439 7T335 -10Q278 -10 230 5T146 52T90 130T70 239V695ZM380 868H463L364
751H309L380 868Z" />
<glyph unicode="&#xdb;" glyph-name="Ucircumflex" horiz-adv-x="668" d="M70 695H136V239Q136 138 191 90T338 42Q381 42 418 54T482 90T525 151T541 240V695L599 696V243Q599 181 579 134T523 55T439 7T335 -10Q278 -10 230 5T146 52T90 130T70 239V695ZM339
829L258 755H209L302 868H377L470 755H420L339 829Z" />
<glyph unicode="&#xdc;" glyph-name="Udieresis" horiz-adv-x="668" d="M70 695H136V239Q136 138 191 90T338 42Q381 42 418 54T482 90T525 151T541 240V695L599 696V243Q599 181 579 134T523 55T439 7T335 -10Q278 -10 230 5T146 52T90 130T70 239V695ZM443 770Q424
770 412 782T400 812Q400 830 412 842T443 855Q463 855 474 843T486 812Q486 795 475 783T443 770ZM238 770Q219 770 208 782T196 812Q196 830 207 842T238 855Q258 855 269 843T281 812Q281 795 270 783T238 770Z" />
<glyph unicode="&#xdd;" glyph-name="Yacute" horiz-adv-x="588" d="M262 0V300L19 695H93L300 354L507 695H569L328 301V0H262ZM338 867H421L322 750H267L338 867Z" />
<glyph unicode="&#xde;" glyph-name="Thorn" horiz-adv-x="580" d="M151 500V195H289Q331 195 364 204T422 232T459 281T472 356Q472 431 427 465T298 500H151ZM151 146V0H85V695H151V549H298Q409 549 473 504T538 360Q538 304 520 264T469 197T390 159T289 146H151Z" />
<glyph unicode="&#xdf;" glyph-name="germandbls" horiz-adv-x="555" d="M521 132Q521 93 508 66T473 22T421 -2T358 -10Q313 -10 283 -2T230 18L238 66Q258 53 287 45T356 36Q407 36 434 59T462 126Q462 158 446 177T406 210T355 234T303 259T263 293T247 346Q247
382 268 408T316 461T363 517T385 587Q385 633 357 661T271 690Q205 690 172 646T138 517V0H77V517Q77 617 125 675T271 734Q315 734 348 722T402 690T434 643T445 585Q445 554 435 529T408 483T374 445T339 411T313 379T302 348Q302 328 318 315T358 291T411 269T464
240T505 197T521 132Z" />
<glyph unicode="&#xe0;" glyph-name="agrave" horiz-adv-x="506" d="M221 36Q253 36 277 45T318 70T348 103T367 138V250H297Q197 250 152 225T106 137Q106 87 138 62T221 36ZM381 0Q372 30 369 84Q360 67 347 51T315 21T270 -1T209 -10Q174 -10 144 -1T92 27T58
72T45 134Q45 213 107 251T292 290H367V341Q367 405 338 435T239 466Q190 466 153 451T87 413L68 463Q92 480 139 496T246 513Q335 513 381 474T428 349V88Q428 66 430 40T436 0H381ZM483 575L387 716H461L531 575H483Z" />
<glyph unicode="&#xe1;" glyph-name="aacute" horiz-adv-x="506" d="M221 36Q253 36 277 45T318 70T348 103T367 138V250H297Q197 250 152 225T106 137Q106 87 138 62T221 36ZM381 0Q372 30 369 84Q360 67 347 51T315 21T270 -1T209 -10Q174 -10 144 -1T92 27T58
72T45 134Q45 213 107 251T292 290H367V341Q367 405 338 435T239 466Q190 466 153 451T87 413L68 463Q92 480 139 496T246 513Q335 513 381 474T428 349V88Q428 66 430 40T436 0H381ZM290 716H365L269 575H221L290 716Z" />
<glyph unicode="&#xe2;" glyph-name="acircumflex" horiz-adv-x="506" d="M221 36Q253 36 277 45T318 70T348 103T367 138V250H297Q197 250 152 225T106 137Q106 87 138 62T221 36ZM381 0Q372 30 369 84Q360 67 347 51T315 21T270 -1T209 -10Q174 -10 144 -1T92
27T58 72T45 134Q45 213 107 251T292 290H367V341Q367 405 338 435T239 466Q190 466 153 451T87 413L68 463Q92 480 139 496T246 513Q335 513 381 474T428 349V88Q428 66 430 40T436 0H381ZM249 668L162 575H116L215 706H281L381 575H335L249 668Z" />
<glyph unicode="&#xe3;" glyph-name="atilde" horiz-adv-x="506" d="M221 36Q253 36 277 45T318 70T348 103T367 138V250H297Q197 250 152 225T106 137Q106 87 138 62T221 36ZM381 0Q372 30 369 84Q360 67 347 51T315 21T270 -1T209 -10Q174 -10 144 -1T92 27T58
72T45 134Q45 213 107 251T292 290H367V341Q367 405 338 435T239 466Q190 466 153 451T87 413L68 463Q92 480 139 496T246 513Q335 513 381 474T428 349V88Q428 66 430 40T436 0H381ZM101 585Q99 604 102 622T115 653T141 675T180 684Q202 684 219 677T252 660T281
643T311 635Q347 635 347 687H391Q393 668 390 650T377 619T351 597T313 588Q291 588 274 595T241 612T211 629T181 637Q145 637 146 585H101Z" />
<glyph unicode="&#xe4;" glyph-name="adieresis" horiz-adv-x="506" d="M221 36Q253 36 277 45T318 70T348 103T367 138V250H297Q197 250 152 225T106 137Q106 87 138 62T221 36ZM381 0Q372 30 369 84Q360 67 347 51T315 21T270 -1T209 -10Q174 -10 144 -1T92
27T58 72T45 134Q45 213 107 251T292 290H367V341Q367 405 338 435T239 466Q190 466 153 451T87 413L68 463Q92 480 139 496T246 513Q335 513 381 474T428 349V88Q428 66 430 40T436 0H381ZM345 596Q325 596 314 609T302 639Q302 657 313 669T345 682Q365 682 376
670T388 639Q388 622 377 609T345 596ZM152 596Q133 596 121 609T109 639Q109 657 121 669T152 682Q172 682 183 670T195 639Q195 622 184 609T152 596Z" />
<glyph unicode="&#xe5;" glyph-name="aring" horiz-adv-x="506" d="M221 36Q253 36 277 45T318 70T348 103T367 138V250H297Q197 250 152 225T106 137Q106 87 138 62T221 36ZM381 0Q372 30 369 84Q360 67 347 51T315 21T270 -1T209 -10Q174 -10 144 -1T92 27T58
72T45 134Q45 213 107 251T292 290H367V341Q367 405 338 435T239 466Q190 466 153 451T87 413L68 463Q92 480 139 496T246 513Q335 513 381 474T428 349V88Q428 66 430 40T436 0H381ZM248 570Q209 570 183 595T157 661Q157 700 183 725T248 750Q288 750 314 725T341
661Q341 620 315 595T248 570ZM248 605Q271 605 286 620T301 661Q301 685 286 700T248 715Q225 715 211 700T196 661Q196 635 210 620T248 605Z" />
<glyph unicode="&#xe6;" glyph-name="ae" horiz-adv-x="840" d="M600 469Q535 469 489 424T434 290H737Q740 336 731 370T703 426T658 458T600 469ZM785 39Q758 18 716 4T615 -10Q535 -10 481 22T398 117Q390 96 376 74T339 33T285 2T212 -10Q134 -10 90 29T46
141Q46 217 104 253T269 290H372V341Q372 405 342 435T241 466Q192 466 155 451T90 413L71 463Q83 472 101 480T141 496T191 508T248 513Q317 513 360 489T418 412Q447 461 493 487T600 513Q649 513 689 497T756 449T793 366T794 249H432Q433 146 481 93T621 39Q666
39 702 51T770 83L785 39ZM221 36Q260 36 288 50T335 86T364 131T379 175Q372 209 372 249H281Q188 249 148 222T107 140Q107 91 136 64T221 36Z" />
<glyph unicode="&#xe7;" glyph-name="ccedilla" horiz-adv-x="476" d="M246 -187Q220 -187 204 -183T180 -174L187 -137Q195 -142 209 -147T243 -152Q263 -152 274 -144T286 -116Q286 -96 271 -88T225 -80H212L237 -5Q152 11 99 77T46 252Q46 313 65 361T118 444T197
495T296 513Q341 513 378 504T442 478L424 423Q395 445 365 455T293 466Q254 466 220 452T161 411T122 344T108 252Q108 148 159 93T297 38Q367 38 423 77L439 33Q413 15 376 3T291 -10Q286 -10 283 -10T274 -9L260 -51Q302 -53 320 -71T338 -116Q338 -153 311
-170T246 -187Z" />
<glyph unicode="&#xe8;" glyph-name="egrave" horiz-adv-x="512" d="M272 469Q210 469 165 425T110 292H408Q412 337 403 370T376 425T330 458T272 469ZM456 39Q429 18 387 4T284 -10Q170 -10 108 58T46 252Q46 313 63 361T112 444T184 495T274 513Q323 513 362
496T428 446T465 364T466 248H108Q110 145 155 92T289 39Q335 39 372 51T441 83L456 39ZM252 575L156 716H230L300 575H252Z" />
<glyph unicode="&#xe9;" glyph-name="eacute" horiz-adv-x="512" d="M272 469Q210 469 165 425T110 292H408Q412 337 403 370T376 425T330 458T272 469ZM456 39Q429 18 387 4T284 -10Q170 -10 108 58T46 252Q46 313 63 361T112 444T184 495T274 513Q323 513 362
496T428 446T465 364T466 248H108Q110 145 155 92T289 39Q335 39 372 51T441 83L456 39ZM316 716H391L295 575H247L316 716Z" />
<glyph unicode="&#xea;" glyph-name="ecircumflex" horiz-adv-x="512" d="M272 469Q210 469 165 425T110 292H408Q412 337 403 370T376 425T330 458T272 469ZM456 39Q429 18 387 4T284 -10Q170 -10 108 58T46 252Q46 313 63 361T112 444T184 495T274 513Q323 513
362 496T428 446T465 364T466 248H108Q110 145 155 92T289 39Q335 39 372 51T441 83L456 39ZM274 668L187 575H141L240 706H306L406 575H360L274 668Z" />
<glyph unicode="&#xeb;" glyph-name="edieresis" horiz-adv-x="512" d="M272 469Q210 469 165 425T110 292H408Q412 337 403 370T376 425T330 458T272 469ZM456 39Q429 18 387 4T284 -10Q170 -10 108 58T46 252Q46 313 63 361T112 444T184 495T274 513Q323 513
362 496T428 446T465 364T466 248H108Q110 145 155 92T289 39Q335 39 372 51T441 83L456 39ZM370 596Q350 596 339 609T327 639Q327 657 338 669T370 682Q390 682 401 670T413 639Q413 622 402 609T370 596ZM177 596Q158 596 146 609T134 639Q134 657 146 669T177
682Q197 682 208 670T220 639Q220 622 209 609T177 596Z" />
<glyph unicode="&#xec;" glyph-name="igrave" horiz-adv-x="214" d="M138 503V0H77V503H138ZM87 575L-9 716H65L135 575H87Z" />
<glyph unicode="&#xed;" glyph-name="iacute" horiz-adv-x="214" d="M138 503V0H77V503H138ZM407 716H482L386 575H338L407 716Z" />
<glyph unicode="&#xee;" glyph-name="icircumflex" horiz-adv-x="214" d="M109 667L40 575H-4L78 706H140L221 575H178L109 667ZM138 503V0H77V503H138Z" />
<glyph unicode="&#xef;" glyph-name="idieresis" horiz-adv-x="214" d="M190 596Q170 596 159 609T147 639Q147 657 158 669T190 682Q209 682 220 670T232 639Q232 622 221 609T190 596ZM29 596Q10 596 -2 609T-14 639Q-14 657 -2 669T29 682Q49 682 61 670T73
639Q73 622 61 609T29 596ZM138 503V0H77V503H138Z" />
<glyph unicode="&#xf0;" glyph-name="eth" horiz-adv-x="568" d="M281 -10Q230 -10 187 7T111 58T60 141T42 252Q42 315 60 362T109 442T183 491T274 508Q324 508 365 490T433 434Q412 492 373 541T284 628L130 571L118 606L248 654Q186 695 120 718V725H211Q234
716 258 704T307 676L414 716L425 680L344 650Q380 621 413 584T470 502T509 402T524 287Q524 214 506 159T455 66T378 9T281 -10ZM104 252Q104 199 117 159T154 93T210 53T281 39Q320 39 353 52T410 95T447 169T461 276Q461 335 444 383Q420 421 382 442T283 463Q244
463 211 450T155 411T118 346T104 252Z" />
<glyph unicode="&#xf1;" glyph-name="ntilde" horiz-adv-x="563" d="M310 464Q276 464 249 455T201 429T165 391T138 346V0H77V503H133L136 401H138Q148 423 164 443T204 479T258 504T325 513Q403 513 447 473T491 353V0H429V350Q429 411 398 437T310 464ZM134
585Q132 604 135 622T148 653T174 675T213 684Q235 684 252 677T285 660T314 643T344 635Q380 635 380 687H424Q426 668 423 650T410 619T384 597T346 588Q324 588 307 595T274 612T244 629T214 637Q178 637 179 585H134Z" />
<glyph unicode="&#xf2;" glyph-name="ograve" horiz-adv-x="572" d="M285 -10Q236 -10 193 7T117 58T65 141T46 252Q46 315 65 363T116 445T192 495T285 513Q334 513 378 496T455 445T507 364T527 252Q527 190 508 141T455 59T378 8T285 -10ZM285 36Q321 36 353
48T410 87T449 154T464 252Q464 309 450 349T410 416T353 455T285 468Q250 468 219 456T162 417T123 350T108 252Q108 195 122 155T162 88T218 49T285 36ZM264 575L168 716H242L312 575H264Z" />
<glyph unicode="&#xf3;" glyph-name="oacute" horiz-adv-x="572" d="M285 -10Q236 -10 193 7T117 58T65 141T46 252Q46 315 65 363T116 445T192 495T285 513Q334 513 378 496T455 445T507 364T527 252Q527 190 508 141T455 59T378 8T285 -10ZM285 36Q321 36 353
48T410 87T449 154T464 252Q464 309 450 349T410 416T353 455T285 468Q250 468 219 456T162 417T123 350T108 252Q108 195 122 155T162 88T218 49T285 36ZM328 716H403L307 575H259L328 716Z" />
<glyph unicode="&#xf4;" glyph-name="ocircumflex" horiz-adv-x="572" d="M285 -10Q236 -10 193 7T117 58T65 141T46 252Q46 315 65 363T116 445T192 495T285 513Q334 513 378 496T455 445T507 364T527 252Q527 190 508 141T455 59T378 8T285 -10ZM285 36Q321
36 353 48T410 87T449 154T464 252Q464 309 450 349T410 416T353 455T285 468Q250 468 219 456T162 417T123 350T108 252Q108 195 122 155T162 88T218 49T285 36ZM286 668L199 575H153L252 706H318L418 575H372L286 668Z" />
<glyph unicode="&#xf5;" glyph-name="otilde" horiz-adv-x="572" d="M285 -10Q236 -10 193 7T117 58T65 141T46 252Q46 315 65 363T116 445T192 495T285 513Q334 513 378 496T455 445T507 364T527 252Q527 190 508 141T455 59T378 8T285 -10ZM285 36Q321 36 353
48T410 87T449 154T464 252Q464 309 450 349T410 416T353 455T285 468Q250 468 219 456T162 417T123 350T108 252Q108 195 122 155T162 88T218 49T285 36ZM138 585Q136 604 139 622T152 653T178 675T217 684Q239 684 256 677T289 660T318 643T348 635Q384 635 384
687H428Q430 668 427 650T414 619T388 597T350 588Q328 588 311 595T278 612T248 629T218 637Q182 637 183 585H138Z" />
<glyph unicode="&#xf6;" glyph-name="odieresis" horiz-adv-x="572" d="M285 -10Q236 -10 193 7T117 58T65 141T46 252Q46 315 65 363T116 445T192 495T285 513Q334 513 378 496T455 445T507 364T527 252Q527 190 508 141T455 59T378 8T285 -10ZM285 36Q321 36
353 48T410 87T449 154T464 252Q464 309 450 349T410 416T353 455T285 468Q250 468 219 456T162 417T123 350T108 252Q108 195 122 155T162 88T218 49T285 36ZM383 596Q363 596 352 609T340 639Q340 657 351 669T383 682Q403 682 414 670T426 639Q426 622 415 609T383
596ZM190 596Q171 596 159 609T147 639Q147 657 159 669T190 682Q210 682 221 670T233 639Q233 622 222 609T190 596Z" />
<glyph unicode="&#xf7;" glyph-name="divide" horiz-adv-x="541" d="M264 91Q244 91 231 104T218 137Q218 157 231 169T264 182Q284 182 297 170T310 137Q310 118 297 105T264 91ZM264 450Q244 450 231 463T218 496Q218 516 231 528T264 541Q284 541 297 529T310
496Q310 477 297 464T264 450ZM48 302V349H494V302H48Z" />
<glyph unicode="&#xf8;" glyph-name="oslash" horiz-adv-x="572" d="M108 252Q108 192 124 150T167 81L369 450Q332 469 285 469Q248 469 216 456T159 415T122 348T108 252ZM285 35Q323 35 356 48T413 89T450 156T464 252Q464 312 448 355T404 424L202 55Q240
35 285 35ZM285 -10Q228 -10 179 13L143 -54H93L142 35Q97 68 72 122T46 252Q46 315 64 363T115 445T190 495T285 513Q345 513 392 491L427 556H476L429 470Q474 438 500 383T527 252Q527 190 509 141T458 59T381 8T285 -10Z" />
<glyph unicode="&#xf9;" glyph-name="ugrave" horiz-adv-x="549" d="M412 101Q402 78 387 58T349 23T297 -1T232 -10Q158 -10 115 32T72 161V503H134V161Q134 127 142 104T166 67T202 47T248 41Q313 41 350 74T412 158V503H473V0H419L413 101H412V101ZM260 575L164
716H238L308 575H260Z" />
<glyph unicode="&#xfa;" glyph-name="uacute" horiz-adv-x="549" d="M412 101Q402 78 387 58T349 23T297 -1T232 -10Q158 -10 115 32T72 161V503H134V161Q134 127 142 104T166 67T202 47T248 41Q313 41 350 74T412 158V503H473V0H419L413 101H412V101ZM319 716H394L298
575H250L319 716Z" />
<glyph unicode="&#xfb;" glyph-name="ucircumflex" horiz-adv-x="549" d="M412 101Q402 78 387 58T349 23T297 -1T232 -10Q158 -10 115 32T72 161V503H134V161Q134 127 142 104T166 67T202 47T248 41Q313 41 350 74T412 158V503H473V0H419L413 101H412V101ZM278
668L191 575H145L244 706H310L410 575H364L278 668Z" />
<glyph unicode="&#xfc;" glyph-name="udieresis" horiz-adv-x="549" d="M412 101Q402 78 387 58T349 23T297 -1T232 -10Q158 -10 115 32T72 161V503H134V161Q134 127 142 104T166 67T202 47T248 41Q313 41 350 74T412 158V503H473V0H419L413 101H412V101ZM375
596Q355 596 344 609T332 639Q332 657 343 669T375 682Q395 682 406 670T418 639Q418 622 407 609T375 596ZM182 596Q163 596 151 609T139 639Q139 657 151 669T182 682Q202 682 213 670T225 639Q225 622 214 609T182 596Z" />
<glyph unicode="&#xfd;" glyph-name="yacute" horiz-adv-x="496" d="M107 -196Q85 -196 70 -193T43 -186L53 -136Q62 -140 74 -143T104 -147Q137 -147 163 -120T219 -29L16 503H82L251 49L424 503H480L289 7Q271 -42 253 -79T213 -143T166 -182T107 -196ZM296
716H371L275 575H227L296 716Z" />
<glyph unicode="&#xfe;" glyph-name="thorn" horiz-adv-x="590" d="M311 35Q348 35 379 49T433 90T468 158T481 252Q481 305 469 345T434 413T380 455T311 469Q274 469 242 455T187 414T151 347T137 252Q137 198 150 158T187 90T242 49T311 35ZM319 -10Q256 -10
210 21T138 107V-187H77V725H138V399Q163 453 208 483T318 513Q365 513 406 497T478 448T526 366T544 252Q544 187 526 138T477 56T406 7T319 -10Z" />
<glyph unicode="&#xff;" glyph-name="ydieresis" horiz-adv-x="496" d="M107 -196Q85 -196 70 -193T43 -186L53 -136Q62 -140 74 -143T104 -147Q137 -147 163 -120T219 -29L16 503H82L251 49L424 503H480L289 7Q271 -42 253 -79T213 -143T166 -182T107 -196ZM350
596Q330 596 319 609T307 639Q307 657 318 669T350 682Q370 682 381 670T393 639Q393 622 382 609T350 596ZM157 596Q138 596 126 609T114 639Q114 657 126 669T157 682Q177 682 188 670T200 639Q200 622 189 609T157 596Z" />
<glyph unicode="&#x100;" glyph-name="Amacron" horiz-adv-x="607" d="M297 645L168 268H427L297 645ZM444 220H152L77 0H19L257 695H349L589 0H520L444 220ZM180 829H427V782H180V829Z" />
<glyph unicode="&#x101;" glyph-name="amacron" horiz-adv-x="506" d="M221 36Q253 36 277 45T318 70T348 103T367 138V250H297Q197 250 152 225T106 137Q106 87 138 62T221 36ZM381 0Q372 30 369 84Q360 67 347 51T315 21T270 -1T209 -10Q174 -10 144 -1T92 27T58
72T45 134Q45 213 107 251T292 290H367V341Q367 405 338 435T239 466Q190 466 153 451T87 413L68 463Q92 480 139 496T246 513Q335 513 381 474T428 349V88Q428 66 430 40T436 0H381ZM121 661H377V615H121V661Z" />
<glyph unicode="&#x102;" glyph-name="Abreve" horiz-adv-x="607" d="M297 645L168 268H427L297 645ZM444 220H152L77 0H19L257 695H349L589 0H520L444 220ZM303 746Q271 746 248 755T209 781T185 818T176 862H224Q226 830 247 811T303 792Q340 792 360 811T383
862H431Q430 839 422 818T398 781T359 756T303 746Z" />
<glyph unicode="&#x103;" glyph-name="abreve" horiz-adv-x="506" d="M221 36Q253 36 277 45T318 70T348 103T367 138V250H297Q197 250 152 225T106 137Q106 87 138 62T221 36ZM381 0Q372 30 369 84Q360 67 347 51T315 21T270 -1T209 -10Q174 -10 144 -1T92 27T58
72T45 134Q45 213 107 251T292 290H367V341Q367 405 338 435T239 466Q190 466 153 451T87 413L68 463Q92 480 139 496T246 513Q335 513 381 474T428 349V88Q428 66 430 40T436 0H381ZM248 567Q216 567 193 577T155 603T132 642T123 688H171Q173 653 193 634T248
614Q284 614 303 633T325 688H374Q373 664 366 642T343 604T304 577T248 567Z" />
<glyph unicode="&#x104;" glyph-name="Aogonek" horiz-adv-x="627" d="M573 -189Q522 -189 496 -166T470 -105Q470 -70 490 -45T541 -5L460 220H155L77 0H19L267 695H359L609 0Q571 -17 549 -42T527 -98Q527 -147 582 -147Q597 -147 606 -144T624 -136L630 -177Q623
-181 609 -185T573 -189ZM307 647L172 268H443L307 647Z" />
<glyph unicode="&#x105;" glyph-name="aogonek" horiz-adv-x="501" d="M408 -189Q357 -189 331 -166T305 -105Q305 -70 328 -43T381 2Q372 32 369 84Q360 67 347 51T315 21T270 -1T209 -10Q174 -10 144 -1T92 27T58 72T45 134Q45 213 107 251T292 290H367V341Q367
405 338 435T239 466Q190 466 153 451T87 413L68 463Q92 480 139 496T246 513Q335 513 381 474T428 349V88Q428 66 430 40T436 0Q404 -17 383 -42T362 -98Q362 -147 416 -147Q432 -147 441 -144T458 -136L464 -177Q458 -181 444 -185T408 -189ZM221 36Q253 36 277
45T318 70T348 103T367 138V250H297Q197 250 152 225T106 137Q106 87 138 62T221 36Z" />
<glyph unicode="&#x106;" glyph-name="Cacute" horiz-adv-x="622" d="M372 -10Q301 -10 242 14T139 85T72 197T48 346Q48 430 73 496T142 609T248 679T383 704Q452 704 500 688T583 648L566 591Q529 618 482 636T377 654Q320 654 273 634T191 574T137 477T118
346Q118 274 136 217T188 121T269 61T375 40Q429 40 476 56T561 101L578 55Q549 30 498 10T372 -10ZM413 867H496L397 750H342L413 867Z" />
<glyph unicode="&#x107;" glyph-name="cacute" horiz-adv-x="476" d="M291 -10Q238 -10 193 7T116 59T65 141T46 252Q46 313 65 361T118 444T197 495T296 513Q341 513 378 504T442 478L424 423Q395 445 365 455T293 466Q254 466 220 452T161 411T122 344T108 252Q108
148 159 93T297 38Q367 38 423 77L439 33Q413 15 376 3T291 -10ZM320 716H395L299 575H251L320 716Z" />
<glyph unicode="&#x108;" glyph-name="Ccircumflex" horiz-adv-x="622" d="M372 -10Q301 -10 242 14T139 85T72 197T48 346Q48 430 73 496T142 609T248 679T383 704Q452 704 500 688T583 648L566 591Q529 618 482 636T377 654Q320 654 273 634T191 574T137 477T118
346Q118 274 136 217T188 121T269 61T375 40Q429 40 476 56T561 101L578 55Q549 30 498 10T372 -10ZM372 828L291 754H242L335 867H410L503 754H453L372 828Z" />
<glyph unicode="&#x109;" glyph-name="ccircumflex" horiz-adv-x="476" d="M291 -10Q238 -10 193 7T116 59T65 141T46 252Q46 313 65 361T118 444T197 495T296 513Q341 513 378 504T442 478L424 423Q395 445 365 455T293 466Q254 466 220 452T161 411T122 344T108
252Q108 148 159 93T297 38Q367 38 423 77L439 33Q413 15 376 3T291 -10ZM279 668L192 575H146L245 706H311L411 575H365L279 668Z" />
<glyph unicode="&#x10a;" glyph-name="Cdotaccent" horiz-adv-x="622" d="M372 -10Q301 -10 242 14T139 85T72 197T48 346Q48 430 73 496T142 609T248 679T383 704Q452 704 500 688T583 648L566 591Q529 618 482 636T377 654Q320 654 273 634T191 574T137 477T118
346Q118 274 136 217T188 121T269 61T375 40Q429 40 476 56T561 101L578 55Q549 30 498 10T372 -10ZM374 769Q355 769 344 781T332 811Q332 829 343 841T374 854Q394 854 406 842T418 811Q418 794 406 782T374 769Z" />
<glyph unicode="&#x10b;" glyph-name="cdotaccent" horiz-adv-x="476" d="M291 -10Q238 -10 193 7T116 59T65 141T46 252Q46 313 65 361T118 444T197 495T296 513Q341 513 378 504T442 478L424 423Q395 445 365 455T293 466Q254 466 220 452T161 411T122 344T108
252Q108 148 159 93T297 38Q367 38 423 77L439 33Q413 15 376 3T291 -10ZM278 596Q259 596 248 609T236 639Q236 657 247 669T278 682Q298 682 310 670T322 639Q322 622 310 609T278 596Z" />
<glyph unicode="&#x10c;" glyph-name="Ccaron" horiz-adv-x="622" d="M372 -10Q301 -10 242 14T139 85T72 197T48 346Q48 430 73 496T142 609T248 679T383 704Q452 704 500 688T583 648L566 591Q529 618 482 636T377 654Q320 654 273 634T191 574T137 477T118
346Q118 274 136 217T188 121T269 61T375 40Q429 40 476 56T561 101L578 55Q549 30 498 10T372 -10ZM335 754L242 867H291L372 793L453 867H503L410 754H335Z" />
<glyph unicode="&#x10d;" glyph-name="ccaron" horiz-adv-x="476" d="M291 -10Q238 -10 193 7T116 59T65 141T46 252Q46 313 65 361T118 444T197 495T296 513Q341 513 378 504T442 478L424 423Q395 445 365 455T293 466Q254 466 220 452T161 411T122 344T108 252Q108
148 159 93T297 38Q367 38 423 77L439 33Q413 15 376 3T291 -10ZM246 575L146 706H192L279 613L365 706H411L312 575H246Z" />
<glyph unicode="&#x10e;" glyph-name="Dcaron" horiz-adv-x="685" d="M150 646V49H301Q357 49 405 68T489 126T545 224T566 365Q566 446 546 500T491 586T410 632T311 646H150ZM85 695H311Q378 695 437 679T540 624T610 523T636 369Q636 277 610 208T539 93T433
23T300 0H85V695ZM296 754L203 867H252L333 793L414 867H464L371 754H296Z" />
<glyph unicode="&#x10f;" glyph-name="dcaron" horiz-adv-x="591" d="M281 35Q318 35 350 48T407 89T446 156T460 251Q460 305 446 346T408 414T351 455T281 469Q245 469 214 455T160 414T123 346T109 252Q109 199 122 159T159 91T214 49T281 35ZM457 112Q432
56 386 23T273 -10Q228 -10 188 6T116 56T66 138T47 252Q47 317 65 366T115 447T187 496T273 513Q336 513 382 485T454 405V725H515V0H464L457 112ZM567 572L592 725H655L606 572H567Z" />
<glyph unicode="&#x110;" glyph-name="Dcroat" horiz-adv-x="710" d="M429 331V49H585Q642 49 689 68T771 126T825 224T845 365Q845 446 826 500T773 587T694 632T596 646H429V377H643V331H429ZM363 331H273V377H363V695H596Q663 695 721 679T822 624T891 523T916
369Q916 277 891 208T822 93T716 23T584 0H363V331Z" />
<glyph unicode="&#x111;" glyph-name="dcroat" horiz-adv-x="588" d="M455 112Q430 56 384 23T271 -10Q226 -10 186 6T114 56T64 138T45 252Q45 317 63 366T113 447T185 496T271 513Q334 513 380 485T452 405V585H281V628H452V725H513V628H590V585H513V0H462L455
112ZM279 35Q316 35 348 48T405 89T444 156T458 251Q458 305 444 346T406 414T349 455T279 469Q243 469 212 455T158 414T121 346T107 252Q107 199 120 159T157 91T212 49T279 35Z" />
<glyph unicode="&#x112;" glyph-name="Emacron" horiz-adv-x="539" d="M85 695H477V646H150V389H436V340H150V49H482V0H85V695ZM165 829H412V782H165V829Z" />
<glyph unicode="&#x113;" glyph-name="emacron" horiz-adv-x="512" d="M272 469Q210 469 165 425T110 292H408Q412 337 403 370T376 425T330 458T272 469ZM456 39Q429 18 387 4T284 -10Q170 -10 108 58T46 252Q46 313 63 361T112 444T184 495T274 513Q323 513
362 496T428 446T465 364T466 248H108Q110 145 155 92T289 39Q335 39 372 51T441 83L456 39ZM146 661H402V615H146V661Z" />
<glyph unicode="&#x114;" glyph-name="Ebreve" horiz-adv-x="539" d="M85 695H477V646H150V389H436V340H150V49H482V0H85V695ZM285 746Q253 746 230 755T191 781T167 818T158 862H206Q208 830 229 811T285 792Q322 792 342 811T365 862H413Q412 839 404 818T380
781T341 756T285 746Z" />
<glyph unicode="&#x115;" glyph-name="ebreve" horiz-adv-x="512" d="M272 469Q210 469 165 425T110 292H408Q412 337 403 370T376 425T330 458T272 469ZM456 39Q429 18 387 4T284 -10Q170 -10 108 58T46 252Q46 313 63 361T112 444T184 495T274 513Q323 513 362
496T428 446T465 364T466 248H108Q110 145 155 92T289 39Q335 39 372 51T441 83L456 39ZM273 567Q241 567 218 577T180 603T157 642T148 688H196Q198 653 218 634T273 614Q309 614 328 633T350 688H399Q398 664 391 642T368 604T329 577T273 567Z" />
<glyph unicode="&#x116;" glyph-name="Edotaccent" horiz-adv-x="539" d="M85 695H477V646H150V389H436V340H150V49H482V0H85V695ZM291 769Q272 769 261 781T249 811Q249 829 260 841T291 854Q311 854 323 842T335 811Q335 794 323 782T291 769Z" />
<glyph unicode="&#x117;" glyph-name="edotaccent" horiz-adv-x="512" d="M272 469Q210 469 165 425T110 292H408Q412 337 403 370T376 425T330 458T272 469ZM456 39Q429 18 387 4T284 -10Q170 -10 108 58T46 252Q46 313 63 361T112 444T184 495T274 513Q323 513
362 496T428 446T465 364T466 248H108Q110 145 155 92T289 39Q335 39 372 51T441 83L456 39ZM273 596Q254 596 243 609T231 639Q231 657 242 669T273 682Q293 682 305 670T317 639Q317 622 305 609T273 596Z" />
<glyph unicode="&#x118;" glyph-name="Eogonek" horiz-adv-x="539" d="M85 695H477V646H150V389H436V340H150V49H482V0H85V695ZM427 -189Q376 -189 350 -166T324 -105Q324 -67 347 -41T401 0H457Q424 -17 403 -42T381 -98Q381 -147 436 -147Q451 -147 460 -144T478
-136L484 -177Q477 -181 463 -185T427 -189Z" />
<glyph unicode="&#x119;" glyph-name="eogonek" horiz-adv-x="510" d="M310 -98Q310 -147 365 -147Q380 -147 389 -144T407 -136L413 -177Q406 -181 392 -185T356 -189Q305 -189 279 -166T253 -105Q253 -52 315 -9Q308 -10 301 -10T286 -10Q170 -10 108 58T46
252Q46 313 63 361T111 444T183 495T274 513Q322 513 361 496T427 446T463 363T464 248H108Q111 145 157 92T291 39Q342 39 378 54T439 88L456 44Q449 37 438 30T411 15Q357 -12 334 -39T310 -98ZM273 469Q242 469 214 458T163 424T127 369T109 292H406Q410 337
402 370T375 425T330 458T273 469Z" />
<glyph unicode="&#x11a;" glyph-name="Ecaron" horiz-adv-x="539" d="M85 695H477V646H150V389H436V340H150V49H482V0H85V695ZM253 754L160 867H209L290 793L371 867H421L328 754H253Z" />
<glyph unicode="&#x11b;" glyph-name="ecaron" horiz-adv-x="512" d="M272 469Q210 469 165 425T110 292H408Q412 337 403 370T376 425T330 458T272 469ZM456 39Q429 18 387 4T284 -10Q170 -10 108 58T46 252Q46 313 63 361T112 444T184 495T274 513Q323 513 362
496T428 446T465 364T466 248H108Q110 145 155 92T289 39Q335 39 372 51T441 83L456 39ZM241 575L141 706H187L274 613L360 706H406L307 575H241Z" />
<glyph unicode="&#x11c;" glyph-name="Gcircumflex" horiz-adv-x="723" d="M669 270Q669 208 651 157T597 68T508 11T384 -10Q311 -10 250 15T145 86T76 198T51 346Q51 429 76 495T146 607T256 679T400 704Q483 704 539 686T627 645L610 587Q574 616 524 635T402
654Q337 654 285 633T197 572T141 475T121 346Q121 275 140 219T193 122T276 61T384 39Q439 39 480 56T549 102T590 173T604 262V307H360V356H669V270V270ZM374 828L293 754H244L337 867H412L505 754H455L374 828Z" />
<glyph unicode="&#x11d;" glyph-name="gcircumflex" horiz-adv-x="595" d="M283 51Q319 51 351 65T408 105T446 171T460 260Q460 310 446 349T408 414T352 455T282 469Q244 469 212 455T157 415T120 349T107 260Q107 210 120 171T156 106T212 65T283 51ZM267 -189Q193
-189 149 -173T82 -143L103 -91Q113 -98 128 -106T164 -122T210 -135T268 -140Q366 -140 410 -96T455 39V120Q429 68 383 37T273 6Q226 6 185 23T112 72T64 152T46 260Q46 320 64 367T112 447T184 496T274 513Q339 513 386 482T459 396L460 403Q460 435 462 462T466
503H521Q519 490 518 462T516 403V40Q516 -68 456 -128T267 -189ZM285 668L198 575H152L251 706H317L417 575H371L285 668Z" />
<glyph unicode="&#x11e;" glyph-name="Gbreve" horiz-adv-x="723" d="M669 270Q669 208 651 157T597 68T508 11T384 -10Q311 -10 250 15T145 86T76 198T51 346Q51 429 76 495T146 607T256 679T400 704Q483 704 539 686T627 645L610 587Q574 616 524 635T402 654Q337
654 285 633T197 572T141 475T121 346Q121 275 140 219T193 122T276 61T384 39Q439 39 480 56T549 102T590 173T604 262V307H360V356H669V270V270ZM375 746Q343 746 320 755T281 781T257 818T248 862H296Q298 830 319 811T375 792Q412 792 432 811T455 862H503Q502
839 494 818T470 781T431 756T375 746Z" />
<glyph unicode="&#x11f;" glyph-name="gbreve" horiz-adv-x="595" d="M283 51Q319 51 351 65T408 105T446 171T460 260Q460 310 446 349T408 414T352 455T282 469Q244 469 212 455T157 415T120 349T107 260Q107 210 120 171T156 106T212 65T283 51ZM267 -189Q193
-189 149 -173T82 -143L103 -91Q113 -98 128 -106T164 -122T210 -135T268 -140Q366 -140 410 -96T455 39V120Q429 68 383 37T273 6Q226 6 185 23T112 72T64 152T46 260Q46 320 64 367T112 447T184 496T274 513Q339 513 386 482T459 396L460 403Q460 435 462 462T466
503H521Q519 490 518 462T516 403V40Q516 -68 456 -128T267 -189ZM284 567Q252 567 229 577T191 603T168 642T159 688H207Q209 653 229 634T284 614Q320 614 339 633T361 688H410Q409 664 402 642T379 604T340 577T284 567Z" />
<glyph unicode="&#x120;" glyph-name="Gdotaccent" horiz-adv-x="723" d="M669 270Q669 208 651 157T597 68T508 11T384 -10Q311 -10 250 15T145 86T76 198T51 346Q51 429 76 495T146 607T256 679T400 704Q483 704 539 686T627 645L610 587Q574 616 524 635T402
654Q337 654 285 633T197 572T141 475T121 346Q121 275 140 219T193 122T276 61T384 39Q439 39 480 56T549 102T590 173T604 262V307H360V356H669V270V270ZM375 769Q356 769 345 781T333 811Q333 829 344 841T375 854Q395 854 407 842T419 811Q419 794 407 782T375
769Z" />
<glyph unicode="&#x121;" glyph-name="gdotaccent" horiz-adv-x="595" d="M283 51Q319 51 351 65T408 105T446 171T460 260Q460 310 446 349T408 414T352 455T282 469Q244 469 212 455T157 415T120 349T107 260Q107 210 120 171T156 106T212 65T283 51ZM267 -189Q193
-189 149 -173T82 -143L103 -91Q113 -98 128 -106T164 -122T210 -135T268 -140Q366 -140 410 -96T455 39V120Q429 68 383 37T273 6Q226 6 185 23T112 72T64 152T46 260Q46 320 64 367T112 447T184 496T274 513Q339 513 386 482T459 396L460 403Q460 435 462 462T466
503H521Q519 490 518 462T516 403V40Q516 -68 456 -128T267 -189ZM284 596Q265 596 254 609T242 639Q242 657 253 669T284 682Q304 682 316 670T328 639Q328 622 316 609T284 596Z" />
<glyph unicode="&#x122;" glyph-name="uni0122" horiz-adv-x="723" d="M669 270Q669 208 651 157T597 68T508 11T384 -10Q311 -10 250 15T145 86T76 198T51 346Q51 429 76 495T146 607T256 679T400 704Q483 704 539 686T627 645L610 587Q574 616 524 635T402 654Q337
654 285 633T197 572T141 475T121 346Q121 275 140 219T193 122T276 61T384 39Q439 39 480 56T549 102T590 173T604 262V307H360V356H669V270V270ZM336 -194Q349 -181 359 -166T378 -129Q362 -127 353 -117T343 -90Q343 -73 354 -62T383 -51Q401 -51 413 -62T426
-100Q426 -129 411 -153T380 -194H336Z" />
<glyph unicode="&#x123;" glyph-name="uni0123" horiz-adv-x="595" d="M283 51Q319 51 351 65T408 105T446 171T460 260Q460 310 446 349T408 414T352 455T282 469Q244 469 212 455T157 415T120 349T107 260Q107 210 120 171T156 106T212 65T283 51ZM267 -189Q193
-189 149 -173T82 -143L103 -91Q113 -98 128 -106T164 -122T210 -135T268 -140Q366 -140 410 -96T455 39V120Q429 68 383 37T273 6Q226 6 185 23T112 72T64 152T46 260Q46 320 64 367T112 447T184 496T274 513Q339 513 386 482T459 396L460 403Q460 435 462 462T466
503H521Q519 490 518 462T516 403V40Q516 -68 456 -128T267 -189ZM272 598Q254 598 242 609T229 647Q229 676 244 700T275 741H319Q306 728 296 713T277 676Q293 674 302 664T312 637Q312 620 301 609T272 598Z" />
<glyph unicode="&#x124;" glyph-name="Hcircumflex" horiz-adv-x="697" d="M548 320H150V0H85V695H150V369H548V695H613V0H548V320ZM354 828L273 754H224L317 867H392L485 754H435L354 828Z" />
<glyph unicode="&#x125;" glyph-name="hcircumflex" horiz-adv-x="562" d="M138 0H77V725H138V402H139Q149 424 165 444T205 479T258 504T325 513Q402 513 446 473T490 353V0H429V350Q429 411 398 437T310 464Q276 464 249 455T201 429T165 391T138 346V0ZM286
858L205 784H156L249 897H324L417 784H367L286 858Z" />
<glyph unicode="&#x126;" glyph-name="Hbar" horiz-adv-x="735" d="M566 320H168V0H103V515H9V562H103V695H168V562H566V695H631V562H726V515H631V0H566V320ZM566 369V515H168V369H566Z" />
<glyph unicode="&#x127;" glyph-name="hbar" horiz-adv-x="562" d="M138 0H77V585H-7V628H77V725H138V628H302V585H138V402H139Q149 424 165 444T205 479T258 504T325 513Q402 513 446 473T490 353V0H429V350Q429 411 398 437T310 464Q276 464 249 455T201 429T165
391T138 346V0Z" />
<glyph unicode="&#x128;" glyph-name="Itilde" horiz-adv-x="235" d="M150 695V0H85V695H150ZM222 763Q218 802 236 832T299 863Q323 863 342 856T379 839T413 822T446 814Q483 814 483 866H525Q529 827 510 797T448 766Q424 766 404 774T367 791T334 808T301
816Q262 816 264 763H222Z" />
<glyph unicode="&#x129;" glyph-name="itilde" horiz-adv-x="214" d="M138 503V0H77V503H138ZM218 585Q216 604 219 622T232 653T258 675T297 684Q319 684 336 677T369 660T398 643T428 635Q464 635 464 687H508Q510 668 507 650T494 619T468 597T430 588Q408
588 391 595T358 612T328 629T298 637Q262 637 263 585H218Z" />
<glyph unicode="&#x12a;" glyph-name="Imacron" horiz-adv-x="235" d="M150 695V0H85V695H150ZM250 829H497V782H250V829Z" />
<glyph unicode="&#x12b;" glyph-name="imacron" horiz-adv-x="214" d="M16 661H199V615H16V661ZM138 503V0H77V503H138Z" />
<glyph unicode="&#x12c;" glyph-name="Ibreve" horiz-adv-x="235" d="M150 695V0H85V695H150ZM373 746Q341 746 318 755T279 781T255 818T246 862H294Q296 830 317 811T373 792Q410 792 430 811T453 862H501Q500 839 492 818T468 781T429 756T373 746Z" />
<glyph unicode="&#x12d;" glyph-name="ibreve" horiz-adv-x="214" d="M138 503V0H77V503H138ZM365 567Q333 567 310 577T272 603T249 642T240 688H288Q290 653 310 634T365 614Q401 614 420 633T442 688H491Q490 664 483 642T460 604T421 577T365 567Z" />
<glyph unicode="&#x12e;" glyph-name="Iogonek" horiz-adv-x="235" d="M19 -107Q19 -72 38 -47T85 -4V695H150V0Q117 -19 97 -43T76 -98Q76 -147 128 -147Q143 -147 152 -144T170 -136L176 -177Q169 -181 155 -185T120 -189Q71 -189 45 -167T19 -107Z" />
<glyph unicode="&#x12f;" glyph-name="iogonek" horiz-adv-x="214" d="M108 596Q88 596 76 609T64 639Q64 657 76 670T108 683Q127 683 138 670T150 639Q150 622 139 609T108 596ZM109 -189Q60 -189 34 -167T8 -107Q8 -72 28 -46T77 -2V503H138V0Q106 -18 86 -43T65
-98Q65 -147 117 -147Q132 -147 141 -144T159 -136L165 -177Q158 -181 144 -185T109 -189Z" />
<glyph unicode="&#x130;" glyph-name="Idotaccent" horiz-adv-x="235" d="M150 695V0H85V695H150ZM373 769Q354 769 343 781T331 811Q331 829 342 841T373 854Q393 854 405 842T417 811Q417 794 405 782T373 769Z" />
<glyph unicode="&#x131;" glyph-name="dotlessi" horiz-adv-x="214" d="M138 503V0H77V503H138Z" />
<glyph unicode="&#x132;" glyph-name="IJ" horiz-adv-x="560" d="M151 695V0H85V695H151ZM479 695V143Q479 111 471 83T445 35T399 2T332 -10Q306 -10 281 -5T239 11L247 59Q262 51 281 46T324 41Q372 41 392 68T413 147V695H479Z" />
<glyph unicode="&#x133;" glyph-name="ij" horiz-adv-x="435" d="M107 597Q87 597 76 609T65 639Q65 656 76 669T107 682Q126 682 137 669T149 639Q149 622 138 610T107 597ZM138 503V0H77V503H138ZM327 597Q307 597 296 609T284 639Q284 656 295 669T327 682Q346
682 357 669T369 639Q369 622 358 610T327 597ZM358 -26Q358 -59 350 -88T324 -141T277 -179T206 -196L198 -146Q250 -141 273 -113T297 -35V503H358V-26Z" />
<glyph unicode="&#x134;" glyph-name="Jcircumflex" horiz-adv-x="350" d="M269 695V143Q269 111 261 83T235 35T189 2T122 -10Q96 -10 71 -5T30 11L41 59Q55 51 73 46T114 41Q162 41 183 69T204 147V695H269ZM234 828L153 754H104L197 867H272L365 754H315L234 828Z" />
<glyph unicode="&#x135;" glyph-name="jcircumflex" horiz-adv-x="212" d="M114 667L45 575H2L83 706H145L226 575H183L114 667ZM145 -26Q145 -59 137 -89T110 -142T63 -180T-7 -196L-18 -147Q35 -146 59 -115T84 -35V503H145V-26Z" />
<glyph unicode="&#x136;" glyph-name="uni0136" horiz-adv-x="610" d="M503 0L177 354L498 695H566L251 361L585 0H503ZM150 695V0H85V695H150ZM261 -194Q274 -181 284 -166T303 -129Q287 -127 278 -117T268 -90Q268 -73 279 -62T308 -51Q326 -51 338 -62T351
-100Q351 -129 336 -153T305 -194H261Z" />
<glyph unicode="&#x137;" glyph-name="uni0137" horiz-adv-x="477" d="M138 725V0H77V725H138ZM383 0L157 267L376 503H441L224 274L456 0H383ZM200 -194Q213 -181 223 -166T242 -129Q226 -127 217 -117T207 -90Q207 -73 218 -62T247 -51Q265 -51 277 -62T290
-100Q290 -129 275 -153T244 -194H200Z" />
<glyph unicode="&#x139;" glyph-name="Lacute" horiz-adv-x="527" d="M85 695H150V49H479V0H85V695ZM415 867H498L399 750H344L415 867Z" />
<glyph unicode="&#x13a;" glyph-name="lacute" horiz-adv-x="214" d="M138 725V0H77V725H138ZM402 897H485L386 780H331L402 897Z" />
<glyph unicode="&#x13b;" glyph-name="uni013B" horiz-adv-x="527" d="M85 695H150V49H479V0H85V695ZM255 -194Q268 -181 278 -166T297 -129Q281 -127 272 -117T262 -90Q262 -73 273 -62T302 -51Q320 -51 332 -62T345 -100Q345 -129 330 -153T299 -194H255Z" />
<glyph unicode="&#x13c;" glyph-name="uni013C" horiz-adv-x="214" d="M138 725V0H77V725H138ZM315 -194Q328 -181 338 -166T357 -129Q341 -127 332 -117T322 -90Q322 -73 333 -62T362 -51Q380 -51 392 -62T405 -100Q405 -129 390 -153T359 -194H315Z" />
<glyph unicode="&#x13d;" glyph-name="Lcaron" horiz-adv-x="527" d="M85 695H150V49H479V0H85V695ZM238 798L263 951H326L277 798H238Z" />
<glyph unicode="&#x13e;" glyph-name="lcaron" horiz-adv-x="203" d="M138 725V0H77V725H138ZM194 572L219 725H282L233 572H194Z" />
<glyph unicode="&#x13f;" glyph-name="Ldot" horiz-adv-x="527" d="M85 695H150V49H479V0H85V695ZM416 313Q396 313 383 326T370 359Q370 379 383 391T416 404Q436 404 449 392T462 359Q462 340 449 327T416 313Z" />
<glyph unicode="&#x140;" glyph-name="ldot" horiz-adv-x="308" d="M393 725V0H332V725H393ZM262 316Q242 316 229 329T216 362Q216 382 229 394T262 407Q282 407 295 395T308 362Q308 343 295 330T262 316Z" />
<glyph unicode="&#x141;" glyph-name="Lslash" horiz-adv-x="552" d="M23 254L110 305V695H175V344L397 475V422L175 291V49H504V0H110V252L23 201V254Z" />
<glyph unicode="&#x142;" glyph-name="lslash" horiz-adv-x="260" d="M24 335L100 394V725H161V442L240 504V452L161 390V0H100V342L24 283V335Z" />
<glyph unicode="&#x143;" glyph-name="Nacute" horiz-adv-x="702" d="M141 626V0H85V695H169L561 73V695H618V0H535L141 626ZM403 867H486L387 750H332L403 867Z" />
<glyph unicode="&#x144;" glyph-name="nacute" horiz-adv-x="563" d="M310 464Q276 464 249 455T201 429T165 391T138 346V0H77V503H133L136 401H138Q148 423 164 443T204 479T258 504T325 513Q403 513 447 473T491 353V0H429V350Q429 411 398 437T310 464ZM323
716H398L302 575H254L323 716Z" />
<glyph unicode="&#x145;" glyph-name="uni0145" horiz-adv-x="702" d="M141 626V0H85V695H169L561 73V695H618V0H535L141 626ZM289 -194Q302 -181 312 -166T331 -129Q315 -127 306 -117T296 -90Q296 -73 307 -62T336 -51Q354 -51 366 -62T379 -100Q379 -129 364
-153T333 -194H289Z" />
<glyph unicode="&#x146;" glyph-name="uni0146" horiz-adv-x="563" d="M310 464Q276 464 249 455T201 429T165 391T138 346V0H77V503H133L136 401H138Q148 423 164 443T204 479T258 504T325 513Q403 513 447 473T491 353V0H429V350Q429 411 398 437T310 464ZM233
-194Q246 -181 256 -166T275 -129Q259 -127 250 -117T240 -90Q240 -73 251 -62T280 -51Q298 -51 310 -62T323 -100Q323 -129 308 -153T277 -194H233Z" />
<glyph unicode="&#x147;" glyph-name="Ncaron" horiz-adv-x="702" d="M141 626V0H85V695H169L561 73V695H618V0H535L141 626ZM324 754L231 867H280L361 793L442 867H492L399 754H324Z" />
<glyph unicode="&#x148;" glyph-name="ncaron" horiz-adv-x="563" d="M310 464Q276 464 249 455T201 429T165 391T138 346V0H77V503H133L136 401H138Q148 423 164 443T204 479T258 504T325 513Q403 513 447 473T491 353V0H429V350Q429 411 398 437T310 464ZM248
575L148 706H194L281 613L367 706H413L314 575H248Z" />
<glyph unicode="&#x14a;" glyph-name="Eng" horiz-adv-x="703" d="M471 -194Q445 -194 421 -189T379 -174L387 -126Q402 -134 421 -139T464 -144Q515 -144 538 -116T561 -36V0H536L142 627V0H85V695H170L561 76V695H618V-38Q618 -71 610 -99T584 -149T538 -182T471 -194Z" />
<glyph unicode="&#x14b;" glyph-name="eng" horiz-adv-x="554" d="M490 -26Q490 -59 482 -88T456 -141T410 -179T339 -196L331 -146Q383 -141 406 -113T429 -35V350Q429 410 398 437T310 464Q276 464 249 455T201 429T165 392T138 346V0H77V503H133L136 401H138Q148
423 164 443T204 479T258 504T325 513Q403 513 446 473T490 353V-26V-26Z" />
<glyph unicode="&#x14c;" glyph-name="Omacron" horiz-adv-x="753" d="M376 -10Q308 -10 249 15T145 86T74 199T48 350Q48 434 74 500T144 611T248 680T376 704Q445 704 505 680T609 611T679 500T705 350Q705 266 680 200T610 87T505 15T376 -10ZM376 40Q431 40
478 59T560 117T615 213T635 347Q635 423 615 481T561 577T479 635T376 655Q321 655 274 636T193 578T138 481T118 347Q118 271 138 214T192 118T274 60T376 40ZM253 829H500V782H253V829Z" />
<glyph unicode="&#x14d;" glyph-name="omacron" horiz-adv-x="572" d="M285 -10Q236 -10 193 7T117 58T65 141T46 252Q46 315 65 363T116 445T192 495T285 513Q334 513 378 496T455 445T507 364T527 252Q527 190 508 141T455 59T378 8T285 -10ZM285 36Q321 36
353 48T410 87T449 154T464 252Q464 309 450 349T410 416T353 455T285 468Q250 468 219 456T162 417T123 350T108 252Q108 195 122 155T162 88T218 49T285 36ZM159 661H415V615H159V661Z" />
<glyph unicode="&#x14e;" glyph-name="Obreve" horiz-adv-x="753" d="M376 -10Q308 -10 249 15T145 86T74 199T48 350Q48 434 74 500T144 611T248 680T376 704Q445 704 505 680T609 611T679 500T705 350Q705 266 680 200T610 87T505 15T376 -10ZM376 40Q431 40
478 59T560 117T615 213T635 347Q635 423 615 481T561 577T479 635T376 655Q321 655 274 636T193 578T138 481T118 347Q118 271 138 214T192 118T274 60T376 40ZM376 746Q344 746 321 755T282 781T258 818T249 862H297Q299 830 320 811T376 792Q413 792 433 811T456
862H504Q503 839 495 818T471 781T432 756T376 746Z" />
<glyph unicode="&#x14f;" glyph-name="obreve" horiz-adv-x="572" d="M285 -10Q236 -10 193 7T117 58T65 141T46 252Q46 315 65 363T116 445T192 495T285 513Q334 513 378 496T455 445T507 364T527 252Q527 190 508 141T455 59T378 8T285 -10ZM285 36Q321 36 353
48T410 87T449 154T464 252Q464 309 450 349T410 416T353 455T285 468Q250 468 219 456T162 417T123 350T108 252Q108 195 122 155T162 88T218 49T285 36ZM286 567Q254 567 231 577T193 603T170 642T161 688H209Q211 653 231 634T286 614Q322 614 341 633T363 688H412Q411
664 404 642T381 604T342 577T286 567Z" />
<glyph unicode="&#x150;" glyph-name="Ohungarumlaut" horiz-adv-x="753" d="M376 -10Q308 -10 249 15T145 86T74 199T48 350Q48 434 74 500T144 611T248 680T376 704Q445 704 505 680T609 611T679 500T705 350Q705 266 680 200T610 87T505 15T376 -10ZM376 40Q431
40 478 59T560 117T615 213T635 347Q635 423 615 481T561 577T479 635T376 655Q321 655 274 636T193 578T138 481T118 347Q118 271 138 214T192 118T274 60T376 40ZM423 750L473 867H544L473 750H423ZM271 750L321 867H392L321 750H271Z" />
<glyph unicode="&#x151;" glyph-name="ohungarumlaut" horiz-adv-x="572" d="M285 -10Q236 -10 193 7T117 58T65 141T46 252Q46 315 65 363T116 445T192 495T285 513Q334 513 378 496T455 445T507 364T527 252Q527 190 508 141T455 59T378 8T285 -10ZM285 36Q321
36 353 48T410 87T449 154T464 252Q464 309 450 349T410 416T353 455T285 468Q250 468 219 456T162 417T123 350T108 252Q108 195 122 155T162 88T218 49T285 36ZM333 575L396 716H461L382 575H333ZM194 575L257 716H322L244 575H194Z" />
<glyph unicode="&#x152;" glyph-name="OE" horiz-adv-x="943" d="M488 49V646H392Q335 646 285 632T199 585T141 497T120 359Q120 280 141 222T199 125T289 68T403 49H488ZM391 0Q317 0 255 22T147 90T76 202T50 359Q50 453 76 517T149 621T258 678T393 695H881V646H554V389H840V340H554V49H886V0H391Z"
/>
<glyph unicode="&#x153;" glyph-name="oe" horiz-adv-x="946" d="M695 469Q629 469 583 422T528 282H837Q842 330 833 365T804 423T756 457T695 469ZM285 35Q324 35 356 48T413 89T450 157T464 252Q464 306 451 347T413 415T357 455T285 469Q247 469 215 456T159
415T122 347T108 252Q108 198 121 158T158 90T214 49T285 35ZM885 44Q865 24 821 7T715 -10Q630 -10 576 24T495 124Q467 59 413 25T285 -10Q234 -10 191 7T115 58T64 141T46 252Q46 315 64 363T114 445T190 495T285 513Q358 513 413 479T495 378Q521 443 574 478T697
513Q747 513 788 496T856 444T894 358T895 238H527Q531 141 579 90T720 39Q771 39 811 55T875 89L885 44Z" />
<glyph unicode="&#x154;" glyph-name="Racute" horiz-adv-x="604" d="M150 646V334H286Q326 334 360 343T419 373T457 424T471 500Q471 576 425 611T297 646H150ZM150 285V0H85V695H297Q412 695 475 647T538 500Q538 411 494 362T379 295L564 0H490L311 286Q305
285 299 285T286 285H150ZM340 867H423L324 750H269L340 867Z" />
<glyph unicode="&#x155;" glyph-name="racute" horiz-adv-x="338" d="M306 450Q248 449 204 419T138 329V0H77V503H130L136 385H138Q157 432 197 469T306 511V450V450ZM244 716H319L223 575H175L244 716Z" />
<glyph unicode="&#x156;" glyph-name="uni0156" horiz-adv-x="604" d="M150 646V334H286Q326 334 360 343T419 373T457 424T471 500Q471 576 425 611T297 646H150ZM150 285V0H85V695H297Q412 695 475 647T538 500Q538 411 494 362T379 295L564 0H490L311 286Q305
285 299 285T286 285H150ZM256 -194Q269 -181 279 -166T298 -129Q282 -127 273 -117T263 -90Q263 -73 274 -62T303 -51Q321 -51 333 -62T346 -100Q346 -129 331 -153T300 -194H256Z" />
<glyph unicode="&#x157;" glyph-name="uni0157" horiz-adv-x="338" d="M306 450Q248 449 204 419T138 329V0H77V503H130L136 385H138Q157 432 197 469T306 511V450V450ZM312 -194Q325 -181 335 -166T354 -129Q338 -127 329 -117T319 -90Q319 -73 330 -62T359 -51Q377
-51 389 -62T402 -100Q402 -129 387 -153T356 -194H312Z" />
<glyph unicode="&#x158;" glyph-name="Rcaron" horiz-adv-x="604" d="M150 646V334H286Q326 334 360 343T419 373T457 424T471 500Q471 576 425 611T297 646H150ZM150 285V0H85V695H297Q412 695 475 647T538 500Q538 411 494 362T379 295L564 0H490L311 286Q305
285 299 285T286 285H150ZM261 754L168 867H217L298 793L379 867H429L336 754H261Z" />
<glyph unicode="&#x159;" glyph-name="rcaron" horiz-adv-x="338" d="M306 450Q248 449 204 419T138 329V0H77V503H130L136 385H138Q157 432 197 469T306 511V450V450ZM425 575L325 706H371L458 613L544 706H590L491 575H425Z" />
<glyph unicode="&#x15a;" glyph-name="Sacute" horiz-adv-x="530" d="M245 -10Q201 -10 167 -4T106 11T61 30T30 51L48 106Q60 96 78 85T122 63T178 47T248 40Q326 40 375 75T424 183Q424 217 411 240T374 279T318 308T247 331Q210 343 175 356T112 391T67 444T50
523Q50 608 110 656T278 704Q352 704 394 691T461 664L447 609Q415 629 376 641T278 654Q198 654 155 620T112 526Q112 495 124 474T158 437T207 410T269 389Q306 377 345 364T417 329T469 274T490 187Q490 134 471 97T417 36T339 1T245 -10ZM310 867H393L294 750H239L310
867Z" />
<glyph unicode="&#x15b;" glyph-name="sacute" horiz-adv-x="446" d="M215 -10Q176 -10 147 -5T96 7T60 23T37 38L56 89Q62 84 75 75T109 58T156 44T215 38Q243 38 267 43T309 60T337 89T347 133Q347 155 339 171T314 198T273 217T216 234Q185 241 155 250T102
275T65 315T50 376Q50 445 99 479T234 513Q291 513 327 503T383 482L369 432Q351 442 319 454T236 467Q209 467 185 463T144 448T117 421T107 380Q107 358 116 343T143 318T182 300T231 287Q261 280 292 271T349 246T391 204T407 137Q407 96 391 68T347 23T286
-2T215 -10ZM274 716H349L253 575H205L274 716Z" />
<glyph unicode="&#x15c;" glyph-name="Scircumflex" horiz-adv-x="530" d="M245 -10Q201 -10 167 -4T106 11T61 30T30 51L48 106Q60 96 78 85T122 63T178 47T248 40Q326 40 375 75T424 183Q424 217 411 240T374 279T318 308T247 331Q210 343 175 356T112 391T67
444T50 523Q50 608 110 656T278 704Q352 704 394 691T461 664L447 609Q415 629 376 641T278 654Q198 654 155 620T112 526Q112 495 124 474T158 437T207 410T269 389Q306 377 345 364T417 329T469 274T490 187Q490 134 471 97T417 36T339 1T245 -10ZM269 828L188
754H139L232 867H307L400 754H350L269 828Z" />
<glyph unicode="&#x15d;" glyph-name="scircumflex" horiz-adv-x="446" d="M215 -10Q176 -10 147 -5T96 7T60 23T37 38L56 89Q62 84 75 75T109 58T156 44T215 38Q243 38 267 43T309 60T337 89T347 133Q347 155 339 171T314 198T273 217T216 234Q185 241 155 250T102
275T65 315T50 376Q50 445 99 479T234 513Q291 513 327 503T383 482L369 432Q351 442 319 454T236 467Q209 467 185 463T144 448T117 421T107 380Q107 358 116 343T143 318T182 300T231 287Q261 280 292 271T349 246T391 204T407 137Q407 96 391 68T347 23T286
-2T215 -10ZM228 668L141 575H95L194 706H260L360 575H314L228 668Z" />
<glyph unicode="&#x15e;" glyph-name="uni015E" horiz-adv-x="530" d="M233 -187Q207 -187 191 -183T167 -174L174 -137Q182 -142 196 -147T230 -152Q250 -152 261 -144T273 -116Q273 -96 258 -88T212 -80H199L223 -9Q146 -6 100 13T30 51L48 106Q60 96 78 85T122
63T178 47T248 40Q326 40 375 75T424 183Q424 217 411 240T374 279T318 308T247 331Q210 343 175 356T112 391T67 444T50 523Q50 608 110 656T278 704Q352 704 394 691T461 664L447 609Q415 629 376 641T278 654Q198 654 155 620T112 526Q112 495 124 474T158 437T207
410T269 389Q306 377 345 364T417 329T469 274T490 187Q490 136 472 100T423 40T350 4T261 -9L247 -51Q289 -53 307 -71T325 -116Q325 -153 298 -170T233 -187Z" />
<glyph unicode="&#x15f;" glyph-name="uni015F" horiz-adv-x="446" d="M199 -187Q173 -187 157 -183T133 -174L140 -137Q148 -142 162 -147T196 -152Q216 -152 227 -144T239 -116Q239 -96 224 -88T178 -80H165L189 -9Q156 -8 131 -3T88 10T58 24T37 38L56 89Q62
84 75 75T109 58T156 44T215 38Q243 38 267 43T309 60T337 89T347 133Q347 155 339 171T314 198T273 217T216 234Q185 241 155 250T102 275T65 315T50 376Q50 445 99 479T234 513Q291 513 327 503T383 482L369 432Q351 442 319 454T236 467Q209 467 185 463T144
448T117 421T107 380Q107 358 116 343T143 318T182 300T231 287Q261 280 292 271T349 246T391 204T407 137Q407 98 392 71T352 26T295 0T227 -10L213 -51Q255 -53 273 -71T291 -116Q291 -153 264 -170T199 -187Z" />
<glyph unicode="&#x160;" glyph-name="Scaron" horiz-adv-x="530" d="M245 -10Q201 -10 167 -4T106 11T61 30T30 51L48 106Q60 96 78 85T122 63T178 47T248 40Q326 40 375 75T424 183Q424 217 411 240T374 279T318 308T247 331Q210 343 175 356T112 391T67 444T50
523Q50 608 110 656T278 704Q352 704 394 691T461 664L447 609Q415 629 376 641T278 654Q198 654 155 620T112 526Q112 495 124 474T158 437T207 410T269 389Q306 377 345 364T417 329T469 274T490 187Q490 134 471 97T417 36T339 1T245 -10ZM231 754L138 867H187L268
793L349 867H399L306 754H231Z" />
<glyph unicode="&#x161;" glyph-name="scaron" horiz-adv-x="446" d="M215 -10Q176 -10 147 -5T96 7T60 23T37 38L56 89Q62 84 75 75T109 58T156 44T215 38Q243 38 267 43T309 60T337 89T347 133Q347 155 339 171T314 198T273 217T216 234Q185 241 155 250T102
275T65 315T50 376Q50 445 99 479T234 513Q291 513 327 503T383 482L369 432Q351 442 319 454T236 467Q209 467 185 463T144 448T117 421T107 380Q107 358 116 343T143 318T182 300T231 287Q261 280 292 271T349 246T391 204T407 137Q407 96 391 68T347 23T286
-2T215 -10ZM195 575L95 706H141L228 613L314 706H360L261 575H195Z" />
<glyph unicode="&#x162;" glyph-name="Tcommaaccent" horiz-adv-x="541" d="M304 646V0H238V646H30V695H512V646H304ZM223 -194Q236 -181 246 -166T265 -129Q249 -127 240 -117T230 -90Q230 -73 241 -62T270 -51Q288 -51 300 -62T313 -100Q313 -129 298 -153T267
-194H223Z" />
<glyph unicode="&#x163;" glyph-name="tcommaaccent" horiz-adv-x="345" d="M312 9Q300 1 277 -4T228 -10Q160 -10 129 25T97 122V458H32V503H97V604H158V503H298V458H158V127Q158 85 174 63T233 40Q253 40 271 44T301 55L312 9V9ZM400 -194Q413 -181 423 -166T442
-129Q426 -127 417 -117T407 -90Q407 -73 418 -62T447 -51Q465 -51 477 -62T490 -100Q490 -129 475 -153T444 -194H400Z" />
<glyph unicode="&#x164;" glyph-name="Tcaron" horiz-adv-x="541" d="M304 646V0H238V646H30V695H512V646H304ZM232 754L139 867H188L269 793L350 867H400L307 754H232Z" />
<glyph unicode="&#x165;" glyph-name="tcaron" horiz-adv-x="327" d="M312 9Q300 1 277 -4T228 -10Q160 -10 129 25T97 122V458H32V503H97V604H158V503H298V458H158V127Q158 85 174 63T233 40Q253 40 271 44T301 55L312 9V9ZM227 572L252 725H315L266 572H227Z" />
<glyph unicode="&#x166;" glyph-name="Tbar" horiz-adv-x="538" d="M60 409H238V646H30V695H512V646H304V409H481V362H304V0H238V362H60V409Z" />
<glyph unicode="&#x167;" glyph-name="tbar" horiz-adv-x="345" d="M312 9Q300 1 277 -4T228 -10Q160 -10 129 25T97 122V290H32V333H97V458H32V503H97V604H158V503H298V458H158V333H298V290H158V127Q158 85 174 63T233 40Q253 40 271 44T301 55L312 9Z" />
<glyph unicode="&#x168;" glyph-name="Utilde" horiz-adv-x="668" d="M70 695H136V239Q136 138 191 90T338 42Q381 42 418 54T482 90T525 151T541 240V695L599 696V243Q599 181 579 134T523 55T439 7T335 -10Q278 -10 230 5T146 52T90 130T70 239V695ZM189 764Q185
803 203 833T266 864Q290 864 309 857T346 840T380 823T413 815Q450 815 450 867H492Q496 828 477 798T415 767Q391 767 371 775T334 792T301 809T268 817Q229 817 231 764H189Z" />
<glyph unicode="&#x169;" glyph-name="utilde" horiz-adv-x="549" d="M412 101Q402 78 387 58T349 23T297 -1T232 -10Q158 -10 115 32T72 161V503H134V161Q134 127 142 104T166 67T202 47T248 41Q313 41 350 74T412 158V503H473V0H419L413 101H412V101ZM130 585Q128
604 131 622T144 653T170 675T209 684Q231 684 248 677T281 660T310 643T340 635Q376 635 376 687H420Q422 668 419 650T406 619T380 597T342 588Q320 588 303 595T270 612T240 629T210 637Q174 637 175 585H130Z" />
<glyph unicode="&#x16a;" glyph-name="Umacron" horiz-adv-x="668" d="M70 695H136V239Q136 138 191 90T338 42Q381 42 418 54T482 90T525 151T541 240V695L599 696V243Q599 181 579 134T523 55T439 7T335 -10Q278 -10 230 5T146 52T90 130T70 239V695ZM212 830H459V783H212V830Z"
/>
<glyph unicode="&#x16b;" glyph-name="umacron" horiz-adv-x="549" d="M412 101Q402 78 387 58T349 23T297 -1T232 -10Q158 -10 115 32T72 161V503H134V161Q134 127 142 104T166 67T202 47T248 41Q313 41 350 74T412 158V503H473V0H419L413 101H412V101ZM151 661H407V615H151V661Z"
/>
<glyph unicode="&#x16c;" glyph-name="Ubreve" horiz-adv-x="668" d="M70 695H136V239Q136 138 191 90T338 42Q381 42 418 54T482 90T525 151T541 240V695L599 696V243Q599 181 579 134T523 55T439 7T335 -10Q278 -10 230 5T146 52T90 130T70 239V695ZM335 747Q303
747 280 756T241 782T217 819T208 863H256Q258 831 279 812T335 793Q372 793 392 812T415 863H463Q462 840 454 819T430 782T391 757T335 747Z" />
<glyph unicode="&#x16d;" glyph-name="ubreve" horiz-adv-x="549" d="M412 101Q402 78 387 58T349 23T297 -1T232 -10Q158 -10 115 32T72 161V503H134V161Q134 127 142 104T166 67T202 47T248 41Q313 41 350 74T412 158V503H473V0H419L413 101H412V101ZM278 567Q246
567 223 577T185 603T162 642T153 688H201Q203 653 223 634T278 614Q314 614 333 633T355 688H404Q403 664 396 642T373 604T334 577T278 567Z" />
<glyph unicode="&#x16e;" glyph-name="Uring" horiz-adv-x="668" d="M70 695H136V239Q136 138 191 90T338 42Q381 42 418 54T482 90T525 151T541 240V695L599 696V243Q599 181 579 134T523 55T439 7T335 -10Q278 -10 230 5T146 52T90 130T70 239V695ZM344 701Q305
701 279 726T253 792Q253 832 279 857T344 882Q384 882 410 857T437 792Q437 752 411 727T344 701ZM344 736Q367 736 382 751T397 792Q397 816 382 831T344 847Q321 847 307 832T292 792Q292 766 306 751T344 736Z" />
<glyph unicode="&#x16f;" glyph-name="uring" horiz-adv-x="549" d="M412 101Q402 78 387 58T349 23T297 -1T232 -10Q158 -10 115 32T72 161V503H134V161Q134 127 142 104T166 67T202 47T248 41Q313 41 350 74T412 158V503H473V0H419L413 101H412V101ZM278 570Q239
570 213 595T187 661Q187 700 213 725T278 750Q318 750 344 725T371 661Q371 620 345 595T278 570ZM278 605Q301 605 316 620T331 661Q331 685 316 700T278 715Q255 715 241 700T226 661Q226 635 240 620T278 605Z" />
<glyph unicode="&#x170;" glyph-name="Uhungarumlaut" horiz-adv-x="668" d="M70 695H136V239Q136 138 191 90T338 42Q381 42 418 54T482 90T525 151T541 240V695L599 696V243Q599 181 579 134T523 55T439 7T335 -10Q278 -10 230 5T146 52T90 130T70 239V695ZM387
751L437 868H508L437 751H387ZM235 751L285 868H356L285 751H235Z" />
<glyph unicode="&#x171;" glyph-name="uhungarumlaut" horiz-adv-x="549" d="M412 101Q402 78 387 58T349 23T297 -1T232 -10Q158 -10 115 32T72 161V503H134V161Q134 127 142 104T166 67T202 47T248 41Q313 41 350 74T412 158V503H473V0H419L413 101H412V101ZM325
575L388 716H453L374 575H325ZM186 575L249 716H314L236 575H186Z" />
<glyph unicode="&#x172;" glyph-name="Uogonek" horiz-adv-x="668" d="M359 -98Q359 -147 413 -147Q429 -147 438 -144T455 -136L461 -177Q455 -181 441 -185T405 -189Q354 -189 328 -166T302 -107Q302 -77 318 -53T365 -9Q360 -10 350 -10T335 -10Q278 -10 230
5T146 52T90 130T70 239V695H136V239Q136 138 191 90T338 42Q381 42 418 54T482 90T525 151T541 240V695L599 696V243Q599 157 561 101T463 15Q407 -13 383 -40T359 -98Z" />
<glyph unicode="&#x173;" glyph-name="uogonek" horiz-adv-x="549" d="M443 -189Q392 -189 366 -166T340 -105Q340 -67 363 -41T419 0L413 101H412Q402 78 387 58T349 23T297 -1T232 -10Q158 -10 115 32T72 161V503H134V161Q134 127 142 104T166 67T202 47T248
41Q313 41 350 74T412 158V503H473V0Q440 -17 419 -42T397 -98Q397 -147 452 -147Q467 -147 476 -144T494 -136L500 -177Q493 -181 479 -185T443 -189Z" />
<glyph unicode="&#x174;" glyph-name="Wcircumflex" horiz-adv-x="876" d="M33 695H101L246 61L413 695H477L642 69L786 695H843L684 0H595L440 592L284 0H193L33 695ZM443 828L362 754H313L406 867H481L574 754H524L443 828Z" />
<glyph unicode="&#x175;" glyph-name="wcircumflex" horiz-adv-x="695" d="M28 503H91L194 45L323 503H383L510 50L612 503H667L552 0H465L348 418L230 0H145L28 503ZM353 668L266 575H220L319 706H385L485 575H439L353 668Z" />
<glyph unicode="&#x176;" glyph-name="Ycircumflex" horiz-adv-x="588" d="M262 0V300L19 695H93L300 354L507 695H569L328 301V0H262ZM299 828L218 754H169L262 867H337L430 754H380L299 828Z" />
<glyph unicode="&#x177;" glyph-name="ycircumflex" horiz-adv-x="496" d="M107 -196Q85 -196 70 -193T43 -186L53 -136Q62 -140 74 -143T104 -147Q137 -147 163 -120T219 -29L16 503H82L251 49L424 503H480L289 7Q271 -42 253 -79T213 -143T166 -182T107 -196ZM255
668L168 575H122L221 706H287L387 575H341L255 668Z" />
<glyph unicode="&#x178;" glyph-name="Ydieresis" horiz-adv-x="588" d="M262 0V300L19 695H93L300 354L507 695H569L328 301V0H262ZM399 769Q380 769 368 781T356 811Q356 829 368 841T399 854Q419 854 430 842T442 811Q442 794 431 782T399 769ZM194 769Q175
769 164 781T152 811Q152 829 163 841T194 854Q214 854 225 842T237 811Q237 794 226 782T194 769Z" />
<glyph unicode="&#x179;" glyph-name="Zacute" horiz-adv-x="560" d="M45 0V56L447 646H55V695H514V639L110 49H515V0H45ZM325 867H408L309 750H254L325 867Z" />
<glyph unicode="&#x17a;" glyph-name="zacute" horiz-adv-x="432" d="M35 0V45L330 460H43V503H393V455L100 43H394V0H35ZM268 716H343L247 575H199L268 716Z" />
<glyph unicode="&#x17b;" glyph-name="Zdotaccent" horiz-adv-x="560" d="M45 0V56L447 646H55V695H514V639L110 49H515V0H45ZM288 1024Q269 1024 258 1036T246 1066Q246 1084 257 1096T288 1109Q308 1109 320 1097T332 1066Q332 1049 320 1037T288 1024Z" />
<glyph unicode="&#x17c;" glyph-name="zdotaccent" horiz-adv-x="432" d="M35 0V45L330 460H43V503H393V455L100 43H394V0H35ZM226 596Q207 596 196 609T184 639Q184 657 195 669T226 682Q246 682 258 670T270 639Q270 622 258 609T226 596Z" />
<glyph unicode="&#x17d;" glyph-name="Zcaron" horiz-adv-x="560" d="M45 0V56L447 646H55V695H514V639L110 49H515V0H45ZM252 754L159 867H208L289 793L370 867H420L327 754H252Z" />
<glyph unicode="&#x17e;" glyph-name="zcaron" horiz-adv-x="432" d="M35 0V45L330 460H43V503H393V455L100 43H394V0H35ZM194 575L94 706H140L227 613L313 706H359L260 575H194Z" />
<glyph unicode="&#x192;" glyph-name="uni0192" horiz-adv-x="521" d="M29 -187Q6 -187 -12 -183T-43 -173L-33 -126Q-25 -129 -9 -133T28 -138Q81 -138 106 -100T143 8L205 365H114L123 413H213L234 531Q250 621 293 668T409 715Q444 715 463 710T488 702L478
654Q469 657 451 660T411 663Q358 663 332 629T295 531L274 413H413L404 365H266L202 5Q186 -88 146 -137T29 -187Z" />
<glyph unicode="&#x218;" glyph-name="uni0218" horiz-adv-x="530" d="M245 -10Q201 -10 167 -4T106 11T61 30T30 51L48 106Q60 96 78 85T122 63T178 47T248 40Q326 40 375 75T424 183Q424 217 411 240T374 279T318 308T247 331Q210 343 175 356T112 391T67 444T50
523Q50 608 110 656T278 704Q352 704 394 691T461 664L447 609Q415 629 376 641T278 654Q198 654 155 620T112 526Q112 495 124 474T158 437T207 410T269 389Q306 377 345 364T417 329T469 274T490 187Q490 134 471 97T417 36T339 1T245 -10ZM208 -194Q221 -181
231 -166T250 -129Q234 -127 225 -117T215 -90Q215 -73 226 -62T255 -51Q273 -51 285 -62T298 -100Q298 -129 283 -153T252 -194H208Z" />
<glyph unicode="&#x219;" glyph-name="uni0219" horiz-adv-x="446" d="M215 -10Q176 -10 147 -5T96 7T60 23T37 38L56 89Q62 84 75 75T109 58T156 44T215 38Q243 38 267 43T309 60T337 89T347 133Q347 155 339 171T314 198T273 217T216 234Q185 241 155 250T102
275T65 315T50 376Q50 445 99 479T234 513Q291 513 327 503T383 482L369 432Q351 442 319 454T236 467Q209 467 185 463T144 448T117 421T107 380Q107 358 116 343T143 318T182 300T231 287Q261 280 292 271T349 246T391 204T407 137Q407 96 391 68T347 23T286
-2T215 -10ZM178 -194Q191 -181 201 -166T220 -129Q204 -127 195 -117T185 -90Q185 -73 196 -62T225 -51Q243 -51 255 -62T268 -100Q268 -129 253 -153T222 -194H178Z" />
<glyph unicode="&#x21a;" glyph-name="uni021A" horiz-adv-x="541" d="M304 646V0H238V646H30V695H512V646H304ZM223 -194Q236 -181 246 -166T265 -129Q249 -127 240 -117T230 -90Q230 -73 241 -62T270 -51Q288 -51 300 -62T313 -100Q313 -129 298 -153T267 -194H223Z" />
<glyph unicode="&#x21b;" glyph-name="uni021B" horiz-adv-x="345" d="M312 9Q300 1 277 -4T228 -10Q160 -10 129 25T97 122V458H32V503H97V604H158V503H298V458H158V127Q158 85 174 63T233 40Q253 40 271 44T301 55L312 9V9ZM400 -194Q413 -181 423 -166T442
-129Q426 -127 417 -117T407 -90Q407 -73 418 -62T447 -51Q465 -51 477 -62T490 -100Q490 -129 475 -153T444 -194H400Z" />
<glyph unicode="&#x237;" glyph-name="uni0237" horiz-adv-x="212" d="M145 -26Q145 -59 137 -89T110 -142T63 -180T-7 -196L-18 -147Q35 -146 59 -115T84 -35V503H145V-26Z" />
<glyph unicode="&#x2bc;" glyph-name="uni02BC" horiz-adv-x="206" d="M56 526Q69 542 81 565T98 616Q82 618 74 629T65 657Q65 674 76 685T107 697Q126 697 138 685T151 648Q151 631 146 614T134 580T117 549T100 526H56Z" />
<glyph unicode="&#x2c6;" glyph-name="circumflex" horiz-adv-x="417" d="M209 668L122 575H76L175 706H241L341 575H295L209 668Z" />
<glyph unicode="&#x2c7;" glyph-name="caron" horiz-adv-x="417" d="M176 575L76 706H122L209 613L295 706H341L242 575H176Z" />
<glyph unicode="&#x2d8;" glyph-name="breve" horiz-adv-x="426" d="M213 567Q181 567 158 577T120 603T97 642T88 688H136Q138 653 158 634T213 614Q249 614 268 633T290 688H339Q338 664 331 642T308 604T269 577T213 567Z" />
<glyph unicode="&#x2d9;" glyph-name="dotaccent" horiz-adv-x="427" d="M213 596Q194 596 183 609T171 639Q171 657 182 669T213 682Q233 682 245 670T257 639Q257 622 245 609T213 596Z" />
<glyph unicode="&#x2da;" glyph-name="ring" horiz-adv-x="427" d="M213 570Q174 570 148 595T122 661Q122 700 148 725T213 750Q253 750 279 725T306 661Q306 620 280 595T213 570ZM213 605Q236 605 251 620T266 661Q266 685 251 700T213 715Q190 715 176 700T161
661Q161 635 175 620T213 605Z" />
<glyph unicode="&#x2db;" glyph-name="ogonek" horiz-adv-x="427" d="M226 -189Q175 -189 149 -166T123 -105Q123 -67 146 -41T200 0H256Q223 -17 202 -42T180 -98Q180 -147 235 -147Q250 -147 259 -144T277 -136L283 -177Q276 -181 262 -185T226 -189Z" />
<glyph unicode="&#x2dc;" glyph-name="tilde" horiz-adv-x="428" d="M69 585Q67 604 70 622T83 653T109 675T148 684Q170 684 187 677T220 660T249 643T279 635Q315 635 315 687H359Q361 668 358 650T345 619T319 597T281 588Q259 588 242 595T209 612T179 629T149
637Q113 637 114 585H69Z" />
<glyph unicode="&#x2dd;" glyph-name="hungarumlaut" horiz-adv-x="427" d="M233 575L296 716H361L282 575H233ZM94 575L157 716H222L144 575H94Z" />
<glyph unicode="&#x301;" glyph-name="acutecomb" horiz-adv-x="0" d="M-218 716H-143L-239 575H-287L-218 716Z" />
<glyph unicode="&#x401;" glyph-name="uni0401" horiz-adv-x="539" d="M85 695H477V646H150V389H436V340H150V49H482V0H85V695ZM397 769Q378 769 366 781T354 811Q354 829 366 841T397 854Q417 854 428 842T440 811Q440 794 429 782T397 769ZM192 769Q173 769
162 781T150 811Q150 829 161 841T192 854Q212 854 223 842T235 811Q235 794 224 782T192 769Z" />
<glyph unicode="&#x402;" glyph-name="uni0402" horiz-adv-x="748" d="M304 646V393Q328 410 367 421Q408 433 456 433Q514 433 560 417T639 368T689 289T707 179Q707 52 641 -15T457 -82L449 -29Q548 -29 594 26T641 179Q641 276 595 328T454 380Q409 380 370
369Q333 359 304 338V0H238V646H30V695H512V646H304Z" />
<glyph unicode="&#x403;" glyph-name="uni0403" horiz-adv-x="497" d="M302 867H385L286 750H231L302 867ZM150 646V0H85V695H457V646H150Z" />
<glyph unicode="&#x404;" glyph-name="uni0404" horiz-adv-x="611" d="M571 55Q542 30 492 10T369 -10Q297 -10 238 14T136 85T71 197T48 347Q48 431 70 497T133 609T233 679T368 704Q438 704 489 687T571 645L560 591Q522 618 474 635T372 653Q253 653 188 580T118
370H458V321H119Q124 187 187 115T372 42Q424 42 470 58T554 106L571 55V55Z" />
<glyph unicode="&#x405;" glyph-name="uni0405" horiz-adv-x="530" d="M245 -10Q201 -10 167 -4T106 11T61 30T30 51L48 106Q60 96 78 85T122 63T178 47T248 40Q326 40 375 75T424 183Q424 217 411 240T374 279T318 308T247 331Q210 343 175 356T112 391T67 444T50
523Q50 608 110 656T278 704Q352 704 394 691T461 664L447 609Q415 629 376 641T278 654Q198 654 155 620T112 526Q112 495 124 474T158 437T207 410T269 389Q306 377 345 364T417 329T469 274T490 187Q490 134 471 97T417 36T339 1T245 -10Z" />
<glyph unicode="&#x406;" glyph-name="uni0406" horiz-adv-x="235" d="M150 695V0H85V695H150Z" />
<glyph unicode="&#x407;" glyph-name="uni0407" horiz-adv-x="235" d="M198 769Q178 769 167 781T155 811Q155 829 166 841T198 854Q218 854 229 842T241 811Q241 794 230 782T198 769ZM38 769Q18 769 7 781T-5 811Q-5 829 6 841T38 854Q57 854 68 842T80 811Q80
794 69 782T38 769ZM150 695V0H85V695H150Z" />
<glyph unicode="&#x408;" glyph-name="uni0408" horiz-adv-x="350" d="M523 695V143Q523 111 515 83T489 35T443 2T376 -10Q350 -10 325 -5T284 11L295 59Q309 51 327 46T368 41Q416 41 437 69T458 147V695H523Z" />
<glyph unicode="&#x409;" glyph-name="uni0409" horiz-adv-x="998" d="M191 189Q183 147 171 111T141 49T95 9T28 -4L21 59Q46 57 64 66T95 94T116 140T131 200Q145 278 150 403T159 695H564V412H715Q826 412 887 365T949 214Q949 157 931 116T881 50T803 12T703
0H498V646H219Q215 496 210 381T191 189ZM564 363V49H702Q742 49 775 57T832 85T868 135T881 211Q881 288 837 325T713 363H564Z" />
<glyph unicode="&#x40a;" glyph-name="uni040A" horiz-adv-x="1049" d="M613 346V49H753Q793 49 826 56T882 81T918 128T931 201Q931 274 888 310T763 346H613ZM548 345H150V0H85V695H150V394H548V695H613V395H765Q877 395 938 350T1000 204Q1000 148 982 109T932
46T854 11T753 0H548V345Z" />
<glyph unicode="&#x40b;" glyph-name="uni040B" horiz-adv-x="751" d="M304 646V392Q328 408 368 420Q409 433 466 433Q567 433 623 380T680 211V0H613V208Q613 255 602 288T572 341T525 371T463 380Q415 380 375 370T304 338V0H238V646H30V695H512V646H304Z" />
<glyph unicode="&#x40c;" glyph-name="uni040C" horiz-adv-x="605" d="M503 0L177 354L498 695H566L251 361L585 0H503ZM150 695V0H85V695H150ZM337 867H420L321 750H266L337 867Z" />
<glyph unicode="&#x40e;" glyph-name="uni040E" horiz-adv-x="591" d="M159 -1H149Q144 -1 139 0L130 59Q135 58 139 58H148Q200 58 229 88T283 172L27 695H96L314 245L505 695H566L346 188Q326 142 307 107T266 47T218 11T159 -1ZM308 735Q270 735 242 745T194
774T166 817T157 871H219Q219 822 242 800T308 777Q350 777 373 799T397 871H458Q458 814 421 775T308 735Z" />
<glyph unicode="&#x40f;" glyph-name="uni040F" horiz-adv-x="697" d="M385 0L377 -175H327L319 0H85V695H151V49H547V695H613V0H385Z" />
<glyph unicode="&#x410;" glyph-name="uni0410" horiz-adv-x="627" d="M297 645L168 268H427L297 645ZM444 220H152L77 0H19L257 695H349L589 0H520L444 220Z" />
<glyph unicode="&#x411;" glyph-name="uni0411" horiz-adv-x="575" d="M150 362V49H278Q318 49 351 58T407 86T444 137T457 211Q457 286 413 324T289 362H150ZM85 695H479V646H150V411H290Q402 411 463 363T525 214Q525 158 507 118T457 51T379 13T279 0H85V695Z" />
<glyph unicode="&#x412;" glyph-name="uni0412" horiz-adv-x="583" d="M406 646V385H515Q592 385 639 419T686 525Q686 591 645 618T525 646H406ZM406 336V49H534Q576 49 610 57T668 83T705 129T719 198Q719 270 675 303T534 336H406ZM340 695H525Q637 695 694
655T752 528Q752 456 714 418T611 365Q699 356 743 316T788 199Q788 147 769 110T717 48T636 12T534 0H340V695Z" />
<glyph unicode="&#x413;" glyph-name="uni0413" horiz-adv-x="497" d="M150 646V0H85V695H457V646H150Z" />
<glyph unicode="&#x414;" glyph-name="uni0414" horiz-adv-x="710" d="M523 646H235Q232 514 227 414T211 243T182 125T136 53H523V646ZM607 4H86L70 -175H20V53H66Q101 77 122 128T155 258T172 446T180 695H589V53H673V-175H623L607 4Z" />
<glyph unicode="&#x415;" glyph-name="uni0415" horiz-adv-x="539" d="M85 695H477V646H150V389H436V340H150V49H482V0H85V695Z" />
<glyph unicode="&#x416;" glyph-name="uni0416" horiz-adv-x="861" d="M20 0L301 360L34 695H105L373 354L99 0H20ZM761 0L487 354L755 695H825L558 362L841 0H761ZM463 695V0H397V695H463Z" />
<glyph unicode="&#x417;" glyph-name="uni0417" horiz-adv-x="535" d="M249 -10Q174 -10 120 11T41 57L61 105Q99 74 143 57T245 40Q281 40 312 49T367 77T404 126T418 201Q418 274 375 306T247 339H149V388H238Q315 388 356 420T397 522Q397 591 359 622T252
653Q195 653 152 636T76 594L53 647Q85 668 134 686T252 704Q352 704 408 660T464 526Q464 460 430 421T333 368Q486 345 486 201Q486 146 467 107T416 41T341 3T249 -10Z" />
<glyph unicode="&#x418;" glyph-name="uni0418" horiz-adv-x="725" d="M85 695H150V87L578 695H641V0H575V608L148 0H85V695Z" />
<glyph unicode="&#x419;" glyph-name="uni0419" horiz-adv-x="725" d="M360 735Q322 735 294 745T246 774T218 817T209 871H271Q271 822 294 800T360 777Q402 777 425 799T449 871H510Q510 814 473 775T360 735ZM85 695H150V87L578 695H641V0H575V608L148 0H85V695Z" />
<glyph unicode="&#x41a;" glyph-name="uni041A" horiz-adv-x="605" d="M150 695V0H85V695H150ZM503 0L177 354L498 695H566L251 361L585 0H503Z" />
<glyph unicode="&#x41b;" glyph-name="uni041B" horiz-adv-x="630" d="M191 189Q183 147 172 111T142 49T97 9T28 -4L21 59Q47 58 65 67T96 95T117 140T131 200Q145 278 150 403T159 695H546V0H480V646H219Q215 496 210 381T191 189Z" />
<glyph unicode="&#x41c;" glyph-name="uni041C" horiz-adv-x="826" d="M167 616L129 0H73L116 695H201L406 167L616 695H700L743 0H678L640 613L434 99L401 98H371L167 616Z" />
<glyph unicode="&#x41d;" glyph-name="uni041D" horiz-adv-x="697" d="M548 320H150V0H85V695H150V369H548V695H613V0H548V320Z" />
<glyph unicode="&#x41e;" glyph-name="uni041E" horiz-adv-x="756" d="M378 -10Q310 -10 251 15T147 86T76 199T50 350Q50 434 76 500T146 611T250 680T378 704Q447 704 507 680T611 611T681 500T707 350Q707 266 682 200T612 87T507 15T378 -10ZM378 40Q433 40
480 59T562 117T617 213T637 347Q637 423 617 481T563 577T481 635T378 655Q323 655 276 636T195 578T140 481T120 347Q120 271 140 214T194 118T276 60T378 40Z" />
<glyph unicode="&#x41f;" glyph-name="uni041F" horiz-adv-x="681" d="M531 646H150V0H85V695H597V0H531V646Z" />
<glyph unicode="&#x420;" glyph-name="uni0420" horiz-adv-x="580" d="M150 646V323H287Q371 323 421 364T471 495Q471 571 426 608T296 646H150ZM150 274V0H85V695H296Q409 695 473 646T537 496Q537 439 519 397T468 328T389 288T287 274H150Z" />
<glyph unicode="&#x421;" glyph-name="uni0421" horiz-adv-x="622" d="M627 -10Q556 -10 497 14T394 85T327 197T303 346Q303 430 328 496T397 609T503 679T638 704Q707 704 755 688T838 648L821 591Q784 618 737 636T632 654Q575 654 528 634T446 574T392 477T373
346Q373 274 391 217T443 121T524 61T630 40Q684 40 731 56T816 101L833 55Q804 30 753 10T627 -10Z" />
<glyph unicode="&#x422;" glyph-name="uni0422" horiz-adv-x="541" d="M304 646V0H238V646H30V695H512V646H304Z" />
<glyph unicode="&#x423;" glyph-name="uni0423" horiz-adv-x="591" d="M159 -1Q154 -1 149 -1T139 0L130 59Q135 58 139 58T148 58Q200 58 229 88T283 172L27 695H96L314 245L505 695H566L346 188Q326 142 307 107T266 47T218 11T159 -1Z" />
<glyph unicode="&#x424;" glyph-name="uni0424" horiz-adv-x="784" d="M359 -10V81Q292 83 235 100T136 150T71 232T47 346Q47 411 71 460T137 543T236 594T359 615V703H425V615Q492 613 549 596T648 545T714 463T738 349Q738 284 714 235T648 152T549 101T425
81V-10H359ZM115 348Q115 291 134 250T186 183T263 144T359 129V568Q307 565 263 552T185 513T134 446T115 348ZM669 347Q669 405 651 446T599 513T522 552T425 567V128Q477 131 521 144T599 183T650 250T669 347Z" />
<glyph unicode="&#x425;" glyph-name="uni0425" horiz-adv-x="607" d="M297 314L84 0H18L265 361L39 695H115L312 407L510 695H576L345 360L590 0H512L297 314Z" />
<glyph unicode="&#x426;" glyph-name="uni0426" horiz-adv-x="720" d="M631 -175L615 0H85V695H150V49H531V695H597V49H681V-175H631Z" />
<glyph unicode="&#x427;" glyph-name="uni0427" horiz-adv-x="646" d="M493 0V321Q484 313 468 303T428 284T376 269T309 263Q255 263 212 277T137 320T89 396T72 507V695H138V508Q138 405 183 359T310 312Q357 312 391 321T448 341Q474 354 493 371V695H559V0H493Z" />
<glyph unicode="&#x428;" glyph-name="uni0428" horiz-adv-x="901" d="M85 695H150V49H417V695H484V49H751V695H817V0H85V695Z" />
<glyph unicode="&#x429;" glyph-name="uni0429" horiz-adv-x="933" d="M847 -175L831 0H85V695H150V49H417V695H484V49H751V695H817V49H897V-175H847Z" />
<glyph unicode="&#x42a;" glyph-name="uni042A" horiz-adv-x="702" d="M268 373V49H400Q485 49 535 88T585 217Q585 295 540 334T410 373H268ZM202 646H24V695H268V422H413Q526 422 589 373T653 220Q653 163 635 122T583 53T504 13T400 0H202V646Z" />
<glyph unicode="&#x42b;" glyph-name="uni042B" horiz-adv-x="790" d="M706 695V0H640V695H706ZM150 373V49H282Q367 49 417 88T467 217Q467 295 422 334T292 373H150ZM85 695H150V422H294Q408 422 471 373T535 220Q535 163 517 122T465 53T386 13T282 0H85V695Z" />
<glyph unicode="&#x42c;" glyph-name="uni042C" horiz-adv-x="584" d="M150 373V49H282Q367 49 417 88T467 217Q467 295 422 334T292 373H150ZM85 695H150V422H294Q408 422 471 373T535 220Q535 163 517 122T465 53T386 13T282 0H85V695Z" />
<glyph unicode="&#x42d;" glyph-name="uni042D" horiz-adv-x="610" d="M246 -10Q176 -10 124 8T41 50L52 104Q90 76 139 59T242 42Q361 42 423 115T491 322H171V371H492Q487 506 425 579T242 653Q190 653 143 637T57 588L41 640Q70 664 121 684T245 704Q317 704
376 680T476 609T539 497T562 347Q562 263 541 197T479 85T380 15T246 -10Z" />
<glyph unicode="&#x42e;" glyph-name="uni042E" horiz-adv-x="940" d="M581 -10Q518 -10 463 11T368 75T302 178T274 320H150V0H85V695H150V369H273Q276 450 301 512T367 617T462 682T581 704Q647 704 703 681T801 613T866 502T890 350Q890 264 867 198T802 85T704
14T581 -10ZM581 39Q633 39 677 57T753 113T803 209T821 347Q821 427 803 485T753 581T677 637T581 656Q530 656 486 638T411 581T361 485T343 347Q343 267 361 209T410 114T486 58T581 39Z" />
<glyph unicode="&#x42f;" glyph-name="uni042F" horiz-adv-x="600" d="M449 328V646H327Q248 646 200 609T151 491Q151 408 196 368T324 328H449ZM449 279H306L111 0H32L241 292Q167 308 125 357T82 491Q82 543 100 581T150 645T227 682T327 695H515V0H449V279Z" />
<glyph unicode="&#x430;" glyph-name="uni0430" horiz-adv-x="501" d="M221 36Q253 36 277 45T318 70T348 103T367 138V250H297Q197 250 152 225T106 137Q106 87 138 62T221 36ZM381 0Q372 30 369 84Q360 67 347 51T315 21T270 -1T209 -10Q174 -10 144 -1T92 27T58
72T45 134Q45 213 107 251T292 290H367V341Q367 405 338 435T239 466Q190 466 153 451T87 413L68 463Q92 480 139 496T246 513Q335 513 381 474T428 349V88Q428 66 430 40T436 0H381Z" />
<glyph unicode="&#x431;" glyph-name="uni0431" horiz-adv-x="573" d="M288 -10Q235 -10 191 7T116 61T66 152T48 281Q48 338 51 397T66 510T105 609T179 683Q204 698 229 706T281 717T335 722T391 724Q425 726 449 732T488 749L498 701Q486 687 461 680T399 671Q369
669 342 668T291 665T245 656T203 638Q174 621 155 594T124 533T106 457T98 367Q121 437 173 473T299 510Q349 510 391 493T464 442T512 361T530 250Q530 188 512 140T461 58T384 8T288 -10ZM288 35Q327 35 359 48T416 89T453 156T467 250Q467 304 454 344T418
411T362 451T292 465Q254 465 221 452T164 412T125 345T111 252Q111 198 124 158T161 90T217 49T288 35Z" />
<glyph unicode="&#x432;" glyph-name="uni0432" horiz-adv-x="484" d="M138 459V288H238Q294 288 323 311T353 376Q353 424 324 441T241 459H138ZM138 244V44H244Q303 44 339 67T375 147Q375 198 342 221T243 244H138ZM77 503H239Q325 503 369 474T413 381Q413
337 389 309T320 270Q378 264 408 232T438 146Q438 107 424 79T383 34T321 8T241 0H77V503Z" />
<glyph unicode="&#x433;" glyph-name="uni0433" horiz-adv-x="404" d="M138 459V0H77V503H369V459H138Z" />
<glyph unicode="&#x434;" glyph-name="uni0434" horiz-adv-x="560" d="M144 87Q138 75 131 65T115 46H399V459H186Q184 391 182 334T175 231T163 149T144 87ZM473 0H69L55 -159H9V46H41Q63 54 77 73T100 119Q120 175 124 269T131 503H460V46H534V-159H487L473 0Z" />
<glyph unicode="&#x435;" glyph-name="uni0435" horiz-adv-x="512" d="M272 469Q210 469 165 425T110 292H408Q412 337 403 370T376 425T330 458T272 469ZM456 39Q429 18 387 4T284 -10Q170 -10 108 58T46 252Q46 313 63 361T112 444T184 495T274 513Q323 513
362 496T428 446T465 364T466 248H108Q110 145 155 92T289 39Q335 39 372 51T441 83L456 39Z" />
<glyph unicode="&#x436;" glyph-name="uni0436" horiz-adv-x="700" d="M596 0L400 261L598 503H661L466 269L671 0H596ZM28 0L232 266L38 503H104L299 261L101 0H28ZM380 503V0H319V503H380Z" />
<glyph unicode="&#x437;" glyph-name="uni0437" horiz-adv-x="435" d="M193 -10Q145 -10 104 1T40 29L57 72Q83 55 119 46T194 36Q223 36 248 41T291 60T319 93T329 143Q329 194 297 216T201 239H127V287H201Q252 287 281 310T310 377Q310 425 278 447T192 469Q154
469 124 458T67 426L49 473Q72 489 109 501T196 513Q279 513 322 480T366 383Q366 330 337 302T263 267Q323 261 356 230T389 140Q389 100 374 72T332 25T270 -1T193 -10Z" />
<glyph unicode="&#x438;" glyph-name="uni0438" horiz-adv-x="575" d="M77 503H138V85L443 503H499V0H438V421L132 0H77V503Z" />
<glyph unicode="&#x439;" glyph-name="uni0439" horiz-adv-x="575" d="M290 559Q221 559 188 593T154 675H214Q214 598 290 598Q326 598 345 617T365 675H424Q424 627 391 593T290 559ZM77 503H138V85L443 503H499V0H438V421L132 0H77V503Z" />
<glyph unicode="&#x43a;" glyph-name="uni043A" horiz-adv-x="479" d="M383 0L157 266L379 503H445L225 273L456 0H383ZM138 503V0H77V503H138Z" />
<glyph unicode="&#x43b;" glyph-name="uni043B" horiz-adv-x="521" d="M157 110Q143 57 113 27T25 -1L18 50Q53 48 73 69T105 128Q114 158 120 194T129 276T135 377T137 503H445V0H383L382 459H191Q189 345 183 261T157 110Z" />
<glyph unicode="&#x43c;" glyph-name="uni043C" horiz-adv-x="654" d="M146 429L121 0H69L98 503H175L325 133L482 503H556L585 0H525L500 427L343 62H297L146 429Z" />
<glyph unicode="&#x43d;" glyph-name="uni043D" horiz-adv-x="555" d="M417 239H138V0H77V503H138V283H417V503H478V0H417V239Z" />
<glyph unicode="&#x43e;" glyph-name="uni043E" horiz-adv-x="572" d="M285 -10Q236 -10 193 7T117 58T65 141T46 252Q46 315 65 363T116 445T192 495T285 513Q334 513 378 496T455 445T507 364T527 252Q527 190 508 141T455 59T378 8T285 -10ZM285 36Q321 36
353 48T410 87T449 154T464 252Q464 309 450 349T410 416T353 455T285 468Q250 468 219 456T162 417T123 350T108 252Q108 195 122 155T162 88T218 49T285 36Z" />
<glyph unicode="&#x43f;" glyph-name="uni043F" horiz-adv-x="545" d="M407 459H138V0H77V503H468V0H407V459Z" />
<glyph unicode="&#x440;" glyph-name="uni0440" horiz-adv-x="589" d="M308 35Q345 35 377 48T432 88T468 156T481 252Q481 306 468 347T432 415T377 455T308 469Q271 469 239 456T182 416T143 348T129 252Q129 196 143 156T181 88T238 48T308 35ZM316 -10Q256
-10 211 17T138 94V-187H77V503H130L136 405Q163 456 209 484T319 513Q364 513 405 497T477 448T526 366T544 252Q544 187 526 138T476 56T404 7T316 -10Z" />
<glyph unicode="&#x441;" glyph-name="uni0441" horiz-adv-x="482" d="M291 -10Q238 -10 193 7T116 59T65 141T46 252Q46 313 65 361T118 444T197 495T296 513Q341 513 378 504T442 478L424 423Q395 445 365 455T293 466Q254 466 220 452T161 411T122 344T108
252Q108 148 159 93T297 38Q367 38 423 77L439 33Q413 15 376 3T291 -10Z" />
<glyph unicode="&#x442;" glyph-name="uni0442" horiz-adv-x="452" d="M256 459V0H194V459H27V503H425V459H256Z" />
<glyph unicode="&#x443;" glyph-name="uni0443" horiz-adv-x="496" d="M107 -196Q85 -196 70 -193T43 -186L53 -136Q62 -140 74 -143T104 -147Q137 -147 163 -120T219 -29L16 503H82L251 49L424 503H480L289 7Q271 -42 253 -79T213 -143T166 -182T107 -196Z" />
<glyph unicode="&#x444;" glyph-name="uni0444" horiz-adv-x="687" d="M313 -187V-8Q260 -5 213 12T128 61T70 141T48 252Q48 315 70 363T128 443T213 492T313 511V715H374V511Q425 509 472 492T557 443T616 363T639 252Q639 188 617 140T557 60T472 11T374 -8V-187H313ZM576
252Q576 304 560 343T515 409T451 450T374 466V38Q414 41 451 55T515 96T559 162T576 252ZM110 252Q110 200 127 161T172 96T236 55T313 38V466Q272 463 236 449T171 408T127 342T110 252Z" />
<glyph unicode="&#x445;" glyph-name="uni0445" horiz-adv-x="470" d="M228 220L77 0H18L199 260L33 503H105L245 303L382 503H442L273 262L453 0H381L228 220Z" />
<glyph unicode="&#x446;" glyph-name="uni0446" horiz-adv-x="575" d="M504 -159L491 0H77V503H138V44H417V503H478V44H551V-159H504Z" />
<glyph unicode="&#x447;" glyph-name="uni0447" horiz-adv-x="509" d="M371 0V227Q363 222 351 214T320 199T280 187T230 182Q146 182 103 224T59 354V503H121V353Q121 285 152 259T241 233Q266 233 288 238T327 250T355 264T371 274V503H433V0H371Z" />
<glyph unicode="&#x448;" glyph-name="uni0448" horiz-adv-x="759" d="M77 503H138V44H349V503H410V44H622V503H683V0H77V503Z" />
<glyph unicode="&#x449;" glyph-name="uni0449" horiz-adv-x="780" d="M709 -159L696 0H77V503H138V44H349V503H410V44H622V503H683V44H756V-159H709Z" />
<glyph unicode="&#x44a;" glyph-name="uni044A" horiz-adv-x="558" d="M224 288V44H319Q379 44 416 74T454 168Q454 231 420 259T325 288H224ZM163 459H27V503H224V332H326Q416 332 466 293T516 171Q516 128 501 96T460 43T398 11T319 0H163V459Z" />
<glyph unicode="&#x44b;" glyph-name="uni044B" horiz-adv-x="643" d="M567 0H506V503H567V0ZM138 288V44H230Q290 44 327 74T365 168Q365 231 331 259T236 288H138ZM77 503H138V332H237Q327 332 377 293T427 171Q427 128 412 96T371 43T309 11T230 0H77V503Z" />
<glyph unicode="&#x44c;" glyph-name="uni044C" horiz-adv-x="470" d="M136 288V44H231Q291 44 329 74T367 168Q367 231 333 259T238 288H136ZM75 503H136V332H238Q328 332 378 293T428 171Q428 128 413 96T372 43T310 11T231 0H75V503Z" />
<glyph unicode="&#x44d;" glyph-name="uni044D" horiz-adv-x="470" d="M184 -10Q139 -10 101 1T37 30L50 79Q77 59 111 49T177 39Q262 39 310 89T363 236H131V280H362Q355 366 309 415T187 465Q145 465 115 455T55 428L38 476Q62 493 97 503T186 513Q242 513 286
495T361 442T408 360T425 252Q425 190 407 142T357 59T281 8T184 -10Z" />
<glyph unicode="&#x44e;" glyph-name="uni044E" horiz-adv-x="747" d="M473 -10Q426 -10 386 6T314 55T265 133T244 238H138V0H77V503H138V282H245Q249 337 268 380T318 453T388 497T473 513Q522 513 564 496T637 445T687 364T705 252Q705 190 687 141T638 59T564
8T473 -10ZM473 35Q509 35 540 48T593 89T629 157T642 252Q642 306 629 347T594 415T540 455T473 469Q438 469 408 456T355 415T319 347T306 252Q306 198 319 158T354 90T407 49T473 35Z" />
<glyph unicode="&#x44f;" glyph-name="uni044F" horiz-adv-x="485" d="M347 224V459H258Q198 459 160 429T122 341Q122 284 156 254T252 224H347ZM347 180H227L104 0H35L170 194Q119 208 90 245T60 339Q60 379 75 409T116 461T178 492T258 503H408V0H347V180Z" />
<glyph unicode="&#x451;" glyph-name="uni0451" horiz-adv-x="512" d="M272 469Q210 469 165 425T110 292H408Q412 337 403 370T376 425T330 458T272 469ZM456 39Q429 18 387 4T284 -10Q170 -10 108 58T46 252Q46 313 63 361T112 444T184 495T274 513Q323 513
362 496T428 446T465 364T466 248H108Q110 145 155 92T289 39Q335 39 372 51T441 83L456 39ZM375 596Q355 596 344 609T332 639Q332 657 343 669T375 682Q395 682 406 670T418 639Q418 622 407 609T375 596ZM182 596Q163 596 151 609T139 639Q139 657 151 669T182
682Q202 682 213 670T225 639Q225 622 214 609T182 596Z" />
<glyph unicode="&#x452;" glyph-name="uni0452" horiz-adv-x="562" d="M490 -26Q490 -59 482 -88T456 -141T410 -179T339 -196L331 -146Q383 -141 406 -113T429 -35V350Q429 410 398 437T310 465Q276 465 249 456T201 430T165 392T138 346V0H77V570H-6V616H77V706H138V616H303V570H138V401H139Q149
423 165 443T205 479T258 504T325 513Q402 513 446 473T490 353V-26V-26Z" />
<glyph unicode="&#x453;" glyph-name="uni0453" horiz-adv-x="399" d="M387 459V0H326V503H618V459H387ZM255 716H330L234 575H186L255 716Z" />
<glyph unicode="&#x454;" glyph-name="uni0454" horiz-adv-x="479" d="M439 33Q413 15 376 3T291 -10Q238 -10 193 7T116 59T65 141T46 252Q46 313 65 361T118 444T197 495T296 513Q341 513 378 504T442 478L424 423Q395 445 365 455T293 466Q257 466 225 454T169
419T129 361T109 281H344V237H108Q113 140 163 89T297 38Q367 38 423 77L439 33V33Z" />
<glyph unicode="&#x455;" glyph-name="uni0455" horiz-adv-x="446" d="M215 -10Q176 -10 147 -5T96 7T60 23T37 38L56 89Q62 84 75 75T109 58T156 44T215 38Q243 38 267 43T309 60T337 89T347 133Q347 155 339 171T314 198T273 217T216 234Q185 241 155 250T102
275T65 315T50 376Q50 445 99 479T234 513Q291 513 327 503T383 482L369 432Q351 442 319 454T236 467Q209 467 185 463T144 448T117 421T107 380Q107 358 116 343T143 318T182 300T231 287Q261 280 292 271T349 246T391 204T407 137Q407 96 391 68T347 23T286
-2T215 -10Z" />
<glyph unicode="&#x456;" glyph-name="uni0456" horiz-adv-x="214" d="M107 597Q87 597 76 609T65 639Q65 656 76 669T107 682Q126 682 137 669T149 639Q149 622 138 610T107 597ZM138 503V0H77V503H138Z" />
<glyph unicode="&#x457;" glyph-name="uni0457" horiz-adv-x="214" d="M188 596Q168 596 157 609T145 639Q145 657 156 669T188 682Q207 682 218 670T230 639Q230 622 219 609T188 596ZM27 596Q8 596 -4 609T-16 639Q-16 657 -4 669T27 682Q47 682 59 670T71 639Q71
622 59 609T27 596ZM138 503V0H77V503H138Z" />
<glyph unicode="&#x458;" glyph-name="uni0458" horiz-adv-x="218" d="M112 597Q92 597 81 609T69 639Q69 656 80 669T112 682Q131 682 142 669T154 639Q154 622 143 610T112 597ZM143 -26Q143 -59 135 -88T109 -141T62 -179T-9 -196L-17 -146Q35 -141 58 -113T82
-35V503H143V-26Z" />
<glyph unicode="&#x459;" glyph-name="uni0459" horiz-adv-x="782" d="M157 110Q143 57 113 27T25 -1L18 50Q53 48 73 69T105 128Q114 158 120 194T129 276T135 377T137 503H445V320H549Q639 320 689 283T740 164Q740 121 725 90T684 39T621 10T542 0H383L382
459H191Q189 345 183 261T157 110ZM542 44Q601 44 639 71T677 160Q677 222 643 249T548 276H445V44H542Z" />
<glyph unicode="&#x45a;" glyph-name="uni045A" horiz-adv-x="812" d="M478 259V44H572Q631 44 669 69T708 153Q708 210 674 234T579 259H478ZM417 259H138V0H77V503H138V303H417V503H478V303H579Q668 303 719 268T770 156Q770 115 755 86T714 37T652 9T572 0H417V259Z" />
<glyph unicode="&#x45b;" glyph-name="uni045B" horiz-adv-x="562" d="M138 0H77V573H-7V616H77V725H138V616H302V573H138V402H139Q149 424 165 444T205 479T258 504T325 513Q402 513 446 473T490 353V0H429V350Q429 411 398 437T310 464Q276 464 249 455T201
429T165 391T138 346V0Z" />
<glyph unicode="&#x45c;" glyph-name="uni045C" horiz-adv-x="482" d="M383 0L157 266L379 503H445L225 273L456 0H383ZM138 503V0H77V503H138ZM295 716H370L274 575H226L295 716Z" />
<glyph unicode="&#x45e;" glyph-name="uni045E" horiz-adv-x="496" d="M257 559Q188 559 155 593T122 675H181Q181 598 257 598Q332 598 332 675H391Q391 627 358 593T257 559ZM107 -196Q85 -196 70 -193T43 -186L53 -136Q62 -140 74 -143T104 -147Q137 -147 163
-120T219 -29L16 503H82L251 49L424 503H480L289 7Q271 -42 253 -79T213 -143T166 -182T107 -196Z" />
<glyph unicode="&#x45f;" glyph-name="uni045F" horiz-adv-x="558" d="M307 0L301 -159H254L248 0H77V503H138V44H417V503H478V0H307Z" />
<glyph unicode="&#x490;" glyph-name="uni0490" horiz-adv-x="498" d="M150 646V0H85V695H395L403 873H458V646H150Z" />
<glyph unicode="&#x491;" glyph-name="uni0491" horiz-adv-x="405" d="M138 459V0H77V503H315L323 662H369V459H138Z" />
<glyph unicode="&#x492;" glyph-name="uni0492" horiz-adv-x="541" d="M28 376H129V695H501V646H194V376H396V327H194V0H129V327H28V376Z" />
<glyph unicode="&#x493;" glyph-name="uni0493" horiz-adv-x="443" d="M20 280H106V503H398V459H167V280H318V234H167V0H106V234H20V280Z" />
<glyph unicode="&#x49a;" glyph-name="uni049A" horiz-adv-x="644" d="M503 0L177 354L498 695H566L251 361L531 58H611V-181H560L549 0H503ZM150 695V0H85V695H150Z" />
<glyph unicode="&#x49b;" glyph-name="uni049B" horiz-adv-x="498" d="M383 0L157 266L379 503H445L225 273L411 53H474V-159H428L420 0H383ZM138 503V0H77V503H138Z" />
<glyph unicode="&#x4a2;" glyph-name="uni04A2" horiz-adv-x="738" d="M548 320H150V0H85V695H150V369H548V695H613V58H701V-181H651L640 0H548V320Z" />
<glyph unicode="&#x4a3;" glyph-name="uni04A3" horiz-adv-x="576" d="M417 239H138V0H77V503H138V283H417V503H478V53H552V-159H506L498 0H417V239Z" />
<glyph unicode="&#x4ae;" glyph-name="uni04AE" horiz-adv-x="588" d="M262 0V300L19 695H93L300 354L507 695H569L328 301V0H262Z" />
<glyph unicode="&#x4af;" glyph-name="uni04AF" horiz-adv-x="493" d="M216 -187V28L16 503H82L251 99L420 503H477L277 31V-187H216Z" />
<glyph unicode="&#x4b0;" glyph-name="uni04B0" horiz-adv-x="588" d="M262 0V264H96V313H254L19 695H93L300 354L507 695H569L335 313H497V264H328V0H262Z" />
<glyph unicode="&#x4b1;" glyph-name="uni04B1" horiz-adv-x="493" d="M216 -187V10H75V53H205L16 503H82L251 99L420 503H477L286 53H417V10H277V-187H216Z" />
<glyph unicode="&#x4ba;" glyph-name="uni04BA" horiz-adv-x="638" d="M138 695V374Q147 382 163 392T203 411T255 426T322 432Q376 432 419 418T494 375T542 299T559 188V0H493V187Q493 290 448 336T321 383Q274 383 240 374T183 354Q157 341 138 324V0H72V695H138Z" />
<glyph unicode="&#x4bb;" glyph-name="uni04BB" horiz-adv-x="562" d="M138 0H77V725H138V402H139Q149 424 165 444T205 479T258 504T325 513Q402 513 446 473T490 353V0H429V350Q429 411 398 437T310 464Q276 464 249 455T201 429T165 391T138 346V0Z" />
<glyph unicode="&#x4d8;" glyph-name="uni04D8" horiz-adv-x="701" d="M342 -10Q193 -10 122 77T50 340V376H580Q574 507 512 580T325 653Q250 653 196 632T104 582L90 637Q107 649 128 660T178 682T243 698T326 704Q406 704 467 679T569 608T631 495T652 347Q652
266 631 200T569 88T472 16T342 -10ZM343 39Q455 39 515 115T581 327H117Q118 251 132 197T173 107T243 56T343 39Z" />
<glyph unicode="&#x4d9;" glyph-name="uni04D9" horiz-adv-x="520" d="M237 34Q299 34 344 78T399 211H101Q97 166 106 133T133 78T179 45T237 34ZM53 464Q80 485 122 499T225 513Q339 513 401 445T463 251Q463 190 446 142T397 59T325 8T235 -10Q186 -10 147
7T81 57T44 139T43 255H401Q399 358 354 411T220 464Q174 464 137 452T68 420L53 464Z" />
<glyph unicode="&#x4e8;" glyph-name="uni04E8" horiz-adv-x="756" d="M378 -10Q307 -10 247 14T143 84T75 197T50 350Q50 436 74 502T143 613T247 681T378 704Q449 704 509 681T613 613T682 502T707 350Q707 264 683 198T614 85T510 14T378 -10ZM378 655Q324
655 278 638T197 587T142 499T118 374H638Q635 446 614 499T559 586T479 638T378 655ZM378 39Q433 39 479 56T560 108T615 197T639 325H117Q120 251 140 197T195 108T276 56T378 39Z" />
<glyph unicode="&#x4e9;" glyph-name="uni04E9" horiz-adv-x="571" d="M284 -10Q233 -10 190 7T114 58T63 141T45 252Q45 315 63 363T113 445T189 495T284 513Q335 513 379 496T456 445T507 364T526 252Q526 190 508 141T457 59T380 8T284 -10ZM284 469Q248 469
217 457T163 422T124 363T106 280H465Q461 327 446 362T407 421T352 457T284 469ZM284 35Q359 35 410 85T466 236H105Q110 135 160 85T284 35Z" />
</font>
</defs>
</svg>
