<?xml version="1.0" encoding="UTF-8"?>
<svg width="580px" height="580px" viewBox="0 0 580 580" version="1.1" xmlns="http://www.w3.org/2000/svg" xmlns:xlink="http://www.w3.org/1999/xlink">
    <!-- Generator: Sketch 46.2 (44496) - http://www.bohemiancoding.com/sketch -->
    <title>front_big</title>
    <desc>Created with Sketch.</desc>
    <defs>
        <polygon id="path-1" points="12.0794146 0.162983373 12.0794146 11.8602755 0.259953542 11.8602755 0.259953542 0.162983373"/>
        <polygon id="path-3" points="0.246876656 0.050736342 12.0667698 0.050736342 12.0667698 11.7471164 0.246876656 11.7471164"/>
    </defs>
    <g id="Large" stroke="none" stroke-width="1" fill="none" fill-rule="evenodd">
        <g id="big-copy" transform="translate(-2507.000000, -31.000000)">
            <g id="Group-Copy-3" transform="translate(2507.000000, 31.000000)">
                <rect id="Rectangle-11" x="0" y="0" width="580" height="580"/>
                <g id="highload_big" transform="translate(150.000000, 144.000000)">
                    <g id="Page-1">
                        <g id="Group-3" transform="translate(235.902440, 54.106034)">
                            <g id="Fill-1-Clipped">
                                <mask id="mask-2" fill="#059BA8">
                                    <use xlink:href="#path-1"/>
                                </mask>
                                <g id="path-1"/>
                                <path d="M12.0795587,6.01191448 C12.0795587,9.2416532 9.43422532,11.8602755 6.17162834,11.8602755 C2.90730314,11.8602755 0.259953542,9.2416532 0.259953542,6.01191448 C0.259953542,2.78103562 2.90730314,0.162983373 6.17162834,0.162983373 C9.43422532,0.162983373 12.0795587,2.78103562 12.0795587,6.01191448" id="Fill-1" fill="#059BA8" fill-rule="nonzero" mask="url(#mask-2)"/>
                            </g>
                        </g>
                        <g id="Group-6" transform="translate(54.439024, 0.234300)">
                            <g id="Fill-4-Clipped">
                                <mask id="mask-4" fill="#059BA8">
                                    <use xlink:href="#path-3"/>
                                </mask>
                                <g id="path-3"/>
                                <path d="M12.0667698,5.89932542 C12.0667698,9.1287791 9.4208604,11.7471164 6.15682322,11.7471164 C2.89365018,11.7471164 0.246876656,9.1287791 0.246876656,5.89932542 C0.246876656,2.67101188 2.89365018,0.050679335 6.15682322,0.050679335 C9.4208604,0.050679335 12.0667698,2.67101188 12.0667698,5.89932542" id="Fill-4" fill="#059BA8" fill-rule="nonzero" mask="url(#mask-4)"/>
                            </g>
                        </g>
                        <path d="M11.819922,60.1179478 C11.819922,63.3476864 9.17401254,65.9663088 5.90911126,65.9663088 C2.64536214,65.9663088 2.88037166e-05,63.3476864 2.88037166e-05,60.1179478 C2.88037166e-05,56.8870688 2.64536214,54.2690166 5.90911126,54.2690166 C9.17401254,54.2690166 11.819922,56.8870688 11.819922,60.1179478" id="Fill-7" fill="#059BA8" fill-rule="nonzero"/>
                        <path d="M66.5057942,60.1179478 C66.5057942,63.3476864 63.8598848,65.9663088 60.5958476,65.9663088 C57.3326746,65.9663088 54.685901,63.3476864 54.685901,60.1179478 C54.685901,56.8870688 57.3326746,54.2690166 60.5958476,54.2690166 C63.8598848,54.2690166 66.5057942,56.8870688 66.5057942,60.1179478" id="Fill-9" fill="#059BA8" fill-rule="nonzero"/>
                        <path d="M11.819922,114.100618 C11.819922,117.329501 9.17401254,119.949264 5.90911126,119.949264 C2.64536214,119.949264 2.88037166e-05,117.329501 2.88037166e-05,114.100618 C2.88037166e-05,110.871734 2.64536214,108.254252 5.90911126,108.254252 C9.17401254,108.254252 11.819922,110.871734 11.819922,114.100618" id="Fill-11" fill="#059BA8" fill-rule="nonzero"/>
                        <path d="M120.923849,114.100618 C120.923849,117.329501 118.279092,119.949264 115.013903,119.949264 C111.74929,119.949264 109.103956,117.329501 109.103956,114.100618 C109.103956,110.871734 111.74929,108.254252 115.013903,108.254252 C118.279092,108.254252 120.923849,110.871734 120.923849,114.100618" id="Fill-13" fill="#059BA8" fill-rule="nonzero"/>
                        <path d="M157.29122,78.1119334 C157.29122,81.3425274 154.645599,83.9605796 151.380986,83.9605796 C148.116949,83.9605796 145.473344,81.3425274 145.473344,78.1119334 C145.473344,74.8816248 148.116949,72.2635724 151.380986,72.2635724 C154.645599,72.2635724 157.29122,74.8816248 157.29122,78.1119334" id="Fill-15" fill="#059BA8" fill-rule="nonzero"/>
                        <path d="M193.658015,114.100618 C193.658015,117.329501 191.011242,119.949264 187.750661,119.949264 C184.486048,119.949264 181.838698,117.329501 181.838698,114.100618 C181.838698,110.871734 184.486048,108.254252 187.750661,108.254252 C191.011242,108.254252 193.658015,110.871734 193.658015,114.100618" id="Fill-17" fill="#059BA8" fill-rule="nonzero"/>
                        <path d="M66.3714824,114.100618 C66.3714824,117.329501 63.725861,119.949264 60.4615358,119.949264 C57.198939,119.949264 54.5515894,117.329501 54.5515894,114.100618 C54.5515894,110.870309 57.198939,108.254252 60.4615358,108.254252 C63.725861,108.254252 66.3714824,110.870309 66.3714824,114.100618" id="Fill-19" fill="#059BA8" fill-rule="nonzero"/>
                        <polygon id="Fill-21" fill="#059BA8" fill-rule="nonzero" points="29.457705 78.2857768 11.0411847 60.0608836 62.9719814 8.6743753 57.8348386 3.5887696 0.766610918 60.0608836 24.319122 83.3693872"/>
                        <polygon id="Fill-23" fill="#059BA8" fill-rule="nonzero" points="36.7653808 95.6851782 57.8329952 116.535819 62.9730184 111.451069 41.9022356 90.6024228"/>
                        <polygon id="Fill-25" fill="#059BA8" fill-rule="nonzero" points="187.565367 119.078993 151.233799 83.1237434 114.902807 119.078993 60.4030068 65.1476864 8.47278606 116.535905 3.33535516 111.450869 60.4030068 54.9776152 114.902807 108.908637 151.233799 72.9545274 187.565367 108.908637 239.49818 57.520133 244.634746 62.6034584"/>
                    </g>
                    <g id="Group-4" transform="translate(22.000000, 170.000000)" fill-rule="nonzero" fill="#059BA8">
                        <path d="M19.2728334,80 L11.7093668,80 L11.7093668,106.140846 L5.0983368,106.140846 L5.0983368,80 L0,80 L0,76.901408 L5.0983368,74.87324 L5.0983368,72.84507 C5.0983368,69.164302 5.9573886,66.436628 7.675518,64.661972 C9.3936474,62.887314 12.0174904,62 15.5471258,62 C17.8628654,62 20.1412202,62.384972 22.3822586,63.15493 L20.6454626,68.169014 C19.0207098,67.64319 17.4706814,67.380282 15.9953312,67.380282 C14.5013056,67.380282 13.4134846,67.845066 12.7318354,68.774648 C12.0501862,69.70423 11.7093668,71.098582 11.7093668,72.957746 L11.7093668,74.985916 L19.2728334,74.985916 L19.2728334,80 Z M49.946892,106.140846 L45.941056,91.605634 C45.455498,90.06572 44.577772,86.488292 43.30785,80.87324 L43.055734,80.87324 C41.972566,85.943688 41.113514,89.539896 40.478552,91.661972 L36.3606654,106.140846 L29.0773272,106.140846 L20.393347,74.985916 L27.1164284,74.985916 L31.0662386,90.338028 C31.962654,94.131474 32.5976054,97.380268 32.9711118,100.084508 L33.1391888,100.084508 C33.325942,98.713608 33.6107364,97.140854 33.9935804,95.366198 C34.3764244,93.59154 34.7079064,92.262916 34.9880362,91.380282 L39.6941932,74.985916 L46.921506,74.985916 L51.487598,91.380282 C51.767728,92.300474 52.117886,93.708912 52.53808,95.605634 C52.958274,97.502358 53.205718,98.976522 53.28042,100.02817 L53.504522,100.02817 C53.784652,97.718298 54.43828,94.488284 55.465422,90.338028 L59.471258,74.985916 L66.082288,74.985916 L57.342282,106.140846 L49.946892,106.140846 Z M81.853516,106.704226 C77.987724,106.704226 74.971706,105.295788 72.80537,102.478874 C70.639032,99.661958 69.55588,95.708946 69.55588,90.619718 C69.55588,85.511712 70.653038,81.535226 72.847388,78.69014 C75.041738,75.845056 78.081102,74.422536 81.965568,74.422536 C86.036788,74.422536 89.136844,75.934258 91.26583,78.957746 L91.601984,78.957746 C91.284504,76.722994 91.125766,74.957752 91.125766,73.661972 L91.125766,62.309858 L97.736796,62.309858 L97.736796,106.140846 L92.582434,106.140846 L91.433908,102.056338 L91.125766,102.056338 C89.015456,105.154944 85.924736,106.704226 81.853516,106.704226 Z M83.618324,101.352112 C86.326246,101.352112 88.296462,100.586862 89.529034,99.056338 C90.761606,97.525814 91.396556,95.04227 91.433908,91.605634 L91.433908,90.676056 C91.433908,86.751154 90.798956,83.96245 89.529034,82.30986 C88.259112,80.657268 86.27022,79.830986 83.5623,79.830986 C81.24656,79.830986 79.463094,80.774638 78.211848,82.661972 C76.9606,84.549306 76.334986,87.23942 76.334986,90.732394 C76.334986,94.18781 76.941926,96.821588 78.155822,98.633804 C79.369716,100.446018 81.190534,101.352112 83.618324,101.352112 Z M126.533994,106.140846 L125.217392,101.802816 L124.993288,101.802816 C123.499262,103.69954 121.995922,104.990606 120.483222,105.676058 C118.97052,106.361506 117.028316,106.704226 114.65655,106.704226 C111.612474,106.704226 109.236076,105.877942 107.527282,104.225352 C105.818492,102.572762 104.964108,100.234758 104.964108,97.211268 C104.964108,93.999984 106.149974,91.577474 108.521738,89.943662 C110.893506,88.309852 114.507126,87.417842 119.362708,87.267606 L124.71316,87.098592 L124.71316,85.43662 C124.71316,83.446 124.250954,81.957752 123.326524,80.97183 C122.402096,79.98591 120.968788,79.492958 119.026554,79.492958 C117.439152,79.492958 115.917136,79.727696 114.460462,80.197184 C113.003786,80.66667 111.603158,81.220654 110.258536,81.859156 L108.12956,77.12676 C109.810338,76.244126 111.64983,75.572772 113.648088,75.112676 C115.646348,74.65258 117.532526,74.422536 119.306682,74.422536 C123.247174,74.422536 126.221174,75.286376 128.228772,77.014084 C130.236368,78.741792 131.240152,81.45538 131.240152,85.15493 L131.240152,106.140846 L126.533994,106.140846 Z M116.729502,101.633804 C119.119942,101.633804 121.038802,100.962448 122.48614,99.619718 C123.933476,98.276988 124.657134,96.394378 124.657134,93.971832 L124.657134,91.267606 L120.679312,91.43662 C117.579208,91.549296 115.324198,92.070418 113.91421,93 C112.504224,93.929582 111.799242,95.352104 111.799242,97.267606 C111.799242,98.657284 112.210092,99.73239 113.031806,100.492958 C113.85352,101.253526 115.086072,101.633804 116.729502,101.633804 Z M135.722206,74.985916 L142.893492,74.985916 L149.196382,92.647888 C150.148824,95.164332 150.783774,97.530506 151.101254,99.746478 L151.325358,99.746478 C151.493436,98.71361 151.801574,97.460102 152.24978,95.985916 C152.69799,94.51173 155.06972,87.5118 159.365042,74.985916 L166.480304,74.985916 L153.23023,110.28169 C150.821114,116.760596 146.80598,120 141.18471,120 C139.728036,120 138.308732,119.840378 136.926758,119.521128 L136.926758,114.28169 C137.91655,114.507044 139.04639,114.619718 140.316312,114.619718 C143.491116,114.619718 145.722784,112.769972 147.01138,109.070422 L148.159906,106.140846 L135.722206,74.985916 Z M192,97.267606 C192,100.309874 190.898172,102.643184 188.694486,104.267606 C186.490798,105.892026 183.334716,106.704226 179.226146,106.704226 C175.0989,106.704226 171.78408,106.075124 169.281588,104.816902 L169.281588,99.098592 C172.923274,100.788742 176.312794,101.633804 179.450248,101.633804 C183.502792,101.633804 185.529034,100.403768 185.529034,97.943662 C185.529034,97.154926 185.304934,96.497656 184.856726,95.971832 C184.408518,95.446006 183.670854,94.901412 182.643712,94.338028 C181.61657,93.774646 180.187928,93.136154 178.357748,92.422536 C174.79076,91.032856 172.377012,89.6432 171.116428,88.25352 C169.855844,86.863844 169.225562,85.061044 169.225562,82.84507 C169.225562,80.17839 170.294708,78.107988 172.433032,76.633802 C174.571356,75.159618 177.479994,74.422536 181.15903,74.422536 C184.800718,74.422536 188.246264,75.164312 191.495768,76.647888 L189.366794,81.633804 C186.02391,80.244124 183.213318,79.549296 180.934928,79.549296 C177.46132,79.549296 175.72454,80.544592 175.72454,82.535212 C175.72454,83.511742 176.17741,84.338024 177.083164,85.014084 C177.988916,85.690144 179.963802,86.619712 183.007878,87.802816 C185.566398,88.798128 187.424564,89.708916 188.582434,90.535212 C189.740304,91.361508 190.599354,92.31455 191.159616,93.394366 C191.719874,94.474184 192,95.765252 192,97.267606 Z" id="fwdays"/>
                        <path d="M39.291533,44.287362 L28.1097784,44.287362 L28.1097784,27.676116 L15.1817546,27.676116 L15.1817546,44.287362 L4,44.287362 L4,3.539644 L15.1817546,3.539644 L15.1817546,18.645844 L28.1097784,18.645844 L28.1097784,3.539644 L39.291533,3.539644 L39.291533,44.287362 Z M57.651768,44.287362 L46.639006,44.287362 L46.639006,12.709274 L57.651768,12.709274 L57.651768,44.287362 Z M46.35735,4.849592 C46.35735,3.214472 46.817384,1.99744 47.737466,1.198462 C48.657548,0.399482 50.140924,0 52.187636,0 C54.234348,0 55.727112,0.408774 56.66597,1.226334 C57.60483,2.043892 58.074252,3.251634 58.074252,4.849592 C58.074252,8.045508 56.112066,9.64344 52.187636,9.64344 C48.30076,9.64344 46.35735,8.045508 46.35735,4.849592 Z M94.488654,12.709274 L94.488654,17.976934 L90.122982,19.565594 C90.723852,20.643286 91.024282,21.897478 91.024282,23.328208 C91.024282,26.728514 89.817866,29.366962 87.405,31.243632 C84.992132,33.120304 81.391662,34.058626 76.603482,34.058626 C75.420518,34.058626 74.481674,33.984304 73.786918,33.835656 C73.524038,34.31876 73.392598,34.773986 73.392598,35.201346 C73.392598,35.740192 73.833856,36.15361 74.716384,36.441616 C75.59891,36.72962 76.75369,36.873618 78.180756,36.873618 L83.475894,36.873618 C90.63,36.873618 94.206998,39.85581 94.206998,45.820278 C94.206998,49.666526 92.549938,52.658006 89.235766,54.79481 C85.921592,56.931614 81.269616,58 75.279696,58 C70.754396,58 67.266586,57.25213 64.816164,55.756368 C62.365742,54.260606 61.14055,52.109898 61.14055,49.304182 C61.14055,45.532258 63.50644,43.098196 68.238288,42.001922 C67.261876,41.593142 66.41222,40.93353 65.6893,40.023066 C64.966378,39.112602 64.604922,38.211442 64.604922,37.319558 C64.604922,36.33477 64.877188,35.466126 65.421726,34.713598 C65.966264,33.961072 67.102266,33.064558 68.829766,32.024028 C67.177376,31.299372 65.877074,30.165954 64.928828,28.623738 C63.98058,27.081524 63.506464,25.20488 63.506464,22.993754 C63.506464,19.556286 64.689408,16.889966 67.055332,14.994714 C69.421256,13.099462 72.801098,12.15185 77.194958,12.15185 C77.777052,12.15185 78.781616,12.216882 80.208682,12.346948 C81.635746,12.477016 82.687252,12.59779 83.363232,12.709274 L94.488654,12.709274 Z M70.435208,48.217204 C70.435208,49.109086 70.923408,49.829086 71.89982,50.377222 C72.876234,50.92536 74.181228,51.199424 75.814842,51.199424 C78.481202,51.199424 80.617074,50.869618 82.222524,50.209996 C83.827972,49.550374 84.630684,48.70031 84.630684,47.65978 C84.630684,46.823638 84.142484,46.233704 83.166072,45.889956 C82.189658,45.54621 80.79078,45.37434 78.969394,45.37434 L74.660052,45.37434 C73.47709,45.37434 72.47722,45.648404 71.660412,46.19654 C70.843606,46.744678 70.435208,47.418224 70.435208,48.217204 Z M73.89958,23.049496 C73.89958,26.282572 75.035582,27.899088 77.30762,27.899088 C78.359144,27.899088 79.171244,27.499604 79.743948,26.700624 C80.316652,25.901646 80.603,24.703196 80.603,23.105238 C80.603,19.834998 79.504552,18.199904 77.30762,18.199904 C75.035582,18.199904 73.89958,19.816418 73.89958,23.049496 Z M118.45385,44.287362 L118.45385,27.06295 C118.45385,22.826504 117.186408,20.708314 114.65149,20.708314 C112.84888,20.708314 111.520416,21.456184 110.666054,22.951946 C109.811692,24.44771 109.384518,26.932868 109.384518,30.407496 L109.384518,44.287362 L98.371756,44.287362 L98.371756,0.91975 L109.384518,0.91975 L109.384518,7.079288 C109.384518,9.866424 109.234302,13.04371 108.933868,16.611244 L109.440848,16.611244 C110.49237,14.976126 111.741034,13.824126 113.186878,13.155214 C114.63272,12.486302 116.313252,12.15185 118.228524,12.15185 C121.79619,12.15185 124.570476,13.169138 126.551468,15.203748 C128.53246,17.238358 129.522942,20.085838 129.522942,23.746276 L129.522942,44.287362 L118.45385,44.287362 Z M147.066372,44.287362 L136.053612,44.287362 L136.053612,0.91975 L147.066372,0.91975 L147.066372,44.287362 Z M184.213082,28.42864 C184.213082,33.594132 182.80951,37.621482 180.00232,40.510812 C177.195132,43.400142 173.266066,44.844786 168.215004,44.844786 C163.370492,44.844786 159.516534,43.367628 156.653014,40.413262 C153.789494,37.4589 152.357756,33.464064 152.357756,28.42864 C152.357756,23.28173 153.76133,19.28225 156.568518,16.430082 C159.375706,13.577914 163.31416,12.15185 168.383998,12.15185 C171.519788,12.15185 174.28938,12.811462 176.692858,14.130706 C179.096338,15.44995 180.950558,17.34053 182.25557,19.802498 C183.560586,22.264468 184.213082,25.13982 184.213082,28.42864 Z M163.53951,28.42864 C163.53951,31.141452 163.90566,33.208546 164.63797,34.629986 C165.37028,36.051424 166.600168,36.762134 168.327668,36.762134 C170.03639,36.762134 171.242808,36.051424 171.94695,34.629986 C172.651096,33.208546 173.003162,31.141452 173.003162,28.42864 C173.003162,25.73441 172.646402,23.69983 171.932868,22.324844 C171.219334,20.949858 169.998838,20.262374 168.271336,20.262374 C166.58139,20.262374 165.37028,20.945212 164.63797,22.310908 C163.90566,23.676604 163.53951,25.715828 163.53951,28.42864 Z M210.34703,44.287362 L208.234608,40.10668 L208.009284,40.10668 C206.525886,41.927608 205.014346,43.17251 203.474616,43.841422 C201.934888,44.510336 199.944538,44.844786 197.503504,44.844786 C194.499154,44.844786 192.133266,43.952916 190.405764,42.16915 C188.678264,40.385382 187.814528,37.876998 187.814528,34.643922 C187.814528,31.280778 188.997472,28.777038 191.363396,27.132628 C193.729322,25.488218 197.156104,24.563832 201.643852,24.359442 L206.967156,24.192216 L206.967156,23.746276 C206.967156,21.144948 205.671548,19.844306 203.080298,19.844306 C200.751928,19.844306 197.794566,20.624692 194.208124,22.185488 L191.02541,14.994714 C194.74329,13.099462 199.437516,12.15185 205.108224,12.15185 C209.201648,12.15185 212.37025,13.155204 214.614122,15.161942 C216.857996,17.168678 217.979916,19.974352 217.979916,23.579048 L217.979916,44.287362 L210.34703,44.287362 Z M202.178998,37.15233 C203.512178,37.15233 204.652874,36.734266 205.601122,35.898126 C206.54937,35.061986 207.023486,33.975018 207.023486,32.637194 L207.023486,30.184526 L204.48858,30.296012 C200.864584,30.426078 199.052614,31.745302 199.052614,34.253724 C199.052614,36.186138 200.094732,37.15233 202.178998,37.15233 Z M234.424888,44.844786 C232.15285,44.844786 230.167192,44.203754 228.467858,42.921672 C226.768522,41.63959 225.45414,39.753656 224.52467,37.263816 C223.595198,34.773974 223.13047,31.866106 223.13047,28.540126 C223.13047,23.411796 224.172588,19.39838 226.256856,16.49976 C228.341122,13.601138 231.204598,12.15185 234.847372,12.15185 C236.631204,12.15185 238.19438,12.504882 239.53695,13.210956 C240.879518,13.91703 242.10471,15.10619 243.212564,16.778472 L243.43789,16.778472 C243.081122,14.307212 242.902742,11.835988 242.902742,9.364728 L242.902742,0.91975 L254,0.91975 L254,44.287362 L245.69114,44.287362 L243.325226,40.301778 L242.902742,40.301778 C241.006246,43.330466 238.180324,44.844786 234.424888,44.844786 Z M238.931388,36.23258 C240.696442,36.23258 241.940414,35.684452 242.663334,34.58818 C243.386256,33.491906 243.775876,31.801068 243.832208,29.515618 L243.832208,28.65161 C243.832208,25.864474 243.428504,23.880992 242.621086,22.701104 C241.813666,21.521218 240.546226,20.931284 238.818726,20.931284 C237.372882,20.931284 236.250964,21.60483 235.452934,22.951946 C234.654902,24.299062 234.255894,26.21751 234.255894,28.707352 C234.255894,31.160032 234.659598,33.027384 235.467016,34.309466 C236.274434,35.59155 237.429214,36.23258 238.931388,36.23258 Z" id="Highload"/>
                    </g>
                </g>
            </g>
        </g>
    </g>
</svg>