<?xml version="1.0" encoding="UTF-8"?>
<!-- Generator: Adobe Illustrator 15.0.0, SVG Export Plug-In . SVG Version: 6.00 Build 0)  -->
<!DOCTYPE svg PUBLIC "-//W3C//DTD SVG 1.1//EN" "http://www.w3.org/Graphics/SVG/1.1/DTD/svg11.dtd">
<svg version="1.1" xmlns="http://www.w3.org/2000/svg" xmlns:xlink="http://www.w3.org/1999/xlink" x="0px" y="0px" width="350px" height="700px" viewBox="1421.5273 -611.335 350 700" enable-background="new 1421.5273 -611.335 350 700" xml:space="preserve">
<g id="Layer_3">
	<rect x="1421.5273" y="-611.335" fill="#FFFFFF" width="350" height="700"/>
</g>
<g id="Layer_5">
	<g>
		
			<line fill="none" stroke="#BCBEC0" stroke-width="1.4" stroke-linecap="round" stroke-linejoin="round" stroke-dasharray="2.8,2.8" x1="1503.8555" y1="-171.353" x2="1643.8555" y2="71.1343"/>
		
			<line fill="none" stroke="#BCBEC0" stroke-width="1.4" stroke-linecap="round" stroke-linejoin="round" stroke-dasharray="2.8,2.8" x1="1503.8555" y1="71.1343" x2="1643.8555" y2="-171.353"/>
		
			<polygon fill="none" stroke="#BCBEC0" stroke-width="1.4" stroke-linecap="round" stroke-linejoin="round" stroke-dasharray="2.8,2.8" points="    1503.8555,71.1343 1433.8555,-50.1099 1503.8555,-171.353 1643.8555,-171.353 1713.8555,-50.1099 1643.8555,71.1343   "/>
		
			<polyline fill="none" stroke="#666666" stroke-width="1.4" stroke-linecap="round" stroke-linejoin="round" stroke-dasharray="1.4,2.8" points="    1657.8555,-50.1099 1615.8555,22.6362 1531.8555,22.6362 1503.8555,-25.8608   "/>
		
			<line fill="none" stroke="#666666" stroke-width="1.4" stroke-linecap="round" stroke-linejoin="round" stroke-dasharray="5.6,2.8" x1="1573.8555" y1="-50.1099" x2="1763.834" y2="-50.1099"/>
		
			<line fill="none" stroke="#BCBEC0" stroke-width="1.4" stroke-linecap="round" stroke-linejoin="round" stroke-dasharray="2.8,2.8" x1="1433.8555" y1="-50.1099" x2="1573.8555" y2="-50.1099"/>
		<g>
			<circle fill="#FF0000" cx="1713.8555" cy="-50.1099" r="7"/>
			<circle fill="none" stroke="#000000" stroke-width="0.42" cx="1713.8555" cy="-50.1099" r="7"/>
		</g>
		<g>
			<circle fill="#00FFFF" cx="1433.8555" cy="-50.1099" r="7"/>
			<circle fill="none" stroke="#000000" stroke-width="0.42" cx="1433.8555" cy="-50.1099" r="7"/>
		</g>
		<g>
			<circle fill="#0000FF" cx="1503.8555" cy="71.1343" r="7"/>
			<circle fill="none" stroke="#000000" stroke-width="0.42" cx="1503.8555" cy="71.1343" r="7"/>
		</g>
		<g>
			<circle fill="#7F7F7F" cx="1573.8555" cy="-50.1099" r="7"/>
			<circle fill="none" stroke="#000000" stroke-width="0.42" cx="1573.8555" cy="-50.1099" r="7"/>
		</g>
		<g>
			<circle fill="#FF00FF" cx="1643.8555" cy="71.1343" r="7"/>
			<circle fill="none" stroke="#000000" stroke-width="0.42" cx="1643.8555" cy="71.1343" r="7"/>
		</g>
		<g>
			<circle fill="#FFFF00" cx="1643.8555" cy="-171.353" r="7"/>
			<circle fill="none" stroke="#000000" stroke-width="0.42" cx="1643.8555" cy="-171.353" r="7"/>
		</g>
		<g>
			<circle fill="#00FF00" cx="1503.8555" cy="-171.353" r="7"/>
			<circle fill="none" stroke="#000000" stroke-width="0.42" cx="1503.8555" cy="-171.353" r="7"/>
		</g>
		<g>
			<g>
				
					<line fill="none" stroke="#58595B" stroke-width="1.4" stroke-linecap="round" stroke-linejoin="round" x1="1718.6279" y1="-77.1763" x2="1734.2549" y2="-50.1099"/>
				<polygon fill="#58595B" points="1722.2773,-76.8809 1713.9443,-85.2139 1716.9941,-73.8306     "/>
			</g>
		</g>
		<g>
			<path d="M1732.7217-80.9121l-0.9072,4.7715h5.208l0.9072-4.7715h1.3945l-2.1504,11.3232h-1.3945l0.9912-5.3257h-5.1914     l-1.0078,5.3257h-1.3945l2.1504-11.3232H1732.7217z"/>
		</g>
		<g>
			<path d="M1742.0381-22.5923c-0.6387,0.2856-1.6631,0.5376-2.9404,0.5376c-2.8555,0-4.5859-1.7974-4.5859-4.687     c0-2.1338,0.8564-4.1665,2.4023-5.46c1.1758-0.9912,2.6211-1.5122,4.2842-1.5122c1.2432,0,2.1504,0.3193,2.4521,0.5376     l-0.4531,1.1255c-0.4199-0.252-1.2266-0.4536-2.2344-0.4536c-1.1758,0-2.3691,0.4536-3.2422,1.2603     c-1.0586,0.9912-1.7305,2.5869-1.7305,4.3008c0,2.0327,0.9238,3.6958,3.4434,3.6958c0.8574,0,1.7979-0.168,2.4199-0.4873     L1742.0381-22.5923z"/>
		</g>
		<g>
			<path d="M1499.0439-18.2119c0.6221-0.1509,1.5293-0.252,2.4531-0.252c1.0918,0,2.1338,0.269,2.7715,0.8735     c0.5381,0.4873,0.8232,1.1592,0.8232,2.0498c0,1.2598-0.6211,2.335-1.3604,2.9565c-0.874,0.7393-2.1504,1.0752-3.4277,1.0752     c-0.4365,0-0.8057-0.0332-1.1592-0.084l-0.8564,4.5361h-1.3779L1499.0439-18.2119z M1499.3633-12.7686     c0.3867,0.084,0.7227,0.1177,1.126,0.1177c1.915,0,3.1914-1.1929,3.1914-2.7891c0-1.3608-0.957-1.8984-2.251-1.8984     c-0.5547,0-0.9746,0.0508-1.2266,0.1177L1499.3633-12.7686z"/>
		</g>
		<g>
			<path fill="#58595B" d="M1699.1221-42.5229c0,2.6509-0.9951,4.1138-2.71,4.1138c-1.5234,0-2.5664-1.4272-2.5908-4.0059     c0-2.6265,1.1396-4.0537,2.7227-4.0537C1698.1748-46.4688,1699.1221-45.0054,1699.1221-42.5229z M1694.8887-42.4028     c0,2.0269,0.624,3.1782,1.583,3.1782c1.0674,0,1.583-1.2593,1.583-3.25c0-1.9189-0.4795-3.1787-1.583-3.1787     C1695.5605-45.6533,1694.8887-44.5259,1694.8887-42.4028z"/>
			<path fill="#58595B" d="M1704.0322-45.2095c0,0.9717-0.7803,1.6074-1.6074,1.6074c-0.9355,0-1.5713-0.708-1.5713-1.5474     c0-0.9233,0.708-1.6191,1.6074-1.6191C1703.4443-46.7686,1704.0322-46.0249,1704.0322-45.2095z M1701.501-45.1494     c0,0.5518,0.3965,0.9834,0.9355,0.9834c0.5518,0,0.9473-0.4438,0.9473-1.0312c0-0.4438-0.2637-1.0073-0.959-1.0073     C1701.8135-46.2046,1701.501-45.665,1701.501-45.1494z"/>
		</g>
		<g>
			<path fill="#58595B" d="M1516.5146-166.6875h-0.0234l-1.3555,0.7319l-0.2041-0.8037l1.7031-0.9116h0.8994v7.7959h-1.0195     V-166.6875z"/>
			<path fill="#58595B" d="M1520.3809-159.875v-0.6475l0.8271-0.8037c1.9912-1.895,2.9023-2.9023,2.9023-4.0776     c0-0.7915-0.3721-1.5234-1.5352-1.5234c-0.707,0-1.2949,0.3599-1.6553,0.6597l-0.3359-0.7437     c0.5283-0.4438,1.3076-0.7915,2.1953-0.7915c1.6787,0,2.3867,1.1514,2.3867,2.2666c0,1.4395-1.0439,2.603-2.6865,4.186     l-0.6113,0.5757v0.0239h3.4893v0.8755H1520.3809z"/>
			<path fill="#58595B" d="M1531.7295-163.8569c0,2.6509-0.9951,4.1138-2.71,4.1138c-1.5234,0-2.5664-1.4272-2.5908-4.0059     c0-2.6265,1.1396-4.0537,2.7227-4.0537C1530.7822-167.8027,1531.7295-166.3394,1531.7295-163.8569z M1527.4961-163.7368     c0,2.0269,0.624,3.1782,1.583,3.1782c1.0674,0,1.583-1.2593,1.583-3.25c0-1.9189-0.4795-3.1787-1.583-3.1787     C1528.168-166.9873,1527.4961-165.8599,1527.4961-163.7368z"/>
			<path fill="#58595B" d="M1536.6396-166.5435c0,0.9717-0.7803,1.6074-1.6074,1.6074c-0.9355,0-1.5713-0.708-1.5713-1.5474     c0-0.9233,0.708-1.6191,1.6074-1.6191C1536.0518-168.1025,1536.6396-167.3589,1536.6396-166.5435z M1534.1084-166.4834     c0,0.5518,0.3965,0.9834,0.9355,0.9834c0.5518,0,0.9473-0.4438,0.9473-1.0312c0-0.4438-0.2637-1.0073-0.959-1.0073     C1534.4209-167.5386,1534.1084-166.999,1534.1084-166.4834z"/>
		</g>
		<g>
			<path fill="#58595B" d="M1514.2246,68.125v-0.6475l0.8271-0.8037c1.9912-1.895,2.9023-2.9023,2.9023-4.0776     c0-0.7915-0.3721-1.5234-1.5352-1.5234c-0.707,0-1.2949,0.3599-1.6553,0.6597l-0.3359-0.7437     c0.5283-0.4438,1.3076-0.7915,2.1953-0.7915c1.6787,0,2.3867,1.1514,2.3867,2.2666c0,1.4395-1.0439,2.603-2.6865,4.186     l-0.6113,0.5757v0.0239h3.4893v0.8755H1514.2246z"/>
			<path fill="#58595B" d="M1523.6426,68.125v-2.1348h-3.6221v-0.6836l3.4785-4.9775h1.1387v4.8457h1.0918v0.8154h-1.0918v2.1348     H1523.6426z M1523.6426,65.1748v-2.6025c0-0.4082,0.0117-0.8159,0.0361-1.2236h-0.0361     c-0.2393,0.4561-0.4316,0.7915-0.6475,1.1514l-1.9072,2.6504v0.0244H1523.6426z"/>
			<path fill="#58595B" d="M1531.7295,64.1431c0,2.6509-0.9951,4.1138-2.71,4.1138c-1.5234,0-2.5664-1.4272-2.5908-4.0059     c0-2.6265,1.1396-4.0537,2.7227-4.0537C1530.7822,60.1973,1531.7295,61.6606,1531.7295,64.1431z M1527.4961,64.2632     c0,2.0269,0.624,3.1782,1.583,3.1782c1.0674,0,1.583-1.2593,1.583-3.25c0-1.9189-0.4795-3.1787-1.583-3.1787     C1528.168,61.0127,1527.4961,62.1401,1527.4961,64.2632z"/>
			<path fill="#58595B" d="M1536.6396,61.4565c0,0.9717-0.7803,1.6074-1.6074,1.6074c-0.9355,0-1.5713-0.708-1.5713-1.5474     c0-0.9233,0.708-1.6191,1.6074-1.6191C1536.0518,59.8975,1536.6396,60.6411,1536.6396,61.4565z M1534.1084,61.5166     c0,0.5518,0.3965,0.9834,0.9355,0.9834c0.5518,0,0.9473-0.4438,0.9473-1.0312c0-0.4438-0.2637-1.0073-0.959-1.0073     C1534.4209,60.4614,1534.1084,61.001,1534.1084,61.5166z"/>
		</g>
		<g>
			<path d="M1578.127-35.5127c0,1.9653-0.7217,4.1328-2.0664,5.4766c-0.9912,0.9912-2.3184,1.5791-3.8799,1.5791     c-2.9238,0-4.2842-2.2007-4.2842-4.603c0-1.999,0.7725-4.1997,2.1504-5.5605c0.9746-0.9409,2.3682-1.5288,3.7969-1.5288     C1576.9014-40.1494,1578.127-37.9321,1578.127-35.5127z M1571.0713-37.8481c-1.0918,1.0923-1.7139,3.0913-1.7139,4.6704     c0,1.8481,0.8232,3.5449,3.041,3.5449c0.958,0,1.8818-0.4199,2.5869-1.1255c1.0586-1.0752,1.6807-3.1079,1.6807-4.6875     c0-1.6128-0.5215-3.5278-3.0078-3.5278C1572.6504-38.9736,1571.7773-38.5366,1571.0713-37.8481z"/>
		</g>
		<g>
			<path d="M1449.3447-2.1113c0.6221-0.1509,1.5293-0.252,2.4531-0.252c1.0918,0,2.1338,0.269,2.7715,0.8735     c0.5381,0.4873,0.8232,1.1592,0.8232,2.0498c0,1.2598-0.6211,2.335-1.3604,2.9565c-0.874,0.7393-2.1504,1.0752-3.4277,1.0752     c-0.4365,0-0.8057-0.0332-1.1592-0.084l-0.8564,4.5361h-1.3779L1449.3447-2.1113z M1449.6641,3.332     c0.3867,0.084,0.7227,0.1177,1.126,0.1177c1.915,0,3.1914-1.1929,3.1914-2.7891c0-1.3608-0.957-1.8984-2.251-1.8984     c-0.5547,0-0.9746,0.0508-1.2266,0.1177L1449.6641,3.332z"/>
			<path d="M1459.6934-2.5815c-0.6211,1.4111-1.6299,3.2256-2.2002,3.9985l-0.9746,0.1006     c0.5205-0.9912,1.2598-2.7217,1.6465-3.9312L1459.6934-2.5815z"/>
		</g>
		<g>
			<path d="M1532.2852-21.2275c-0.418,0.4062-1.1504,0.896-2.1504,1.2598c-2.2383,0.8145-4.1055-0.1006-4.9297-2.3643     c-0.6074-1.6719-0.5156-3.5098,0.3262-4.9629c0.6387-1.1118,1.623-1.9316,2.9258-2.4062     c0.9746-0.3545,1.7754-0.3638,2.0762-0.2783l-0.0352,1.0112c-0.4004-0.0776-1.0898-0.0059-1.8809,0.2817     c-0.9199,0.335-1.7266,1.0303-2.1816,1.9111c-0.5469,1.0791-0.6172,2.52-0.1289,3.8628c0.5781,1.5938,1.7773,2.6333,3.752,1.9146     c0.6719-0.2441,1.3613-0.6436,1.7559-1.0713L1532.2852-21.2275z"/>
			<path d="M1534.8516-26.8555l-0.2871-0.79l6.793-2.4717l0.2871,0.79L1534.8516-26.8555z M1535.791-24.2754l-0.2871-0.79     l6.791-2.4717l0.2871,0.79L1535.791-24.2754z"/>
			<path d="M1543.9199-34.5234c0.2305-0.3071,0.7207-0.7231,1.3652-0.958c1.1328-0.4116,1.8262,0.0215,2.0566,0.6523     c0.1953,0.54-0.0273,1.1133-0.582,1.5542l0.0098,0.0264c0.748-0.1538,1.4434,0.1602,1.6875,0.8311     c0.2969,0.8164-0.1758,1.8081-1.5195,2.2964c-0.6309,0.2305-1.2734,0.27-1.6465,0.1826l-0.0039-0.7451     c0.2637,0.0688,0.8613,0.0747,1.3496-0.1025c0.8164-0.2969,0.998-0.8999,0.8379-1.3032     c-0.2441-0.6709-1.0391-0.6812-1.7305-0.4146l-0.3555,0.1294l-0.2207-0.6055l0.3672-0.1343     c0.4883-0.1768,1.1172-0.6582,0.8984-1.2637c-0.1211-0.3301-0.4785-0.5723-1.0703-0.3564     c-0.4727,0.1724-0.832,0.54-0.9883,0.7617L1543.9199-34.5234z"/>
			<path d="M1548.5684-26.6587l1.7832-10.6655l0.7363-0.2686l-1.7832,10.666L1548.5684-26.6587z"/>
			<path d="M1554.1074-33.8018l-2.041,0.7422l0.2363,1.1816c0.0996-0.0518,0.2305-0.0996,0.4023-0.1621     c0.4355-0.1582,0.8926-0.2505,1.3262-0.1689c0.4746,0.0801,0.9668,0.4072,1.2012,1.0527     c0.3691,1.0127-0.1875,2.0654-1.3984,2.5063c-0.5781,0.2104-1.1797,0.2358-1.4961,0.187l-0.0547-0.7251     c0.2715,0.0493,0.7754,0.0449,1.2754-0.1372c0.5938-0.2153,1.0254-0.7891,0.7949-1.4209     c-0.2207-0.6055-0.7988-0.8872-1.8652-0.499c-0.2891,0.105-0.5391,0.2402-0.7324,0.3252l-0.5723-2.6377l2.6602-0.9678     L1554.1074-33.8018z"/>
		</g>
		<g>
			<circle fill="#00B3FF" cx="1457.1875" cy="-9.6948" r="3.5"/>
			<circle fill="none" stroke="#000000" stroke-width="0.42" cx="1457.1875" cy="-9.6948" r="3.5"/>
		</g>
		<g>
			<path d="M1485.8105-74.0352l3.0703,2.6406l2.166-3.7632l-3.0693-2.6401l0.5801-1.0078l7.2871,6.2646l-0.5801,1.0078     l-3.4355-2.9321l-2.1602,3.751l3.4287,2.9438l-0.5801,1.0078l-7.2871-6.2646L1485.8105-74.0352z"/>
			<path d="M1494.3506-79.4062l-0.7275-0.4189l3.6064-6.2642l0.7275,0.4189L1494.3506-79.4062z M1496.7305-78.0361l-0.7285-0.4199     l3.6064-6.2637l0.7285,0.4194L1496.7305-78.0361z"/>
			<path d="M1504.1211-86.9146l-0.6553-0.3774l-0.3311-1.3062c-0.7578-3.1196-1.2461-4.6289-2.4355-5.314     c-0.8008-0.4614-1.7588-0.5112-2.4365,0.666c-0.4131,0.7163-0.3906,1.5205-0.2969,2.0596l-0.9482-0.0938     c-0.1426-0.7925-0.0391-1.7842,0.4775-2.6826c0.9785-1.6992,2.5557-1.7441,3.6846-1.0938     c1.457,0.8379,2.0264,2.5718,2.6719,5.1582l0.2256,0.9541l0.0244,0.0142l2.0342-3.5322l0.8857,0.5103L1504.1211-86.9146z"/>
			<path d="M1506.7012-100.7148c2.6836,1.5444,3.584,3.4048,2.584,5.1406c-0.8877,1.542-2.9404,1.7656-5.5645,0.2871     c-2.6582-1.5303-3.4385-3.5156-2.5156-5.1182C1502.1553-102.0557,1504.1885-102.1616,1506.7012-100.7148z M1504.3545-96.3604     c2.0518,1.1807,3.5801,1.2212,4.1396,0.25c0.6221-1.0806-0.3516-2.3364-2.3662-3.4966c-1.9424-1.1187-3.4971-1.3667-4.1396-0.25     C1501.457-98.9346,1502.2061-97.5977,1504.3545-96.3604z"/>
			<path d="M1510.2842-106.939c2.6836,1.5444,3.584,3.4048,2.585,5.1411c-0.8877,1.5415-2.9404,1.7656-5.5645,0.2866     c-2.6582-1.5303-3.4385-3.5151-2.5156-5.1177C1505.7393-108.2798,1507.7715-108.3857,1510.2842-106.939z M1507.9385-102.5845     c2.0518,1.1812,3.5801,1.2212,4.1396,0.2505c0.6221-1.0811-0.3525-2.3369-2.3672-3.4971     c-1.9424-1.1182-3.4961-1.3667-4.1387-0.25C1505.041-105.1582,1505.79-103.8218,1507.9385-102.5845z"/>
			<path d="M1509.8633-112.4951c0.9834,0.5664,1.1729,1.7256,0.6904,2.563c-0.5449,0.9468-1.6328,1.1782-2.4824,0.689     c-0.9346-0.5386-1.2256-1.6602-0.7021-2.5703C1507.9424-112.8091,1509.0371-112.9707,1509.8633-112.4951z M1508.4492-109.8984     c0.5586,0.3213,1.2266,0.1724,1.541-0.374c0.3213-0.5586,0.1025-1.2178-0.4922-1.5605     c-0.4482-0.2583-1.1738-0.3198-1.5791,0.3843C1507.5625-110.8296,1507.9277-110.1992,1508.4492-109.8984z"/>
		</g>
		<g>
			<g>
				
					<line fill="none" stroke="#58595B" stroke-width="1.4" stroke-linecap="round" stroke-linejoin="round" x1="1750.2568" y1="-39.8394" x2="1729.2568" y2="-39.8394"/>
				<polygon fill="#58595B" points="1748.5928,-37.4292 1757.6992,-39.8691 1748.5928,-42.3096     "/>
			</g>
		</g>
		<g>
			<g>
				
					<line fill="none" stroke="#666666" stroke-width="1.4" stroke-linecap="round" stroke-linejoin="round" stroke-dasharray="1.4,2.8" x1="1464.249" y1="-12.1401" x2="1503.8555" y2="-25.8608"/>
				<polygon fill="#666666" points="1465.0332,-14.9624 1457.2266,-9.6763 1466.6299,-10.3511     "/>
			</g>
		</g>
		
			<polyline fill="none" stroke="#58595B" stroke-width="1.4" stroke-linecap="round" stroke-linejoin="round" stroke-dasharray="5.6,2.8" points="    1503.8555,-25.8608 1489.8555,-50.1099 1531.8555,-122.856 1615.8555,-122.856 1657.8555,-50.1099   "/>
		<g>
			<circle fill="#339ECC" cx="1503.8555" cy="-25.8608" r="3.5"/>
			<circle fill="none" stroke="#000000" stroke-width="0.42" cx="1503.8555" cy="-25.8608" r="3.5"/>
		</g>
		<g>
			<g>
				
					<line fill="none" stroke="#58595B" stroke-width="1.4" stroke-linecap="round" stroke-linejoin="round" x1="1512.6846" y1="-28.9214" x2="1573.8555" y2="-50.1099"/>
				<polygon fill="#58595B" points="1513.6641,-32.4492 1503.9062,-25.8418 1515.6611,-26.6851     "/>
			</g>
		</g>
	</g>
	<g>
		<g>
			<rect x="1443.1641" y="-281.8418" fill="#339ECC" width="28" height="28"/>
			<rect x="1443.1641" y="-281.8418" fill="none" stroke="#000000" stroke-width="0.42" width="28" height="28"/>
		</g>
		<g>
			<path d="M1441.8633-240.686c0.6309-0.1538,1.4932-0.231,2.2637-0.231c1.0312,0,1.9238,0.2466,2.4785,0.7544     c0.4775,0.416,0.7695,1.001,0.7695,1.709c0,1.5244-1.1543,2.6484-2.4629,3.0176l-0.0156,0.0308     c0.7393,0.2466,1.0771,1.0166,1.1543,2.0786c0.1084,1.4473,0.1846,2.4482,0.3232,2.8638h-1.3242     c-0.0615-0.2153-0.1689-1.3086-0.2461-2.5098c-0.0771-1.4316-0.6006-2.0166-1.6318-2.0166h-1.1396l-0.8467,4.5264h-1.2773     L1441.8633-240.686z M1442.2324-235.9746h1.1396c1.6162,0,2.6631-1.0625,2.6631-2.3096c0-1.1084-0.8311-1.6167-2.001-1.6167     c-0.5078,0-0.8311,0.0464-1.0781,0.1079L1442.2324-235.9746z"/>
			<path d="M1452.9053-235.6514v-0.9238h7.9443v0.9238H1452.9053z M1452.9053-232.6338v-0.9238h7.9443v0.9238H1452.9053z"/>
			<path d="M1467.9199-234.5581v-5.0654h-0.0312l-1.1084,0.5386l-0.1689-0.8003l1.4473-0.6772h0.9395v6.0044H1467.9199z"/>
			<path d="M1467.6133-230.2935l5.8506-10.3462h0.8623l-5.8506,10.3462H1467.6133z"/>
			<path d="M1476.0195-235.5898h-2.3857l-0.2002,1.3086c0.123-0.0151,0.2764-0.0151,0.4766-0.0151     c0.5088,0,1.0166,0.0767,1.4316,0.3232c0.4619,0.2617,0.8477,0.7852,0.8477,1.5396c0,1.1855-0.9707,2.063-2.3867,2.063     c-0.6777,0-1.3086-0.2002-1.6162-0.3696l0.2148-0.7695c0.2617,0.1538,0.7852,0.3389,1.3701,0.3389     c0.6934,0,1.3555-0.4312,1.3555-1.1704c0-0.708-0.4932-1.2163-1.7402-1.2163c-0.3389,0-0.6465,0.0464-0.877,0.0615l0.4004-2.9404     h3.1094V-235.5898z"/>
			<path d="M1447.5439-212.9092c-0.5996,0.2461-1.708,0.5542-2.9248,0.5542c-1.4629,0-2.6016-0.416-3.3867-1.2935     c-0.7852-0.8623-1.0469-2.0015-1.0469-3.0176c0-1.7246,0.6924-3.541,2.0166-4.7422c1.124-0.9697,2.6172-1.5396,4.2803-1.5396     c1.2617,0,2.124,0.2925,2.4473,0.4775l-0.4307,1.0776c-0.5234-0.2773-1.2314-0.4468-2.1709-0.4468     c-1.2314,0-2.3555,0.4468-3.2178,1.2627c-0.9697,0.9082-1.5547,2.4019-1.5547,3.8027c0,2.0015,1,3.3257,3.3096,3.3257     c0.6162,0,1.2012-0.123,1.5703-0.2925l0.6006-3.0947h-2.1094l0.2002-1.0469h3.3564L1447.5439-212.9092z"/>
			<path d="M1452.9053-217.6514v-0.9238h7.9443v0.9238H1452.9053z M1452.9053-214.6338v-0.9238h7.9443v0.9238H1452.9053z"/>
			<path d="M1465.7793-222.1626c0.3545-0.231,1.0166-0.4771,1.7705-0.4771c1.3242,0,1.8789,0.708,1.8789,1.4473     c0,0.6313-0.4463,1.1392-1.1855,1.3857v0.0308c0.8311,0.123,1.4316,0.708,1.4316,1.4932c0,0.9546-0.8623,1.8013-2.4326,1.8013     c-0.7393,0-1.416-0.2002-1.7705-0.4312l0.2773-0.7695c0.2461,0.1694,0.8623,0.4004,1.4316,0.4004     c0.9551,0,1.3701-0.5542,1.3545-1.0317c0-0.7852-0.8154-1.0933-1.6318-1.0776h-0.415v-0.7085h0.4307     c0.5693,0,1.4014-0.2617,1.4014-0.9697c0-0.3848-0.2773-0.77-0.9697-0.77c-0.5547,0-1.0625,0.2466-1.3096,0.416     L1465.7793-222.1626z"/>
			<path d="M1467.6289-212.2935l5.8506-10.3462h0.8623l-5.8506,10.3462H1467.6289z"/>
			<path d="M1476.0352-217.5898h-2.3857l-0.2002,1.3086c0.123-0.0151,0.2764-0.0151,0.4766-0.0151     c0.5088,0,1.0166,0.0767,1.4316,0.3232c0.4619,0.2617,0.8477,0.7852,0.8477,1.5396c0,1.1855-0.9707,2.063-2.3867,2.063     c-0.6777,0-1.3086-0.2002-1.6162-0.3696l0.2148-0.7695c0.2617,0.1538,0.7852,0.3389,1.3701,0.3389     c0.6934,0,1.3555-0.4312,1.3555-1.1704c0-0.708-0.4932-1.2163-1.7402-1.2163c-0.3389,0-0.6465,0.0464-0.877,0.0615l0.4004-2.9404     h3.1094V-217.5898z"/>
			<path d="M1441.8477-204.7012c0.6465-0.1235,1.3857-0.2158,2.2324-0.2158c1.0625,0,1.8477,0.2158,2.3867,0.7085     c0.4922,0.4004,0.7539,0.939,0.7539,1.6167c0,1.3237-1.0615,2.2939-2.2324,2.6016v0.0308     c0.9238,0.2773,1.6943,1.0625,1.6943,2.3096c0,1.0625-0.5547,1.9092-1.2324,2.417c-0.8311,0.6162-1.9707,0.8472-3.3711,0.8472     c-0.8936,0-1.6631-0.0615-2.1406-0.1543L1441.8477-204.7012z M1441.3701-195.479c0.3242,0.0464,0.6934,0.0615,1.0479,0.0615     c1.5088,0,2.9248-0.6313,2.9248-2.2939c0-1.2163-1.0312-1.7554-2.1865-1.7554h-1.0469L1441.3701-195.479z M1442.3096-200.4365     h0.9551c1.4932,0,2.6328-0.77,2.6328-2.0322c0-1.001-0.7549-1.4321-1.8789-1.4321c-0.4775,0-0.8623,0.0308-1.0625,0.0928     L1442.3096-200.4365z"/>
			<path d="M1453.1523-199.6514v-0.9238h7.9443v0.9238H1453.1523z M1453.1523-196.6338v-0.9238h7.9443v0.9238H1453.1523z"/>
			<path d="M1468.1357-198.5581v-1.5708h-2.9102v-0.6309l2.7256-3.8027h1.2158v3.6641h0.8467v0.7695h-0.8467v1.5708H1468.1357z      M1468.1357-202.6846c0-0.3384,0.0303-0.6621,0.0459-0.9697h-0.0303c-0.1846,0.354-0.3389,0.6313-0.5234,0.9082l-1.3242,1.832     l0.0156,0.0156h1.8164V-202.6846z"/>
			<path d="M1467.9062-194.2935l5.8506-10.3462h0.8623l-5.8506,10.3462H1467.9062z"/>
			<path d="M1476.3125-199.5898h-2.3857l-0.2002,1.3086c0.123-0.0151,0.2764-0.0151,0.4766-0.0151     c0.5088,0,1.0166,0.0767,1.4316,0.3232c0.4619,0.2617,0.8477,0.7852,0.8477,1.5396c0,1.1855-0.9707,2.063-2.3867,2.063     c-0.6777,0-1.3086-0.2002-1.6162-0.3696l0.2148-0.7695c0.2617,0.1538,0.7852,0.3389,1.3701,0.3389     c0.6934,0,1.3555-0.4312,1.3555-1.1704c0-0.708-0.4932-1.2163-1.7402-1.2163c-0.3389,0-0.6465,0.0464-0.877,0.0615l0.4004-2.9404     h3.1094V-199.5898z"/>
		</g>
	</g>
	<g>
		<g>
			<path d="M1548.5664-256.2144v-0.9238h7.9443v0.9238H1548.5664z M1548.5664-253.1968v-0.9238h7.9443v0.9238H1548.5664z"/>
			<path d="M1562.8105-261.2642c0.6465-0.1235,1.3857-0.2158,2.2324-0.2158c1.0625,0,1.8477,0.2158,2.3867,0.7085     c0.4922,0.4004,0.7539,0.939,0.7539,1.6162c0,1.3242-1.0615,2.2944-2.2324,2.6021v0.0308     c0.9238,0.2773,1.6943,1.0625,1.6943,2.3096c0,1.0625-0.5547,1.9092-1.2324,2.417c-0.8311,0.6162-1.9707,0.8472-3.3711,0.8472     c-0.8936,0-1.6631-0.0615-2.1406-0.1543L1562.8105-261.2642z M1562.333-252.042c0.3242,0.0464,0.6934,0.0615,1.0479,0.0615     c1.5088,0,2.9248-0.6313,2.9248-2.2939c0-1.2163-1.0312-1.7554-2.1865-1.7554h-1.0469L1562.333-252.042z M1563.2725-256.9995     h0.9551c1.4932,0,2.6328-0.77,2.6328-2.0322c0-1.001-0.7549-1.4321-1.8789-1.4321c-0.4775,0-0.8623,0.0308-1.0625,0.0928     L1563.2725-256.9995z"/>
			<path d="M1578.8867-255.3984v0.9238h-6.7744v-0.9238H1578.8867z"/>
			<path d="M1585.0479-261.249c0.6309-0.1538,1.4932-0.231,2.2637-0.231c1.0312,0,1.9238,0.2466,2.4785,0.7544     c0.4775,0.416,0.7695,1.001,0.7695,1.709c0,1.5244-1.1543,2.6484-2.4629,3.0176l-0.0156,0.0308     c0.7393,0.2466,1.0771,1.0166,1.1543,2.0786c0.1084,1.4473,0.1846,2.4482,0.3232,2.8638h-1.3242     c-0.0615-0.2153-0.1689-1.3086-0.2461-2.5098c-0.0771-1.4316-0.6006-2.0166-1.6318-2.0166h-1.1396l-0.8467,4.5264h-1.2773     L1585.0479-261.249z M1585.417-256.5376h1.1396c1.6162,0,2.6631-1.0625,2.6631-2.3096c0-1.1084-0.8311-1.6167-2.001-1.6167     c-0.5078,0-0.8311,0.0464-1.0781,0.1079L1585.417-256.5376z"/>
			<path d="M1594.5498-256.2144v-0.9238h7.9443v0.9238H1594.5498z M1594.5498-253.1968v-0.9238h7.9443v0.9238H1594.5498z"/>
			<path d="M1609.5332-255.1211v-1.5703h-2.9102v-0.6313l2.7256-3.8032h1.2158v3.6646h0.8467v0.77h-0.8467v1.5703H1609.5332z      M1609.5332-259.2476c0-0.3384,0.0303-0.6621,0.0459-0.9697h-0.0303c-0.1846,0.354-0.3389,0.6313-0.5234,0.9082l-1.3242,1.832     l0.0156,0.0156h1.8164V-259.2476z"/>
			<path d="M1609.3027-250.8564l5.8506-10.3462h0.8623l-5.8506,10.3462H1609.3027z"/>
			<path d="M1617.709-256.1528h-2.3857l-0.2002,1.3086c0.123-0.0151,0.2764-0.0151,0.4766-0.0151     c0.5088,0,1.0166,0.0767,1.4316,0.3232c0.4619,0.2617,0.8477,0.7852,0.8477,1.5396c0,1.1855-0.9707,2.063-2.3867,2.063     c-0.6777,0-1.3086-0.2002-1.6162-0.3696l0.2148-0.7695c0.2617,0.1538,0.7852,0.3389,1.3701,0.3389     c0.6934,0,1.3555-0.4312,1.3555-1.1704c0-0.708-0.4932-1.2163-1.7402-1.2163c-0.3389,0-0.6465,0.0464-0.877,0.0615l0.4004-2.9404     h3.1094V-256.1528z"/>
			<path d="M1628.8271-255.3984v0.9238h-6.7744v-0.9238H1628.8271z"/>
			<path d="M1634.2031-255.1211v-5.0654h-0.0312l-1.1084,0.5391l-0.1689-0.8008l1.4473-0.6777h0.9395v6.0049H1634.2031z"/>
			<path d="M1633.8965-250.8564l5.8506-10.3462h0.8623l-5.8506,10.3462H1633.8965z"/>
			<path d="M1642.3027-256.1528h-2.3857l-0.2002,1.3086c0.123-0.0151,0.2764-0.0151,0.4766-0.0151     c0.5088,0,1.0166,0.0767,1.4316,0.3232c0.4619,0.2617,0.8477,0.7852,0.8477,1.5396c0,1.1855-0.9707,2.063-2.3867,2.063     c-0.6777,0-1.3086-0.2002-1.6162-0.3696l0.2148-0.7695c0.2617,0.1538,0.7852,0.3389,1.3701,0.3389     c0.6934,0,1.3555-0.4312,1.3555-1.1704c0-0.708-0.4932-1.2163-1.7402-1.2163c-0.3389,0-0.6465,0.0464-0.877,0.0615l0.4004-2.9404     h3.1094V-256.1528z"/>
			<path d="M1646.8008-256.2144v-0.9238h7.9443v0.9238H1646.8008z M1646.8008-253.1968v-0.9238h7.9443v0.9238H1646.8008z"/>
			<path d="M1659.0576-260.7256c0.3545-0.231,1.0166-0.4771,1.7705-0.4771c1.3242,0,1.8789,0.708,1.8789,1.4473     c0,0.6313-0.4463,1.1392-1.1855,1.3857v0.0308c0.8311,0.123,1.4316,0.708,1.4316,1.4932c0,0.9546-0.8623,1.8013-2.4326,1.8013     c-0.7393,0-1.416-0.2002-1.7705-0.4312l0.2773-0.7695c0.2461,0.1694,0.8623,0.4004,1.4316,0.4004     c0.9551,0,1.3701-0.5542,1.3545-1.0317c0-0.7852-0.8154-1.0933-1.6318-1.0776h-0.415v-0.708h0.4307     c0.5693,0,1.4014-0.2622,1.4014-0.9702c0-0.3848-0.2773-0.77-0.9697-0.77c-0.5547,0-1.0625,0.2466-1.3096,0.416     L1659.0576-260.7256z"/>
			<path d="M1660.9072-250.8564l5.8506-10.3462h0.8623l-5.8506,10.3462H1660.9072z"/>
			<path d="M1669.3135-256.1528h-2.3857l-0.2002,1.3086c0.123-0.0151,0.2764-0.0151,0.4766-0.0151     c0.5088,0,1.0166,0.0767,1.4326,0.3232c0.4609,0.2617,0.8467,0.7852,0.8467,1.5396c0,1.1855-0.9707,2.063-2.3867,2.063     c-0.6777,0-1.3086-0.2002-1.6162-0.3696l0.2148-0.7695c0.2617,0.1538,0.7852,0.3389,1.3701,0.3389     c0.6934,0,1.3555-0.4312,1.3555-1.1704c0-0.708-0.4932-1.2163-1.7402-1.2163c-0.3389,0-0.6465,0.0464-0.877,0.0615l0.4004-2.9404     h3.1094V-256.1528z"/>
			<path d="M1673.8115-256.2144v-0.9238h7.9443v0.9238H1673.8115z M1673.8115-253.1968v-0.9238h7.9443v0.9238H1673.8115z"/>
			<path d="M1686.4385-251.8267c0-0.5542,0.3848-0.9697,0.9238-0.9697s0.9082,0.4004,0.9082,0.9697     c0,0.5542-0.3691,0.9702-0.9395,0.9702C1686.8076-250.8564,1686.4385-251.2725,1686.4385-251.8267z"/>
			<path d="M1695.2305-260.0786c-0.2773-0.0156-0.6318,0.0151-1.0166,0.0767c-2.1396,0.3389-3.249,1.8784-3.4795,3.541h0.0303     c0.4775-0.6465,1.3242-1.1699,2.4326-1.1699c1.7705,0,3.0176,1.2935,3.0176,3.2334c0,1.8472-1.2471,3.541-3.3408,3.541     c-2.124,0-3.5254-1.6631-3.5254-4.2646c0-1.9707,0.6924-3.5259,1.6934-4.5112c0.832-0.8159,1.9404-1.3242,3.2021-1.478     c0.4004-0.0615,0.7393-0.0771,0.9863-0.0771V-260.0786z M1694.8447-254.3052c0-1.4321-0.8154-2.2939-2.0625-2.2939     c-0.8164,0-1.5859,0.4927-1.9551,1.2314c-0.0771,0.1538-0.1387,0.3389-0.1387,0.585c0.0146,1.6475,0.7852,2.8794,2.2168,2.8794     C1694.0596-251.9033,1694.8447-252.8735,1694.8447-254.3052z"/>
		</g>
		<g>
			<path d="M1505.1592-251.3647c-0.5859,0.2617-1.5244,0.4927-2.6943,0.4927c-2.6182,0-4.2031-1.6475-4.2031-4.2954     c0-1.9551,0.7852-3.8184,2.2012-5.0039c1.0781-0.9082,2.4014-1.3853,3.9258-1.3853c1.1396,0,1.9707,0.2925,2.248,0.4927     l-0.416,1.0312c-0.3848-0.231-1.124-0.4155-2.0469-0.4155c-1.0781,0-2.1709,0.4155-2.9717,1.1548     c-0.9697,0.9082-1.5859,2.3711-1.5859,3.9414c0,1.8628,0.8467,3.3872,3.1562,3.3872c0.7852,0,1.6475-0.1543,2.2168-0.4468     L1505.1592-251.3647z"/>
			<path d="M1509.9346-256.2144v-0.9238h7.9443v0.9238H1509.9346z M1509.9346-253.1968v-0.9238h7.9443v0.9238H1509.9346z"/>
		</g>
		<g>
			<g>
				<path d="M1533.6562-263.4414c0,1.4404-0.5293,3.0288-1.5146,4.0142c-0.7266,0.7266-1.6992,1.1572-2.8438,1.1572      c-2.1426,0-3.1406-1.6128-3.1406-3.374c0-1.4653,0.5664-3.0781,1.5762-4.0757c0.7148-0.6895,1.7363-1.1206,2.7832-1.1206      C1532.7578-266.8403,1533.6562-265.2148,1533.6562-263.4414z M1528.4844-265.1533c-0.7998,0.8003-1.2559,2.2656-1.2559,3.4233      c0,1.3545,0.6035,2.5981,2.2295,2.5981c0.7012,0,1.3789-0.3076,1.8955-0.8252c0.7764-0.7881,1.2314-2.2778,1.2314-3.4355      c0-1.1821-0.3818-2.5859-2.2041-2.5859C1529.6426-265.9785,1529.002-265.6582,1528.4844-265.1533z"/>
				<path d="M1535.7412-266.5815c0.4561-0.1108,1.1211-0.1851,1.7979-0.1851c0.8008,0,1.5645,0.1973,2.0322,0.6406      c0.3936,0.3569,0.6035,0.8496,0.6035,1.5024c0,0.9233-0.4561,1.7114-0.998,2.167c-0.6396,0.542-1.5762,0.7881-2.5117,0.7881      c-0.3203,0-0.5908-0.0244-0.8496-0.0615l-0.6279,3.3247h-1.0098L1535.7412-266.5815z M1535.9756-262.5918      c0.2832,0.0615,0.5293,0.0859,0.8252,0.0859c1.4033,0,2.3389-0.874,2.3389-2.0439c0-0.9976-0.7012-1.3916-1.6494-1.3916      c-0.4062,0-0.7148,0.0371-0.8994,0.0864L1535.9756-262.5918z"/>
				<path d="M1532.3691-248.0415c0,1.4404-0.5293,3.0288-1.5146,4.0142c-0.7266,0.7266-1.6992,1.1572-2.8438,1.1572      c-2.1426,0-3.1406-1.6128-3.1406-3.374c0-1.4653,0.5664-3.0781,1.5762-4.0757c0.7148-0.6895,1.7363-1.1206,2.7832-1.1206      C1531.4707-251.4404,1532.3691-249.8149,1532.3691-248.0415z M1527.1973-249.7534c-0.7998,0.8003-1.2559,2.2656-1.2559,3.4233      c0,1.3545,0.6035,2.5981,2.2295,2.5981c0.7012,0,1.3789-0.3076,1.8955-0.8252c0.7764-0.7881,1.2314-2.2778,1.2314-3.4355      c0-1.1821-0.3818-2.5859-2.2041-2.5859C1528.3555-250.5786,1527.7148-250.2583,1527.1973-249.7534z"/>
				<path d="M1534.4541-251.1816c0.4561-0.1108,1.1211-0.1851,1.7979-0.1851c0.8008,0,1.5645,0.1973,2.0322,0.6406      c0.3936,0.3569,0.6035,0.8496,0.6035,1.5024c0,0.9233-0.4561,1.7114-0.998,2.167c-0.6396,0.542-1.5762,0.7881-2.5117,0.7881      c-0.3203,0-0.5908-0.0244-0.8496-0.0615l-0.6279,3.3247h-1.0098L1534.4541-251.1816z M1534.6885-247.1919      c0.2832,0.0615,0.5293,0.0859,0.8252,0.0859c1.4033,0,2.3389-0.874,2.3389-2.0439c0-0.9976-0.7012-1.3916-1.6494-1.3916      c-0.4062,0-0.7148,0.0371-0.8994,0.0864L1534.6885-247.1919z"/>
				<path d="M1542.043-251.5264c-0.4561,1.0342-1.1953,2.3643-1.6133,2.9307l-0.7148,0.0737      c0.3818-0.7266,0.9238-1.9946,1.207-2.8813L1542.043-251.5264z"/>
			</g>
			<line fill="none" stroke="#000000" stroke-width="0.84" x1="1522.6807" y1="-254.9434" x2="1543.7324" y2="-254.9434"/>
		</g>
	</g>
	<g>
		<g>
			<path d="M1500.1777-227.6953l-0.8311,4.3726h4.7725l0.832-4.3726h1.2773l-1.9707,10.377h-1.2773l0.9082-4.8804h-4.7578     l-0.9238,4.8804h-1.2773l1.9707-10.377H1500.1777z"/>
			<path d="M1509.9893-222.5068v-0.9238h7.9443v0.9238H1509.9893z M1509.9893-219.4893v-0.9238h7.9443v0.9238H1509.9893z"/>
			<path d="M1528.2207-226.3711c-0.2764-0.0156-0.6309,0.0151-1.0156,0.0767c-2.1396,0.3389-3.249,1.8784-3.4795,3.541h0.0303     c0.4775-0.6465,1.3242-1.1699,2.4326-1.1699c1.7705,0,3.0186,1.2935,3.0186,3.2334c0,1.8472-1.248,3.541-3.3418,3.541     c-2.124,0-3.5254-1.6631-3.5254-4.2646c0-1.9707,0.6924-3.5259,1.6934-4.5112c0.832-0.8159,1.9404-1.3242,3.2031-1.478     c0.3994-0.0615,0.7383-0.0771,0.9844-0.0771V-226.3711z M1527.8359-220.5977c0-1.4321-0.8154-2.2939-2.0625-2.2939     c-0.8164,0-1.5859,0.4927-1.9551,1.2314c-0.0771,0.1543-0.1387,0.3389-0.1387,0.585c0.0146,1.6475,0.7852,2.8794,2.2168,2.8794     C1527.0508-218.1958,1527.8359-219.166,1527.8359-220.5977z"/>
			<path d="M1537.0762-222.4297c0,3.4023-1.2783,5.2808-3.4795,5.2808c-1.9551,0-3.2949-1.832-3.3252-5.1426     c0-3.3716,1.4619-5.2036,3.4941-5.2036C1535.8594-227.4951,1537.0762-225.6167,1537.0762-222.4297z M1531.6416-222.2759     c0,2.6021,0.8008,4.0801,2.0322,4.0801c1.3701,0,2.0322-1.6167,2.0322-4.1724c0-2.4634-0.6162-4.0801-2.0322-4.0801     C1532.5039-226.4482,1531.6416-225.001,1531.6416-222.2759z"/>
			<path d="M1542.1436-225.8784c0,1.2471-1.001,2.063-2.0635,2.063c-1.2002,0-2.0166-0.9087-2.0166-1.9863     c0-1.1855,0.9082-2.0781,2.0635-2.0781C1541.3896-227.8799,1542.1436-226.9258,1542.1436-225.8784z M1538.8955-225.8018     c0,0.7085,0.5078,1.2627,1.2002,1.2627c0.708,0,1.2168-0.5698,1.2168-1.3242c0-0.5693-0.3389-1.293-1.2324-1.293     C1539.2949-227.1562,1538.8955-226.4639,1538.8955-225.8018z"/>
			<path d="M1547.0723-225.4165l3.2949,3.3716l3.2949-3.3716l0.6777,0.6772l-3.3105,3.3716l3.3105,3.3721l-0.6777,0.6772     l-3.2949-3.3716l-3.2949,3.3716l-0.6768-0.6772l3.2939-3.3721l-3.2939-3.3716L1547.0723-225.4165z"/>
			<path d="M1562.2686-230.7412c-1.124,2.1343-1.9238,4.9155-1.9238,8.8398c0,3.8374,0.8467,6.5757,1.9238,8.7319h-1.0469     c-0.9697-1.7896-2.0166-4.5493-2.0166-8.7539c0.0156-4.2256,1.0469-7.0068,2.0166-8.8179H1562.2686z"/>
			<path d="M1567.4746-217.3184v-2.7407h-4.6504v-0.8774l4.4658-6.3892h1.4619v6.2197h1.4014v1.0469h-1.4014v2.7407H1567.4746z      M1567.4746-221.106v-3.3408c0-0.5234,0.0146-1.0469,0.0459-1.5703h-0.0459c-0.3086,0.585-0.5547,1.0161-0.832,1.478     l-2.4473,3.4023v0.0308H1567.4746z"/>
			<path d="M1578.8398-225.5093v3.6182h3.4795v0.9238h-3.4795v3.6489h-0.9854v-3.6489h-3.4795v-0.9238h3.4795v-3.6182H1578.8398z"/>
			<path d="M1615.8906-213.1694c1.0781-2.1348,1.9248-4.916,1.9248-8.7969s-0.8311-6.6191-1.9248-8.7749h1.0469     c0.9707,1.7676,2.0176,4.5493,2.0176,8.7749c-0.0156,4.2261-1.0469,6.9858-2.0176,8.7969H1615.8906z"/>
			<path d="M1623.8369-222.5068v-0.9238h7.9443v0.9238H1623.8369z M1623.8369-219.4893v-0.9238h7.9443v0.9238H1623.8369z"/>
			<path d="M1642.0684-226.3711c-0.2764-0.0156-0.6309,0.0151-1.0156,0.0767c-2.1396,0.3389-3.249,1.8784-3.4795,3.541h0.0303     c0.4775-0.6465,1.3242-1.1699,2.4326-1.1699c1.7705,0,3.0186,1.2935,3.0186,3.2334c0,1.8472-1.248,3.541-3.3418,3.541     c-2.124,0-3.5254-1.6631-3.5254-4.2646c0-1.9707,0.6924-3.5259,1.6934-4.5112c0.832-0.8159,1.9404-1.3242,3.2031-1.478     c0.3994-0.0615,0.7383-0.0771,0.9844-0.0771V-226.3711z M1641.6836-220.5977c0-1.4321-0.8154-2.2939-2.0625-2.2939     c-0.8164,0-1.5859,0.4927-1.9551,1.2314c-0.0771,0.1543-0.1387,0.3389-0.1387,0.585c0.0146,1.6475,0.7852,2.8794,2.2168,2.8794     C1640.8984-218.1958,1641.6836-219.166,1641.6836-220.5977z"/>
			<path d="M1650.9238-222.4297c0,3.4023-1.2783,5.2808-3.4795,5.2808c-1.9551,0-3.2949-1.832-3.3252-5.1426     c0-3.3716,1.4619-5.2036,3.4941-5.2036C1649.707-227.4951,1650.9238-225.6167,1650.9238-222.4297z M1645.4893-222.2759     c0,2.6021,0.8008,4.0801,2.0322,4.0801c1.3701,0,2.0322-1.6167,2.0322-4.1724c0-2.4634-0.6162-4.0801-2.0322-4.0801     C1646.3516-226.4482,1645.4893-225.001,1645.4893-222.2759z"/>
			<path d="M1655.9912-225.8784c0,1.2471-1.001,2.063-2.0635,2.063c-1.2002,0-2.0166-0.9087-2.0166-1.9863     c0-1.1855,0.9082-2.0781,2.0635-2.0781C1655.2373-227.8799,1655.9912-226.9258,1655.9912-225.8784z M1652.7432-225.8018     c0,0.7085,0.5078,1.2627,1.2002,1.2627c0.708,0,1.2168-0.5698,1.2168-1.3242c0-0.5693-0.3389-1.293-1.2324-1.293     C1653.1426-227.1562,1652.7432-226.4639,1652.7432-225.8018z"/>
			<path d="M1660.9199-225.4165l3.2949,3.3716l3.2949-3.3716l0.6777,0.6772l-3.3105,3.3716l3.3105,3.3721l-0.6777,0.6772     l-3.2949-3.3716l-3.2949,3.3716l-0.6768-0.6772l3.2939-3.3721l-3.2939-3.3716L1660.9199-225.4165z"/>
			<path d="M1676.1191-228.0034c-1.124,1.5244-1.9238,3.5103-1.9238,6.3125c0,2.7407,0.8467,4.6958,1.9238,6.2354h-1.0469     c-0.9697-1.2778-2.0166-3.2485-2.0166-6.2505c0.0156-3.0181,1.0469-5.0039,2.0166-6.2974H1676.1191z"/>
			<path d="M1681.3242-217.3184v-2.7407h-4.6504v-0.8774l4.4658-6.3892h1.4619v6.2197h1.4014v1.0469h-1.4014v2.7407H1681.3242z      M1681.3242-221.106v-3.3408c0-0.5234,0.0146-1.0469,0.0459-1.5703h-0.0459c-0.3086,0.585-0.5547,1.0161-0.832,1.478     l-2.4473,3.4023v0.0308H1681.3242z"/>
			<path d="M1694.8447-221.6909v0.9238h-6.7744v-0.9238H1694.8447z"/>
			<path d="M1698.7578-221.9834l0.9697-0.8931c1.2783-1.1855,1.9404-1.8936,1.9404-2.6787c0-0.6006-0.3691-1.0776-1.1699-1.0776     c-0.5391,0-1.001,0.2617-1.2939,0.4771l-0.3232-0.708c0.416-0.3389,1.1084-0.6313,1.8936-0.6313     c1.4473,0,2.0332,0.9082,2.0332,1.7241c0,1.1704-0.8779,2.0171-2.0479,3.0488l-0.4619,0.4307v0.0308h2.6172v0.8472h-4.1572     V-221.9834z"/>
			<path d="M1700.9453-217.1489l5.8506-10.3462h0.8623l-5.8506,10.3462H1700.9453z"/>
			<path d="M1705.6562-222.9224c0.3545-0.231,1.0166-0.4775,1.7705-0.4775c1.3242,0,1.8789,0.7085,1.8789,1.4473     c0,0.6313-0.4463,1.1392-1.1855,1.3857v0.0308c0.8311,0.123,1.4316,0.708,1.4316,1.4932c0,0.9546-0.8623,1.8018-2.4326,1.8018     c-0.7393,0-1.416-0.2002-1.7705-0.4312l0.2773-0.77c0.2461,0.1694,0.8623,0.4004,1.4316,0.4004     c0.9551,0,1.3701-0.5542,1.3545-1.0317c0-0.7852-0.8154-1.0928-1.6318-1.0776h-0.415v-0.708h0.4307     c0.5693,0,1.4014-0.2617,1.4014-0.9702c0-0.3848-0.2773-0.7695-0.9697-0.7695c-0.5547,0-1.0625,0.2461-1.3096,0.4155     L1705.6562-222.9224z"/>
			<path d="M1710.2305-215.4556c1.0781-1.5239,1.9248-3.5103,1.9248-6.2812c0-2.7715-0.8311-4.7271-1.9248-6.2666h1.0469     c0.9707,1.2627,2.0176,3.2485,2.0176,6.2666c-0.0156,3.0176-1.0469,4.9883-2.0176,6.2812H1710.2305z"/>
			<path d="M1718.1777-222.5068v-0.9238h7.9443v0.9238H1718.1777z M1718.1777-219.4893v-0.9238h7.9443v0.9238H1718.1777z"/>
			<path d="M1730.6973-217.3184v-0.8315l1.0625-1.0312c2.5557-2.4326,3.7266-3.7261,3.7266-5.2349     c0-1.0161-0.4775-1.9551-1.9707-1.9551c-0.9092,0-1.6631,0.4619-2.125,0.8467l-0.4316-0.9546     c0.6777-0.5698,1.6787-1.0161,2.8184-1.0161c2.1553,0,3.0635,1.478,3.0635,2.9097c0,1.8477-1.3398,3.3413-3.4492,5.3735     l-0.7852,0.7388v0.0308h4.4805v1.124H1730.6973z"/>
			<path d="M1745.2646-222.4297c0,3.4023-1.2783,5.2808-3.4795,5.2808c-1.9551,0-3.2949-1.832-3.3252-5.1426     c0-3.3716,1.4619-5.2036,3.4941-5.2036C1744.0479-227.4951,1745.2646-225.6167,1745.2646-222.4297z M1739.8301-222.2759     c0,2.6021,0.8008,4.0801,2.0322,4.0801c1.3701,0,2.0322-1.6167,2.0322-4.1724c0-2.4634-0.6162-4.0801-2.0322-4.0801     C1740.6924-226.4482,1739.8301-225.001,1739.8301-222.2759z"/>
			<path d="M1753.165-222.4297c0,3.4023-1.2783,5.2808-3.4795,5.2808c-1.9551,0-3.2949-1.832-3.3252-5.1426     c0-3.3716,1.4619-5.2036,3.4941-5.2036C1751.9482-227.4951,1753.165-225.6167,1753.165-222.4297z M1747.7305-222.2759     c0,2.6021,0.8008,4.0801,2.0322,4.0801c1.3701,0,2.0322-1.6167,2.0322-4.1724c0-2.4634-0.6162-4.0801-2.0322-4.0801     C1748.5928-226.4482,1747.7305-225.001,1747.7305-222.2759z"/>
			<path d="M1758.2324-225.8784c0,1.2471-1.001,2.063-2.0625,2.063c-1.2012,0-2.0176-0.9087-2.0176-1.9863     c0-1.1855,0.9082-2.0781,2.0635-2.0781C1757.4785-227.8799,1758.2324-226.9258,1758.2324-225.8784z M1754.9844-225.8018     c0,0.7085,0.5078,1.2627,1.2002,1.2627c0.708,0,1.2168-0.5698,1.2168-1.3242c0-0.5693-0.3389-1.293-1.2314-1.293     C1755.3838-227.1562,1754.9844-226.4639,1754.9844-225.8018z"/>
		</g>
		<g>
			<g>
				<path d="M1589.3906-233.0942c0.5049-0.123,1.1943-0.1851,1.8105-0.1851c0.8252,0,1.5391,0.1973,1.9824,0.6035      c0.3818,0.3325,0.6152,0.8003,0.6152,1.3667c0,1.2192-0.9229,2.1182-1.9697,2.4136l-0.0127,0.0249      c0.5918,0.1968,0.8623,0.8125,0.9238,1.6621c0.0859,1.1577,0.1475,1.958,0.2588,2.2905h-1.0596      c-0.0488-0.1724-0.1348-1.0469-0.1963-2.0073c-0.0615-1.145-0.4805-1.6128-1.3057-1.6128h-0.9111l-0.6777,3.6201h-1.0215      L1589.3906-233.0942z M1589.6865-229.3262h0.9111c1.293,0,2.1299-0.8496,2.1299-1.8472c0-0.8867-0.6641-1.293-1.6006-1.293      c-0.4062,0-0.665,0.0371-0.8613,0.0859L1589.6865-229.3262z"/>
				<path d="M1602.2871-228.415v0.7388h-5.418v-0.7388H1602.2871z"/>
				<path d="M1611.7617-225.2749c-0.4805,0.1968-1.3672,0.4434-2.3398,0.4434c-1.1699,0-2.0811-0.3325-2.709-1.0347      c-0.6279-0.6895-0.8369-1.6006-0.8369-2.4136c0-1.3789,0.5537-2.832,1.6133-3.7925c0.8984-0.7759,2.0928-1.2314,3.4229-1.2314      c1.0098,0,1.6992,0.2339,1.958,0.3818l-0.3447,0.8618c-0.4189-0.2217-0.9854-0.3569-1.7363-0.3569      c-0.9854,0-1.8838,0.3569-2.5732,1.0098c-0.7764,0.7266-1.2441,1.9209-1.2441,3.0415c0,1.6006,0.8008,2.6597,2.6475,2.6597      c0.4922,0,0.9609-0.0986,1.2559-0.2339l0.4805-2.4751h-1.6865l0.1592-0.8374h2.6846L1611.7617-225.2749z"/>
				<path d="M1602.8975-209.7891c-0.4678,0.2095-1.2188,0.394-2.1553,0.394c-2.0928,0-3.3613-1.3174-3.3613-3.4355      c0-1.564,0.6279-3.0537,1.7607-4.002c0.8623-0.7266,1.9209-1.1084,3.1396-1.1084c0.9111,0,1.5762,0.2344,1.7979,0.394      l-0.332,0.8252c-0.3076-0.1846-0.8994-0.3325-1.6377-0.3325c-0.8623,0-1.7363,0.3325-2.377,0.9238      c-0.7754,0.7261-1.2686,1.896-1.2686,3.1523c0,1.4897,0.6777,2.709,2.5244,2.709c0.6279,0,1.3184-0.1235,1.7734-0.3574      L1602.8975-209.7891z"/>
			</g>
			<line fill="none" stroke="#000000" stroke-width="0.84" x1="1586.9062" y1="-221.458" x2="1614.2891" y2="-221.458"/>
		</g>
	</g>
</g>
<g id="Layer_6">
	
		<polyline fill="#F2F2F2" stroke="#58595B" stroke-width="1.4" stroke-linecap="round" stroke-linejoin="round" stroke-dasharray="5.6,2.8" points="   1678.9609,-355.1553 1592.9141,-385.5508 1487.8018,-369.5078 1468.7373,-323.064 1554.7842,-292.6685 1659.8936,-308.7178    1678.9609,-355.1553  "/>
	<g>
		<g>
			<g enable-background="new    ">
				<defs>
					<polygon id="SVGID_1_" enable-background="new    " points="1513.1904,-347.835 1517.8818,-350.2593 1523.626,-348.2812        1518.9346,-345.8569      "/>
				</defs>
				<clipPath id="SVGID_2_">
					<use xlink:href="#SVGID_1_" overflow="visible"/>
				</clipPath>
				<g clip-path="url(#SVGID_2_)">
					<g>
						<g>
							<g>
								<path fill="#339ECC" d="M1520.4922-349.1348c-1.4082-0.4854-3.4854-0.396-4.6348,0.1982          c-1.1445,0.5913-0.9355,1.4673,0.4727,1.9521s3.4785,0.3936,4.623-0.1978          C1522.1025-347.7764,1521.8994-348.6504,1520.4922-349.1348"/>
								<path d="M1516.3301-346.9844c-1.4082-0.4849-1.6172-1.3608-0.4727-1.9521c1.1494-0.5942,3.2266-0.6836,4.6348-0.1982          c1.4072,0.4844,1.6104,1.3584,0.4609,1.9526C1519.8086-346.5908,1517.7383-346.4995,1516.3301-346.9844 M1520.7539-349.2705          c-1.582-0.5449-3.9199-0.4473-5.2178,0.2236c-1.292,0.668-1.0557,1.6562,0.5264,2.2012          c1.582,0.5444,3.9258,0.4443,5.2178-0.2236C1522.5781-347.7402,1522.3359-348.7256,1520.7539-349.2705"/>
							</g>
						</g>
					</g>
				</g>
			</g>
		</g>
	</g>
	
		<line fill="none" stroke="#58595B" stroke-width="1.4" stroke-linecap="round" stroke-linejoin="round" stroke-dasharray="0,6" x1="1518.375" y1="-464.1479" x2="1518.4072" y2="-348.0596"/>
	<g>
		<circle fill="#339ECC" cx="1518.375" cy="-464.1479" r="3.5"/>
		<circle fill="none" stroke="#000000" stroke-width="0.42" cx="1518.375" cy="-464.1479" r="3.5"/>
	</g>
	<g>
		<g>
			
				<line fill="none" stroke="#58595B" stroke-width="1.4" stroke-linecap="round" stroke-linejoin="round" x1="1522.3516" y1="-455.1836" x2="1573.8555" y2="-339.1099"/>
			<polygon fill="#58595B" points="1525.9492,-454.5039 1518.5449,-463.6714 1520.373,-452.0298    "/>
		</g>
	</g>
	<g>
		<g>
			
				<line fill="none" stroke="#58595B" stroke-width="1.4" stroke-linecap="round" stroke-linejoin="round" x1="1527.873" y1="-346.5312" x2="1573.8555" y2="-339.1099"/>
			<polygon fill="#58595B" points="1530.4072,-349.1738 1518.6836,-347.9771 1529.4355,-343.1519    "/>
		</g>
	</g>
	
		<line fill="none" stroke="#666666" stroke-width="1.4" stroke-linecap="round" stroke-linejoin="round" stroke-dasharray="5.6,2.8" x1="1573.8555" y1="-339.1099" x2="1698.5" y2="-295.0806"/>
	
		<line fill="none" stroke="#BCBEC0" stroke-width="1.4" stroke-linecap="round" stroke-linejoin="round" stroke-dasharray="1,2.5" x1="1593.1826" y1="-458.3638" x2="1679.208" y2="-503.7109"/>
	<g>
		<g>
			<g enable-background="new    ">
				<defs>
					<polygon id="SVGID_3_" enable-background="new    " points="1649.75,-308.2817 1658.876,-312.998 1670.043,-309.1528        1660.917,-304.4365      "/>
				</defs>
				<clipPath id="SVGID_4_">
					<use xlink:href="#SVGID_3_" overflow="visible"/>
				</clipPath>
				<g clip-path="url(#SVGID_4_)">
					<g>
						<g>
							<g>
								<path fill="#FF0000" d="M1664.1924-310.9375c-1.457-0.5015-3.2461-0.7056-4.9805-0.6309          c-1.7285,0.0762-3.3916,0.4253-4.5752,1.0376c-1.1904,0.6147-1.668,1.3716-1.499,2.1016          c0.1797,0.7285,1.0068,1.4302,2.4629,1.9316c1.4502,0.4995,3.252,0.7031,4.9746,0.6294          c1.7344-0.0742,3.3906-0.4258,4.5801-1.041c1.1836-0.6118,1.6689-1.3662,1.4941-2.0986          C1666.4814-309.7373,1665.6416-310.438,1664.1924-310.9375"/>
								<path d="M1654.6367-310.5308c1.1836-0.6123,2.8467-0.9614,4.5752-1.0376c1.7344-0.0747,3.5234,0.1294,4.9805,0.6309          c1.4492,0.4995,2.2891,1.2002,2.457,1.9297c0.1748,0.7324-0.3105,1.4868-1.4941,2.0986          c-1.1895,0.6152-2.8457,0.9668-4.5801,1.041c-1.7227,0.0737-3.5244-0.1299-4.9746-0.6294          c-1.4561-0.5015-2.2832-1.2031-2.4629-1.9316C1652.9688-309.1592,1653.4463-309.916,1654.6367-310.5308 M1664.459-311.0752          c-3.0879-1.0635-7.627-0.8667-10.1436,0.4336l0.1611,0.0557l0.1602,0.0552l-0.1602-0.0552l-0.1611-0.0557          c-2.5215,1.3037-2.0703,3.2188,1.0186,4.2822c3.0801,1.061,7.627,0.8667,10.1484-0.437          C1667.999-308.0967,1667.54-310.0146,1664.459-311.0752"/>
							</g>
						</g>
					</g>
				</g>
			</g>
		</g>
	</g>
	<g>
		<g>
			<g enable-background="new    ">
				<defs>
					<polygon id="SVGID_5_" enable-background="new    " points="1477.6543,-369.0737 1486.7744,-373.7871 1497.9414,-369.9419        1488.8213,-365.2285      "/>
				</defs>
				<clipPath id="SVGID_6_">
					<use xlink:href="#SVGID_5_" overflow="visible"/>
				</clipPath>
				<g clip-path="url(#SVGID_6_)">
					<g>
						<g>
							<g>
								<path fill="#00FFFF" d="M1492.0908-371.7266c-1.4492-0.499-3.2461-0.7051-4.9736-0.6289          c-1.7295,0.0713-3.3906,0.4263-4.5752,1.0381c-1.1836,0.6123-1.6738,1.3696-1.4941,2.0986          c0.1689,0.7295,1.0078,1.4307,2.457,1.9297c1.458,0.5015,3.2461,0.7056,4.9814,0.6313          c1.7217-0.0737,3.3906-0.4258,4.5752-1.0376c1.1836-0.6123,1.667-1.3726,1.4932-2.0986          C1494.3799-370.5264,1493.5479-371.2246,1492.0908-371.7266"/>
								<path d="M1482.542-371.3174c1.1846-0.6118,2.8457-0.9668,4.5752-1.0381c1.7275-0.0762,3.5244,0.1299,4.9736,0.6289          c1.457,0.502,2.2891,1.2002,2.4639,1.9326c0.1738,0.7261-0.3096,1.4863-1.4932,2.0986          c-1.1846,0.6118-2.8535,0.9639-4.5752,1.0376c-1.7354,0.0742-3.5234-0.1299-4.9814-0.6313          c-1.4492-0.499-2.2881-1.2002-2.457-1.9297C1480.8682-369.9478,1481.3584-370.7051,1482.542-371.3174 M1492.3574-371.8643          c-3.0801-1.061-7.627-0.8667-10.1436,0.4336l0.168,0.0581l0.1602,0.0552l-0.1602-0.0552l-0.168-0.0581          c-2.5156,1.3008-2.0566,3.2188,1.0234,4.2793c3.0889,1.0635,7.6279,0.8667,10.1445-0.4336          C1495.8975-368.8857,1495.4463-370.8013,1492.3574-371.8643"/>
							</g>
						</g>
					</g>
				</g>
			</g>
		</g>
	</g>
	<g>
		<g>
			<g enable-background="new    ">
				<defs>
					<polygon id="SVGID_7_" enable-background="new    " points="1458.5898,-322.6274 1467.7158,-327.3438 1478.8828,-323.499        1469.7568,-318.7822      "/>
				</defs>
				<clipPath id="SVGID_8_">
					<use xlink:href="#SVGID_7_" overflow="visible"/>
				</clipPath>
				<g clip-path="url(#SVGID_8_)">
					<g>
						<g>
							<g>
								<path fill="#0000FF" d="M1473.0312-325.2832c-1.4502-0.499-3.2451-0.7056-4.9736-0.6289          c-1.7344,0.0742-3.3906,0.4258-4.5742,1.0376c-1.1904,0.6147-1.6748,1.3696-1.5,2.1016          c0.1738,0.7266,1.0078,1.4302,2.458,1.9297c1.4561,0.5015,3.251,0.7026,4.9795,0.6313          c1.7285-0.0767,3.3906-0.4258,4.5811-1.041c1.1846-0.6118,1.6621-1.3687,1.4932-2.0986          C1475.3213-324.083,1474.4883-324.7812,1473.0312-325.2832"/>
								<path d="M1463.4834-324.8745c1.1836-0.6118,2.8398-0.9634,4.5742-1.0376c1.7285-0.0767,3.5234,0.1299,4.9736,0.6289          c1.457,0.502,2.29,1.2002,2.4639,1.9316c0.1689,0.73-0.3086,1.4868-1.4932,2.0986          c-1.1904,0.6152-2.8525,0.9644-4.5811,1.041c-1.7285,0.0713-3.5234-0.1299-4.9795-0.6313          c-1.4502-0.4995-2.2842-1.2031-2.458-1.9297C1461.8086-323.5049,1462.293-324.2598,1463.4834-324.8745 M1473.2988-325.4214          c-3.0801-1.061-7.627-0.8662-10.1436,0.4341l0.1602,0.0552l0.168,0.0576l-0.168-0.0576l-0.1602-0.0552          c-2.5215,1.3037-2.0625,3.2217,1.0176,4.2822c3.0889,1.0635,7.6279,0.8662,10.1504-0.437          C1476.8389-322.4424,1476.3877-324.3579,1473.2988-325.4214"/>
							</g>
						</g>
					</g>
				</g>
			</g>
		</g>
	</g>
	<g>
		<g>
			<g enable-background="new    ">
				<defs>
					<polygon id="SVGID_9_" enable-background="new    " points="1544.6416,-292.2319 1553.7617,-296.9453 1564.9287,-293.1001        1555.8086,-288.3867      "/>
				</defs>
				<clipPath id="SVGID_10_">
					<use xlink:href="#SVGID_9_" overflow="visible"/>
				</clipPath>
				<g clip-path="url(#SVGID_10_)">
					<g>
						<g>
							<g>
								<path fill="#FF00FF" d="M1559.083-294.8872c-1.457-0.502-3.252-0.7031-4.9805-0.6313          c-1.7285,0.0762-3.3906,0.4258-4.5801,1.0405c-1.1846,0.6118-1.668,1.3721-1.4941,2.0986          c0.1748,0.7319,1.0078,1.4302,2.4639,1.9316c1.4502,0.4995,3.2461,0.7061,4.9736,0.6294          c1.7295-0.0713,3.3906-0.4258,4.5752-1.0381c1.1895-0.6147,1.6748-1.3691,1.499-2.1016          C1561.3662-293.6846,1560.5332-294.3882,1559.083-294.8872"/>
								<path d="M1549.5225-294.478c1.1895-0.6147,2.8516-0.9644,4.5801-1.0405c1.7285-0.0718,3.5234,0.1294,4.9805,0.6313          c1.4502,0.499,2.2832,1.2026,2.457,1.9292c0.1758,0.7324-0.3096,1.4868-1.499,2.1016          c-1.1846,0.6123-2.8457,0.9668-4.5752,1.0381c-1.7275,0.0767-3.5234-0.1299-4.9736-0.6294          c-1.4561-0.5015-2.2891-1.1997-2.4639-1.9316C1547.8545-293.106,1548.3379-293.8662,1549.5225-294.478 M1559.3447-295.0229          c-3.0879-1.063-7.6211-0.8691-10.1436,0.4341l0.1611,0.0557l0.1602,0.0552l-0.1602-0.0552l-0.1611-0.0557          c-2.5166,1.3008-2.0645,3.2163,1.0244,4.2793c3.0811,1.0615,7.627,0.8667,10.1426-0.4341          C1562.8906-292.0469,1562.4268-293.9619,1559.3447-295.0229"/>
							</g>
						</g>
					</g>
				</g>
			</g>
		</g>
	</g>
	<g>
		<g>
			<g enable-background="new    ">
				<defs>
					<polygon id="SVGID_11_" enable-background="new    " points="1668.8145,-354.7188 1677.9346,-359.4321 1689.1016,-355.5869        1679.9814,-350.8735      "/>
				</defs>
				<clipPath id="SVGID_12_">
					<use xlink:href="#SVGID_11_" overflow="visible"/>
				</clipPath>
				<g clip-path="url(#SVGID_12_)">
					<g>
						<g>
							<g>
								<path fill="#FFFF00" d="M1683.2559-357.374c-1.4492-0.499-3.251-0.7026-4.9727-0.6294          c-1.7354,0.0747-3.3906,0.4263-4.5801,1.041c-1.1846,0.6118-1.6748,1.3696-1.4951,2.0986          c0.1689,0.7295,1.0078,1.4302,2.457,1.9292c1.457,0.502,3.2461,0.7061,4.9814,0.6318          c1.7217-0.0737,3.3906-0.4258,4.5742-1.0381c1.1904-0.6147,1.668-1.3721,1.501-2.1016          C1685.54-356.1709,1684.7129-356.8726,1683.2559-357.374"/>
								<path d="M1673.7031-356.9624c1.1895-0.6147,2.8447-0.9663,4.5801-1.041c1.7217-0.0732,3.5234,0.1304,4.9727,0.6294          c1.457,0.5015,2.2842,1.2031,2.4658,1.9316c0.167,0.7295-0.3105,1.4868-1.501,2.1016          c-1.1836,0.6123-2.8525,0.9644-4.5742,1.0381c-1.7354,0.0742-3.5244-0.1299-4.9814-0.6318          c-1.4492-0.499-2.2881-1.1997-2.457-1.9292C1672.0283-355.5928,1672.5186-356.3506,1673.7031-356.9624 M1683.5186-357.5098          c-3.0811-1.0605-7.6221-0.8691-10.1436,0.4346l0.167,0.0576l0.1611,0.0552l-0.1611-0.0552l-0.167-0.0576          c-2.5166,1.3003-2.0576,3.2183,1.0234,4.2793c3.0879,1.063,7.627,0.8662,10.1436-0.4346          C1687.0635-354.5337,1686.6064-356.4463,1683.5186-357.5098"/>
							</g>
						</g>
					</g>
				</g>
			</g>
		</g>
	</g>
	<g>
		<g>
			<g enable-background="new    ">
				<defs>
					<polygon id="SVGID_13_" enable-background="new    " points="1582.7637,-385.1162 1591.8896,-389.832 1603.0635,-385.9849        1593.9375,-381.2686      "/>
				</defs>
				<clipPath id="SVGID_14_">
					<use xlink:href="#SVGID_13_" overflow="visible"/>
				</clipPath>
				<g clip-path="url(#SVGID_14_)">
					<g>
						<g>
							<g>
								<path fill="#00FF00" d="M1597.2119-387.769c-1.4561-0.5015-3.2441-0.7056-4.9805-0.6313          c-1.7344,0.0742-3.3906,0.4258-4.5742,1.0376c-1.1904,0.6147-1.6738,1.3696-1.5,2.1016          c0.1816,0.729,1.0078,1.4302,2.4648,1.9321c1.4492,0.499,3.2441,0.7002,4.9736,0.6289          c1.7344-0.0742,3.3906-0.4258,4.5801-1.0405c1.1846-0.6118,1.6689-1.3667,1.4941-2.0981          C1599.4951-386.5713,1598.6621-387.2695,1597.2119-387.769"/>
								<path d="M1587.6572-387.3628c1.1836-0.6118,2.8398-0.9634,4.5742-1.0376c1.7363-0.0742,3.5244,0.1299,4.9805,0.6313          c1.4502,0.4995,2.2832,1.1978,2.458,1.9302c0.1748,0.7314-0.3096,1.4863-1.4941,2.0981          c-1.1895,0.6147-2.8457,0.9663-4.5801,1.0405c-1.7295,0.0713-3.5244-0.1299-4.9736-0.6289          c-1.457-0.502-2.2832-1.2031-2.4648-1.9321C1585.9834-385.9932,1586.4668-386.748,1587.6572-387.3628 M1597.4795-387.9072          c-3.0869-1.063-7.6338-0.8687-10.1504,0.4316l0.168,0.0576l0.1602,0.0552l-0.1602-0.0552l-0.168-0.0576          c-2.5215,1.3037-2.0625,3.2217,1.0254,4.2847c3.0811,1.061,7.627,0.8662,10.1484-0.437          C1601.0195-384.9287,1600.5615-386.8462,1597.4795-387.9072"/>
							</g>
						</g>
					</g>
				</g>
			</g>
		</g>
	</g>
	
		<line fill="none" stroke="#58595B" stroke-width="1.4" stroke-linecap="round" stroke-linejoin="round" stroke-dasharray="5.6,2.8" x1="1659.8838" y1="-384.457" x2="1573.8555" y2="-339.1099"/>
	
		<line fill="none" stroke="#58595B" stroke-width="1.4" stroke-linecap="round" stroke-linejoin="round" stroke-dasharray="5.6,2.8" x1="1487.8291" y1="-513.8833" x2="1573.8545" y2="-559.2305"/>
	
		<line fill="none" stroke="#58595B" stroke-width="1.4" stroke-linecap="round" stroke-linejoin="round" stroke-dasharray="5.6,2.8" x1="1468.5029" y1="-394.6304" x2="1487.8291" y2="-513.8833"/>
	
		<line fill="none" stroke="#58595B" stroke-width="1.4" stroke-linecap="round" stroke-linejoin="round" stroke-dasharray="5.6,2.8" x1="1679.208" y1="-503.7109" x2="1659.8838" y2="-384.457"/>
	
		<line fill="none" stroke="#58595B" stroke-width="1.4" stroke-linecap="round" stroke-linejoin="round" stroke-dasharray="5.6,2.8" x1="1573.8545" y1="-559.2305" x2="1679.208" y2="-503.7109"/>
	
		<line fill="none" stroke="#BCBEC0" stroke-width="1.4" stroke-linecap="round" stroke-linejoin="round" stroke-dasharray="0,4" x1="1679.208" y1="-503.7109" x2="1678.9609" y2="-355.1553"/>
	
		<line fill="none" stroke="#BCBEC0" stroke-width="1.4" stroke-linecap="round" stroke-linejoin="round" stroke-dasharray="0,4" x1="1487.8291" y1="-513.8833" x2="1487.8018" y2="-369.5078"/>
	
		<line fill="none" stroke="#58595B" stroke-width="1.4" stroke-linecap="round" stroke-linejoin="round" stroke-dasharray="5.6,2.8" x1="1554.5303" y1="-439.9771" x2="1468.5029" y2="-394.6304"/>
	
		<line fill="none" stroke="#BCBEC0" stroke-width="1.4" stroke-linecap="round" stroke-linejoin="round" stroke-dasharray="0,4" x1="1468.5029" y1="-394.6304" x2="1468.5029" y2="-323.064"/>
	<g>
		<circle fill="#FFFF00" cx="1679.208" cy="-503.7109" r="7"/>
		
			<circle fill="none" stroke="#000000" stroke-width="0.42" stroke-linecap="round" stroke-linejoin="round" cx="1679.208" cy="-503.7109" r="7"/>
	</g>
	
		<line fill="none" stroke="#BCBEC0" stroke-width="1.4" stroke-linecap="round" stroke-linejoin="round" stroke-dasharray="1,2.5" x1="1487.8291" y1="-513.8833" x2="1593.1826" y2="-458.3638"/>
	<g>
		<circle fill="#00FFFF" cx="1487.8291" cy="-513.8833" r="7"/>
		
			<circle fill="none" stroke="#000000" stroke-width="0.42" stroke-linecap="round" stroke-linejoin="round" cx="1487.8291" cy="-513.8833" r="7"/>
	</g>
	
		<line fill="none" stroke="#BCBEC0" stroke-width="1.4" stroke-linecap="round" stroke-linejoin="round" stroke-dasharray="0,4" x1="1593.1826" y1="-458.3638" x2="1592.9141" y2="-385.5508"/>
	
		<line fill="none" stroke="#BCBEC0" stroke-width="1.4" stroke-linecap="round" stroke-linejoin="round" stroke-dasharray="1,2.5" x1="1593.1826" y1="-458.3638" x2="1573.8555" y2="-339.1099"/>
	<g>
		<circle fill="#00FF00" cx="1593.1826" cy="-458.3638" r="7"/>
		
			<circle fill="none" stroke="#000000" stroke-width="0.42" stroke-linecap="round" stroke-linejoin="round" cx="1593.1826" cy="-458.3638" r="7"/>
	</g>
	
		<line fill="none" stroke="#BCBEC0" stroke-width="1.4" stroke-linecap="round" stroke-linejoin="round" stroke-dasharray="0,3.8" x1="1659.8838" y1="-384.457" x2="1659.8936" y2="-308.7178"/>
	
		<line fill="none" stroke="#58595B" stroke-width="1.4" stroke-linecap="round" stroke-linejoin="round" stroke-dasharray="5.6,2.8" x1="1573.8555" y1="-339.1099" x2="1468.5029" y2="-394.6304"/>
	<g>
		<circle fill="#0000FF" cx="1468.5029" cy="-394.6304" r="7"/>
		
			<circle fill="none" stroke="#000000" stroke-width="0.42" stroke-linecap="round" stroke-linejoin="round" cx="1468.5029" cy="-394.6304" r="7"/>
	</g>
	<g>
		<path d="M1631.7412-591.6357v5.0776h5.8701v-5.0776h1.584V-579.5h-1.584v-5.6895h-5.8701v5.6895h-1.584v-12.1357H1631.7412z"/>
		<path d="M1649.1494-581.8945c0,0.918,0.0186,1.7104,0.0723,2.3945h-1.4043l-0.0898-1.4224h-0.0361    c-0.3965,0.7021-1.333,1.6206-2.8809,1.6206c-1.3691,0-3.0068-0.7744-3.0068-3.8174v-5.0957h1.584v4.8076    c0,1.6567,0.5225,2.791,1.9443,2.791c1.0625,0,1.8008-0.7383,2.0889-1.4585c0.0898-0.2163,0.1445-0.5044,0.1445-0.8101v-5.3301    h1.584V-581.8945z"/>
		<path d="M1652.6572-583.5693c0.0361,2.1426,1.3867,3.0249,2.9893,3.0249c1.1348,0,1.8369-0.1978,2.4131-0.4502l0.2881,1.1343    c-0.5586,0.2524-1.5312,0.5586-2.917,0.5586c-2.6826,0-4.2852-1.7827-4.2852-4.4116c0-2.6284,1.5479-4.6812,4.0869-4.6812    c2.8623,0,3.6006,2.4844,3.6006,4.0869c0,0.3242-0.0176,0.5586-0.0537,0.7383H1652.6572z M1657.3027-584.7036    c0.0186-0.9902-0.4141-2.5566-2.1963-2.5566c-1.6211,0-2.3047,1.4585-2.4307,2.5566H1657.3027z"/>
		<path d="M1670.7305-581.5889c0,0.7563,0.0361,1.4946,0.126,2.0889h-1.4229l-0.126-1.0981h-0.0537    c-0.4863,0.6841-1.4229,1.2964-2.665,1.2964c-1.7646,0-2.665-1.2427-2.665-2.5029c0-2.1064,1.873-3.2588,5.2402-3.2412v-0.1797    c0-0.7021-0.1982-2.0166-1.9814-1.9985c-0.8281,0-1.6738,0.2339-2.2861,0.6479l-0.3604-1.0625    c0.7207-0.4497,1.7832-0.7559,2.8809-0.7559c2.665,0,3.3135,1.8184,3.3135,3.5469V-581.5889z M1669.2002-583.9473    c-1.7285-0.0361-3.6914,0.27-3.6914,1.9624c0,1.0444,0.6836,1.5127,1.4766,1.5127c1.1523,0,1.8906-0.7202,2.1426-1.4585    c0.0537-0.1802,0.0723-0.3604,0.0723-0.5044V-583.9473z"/>
		<path d="M1673.2842-585.856c0-0.9185-0.0176-1.6382-0.0723-2.3589h1.4043l0.0898,1.4404h0.0361    c0.4326-0.8101,1.4404-1.6201,2.8809-1.6201c1.207,0,3.0791,0.7202,3.0791,3.709v5.1855h-1.584v-5.0234    c0-1.4043-0.5225-2.5747-2.0166-2.5747c-1.0264,0-1.8369,0.7383-2.125,1.6206c-0.0723,0.1978-0.1084,0.4678-0.1084,0.7378v5.2397    h-1.584V-585.856z"/>
		<path d="M1690.7822-592.2837v10.5332c0,0.7739,0.0361,1.6562,0.0723,2.2505h-1.4043l-0.0723-1.5127h-0.0537    c-0.4678,0.9727-1.5127,1.7109-2.9346,1.7109c-2.1074,0-3.7451-1.7827-3.7451-4.4297c-0.0186-2.8984,1.7998-4.6631,3.9072-4.6631    c1.3496,0,2.2324,0.6299,2.6279,1.3145h0.0361v-5.2036H1690.7822z M1689.2158-584.6675c0-0.1982-0.0176-0.4683-0.0713-0.6665    c-0.2344-0.9902-1.0986-1.8184-2.2871-1.8184c-1.6387,0-2.6104,1.4404-2.6104,3.3491c0,1.7646,0.8818,3.2231,2.5742,3.2231    c1.0625,0,2.0352-0.7207,2.3232-1.8906c0.0537-0.2163,0.0713-0.4321,0.0713-0.6846V-584.6675z"/>
		<path d="M1703.4541-579.8062c-0.4141,0.1982-1.332,0.5044-2.5029,0.5044c-2.6289,0-4.3389-1.7827-4.3389-4.4473    c0-2.6831,1.8359-4.6455,4.6807-4.6455c0.9365,0,1.7646,0.2339,2.1973,0.4678l-0.3604,1.2065    c-0.3779-0.1978-0.9727-0.4141-1.8369-0.4141c-1.998,0-3.0781,1.4946-3.0781,3.2949c0,2.0166,1.2959,3.2593,3.0244,3.2593    c0.9004,0,1.4941-0.2163,1.9443-0.4146L1703.4541-579.8062z"/>
		<path d="M1705.3057-592.2837h1.584v5.4556h0.0361c0.252-0.4502,0.6484-0.8643,1.1348-1.1343    c0.4678-0.27,1.0264-0.4321,1.6201-0.4321c1.1709,0,3.043,0.7202,3.043,3.709v5.1855h-1.584v-5.0054    c0-1.4048-0.5225-2.5747-2.0166-2.5747c-1.0264,0-1.8193,0.7202-2.125,1.5664c-0.0898,0.2339-0.1084,0.4678-0.1084,0.7559v5.2578    h-1.584V-592.2837z"/>
		<path d="M1715.2959-585.4956c0-1.0264-0.0176-1.9087-0.0723-2.7192h1.3867l0.0723,1.7285h0.0537    c0.3965-1.1699,1.3682-1.9082,2.4307-1.9082c0.1621,0,0.2881,0.0181,0.4316,0.0361v1.4941    c-0.1611-0.0361-0.3232-0.0361-0.54-0.0361c-1.1162,0-1.9082,0.8286-2.124,2.0166c-0.0361,0.2163-0.0547,0.4863-0.0547,0.7383    v4.6455h-1.584V-585.4956z"/>
		<path d="M1728.8887-583.9292c0,3.2227-2.251,4.6274-4.3398,4.6274c-2.3408,0-4.1768-1.7285-4.1768-4.4834    c0-2.8989,1.9258-4.6094,4.3213-4.6094C1727.1953-588.3945,1728.8887-586.5762,1728.8887-583.9292z M1721.9922-583.8394    c0,1.9087,1.0801,3.3491,2.6289,3.3491c1.5127,0,2.6465-1.4224,2.6465-3.3853c0-1.4761-0.7383-3.3306-2.6104-3.3306    C1722.8027-587.2061,1721.9922-585.4775,1721.9922-583.8394z"/>
		<path d="M1730.8838-585.856c0-0.9185-0.0361-1.6382-0.0723-2.3589h1.3867l0.0723,1.4229h0.0537    c0.4863-0.8286,1.2959-1.6025,2.7549-1.6025c1.1699,0,2.0703,0.7202,2.4482,1.7466h0.0361    c0.2705-0.5044,0.6309-0.8643,0.9902-1.1343c0.5225-0.3965,1.0811-0.6123,1.9092-0.6123c1.1699,0,2.8809,0.7559,2.8809,3.7812    v5.1133h-1.5488v-4.9155c0-1.6924-0.6299-2.6826-1.8906-2.6826c-0.918,0-1.6025,0.666-1.8906,1.4224    c-0.0723,0.2339-0.126,0.5039-0.126,0.792v5.3838h-1.5488v-5.2217c0-1.3862-0.6113-2.3765-1.8184-2.3765    c-0.9717,0-1.71,0.792-1.9619,1.5845c-0.0908,0.2158-0.126,0.5039-0.126,0.7739v5.2397h-1.5488V-585.856z"/>
		<path d="M1752.0176-581.5889c0,0.7563,0.0361,1.4946,0.126,2.0889h-1.4229l-0.126-1.0981h-0.0537    c-0.4863,0.6841-1.4229,1.2964-2.665,1.2964c-1.7646,0-2.665-1.2427-2.665-2.5029c0-2.1064,1.873-3.2588,5.2402-3.2412v-0.1797    c0-0.7021-0.1982-2.0166-1.9814-1.9985c-0.8281,0-1.6738,0.2339-2.2861,0.6479l-0.3604-1.0625    c0.7207-0.4497,1.7832-0.7559,2.8809-0.7559c2.665,0,3.3135,1.8184,3.3135,3.5469V-581.5889z M1750.4873-583.9473    c-1.7285-0.0361-3.6914,0.27-3.6914,1.9624c0,1.0444,0.6836,1.5127,1.4766,1.5127c1.1523,0,1.8906-0.7202,2.1426-1.4585    c0.0537-0.1802,0.0723-0.3604,0.0723-0.5044V-583.9473z"/>
		<path d="M1649.2139-569.0635c0,0.5405-0.3779,0.9727-1.0088,0.9727c-0.5762,0-0.9541-0.4321-0.9541-0.9727    c0-0.54,0.3965-0.9902,0.9902-0.9902C1648.8174-570.0537,1649.2139-569.6216,1649.2139-569.0635z M1647.4492-557.8999v-8.7144    h1.584v8.7144H1647.4492z"/>
		<path d="M1651.6611-564.2559c0-0.918-0.0176-1.6387-0.0723-2.3584h1.4043l0.0898,1.4404h0.0361    c0.4326-0.8105,1.4404-1.6206,2.8809-1.6206c1.207,0,3.0791,0.7202,3.0791,3.709v5.1855h-1.584v-5.0234    c0-1.4043-0.5225-2.5747-2.0166-2.5747c-1.0264,0-1.8369,0.7383-2.125,1.6201c-0.0723,0.1982-0.1084,0.4683-0.1084,0.7383v5.2397    h-1.584V-564.2559z"/>
		<path d="M1667.375-568.7031v2.0889h2.2686v1.2061h-2.2686v4.6992c0,1.0806,0.3066,1.6929,1.1885,1.6929    c0.4326,0,0.6846-0.0361,0.918-0.1079l0.0723,1.2061c-0.3057,0.1079-0.792,0.2163-1.4043,0.2163    c-0.7383,0-1.332-0.2524-1.71-0.6665c-0.4326-0.4858-0.6123-1.2603-0.6123-2.2866v-4.7534h-1.3506v-1.2061h1.3506v-1.6206    L1667.375-568.7031z"/>
		<path d="M1671.4248-570.6836h1.584v5.4556h0.0361c0.252-0.4502,0.6484-0.8643,1.1348-1.1343    c0.4678-0.27,1.0264-0.4321,1.6201-0.4321c1.1709,0,3.043,0.7202,3.043,3.709v5.1855h-1.584v-5.0054    c0-1.4043-0.5225-2.5747-2.0166-2.5747c-1.0264,0-1.8193,0.7202-2.125,1.5664c-0.0898,0.2339-0.1084,0.4683-0.1084,0.7563v5.2573    h-1.584V-570.6836z"/>
		<path d="M1682.2969-561.9692c0.0361,2.1426,1.3867,3.0249,2.9893,3.0249c1.1348,0,1.8369-0.1978,2.4131-0.4502l0.2881,1.1348    c-0.5586,0.252-1.5312,0.5581-2.917,0.5581c-2.6826,0-4.2852-1.7827-4.2852-4.4116s1.5479-4.6812,4.0869-4.6812    c2.8633,0,3.6006,2.4849,3.6006,4.0869c0,0.3242-0.0176,0.5581-0.0537,0.7383H1682.2969z M1686.9424-563.1035    c0.0186-0.9902-0.4141-2.5566-2.1963-2.5566c-1.6201,0-2.3047,1.4585-2.4307,2.5566H1686.9424z"/>
		<path stroke="#000000" stroke-width="0.1" d="M1695.3789-568.0093v4.2295h4.8896v-4.2295h1.3193v10.1094h-1.3193v-4.7397h-4.8896    v4.7397h-1.3203v-10.1094H1695.3789z"/>
		<path stroke="#000000" stroke-width="0.1" d="M1704.4385-559.4897c0.585,0.375,1.4258,0.6597,2.3252,0.6597    c1.335,0,2.1152-0.7046,2.1152-1.7246c0-0.9302-0.54-1.4849-1.9053-1.9951c-1.6494-0.6001-2.6699-1.4697-2.6699-2.8799    c0-1.5747,1.3047-2.7446,3.2695-2.7446c1.0205,0,1.7852,0.2397,2.2207,0.4946l-0.3604,1.0649    c-0.3154-0.1948-0.9902-0.48-1.9053-0.48c-1.3799,0-1.9043,0.8252-1.9043,1.5151c0,0.9448,0.6143,1.4102,2.0098,1.9497    c1.71,0.6602,2.5645,1.4854,2.5645,2.9702c0,1.5601-1.1396,2.9248-3.5244,2.9248c-0.9746,0-2.04-0.2998-2.5801-0.6602    L1704.4385-559.4897z"/>
		<path stroke="#000000" stroke-width="0.1" d="M1712.7334-568.0093h1.3203v9.0146h4.3193v1.0947h-5.6396V-568.0093z"/>
		<path d="M1720.0205-557.1978l5.0049-13.0537h1.2422l-5.041,13.0537H1720.0205z"/>
		<path stroke="#000000" stroke-width="0.1" d="M1728.6572-568.0093v4.2295h4.8896v-4.2295h1.3193v10.1094h-1.3193v-4.7397h-4.8896    v4.7397h-1.3203v-10.1094H1728.6572z"/>
		<path stroke="#000000" stroke-width="0.1" d="M1737.7168-559.4897c0.585,0.375,1.4248,0.6597,2.3252,0.6597    c1.335,0,2.1152-0.7046,2.1152-1.7246c0-0.9302-0.54-1.4849-1.9053-1.9951c-1.6494-0.6001-2.6699-1.4697-2.6699-2.8799    c0-1.5747,1.3047-2.7446,3.2695-2.7446c1.0205,0,1.7852,0.2397,2.2207,0.4946l-0.3604,1.0649    c-0.3154-0.1948-0.9902-0.48-1.9053-0.48c-1.3799,0-1.9043,0.8252-1.9043,1.5151c0,0.9448,0.6143,1.4102,2.0098,1.9497    c1.71,0.6602,2.5645,1.4854,2.5645,2.9702c0,1.5601-1.1396,2.9248-3.5244,2.9248c-0.9746,0-2.04-0.2998-2.5801-0.6602    L1737.7168-559.4897z"/>
		<path stroke="#000000" stroke-width="0.1" d="M1748.2471-557.8999l-3.3154-10.1094h1.4248l1.5752,4.9795    c0.4199,1.3652,0.7949,2.5952,1.0801,3.7798h0.0303c0.2842-1.1699,0.6895-2.4448,1.1543-3.7646l1.71-4.9946h1.3955    l-3.6152,10.1094H1748.2471z"/>
		<path d="M1666.4824-536.606c-0.4141,0.1982-1.333,0.5044-2.5029,0.5044c-2.6289,0-4.3389-1.7827-4.3389-4.4473    c0-2.6831,1.8359-4.6455,4.6807-4.6455c0.9365,0,1.7646,0.2339,2.1973,0.4678l-0.3604,1.2065    c-0.3779-0.1978-0.9727-0.4141-1.8369-0.4141c-1.998,0-3.0781,1.4946-3.0781,3.2949c0,2.0166,1.2959,3.2593,3.0244,3.2593    c0.9004,0,1.4941-0.2163,1.9443-0.4146L1666.4824-536.606z"/>
		<path d="M1668.335-549.0835h1.584v5.4556h0.0361c0.252-0.4502,0.6484-0.8643,1.1348-1.1343    c0.4678-0.27,1.0264-0.4321,1.6201-0.4321c1.1709,0,3.043,0.7202,3.043,3.709v5.1855h-1.584v-5.0054    c0-1.4048-0.5225-2.5747-2.0166-2.5747c-1.0264,0-1.8193,0.7202-2.125,1.5664c-0.0898,0.2339-0.1084,0.4678-0.1084,0.7559v5.2578    h-1.584V-549.0835z"/>
		<path d="M1678.3252-542.2954c0-1.0264-0.0176-1.9087-0.0723-2.7192h1.3867l0.0723,1.7285h0.0537    c0.3965-1.1699,1.3682-1.9082,2.4307-1.9082c0.1621,0,0.2881,0.0181,0.4316,0.0361v1.4941    c-0.1611-0.0361-0.3232-0.0361-0.54-0.0361c-1.1162,0-1.9082,0.8286-2.124,2.0166c-0.0361,0.2163-0.0547,0.4863-0.0547,0.7383    v4.6455h-1.584V-542.2954z"/>
		<path d="M1691.918-540.729c0,3.2227-2.251,4.6274-4.3398,4.6274c-2.3408,0-4.1768-1.7285-4.1768-4.4834    c0-2.8989,1.9258-4.6094,4.3213-4.6094C1690.2246-545.1943,1691.918-543.376,1691.918-540.729z M1685.0215-540.6392    c0,1.9087,1.0801,3.3491,2.6289,3.3491c1.5127,0,2.6465-1.4224,2.6465-3.3853c0-1.4761-0.7383-3.3306-2.6104-3.3306    C1685.832-544.0059,1685.0215-542.2773,1685.0215-540.6392z"/>
		<path d="M1693.9131-542.6558c0-0.9185-0.0361-1.6382-0.0723-2.3589h1.3867l0.0723,1.4229h0.0537    c0.4863-0.8286,1.2959-1.6025,2.7549-1.6025c1.1699,0,2.0703,0.7202,2.4482,1.7466h0.0361    c0.2705-0.5044,0.6309-0.8643,0.9902-1.1343c0.5225-0.3965,1.0811-0.6123,1.9092-0.6123c1.1699,0,2.8809,0.7559,2.8809,3.7812    v5.1133h-1.5488v-4.9155c0-1.6924-0.6299-2.6826-1.8906-2.6826c-0.918,0-1.6025,0.666-1.8906,1.4224    c-0.0723,0.2339-0.126,0.5039-0.126,0.792v5.3838h-1.5488v-5.2217c0-1.3862-0.6113-2.3765-1.8184-2.3765    c-0.9717,0-1.71,0.792-1.9619,1.5845c-0.0908,0.2158-0.126,0.5039-0.126,0.7739v5.2397h-1.5488V-542.6558z"/>
		<path d="M1715.0469-538.3887c0,0.7563,0.0361,1.4946,0.126,2.0889h-1.4229l-0.126-1.0981h-0.0537    c-0.4863,0.6841-1.4229,1.2964-2.665,1.2964c-1.7646,0-2.665-1.2427-2.665-2.5029c0-2.1064,1.873-3.2588,5.2402-3.2412v-0.1797    c0-0.7021-0.1982-2.0166-1.9814-1.9985c-0.8281,0-1.6738,0.2339-2.2861,0.6479l-0.3604-1.0625    c0.7207-0.4497,1.7832-0.7559,2.8809-0.7559c2.665,0,3.3135,1.8184,3.3135,3.5469V-538.3887z M1713.5166-540.7471    c-1.7285-0.0361-3.6914,0.27-3.6914,1.9624c0,1.0444,0.6836,1.5127,1.4766,1.5127c1.1523,0,1.8906-0.7202,2.1426-1.4585    c0.0537-0.1802,0.0723-0.3604,0.0723-0.5044V-540.7471z"/>
		<path d="M1719.4365-547.103v2.0884h2.2686v1.2065h-2.2686v4.6997c0,1.0801,0.3066,1.6924,1.1885,1.6924    c0.4326,0,0.6846-0.0361,0.9189-0.1084l0.0713,1.2065c-0.3057,0.1079-0.792,0.2163-1.4043,0.2163    c-0.7383,0-1.332-0.2524-1.71-0.6665c-0.4326-0.4858-0.6123-1.2603-0.6123-2.2866v-4.7534h-1.3506v-1.2065h1.3506v-1.6201    L1719.4365-547.103z"/>
		<path d="M1725.251-547.4629c0,0.54-0.3779,0.9722-1.0088,0.9722c-0.5762,0-0.9541-0.4321-0.9541-0.9722    c0-0.5405,0.3965-0.9907,0.9902-0.9907C1724.8545-548.4536,1725.251-548.0215,1725.251-547.4629z M1723.4863-536.2998v-8.7148    h1.584v8.7148H1723.4863z"/>
		<path d="M1733.9102-536.606c-0.4141,0.1982-1.333,0.5044-2.5029,0.5044c-2.6289,0-4.3389-1.7827-4.3389-4.4473    c0-2.6831,1.8359-4.6455,4.6807-4.6455c0.9365,0,1.7646,0.2339,2.1973,0.4678l-0.3604,1.2065    c-0.3779-0.1978-0.9727-0.4141-1.8369-0.4141c-1.998,0-3.0781,1.4946-3.0781,3.2949c0,2.0166,1.2959,3.2593,3.0244,3.2593    c0.9004,0,1.4941-0.2163,1.9443-0.4146L1733.9102-536.606z"/>
		<path d="M1737.5273-547.4629c0,0.54-0.3779,0.9722-1.0088,0.9722c-0.5762,0-0.9541-0.4321-0.9541-0.9722    c0-0.5405,0.3965-0.9907,0.9902-0.9907C1737.1309-548.4536,1737.5273-548.0215,1737.5273-547.4629z M1735.7627-536.2998v-8.7148    h1.584v8.7148H1735.7627z"/>
		<path d="M1741.8828-547.103v2.0884h2.2686v1.2065h-2.2686v4.6997c0,1.0801,0.3066,1.6924,1.1885,1.6924    c0.4326,0,0.6846-0.0361,0.918-0.1084l0.0723,1.2065c-0.3057,0.1079-0.792,0.2163-1.4043,0.2163    c-0.7383,0-1.332-0.2524-1.71-0.6665c-0.4326-0.4858-0.6123-1.2603-0.6123-2.2866v-4.7534h-1.3506v-1.2065h1.3506v-1.6201    L1741.8828-547.103z"/>
		<path d="M1746.6709-545.0146l1.8906,5.1499c0.2158,0.5762,0.4316,1.2603,0.5762,1.7822h0.0361    c0.1621-0.522,0.3418-1.188,0.5576-1.8184l1.7285-5.1138h1.6748l-2.377,6.2119c-1.1338,2.9893-1.9082,4.5015-2.9883,5.4561    c-0.793,0.666-1.5488,0.936-1.9453,1.0078l-0.3955-1.314c0.3955-0.1265,0.918-0.3784,1.3857-0.7744    c0.4326-0.3423,0.9551-0.9541,1.333-1.7646c0.0723-0.1621,0.126-0.2881,0.126-0.3779c0-0.0903-0.0361-0.2163-0.126-0.4141    l-3.2051-8.0308H1746.6709z"/>
		<path d="M1712.3984-520.5698c0-1.1167-0.0361-2.0166-0.0723-2.8452h1.4043l0.0908,1.4946h0.0352    c0.6309-1.062,1.6748-1.6743,3.0977-1.6743c2.124,0,3.709,1.7822,3.709,4.4111c0,3.1328-1.9268,4.6816-3.9795,4.6816    c-1.1523,0-2.1602-0.5044-2.6826-1.3687h-0.0361v4.7354h-1.5664V-520.5698z M1713.9648-518.2471    c0,0.2339,0.0176,0.4502,0.0723,0.6479c0.2881,1.0981,1.2422,1.8545,2.376,1.8545c1.6748,0,2.6475-1.3682,2.6475-3.3667    c0-1.7285-0.9189-3.2231-2.5928-3.2231c-1.0801,0-2.1064,0.7563-2.3945,1.9448c-0.0547,0.1978-0.1084,0.4316-0.1084,0.6299    V-518.2471z"/>
		<path d="M1722.6406-527.4839h1.584v12.7837h-1.584V-527.4839z"/>
		<path d="M1733.0107-516.7891c0,0.7563,0.0361,1.4946,0.126,2.0889h-1.4229l-0.126-1.0981h-0.0537    c-0.4863,0.6841-1.4229,1.2964-2.665,1.2964c-1.7646,0-2.665-1.2427-2.665-2.5029c0-2.1064,1.873-3.2588,5.2402-3.2412v-0.1797    c0-0.7021-0.1982-2.0166-1.9805-1.9985c-0.8291,0-1.6748,0.2339-2.2871,0.6479l-0.3604-1.0625    c0.7207-0.4497,1.7822-0.7559,2.8809-0.7559c2.665,0,3.3135,1.8184,3.3135,3.5469V-516.7891z M1731.4795-519.1475    c-1.7285-0.0361-3.6904,0.27-3.6904,1.9624c0,1.0444,0.6836,1.5127,1.4766,1.5127c1.1523,0,1.8906-0.7202,2.1426-1.4585    c0.0537-0.1802,0.0713-0.3604,0.0713-0.5044V-519.1475z"/>
		<path d="M1735.5645-521.0562c0-0.9185-0.0186-1.6382-0.0723-2.3589h1.4043l0.0908,1.4404h0.0352    c0.4326-0.8101,1.4404-1.6201,2.8809-1.6201c1.207,0,3.0791,0.7202,3.0791,3.709v5.1855h-1.584v-5.0234    c0-1.4043-0.5225-2.5747-2.0166-2.5747c-1.0264,0-1.8369,0.7383-2.125,1.6206c-0.0723,0.1978-0.1084,0.4678-0.1084,0.7378v5.2397    h-1.584V-521.0562z"/>
		<path d="M1746.4365-518.7695c0.0361,2.1426,1.3867,3.0249,2.9893,3.0249c1.1348,0,1.8369-0.1978,2.4131-0.4502l0.2881,1.1343    c-0.5586,0.2524-1.5312,0.5586-2.917,0.5586c-2.6826,0-4.2852-1.7827-4.2852-4.4116c0-2.6284,1.5479-4.6812,4.0869-4.6812    c2.8623,0,3.6006,2.4844,3.6006,4.0869c0,0.3242-0.0176,0.5586-0.0537,0.7383H1746.4365z M1751.082-519.9038    c0.0186-0.9902-0.4141-2.5566-2.1963-2.5566c-1.6211,0-2.3047,1.4585-2.4307,2.5566H1751.082z"/>
	</g>
	
		<line fill="none" stroke="#58595B" stroke-width="1.4" stroke-linecap="round" stroke-linejoin="round" stroke-dasharray="0,6" x1="1573.8555" y1="-339.1099" x2="1573.8545" y2="-559.2305"/>
	
		<line fill="none" stroke="#58595B" stroke-width="1.4" stroke-linecap="round" stroke-linejoin="round" stroke-dasharray="5.6,2.8" x1="1659.8838" y1="-384.457" x2="1554.5303" y2="-439.9771"/>
	
		<line fill="none" stroke="#58595B" stroke-width="1.4" stroke-linecap="round" stroke-linejoin="round" stroke-dasharray="5.6,2.8" x1="1573.8545" y1="-559.2305" x2="1554.5303" y2="-439.9771"/>
	<g>
		<circle fill="#FFFFFF" cx="1573.8545" cy="-559.2305" r="7"/>
		
			<circle fill="none" stroke="#000000" stroke-width="0.42" stroke-linecap="round" stroke-linejoin="round" cx="1573.8545" cy="-559.2305" r="7"/>
	</g>
	<g>
		<circle cx="1573.8555" cy="-339.1099" r="7"/>
		
			<circle fill="none" stroke="#000000" stroke-width="0.42" stroke-linecap="round" stroke-linejoin="round" cx="1573.8555" cy="-339.1099" r="7"/>
	</g>
	
		<line fill="none" stroke="#BCBEC0" stroke-width="1.4" stroke-linecap="round" stroke-linejoin="round" stroke-dasharray="0,4" x1="1554.5303" y1="-439.9771" x2="1554.5303" y2="-292.6685"/>
	<g>
		<circle fill="#FF0000" cx="1659.8838" cy="-384.457" r="7"/>
		
			<circle fill="none" stroke="#000000" stroke-width="0.42" stroke-linecap="round" stroke-linejoin="round" cx="1659.8838" cy="-384.457" r="7"/>
	</g>
	<g>
		<circle fill="#FF00FF" cx="1554.5303" cy="-439.9771" r="7"/>
		
			<circle fill="none" stroke="#000000" stroke-width="0.42" stroke-linecap="round" stroke-linejoin="round" cx="1554.5303" cy="-439.9771" r="7"/>
	</g>
</g>
</svg>