<?xml version="1.0" encoding="UTF-8" standalone="no"?>
<!DOCTYPE svg PUBLIC "-//W3C//DTD SVG 1.0//EN" "http://www.w3.org/TR/2001/PR-SVG-20010719/DTD/svg10.dtd">
<svg width="17cm" height="26cm" viewBox="638 -93 327 506" xmlns="http://www.w3.org/2000/svg" xmlns:xlink="http://www.w3.org/1999/xlink">
  <text font-size="20.32" style="fill: #000000;text-anchor:start;font-family:sans-serif;font-style:normal;font-weight:normal" x="655" y="295">
    <tspan x="655" y="295"></tspan>
  </text>
  <g>
    <line style="fill: none; fill-opacity:0; stroke-width: 2; stroke: #7f7f7f" x1="640" y1="-40" x2="800" y2="-40"/>
    <line style="fill: none; fill-opacity:0; stroke-width: 2; stroke: #7f7f7f" x1="640" y1="-4.96706e-09" x2="800" y2="-4.96706e-09"/>
    <rect style="fill: none; fill-opacity:0; stroke-width: 2; stroke: #000000" x="640" y="-80" width="160" height="120"/>
  </g>
  <text font-size="20.32" style="fill: #000000;text-anchor:middle;font-family:Yandex Sans Text;font-style:normal;font-weight:normal" x="720" y="-52.875">
    <tspan x="720" y="-52.875">iPhone</tspan>
  </text>
  <text font-size="20.32" style="fill: #000000;text-anchor:middle;font-family:Yandex Sans Text;font-style:normal;font-weight:normal" x="720" y="-12.875">
    <tspan x="720" y="-12.875">Galaxy A3</tspan>
  </text>
  <g>
    <line style="fill: none; fill-opacity:0; stroke-width: 2; stroke: #7f7f7f" x1="640" y1="200" x2="800" y2="200"/>
    <line style="fill: none; fill-opacity:0; stroke-width: 2; stroke: #7f7f7f" x1="640" y1="240" x2="800" y2="240"/>
    <rect style="fill: none; fill-opacity:0; stroke-width: 2; stroke: #000000" x="640" y="160" width="160" height="120"/>
  </g>
  <text font-size="20.32" style="fill: #000000;text-anchor:middle;font-family:Yandex Sans Text;font-style:normal;font-weight:normal" x="720" y="187.125">
    <tspan x="720" y="187.125">Galaxy A3</tspan>
  </text>
  <text font-size="20.32" style="fill: #000000;text-anchor:middle;font-family:Yandex Sans Text;font-style:normal;font-weight:normal" x="720" y="227.125">
    <tspan x="720" y="227.125">Redmi Note 3</tspan>
  </text>
  <g>
    <line style="fill: none; fill-opacity:0; stroke-width: 2; stroke: #7f7f7f" x1="880" y1="-40" x2="920" y2="-40"/>
    <line style="fill: none; fill-opacity:0; stroke-width: 2; stroke: #7f7f7f" x1="880" y1="9.93412e-09" x2="920" y2="9.93412e-09"/>
    <line style="fill: none; fill-opacity:0; stroke-width: 2; stroke: #7f7f7f" x1="880" y1="40" x2="920" y2="40"/>
    <line style="fill: none; fill-opacity:0; stroke-width: 2; stroke: #7f7f7f" x1="880" y1="80" x2="920" y2="80"/>
    <line style="fill: none; fill-opacity:0; stroke-width: 2; stroke: #7f7f7f" x1="880" y1="120" x2="920" y2="120"/>
    <line style="fill: none; fill-opacity:0; stroke-width: 2; stroke: #7f7f7f" x1="880" y1="160" x2="920" y2="160"/>
    <line style="fill: none; fill-opacity:0; stroke-width: 2; stroke: #7f7f7f" x1="880" y1="200" x2="920" y2="200"/>
    <line style="fill: none; fill-opacity:0; stroke-width: 2; stroke: #7f7f7f" x1="880" y1="240" x2="920" y2="240"/>
    <line style="fill: none; fill-opacity:0; stroke-width: 2; stroke: #7f7f7f" x1="880" y1="280" x2="920" y2="280"/>
    <line style="fill: none; fill-opacity:0; stroke-width: 2; stroke: #7f7f7f" x1="880" y1="320" x2="920" y2="320"/>
    <line style="fill: none; fill-opacity:0; stroke-width: 2; stroke: #7f7f7f" x1="880" y1="360" x2="920" y2="360"/>
    <rect style="fill: none; fill-opacity:0; stroke-width: 2; stroke: #000000" x="880" y="-80" width="40" height="480"/>
  </g>
  <line style="fill: none; fill-opacity:0; stroke-width: 2; stroke: #7f7f7f" x1="860" y1="-80" x2="940" y2="-80"/>
  <line style="fill: none; fill-opacity:0; stroke-width: 2; stroke: #7f7f7f" x1="860" y1="40" x2="940" y2="40"/>
  <line style="fill: none; fill-opacity:0; stroke-width: 2; stroke: #7f7f7f" x1="860" y1="160" x2="940" y2="160"/>
  <line style="fill: none; fill-opacity:0; stroke-width: 2; stroke: #7f7f7f" x1="860" y1="280" x2="940" y2="280"/>
  <line style="fill: none; fill-opacity:0; stroke-width: 2; stroke: #7f7f7f" x1="860" y1="400" x2="940" y2="400"/>
  <g>
    <line style="fill: none; fill-opacity:0; stroke-width: 2; stroke: #7f7f7f" x1="860" y1="-80" x2="809.736" y2="-80"/>
    <polygon style="fill: #7f7f7f" points="802.236,-80 812.236,-85 809.736,-80 812.236,-75 "/>
    <polygon style="fill: none; fill-opacity:0; stroke-width: 2; stroke: #7f7f7f" points="802.236,-80 812.236,-85 809.736,-80 812.236,-75 "/>
  </g>
  <polyline style="fill: none; fill-opacity:0; stroke-width: 2; stroke: #7f7f7f" points="860,40 860,40 840,40 840,-80 "/>
  <g>
    <line style="fill: none; fill-opacity:0; stroke-width: 2; stroke: #7f7f7f" x1="860" y1="160" x2="809.736" y2="160"/>
    <polygon style="fill: #7f7f7f" points="802.236,160 812.236,155 809.736,160 812.236,165 "/>
    <polygon style="fill: none; fill-opacity:0; stroke-width: 2; stroke: #7f7f7f" points="802.236,160 812.236,155 809.736,160 812.236,165 "/>
  </g>
  <polyline style="fill: none; fill-opacity:0; stroke-width: 2; stroke: #7f7f7f" points="860,280 860,280 840,280 840,160 "/>
  <text font-size="20.32" style="fill: #000000;text-anchor:middle;font-family:Yandex Sans Text;font-style:normal;font-weight:normal" x="960" y="-72.875">
    <tspan x="960" y="-72.875">0</tspan>
  </text>
  <text font-size="20.32" style="fill: #000000;text-anchor:middle;font-family:Yandex Sans Text;font-style:normal;font-weight:normal" x="960" y="46.8206">
    <tspan x="960" y="46.8206">1</tspan>
  </text>
  <text font-size="20.32" style="fill: #000000;text-anchor:middle;font-family:Yandex Sans Text;font-style:normal;font-weight:normal" x="960" y="166.821">
    <tspan x="960" y="166.821">2</tspan>
  </text>
  <text font-size="20.32" style="fill: #000000;text-anchor:middle;font-family:Yandex Sans Text;font-style:normal;font-weight:normal" x="960" y="286.821">
    <tspan x="960" y="286.821">3</tspan>
  </text>
  <text font-size="20.32" style="fill: #000000;text-anchor:middle;font-family:Yandex Sans Text;font-style:normal;font-weight:normal" x="960" y="406.821">
    <tspan x="960" y="406.821">4</tspan>
  </text>
  <text font-size="20.32" style="fill: #000000;text-anchor:middle;font-family:Yandex Sans Text;font-style:normal;font-weight:normal" x="900" y="-53.1794">
    <tspan x="900" y="-53.1794">2</tspan>
  </text>
  <text font-size="20.32" style="fill: #000000;text-anchor:middle;font-family:Yandex Sans Text;font-style:normal;font-weight:normal" x="900" y="-13.1794">
    <tspan x="900" y="-13.1794">1</tspan>
  </text>
  <text font-size="20.32" style="fill: #000000;text-anchor:middle;font-family:Yandex Sans Text;font-style:normal;font-weight:normal" x="900" y="26.8206">
    <tspan x="900" y="26.8206">1</tspan>
  </text>
  <text font-size="20.32" style="fill: #000000;text-anchor:middle;font-family:Yandex Sans Text;font-style:normal;font-weight:normal" x="900" y="66.8206">
    <tspan x="900" y="66.8206">3</tspan>
  </text>
  <text font-size="20.32" style="fill: #000000;text-anchor:middle;font-family:Yandex Sans Text;font-style:normal;font-weight:normal" x="900" y="107.125">
    <tspan x="900" y="107.125">2</tspan>
  </text>
  <text font-size="20.32" style="fill: #000000;text-anchor:middle;font-family:Yandex Sans Text;font-style:normal;font-weight:normal" x="900" y="146.821">
    <tspan x="900" y="146.821">1</tspan>
  </text>
  <text font-size="20.32" style="fill: #000000;text-anchor:middle;font-family:Yandex Sans Text;font-style:normal;font-weight:normal" x="720" y="26.8206">
    <tspan x="720" y="26.8206">Lenovo A2010-a</tspan>
  </text>
  <text font-size="20.32" style="fill: #000000;text-anchor:middle;font-family:Yandex Sans Text;font-style:normal;font-weight:normal" x="720" y="266.821">
    <tspan x="720" y="266.821">iPhone</tspan>
  </text>
  <text font-size="20.32" style="fill: #000000;text-anchor:middle;font-family:Yandex Sans Text;font-style:normal;font-weight:normal" x="900" y="187.125">
    <tspan x="900" y="187.125">1</tspan>
  </text>
  <text font-size="20.32" style="fill: #000000;text-anchor:middle;font-family:Yandex Sans Text;font-style:normal;font-weight:normal" x="900" y="226.821">
    <tspan x="900" y="226.821">2</tspan>
  </text>
  <text font-size="20.32" style="fill: #000000;text-anchor:middle;font-family:Yandex Sans Text;font-style:normal;font-weight:normal" x="900" y="266.821">
    <tspan x="900" y="266.821">3</tspan>
  </text>
  <text font-size="20.32" style="fill: #000000;text-anchor:middle;font-family:Yandex Sans Text;font-style:normal;font-weight:normal" x="900" y="306.821">
    <tspan x="900" y="306.821">2</tspan>
  </text>
  <text font-size="20.32" style="fill: #000000;text-anchor:middle;font-family:Yandex Sans Text;font-style:normal;font-weight:normal" x="900" y="347.125">
    <tspan x="900" y="347.125">2</tspan>
  </text>
  <text font-size="20.32" style="fill: #000000;text-anchor:middle;font-family:Yandex Sans Text;font-style:normal;font-weight:normal" x="900" y="387.125">
    <tspan x="900" y="387.125">1</tspan>
  </text>
</svg>
