<?xml version="1.0" encoding="UTF-8" standalone="no"?>
<!DOCTYPE svg PUBLIC "-//W3C//DTD SVG 1.1//EN"
 "http://www.w3.org/Graphics/SVG/1.1/DTD/svg11.dtd">
<!-- Generated by graphviz version 2.40.1 (20161225.0304)
 -->
<!-- Title: %3 Pages: 1 -->
<svg width="610pt" height="809pt"
 viewBox="0.00 0.00 610.21 808.74" xmlns="http://www.w3.org/2000/svg" xmlns:xlink="http://www.w3.org/1999/xlink">
<g id="graph0" class="graph" transform="scale(1 1) rotate(0) translate(4 804.7351)">
<title>%3</title>
<polygon fill="#ffffff" stroke="transparent" points="-4,4 -4,-804.7351 606.2115,-804.7351 606.2115,4 -4,4"/>
<!-- n139724682981840 -->
<g id="node1" class="node">
<title>n139724682981840</title>
<ellipse fill="none" stroke="#000000" cx="92.6932" cy="-782.7351" rx="35.9954" ry="18"/>
<text text-anchor="start" x="73.1932" y="-780.0351" font-family="Times,serif" font-size="14.00" fill="#000000"> </text>
<text text-anchor="start" x="77.1932" y="-780.0351" font-family="Times,serif" font-weight="bold" font-size="14.00" fill="#000000">Read</text>
<text text-anchor="start" x="108.1932" y="-780.0351" font-family="Times,serif" font-size="14.00" fill="#000000"> </text>
</g>
<!-- n139724682929104 -->
<g id="node4" class="node">
<title>n139724682929104</title>
<ellipse fill="none" stroke="#000000" cx="92.6932" cy="-703.2792" rx="53.9813" ry="25.4118"/>
<text text-anchor="start" x="72.1932" y="-707.0792" font-family="Times,serif" font-size="14.00" fill="#000000"> </text>
<text text-anchor="start" x="76.1932" y="-707.0792" font-family="Times,serif" font-weight="bold" font-size="14.00" fill="#000000">Filter </text>
<text text-anchor="start" x="62.6932" y="-693.0792" font-family="Times,serif" font-size="14.00" fill="#000000"> URL != &#39;&#39; </text>
</g>
<!-- n139724682981840&#45;&gt;n139724682929104 -->
<g id="edge1" class="edge">
<title>n139724682981840&#45;&gt;n139724682929104</title>
<path fill="none" stroke="#000000" d="M92.6932,-764.7053C92.6932,-757.0704 92.6932,-747.8931 92.6932,-738.988"/>
<polygon fill="#000000" stroke="#000000" points="96.1933,-738.7679 92.6932,-728.7679 89.1933,-738.768 96.1933,-738.7679"/>
</g>
<!-- n139724682981616 -->
<g id="node2" class="node">
<title>n139724682981616</title>
<ellipse fill="none" stroke="#000000" cx="243.6932" cy="-782.7351" rx="35.9954" ry="18"/>
<text text-anchor="start" x="224.1932" y="-780.0351" font-family="Times,serif" font-size="14.00" fill="#000000"> </text>
<text text-anchor="start" x="228.1932" y="-780.0351" font-family="Times,serif" font-weight="bold" font-size="14.00" fill="#000000">Read</text>
<text text-anchor="start" x="259.1932" y="-780.0351" font-family="Times,serif" font-size="14.00" fill="#000000"> </text>
</g>
<!-- n139724682928784 -->
<g id="node5" class="node">
<title>n139724682928784</title>
<ellipse fill="none" stroke="#000000" cx="243.6932" cy="-703.2792" rx="53.9813" ry="25.4118"/>
<text text-anchor="start" x="223.1932" y="-707.0792" font-family="Times,serif" font-size="14.00" fill="#000000"> </text>
<text text-anchor="start" x="227.1932" y="-707.0792" font-family="Times,serif" font-weight="bold" font-size="14.00" fill="#000000">Filter </text>
<text text-anchor="start" x="213.6932" y="-693.0792" font-family="Times,serif" font-size="14.00" fill="#000000"> URL != &#39;&#39; </text>
</g>
<!-- n139724682981616&#45;&gt;n139724682928784 -->
<g id="edge2" class="edge">
<title>n139724682981616&#45;&gt;n139724682928784</title>
<path fill="none" stroke="#000000" d="M243.6932,-764.7053C243.6932,-757.0704 243.6932,-747.8931 243.6932,-738.988"/>
<polygon fill="#000000" stroke="#000000" points="247.1933,-738.7679 243.6932,-728.7679 240.1933,-738.768 247.1933,-738.7679"/>
</g>
<!-- n139724682982064 -->
<g id="node3" class="node">
<title>n139724682982064</title>
<ellipse fill="none" stroke="#000000" cx="394.6932" cy="-782.7351" rx="35.9954" ry="18"/>
<text text-anchor="start" x="375.1932" y="-780.0351" font-family="Times,serif" font-size="14.00" fill="#000000"> </text>
<text text-anchor="start" x="379.1932" y="-780.0351" font-family="Times,serif" font-weight="bold" font-size="14.00" fill="#000000">Read</text>
<text text-anchor="start" x="410.1932" y="-780.0351" font-family="Times,serif" font-size="14.00" fill="#000000"> </text>
</g>
<!-- n139724682928464 -->
<g id="node6" class="node">
<title>n139724682928464</title>
<ellipse fill="none" stroke="#000000" cx="394.6932" cy="-703.2792" rx="53.9813" ry="25.4118"/>
<text text-anchor="start" x="374.1932" y="-707.0792" font-family="Times,serif" font-size="14.00" fill="#000000"> </text>
<text text-anchor="start" x="378.1932" y="-707.0792" font-family="Times,serif" font-weight="bold" font-size="14.00" fill="#000000">Filter </text>
<text text-anchor="start" x="364.6932" y="-693.0792" font-family="Times,serif" font-size="14.00" fill="#000000"> URL != &#39;&#39; </text>
</g>
<!-- n139724682982064&#45;&gt;n139724682928464 -->
<g id="edge3" class="edge">
<title>n139724682982064&#45;&gt;n139724682928464</title>
<path fill="none" stroke="#000000" d="M394.6932,-764.7053C394.6932,-757.0704 394.6932,-747.8931 394.6932,-738.988"/>
<polygon fill="#000000" stroke="#000000" points="398.1933,-738.7679 394.6932,-728.7679 391.1933,-738.768 398.1933,-738.7679"/>
</g>
<!-- n139724681573904 -->
<g id="node7" class="node">
<title>n139724681573904</title>
<ellipse fill="none" stroke="#000000" cx="92.6932" cy="-616.3675" rx="66.4361" ry="25.4118"/>
<text text-anchor="start" x="56.6932" y="-620.1675" font-family="Times,serif" font-size="14.00" fill="#000000"> </text>
<text text-anchor="start" x="60.6932" y="-620.1675" font-family="Times,serif" font-weight="bold" font-size="14.00" fill="#000000">Expression </text>
<text text-anchor="start" x="53.6932" y="-606.1675" font-family="Times,serif" font-size="14.00" fill="#000000"> length(URL) </text>
</g>
<!-- n139724682929104&#45;&gt;n139724681573904 -->
<g id="edge4" class="edge">
<title>n139724682929104&#45;&gt;n139724681573904</title>
<path fill="none" stroke="#000000" d="M92.6932,-677.6729C92.6932,-669.699 92.6932,-660.7545 92.6932,-652.2147"/>
<polygon fill="#000000" stroke="#000000" points="96.1933,-652.0911 92.6932,-642.0911 89.1933,-652.0912 96.1933,-652.0911"/>
</g>
<!-- n139724606099472 -->
<g id="node8" class="node">
<title>n139724606099472</title>
<ellipse fill="none" stroke="#000000" cx="243.6932" cy="-616.3675" rx="66.4361" ry="25.4118"/>
<text text-anchor="start" x="207.6932" y="-620.1675" font-family="Times,serif" font-size="14.00" fill="#000000"> </text>
<text text-anchor="start" x="211.6932" y="-620.1675" font-family="Times,serif" font-weight="bold" font-size="14.00" fill="#000000">Expression </text>
<text text-anchor="start" x="204.6932" y="-606.1675" font-family="Times,serif" font-size="14.00" fill="#000000"> length(URL) </text>
</g>
<!-- n139724682928784&#45;&gt;n139724606099472 -->
<g id="edge5" class="edge">
<title>n139724682928784&#45;&gt;n139724606099472</title>
<path fill="none" stroke="#000000" d="M243.6932,-677.6729C243.6932,-669.699 243.6932,-660.7545 243.6932,-652.2147"/>
<polygon fill="#000000" stroke="#000000" points="247.1933,-652.0911 243.6932,-642.0911 240.1933,-652.0912 247.1933,-652.0911"/>
</g>
<!-- n139724681573712 -->
<g id="node9" class="node">
<title>n139724681573712</title>
<ellipse fill="none" stroke="#000000" cx="394.6932" cy="-616.3675" rx="66.4361" ry="25.4118"/>
<text text-anchor="start" x="358.6932" y="-620.1675" font-family="Times,serif" font-size="14.00" fill="#000000"> </text>
<text text-anchor="start" x="362.6932" y="-620.1675" font-family="Times,serif" font-weight="bold" font-size="14.00" fill="#000000">Expression </text>
<text text-anchor="start" x="355.6932" y="-606.1675" font-family="Times,serif" font-size="14.00" fill="#000000"> length(URL) </text>
</g>
<!-- n139724682928464&#45;&gt;n139724681573712 -->
<g id="edge6" class="edge">
<title>n139724682928464&#45;&gt;n139724681573712</title>
<path fill="none" stroke="#000000" d="M394.6932,-677.6729C394.6932,-669.699 394.6932,-660.7545 394.6932,-652.2147"/>
<polygon fill="#000000" stroke="#000000" points="398.1933,-652.0911 394.6932,-642.0911 391.1933,-652.0912 398.1933,-652.0911"/>
</g>
<!-- n139724681560464 -->
<g id="node10" class="node">
<title>n139724681560464</title>
<ellipse fill="none" stroke="#000000" cx="96.6932" cy="-536.9117" rx="62.2891" ry="18"/>
<text text-anchor="start" x="56.6932" y="-534.2117" font-family="Times,serif" font-size="14.00" fill="#000000"> </text>
<text text-anchor="start" x="60.6932" y="-534.2117" font-family="Times,serif" font-weight="bold" font-size="14.00" fill="#000000">Aggregating</text>
<text text-anchor="start" x="132.6932" y="-534.2117" font-family="Times,serif" font-size="14.00" fill="#000000"> </text>
</g>
<!-- n139724681573904&#45;&gt;n139724681560464 -->
<g id="edge7" class="edge">
<title>n139724681573904&#45;&gt;n139724681560464</title>
<path fill="none" stroke="#000000" d="M93.9808,-590.7898C94.3919,-582.6239 94.8492,-573.5405 95.2694,-565.1941"/>
<polygon fill="#000000" stroke="#000000" points="98.7682,-565.3038 95.7755,-555.1405 91.7771,-564.9518 98.7682,-565.3038"/>
</g>
<!-- n139724681560848 -->
<g id="node11" class="node">
<title>n139724681560848</title>
<ellipse fill="none" stroke="#000000" cx="243.6932" cy="-536.9117" rx="62.2891" ry="18"/>
<text text-anchor="start" x="203.6932" y="-534.2117" font-family="Times,serif" font-size="14.00" fill="#000000"> </text>
<text text-anchor="start" x="207.6932" y="-534.2117" font-family="Times,serif" font-weight="bold" font-size="14.00" fill="#000000">Aggregating</text>
<text text-anchor="start" x="279.6932" y="-534.2117" font-family="Times,serif" font-size="14.00" fill="#000000"> </text>
</g>
<!-- n139724606099472&#45;&gt;n139724681560848 -->
<g id="edge8" class="edge">
<title>n139724606099472&#45;&gt;n139724681560848</title>
<path fill="none" stroke="#000000" d="M243.6932,-590.7898C243.6932,-582.6239 243.6932,-573.5405 243.6932,-565.1941"/>
<polygon fill="#000000" stroke="#000000" points="247.1933,-565.1404 243.6932,-555.1405 240.1933,-565.1405 247.1933,-565.1404"/>
</g>
<!-- n139724681561616 -->
<g id="node12" class="node">
<title>n139724681561616</title>
<ellipse fill="none" stroke="#000000" cx="394.6932" cy="-536.9117" rx="62.2891" ry="18"/>
<text text-anchor="start" x="354.6932" y="-534.2117" font-family="Times,serif" font-size="14.00" fill="#000000"> </text>
<text text-anchor="start" x="358.6932" y="-534.2117" font-family="Times,serif" font-weight="bold" font-size="14.00" fill="#000000">Aggregating</text>
<text text-anchor="start" x="430.6932" y="-534.2117" font-family="Times,serif" font-size="14.00" fill="#000000"> </text>
</g>
<!-- n139724681573712&#45;&gt;n139724681561616 -->
<g id="edge9" class="edge">
<title>n139724681573712&#45;&gt;n139724681561616</title>
<path fill="none" stroke="#000000" d="M394.6932,-590.7898C394.6932,-582.6239 394.6932,-573.5405 394.6932,-565.1941"/>
<polygon fill="#000000" stroke="#000000" points="398.1933,-565.1404 394.6932,-555.1405 391.1933,-565.1405 398.1933,-565.1404"/>
</g>
<!-- n139724682949584 -->
<g id="node13" class="node">
<title>n139724682949584</title>
<ellipse fill="none" stroke="#000000" cx="243.6932" cy="-464.9117" rx="39.7935" ry="18"/>
<text text-anchor="start" x="221.1932" y="-462.2117" font-family="Times,serif" font-size="14.00" fill="#000000"> </text>
<text text-anchor="start" x="225.1932" y="-462.2117" font-family="Times,serif" font-weight="bold" font-size="14.00" fill="#000000">Resize</text>
<text text-anchor="start" x="262.1932" y="-462.2117" font-family="Times,serif" font-size="14.00" fill="#000000"> </text>
</g>
<!-- n139724681560464&#45;&gt;n139724682949584 -->
<g id="edge10" class="edge">
<title>n139724681560464&#45;&gt;n139724682949584</title>
<path fill="none" stroke="#000000" d="M128.59,-521.2888C151.6992,-509.97 182.9897,-494.644 207.113,-482.8285"/>
<polygon fill="#000000" stroke="#000000" points="208.8638,-485.8683 216.3048,-478.3264 205.7846,-479.5819 208.8638,-485.8683"/>
</g>
<!-- n139724681560848&#45;&gt;n139724682949584 -->
<g id="edge11" class="edge">
<title>n139724681560848&#45;&gt;n139724682949584</title>
<path fill="none" stroke="#000000" d="M243.6932,-518.743C243.6932,-511.0426 243.6932,-501.886 243.6932,-493.3283"/>
<polygon fill="#000000" stroke="#000000" points="247.1933,-493.3249 243.6932,-483.325 240.1933,-493.325 247.1933,-493.3249"/>
</g>
<!-- n139724681561616&#45;&gt;n139724682949584 -->
<g id="edge12" class="edge">
<title>n139724681561616&#45;&gt;n139724682949584</title>
<path fill="none" stroke="#000000" d="M362.2999,-521.4659C338.3255,-510.0344 305.6301,-494.4445 280.6383,-482.5279"/>
<polygon fill="#000000" stroke="#000000" points="282.0042,-479.3017 271.4714,-478.1569 278.9914,-485.6202 282.0042,-479.3017"/>
</g>
<!-- n139724683253968 -->
<g id="node14" class="node">
<title>n139724683253968</title>
<ellipse fill="none" stroke="#000000" cx="243.6932" cy="-392.9117" rx="66.8882" ry="18"/>
<text text-anchor="start" x="200.1932" y="-390.2117" font-family="Times,serif" font-size="14.00" fill="#000000"> </text>
<text text-anchor="start" x="204.1932" y="-390.2117" font-family="Times,serif" font-weight="bold" font-size="14.00" fill="#000000">TotalsHaving</text>
<text text-anchor="start" x="283.1932" y="-390.2117" font-family="Times,serif" font-size="14.00" fill="#000000"> </text>
</g>
<!-- n139724682949584&#45;&gt;n139724683253968 -->
<g id="edge13" class="edge">
<title>n139724682949584&#45;&gt;n139724683253968</title>
<path fill="none" stroke="#000000" d="M243.6932,-446.743C243.6932,-439.0426 243.6932,-429.886 243.6932,-421.3283"/>
<polygon fill="#000000" stroke="#000000" points="247.1933,-421.3249 243.6932,-411.325 240.1933,-421.325 247.1933,-421.3249"/>
</g>
<!-- n139724681573520 -->
<g id="node15" class="node">
<title>n139724681573520</title>
<ellipse fill="none" stroke="#000000" cx="135.6932" cy="-313.4558" rx="99.9045" ry="25.4118"/>
<text text-anchor="start" x="101.6932" y="-317.2558" font-family="Times,serif" font-size="14.00" fill="#000000"> </text>
<text text-anchor="start" x="105.6932" y="-317.2558" font-family="Times,serif" font-weight="bold" font-size="14.00" fill="#000000">Expression</text>
<text text-anchor="start" x="73.1932" y="-303.2558" font-family="Times,serif" font-size="14.00" fill="#000000">avg(length(URL)) + 1 </text>
</g>
<!-- n139724683253968&#45;&gt;n139724681573520 -->
<g id="edge14" class="edge">
<title>n139724683253968&#45;&gt;n139724681573520</title>
<path fill="none" stroke="#000000" d="M220.5245,-375.8664C207.7643,-366.4787 191.5499,-354.5498 176.7224,-343.6411"/>
<polygon fill="#000000" stroke="#000000" points="178.7874,-340.8152 168.6583,-337.7084 174.6392,-346.4537 178.7874,-340.8152"/>
</g>
<!-- n139724681573328 -->
<g id="node16" class="node">
<title>n139724681573328</title>
<ellipse fill="none" stroke="#000000" cx="352.6932" cy="-313.4558" rx="99.9045" ry="25.4118"/>
<text text-anchor="start" x="294.1932" y="-317.2558" font-family="Times,serif" font-size="14.00" fill="#000000"> </text>
<text text-anchor="start" x="298.1932" y="-317.2558" font-family="Times,serif" font-weight="bold" font-size="14.00" fill="#000000">Expression (Totals)</text>
<text text-anchor="start" x="290.1932" y="-303.2558" font-family="Times,serif" font-size="14.00" fill="#000000">avg(length(URL)) + 1 </text>
</g>
<!-- n139724683253968&#45;&gt;n139724681573328 -->
<g id="edge15" class="edge">
<title>n139724683253968&#45;&gt;n139724681573328</title>
<path fill="none" stroke="#000000" d="M267.0764,-375.8664C279.9548,-366.4787 296.3193,-354.5498 311.2841,-343.6411"/>
<polygon fill="#000000" stroke="#000000" points="313.4036,-346.4273 319.4228,-337.7084 309.2802,-340.7707 313.4036,-346.4273"/>
</g>
<!-- n139724681573136 -->
<g id="node17" class="node">
<title>n139724681573136</title>
<ellipse fill="none" stroke="#000000" cx="135.6932" cy="-234" rx="43.5923" ry="18"/>
<text text-anchor="start" x="110.1932" y="-231.3" font-family="Times,serif" font-size="14.00" fill="#000000"> </text>
<text text-anchor="start" x="114.1932" y="-231.3" font-family="Times,serif" font-weight="bold" font-size="14.00" fill="#000000">Project</text>
<text text-anchor="start" x="157.1932" y="-231.3" font-family="Times,serif" font-size="14.00" fill="#000000"> </text>
</g>
<!-- n139724681573520&#45;&gt;n139724681573136 -->
<g id="edge16" class="edge">
<title>n139724681573520&#45;&gt;n139724681573136</title>
<path fill="none" stroke="#000000" d="M135.6932,-287.8782C135.6932,-279.7122 135.6932,-270.6289 135.6932,-262.2824"/>
<polygon fill="#000000" stroke="#000000" points="139.1933,-262.2287 135.6932,-252.2288 132.1933,-262.2288 139.1933,-262.2287"/>
</g>
<!-- n139724681572944 -->
<g id="node18" class="node">
<title>n139724681572944</title>
<ellipse fill="none" stroke="#000000" cx="352.6932" cy="-234" rx="43.5923" ry="18"/>
<text text-anchor="start" x="327.1932" y="-231.3" font-family="Times,serif" font-size="14.00" fill="#000000"> </text>
<text text-anchor="start" x="331.1932" y="-231.3" font-family="Times,serif" font-weight="bold" font-size="14.00" fill="#000000">Project</text>
<text text-anchor="start" x="374.1932" y="-231.3" font-family="Times,serif" font-size="14.00" fill="#000000"> </text>
</g>
<!-- n139724681573328&#45;&gt;n139724681572944 -->
<g id="edge17" class="edge">
<title>n139724681573328&#45;&gt;n139724681572944</title>
<path fill="none" stroke="#000000" d="M352.6932,-287.8782C352.6932,-279.7122 352.6932,-270.6289 352.6932,-262.2824"/>
<polygon fill="#000000" stroke="#000000" points="356.1933,-262.2287 352.6932,-252.2288 349.1933,-262.2288 356.1933,-262.2287"/>
</g>
<!-- n139724682982288 -->
<g id="node19" class="node">
<title>n139724682982288</title>
<ellipse fill="none" stroke="#000000" cx="135.6932" cy="-162" rx="51.9908" ry="18"/>
<text text-anchor="start" x="103.6932" y="-159.3" font-family="Times,serif" font-size="14.00" fill="#000000"> </text>
<text text-anchor="start" x="107.6932" y="-159.3" font-family="Times,serif" font-weight="bold" font-size="14.00" fill="#000000">Extremes</text>
<text text-anchor="start" x="163.6932" y="-159.3" font-family="Times,serif" font-size="14.00" fill="#000000"> </text>
</g>
<!-- n139724681573136&#45;&gt;n139724682982288 -->
<g id="edge18" class="edge">
<title>n139724681573136&#45;&gt;n139724682982288</title>
<path fill="none" stroke="#000000" d="M135.6932,-215.8314C135.6932,-208.131 135.6932,-198.9743 135.6932,-190.4166"/>
<polygon fill="#000000" stroke="#000000" points="139.1933,-190.4132 135.6932,-180.4133 132.1933,-190.4133 139.1933,-190.4132"/>
</g>
<!-- n139724682929424 -->
<g id="node21" class="node">
<title>n139724682929424</title>
<ellipse fill="none" stroke="#000000" cx="352.6932" cy="-162" rx="76.8869" ry="18"/>
<text text-anchor="start" x="301.6932" y="-159.3" font-family="Times,serif" font-size="14.00" fill="#000000"> </text>
<text text-anchor="start" x="305.6932" y="-159.3" font-family="Times,serif" font-weight="bold" font-size="14.00" fill="#000000">LimitsChecking</text>
<text text-anchor="start" x="399.6932" y="-159.3" font-family="Times,serif" font-size="14.00" fill="#000000"> </text>
</g>
<!-- n139724681572944&#45;&gt;n139724682929424 -->
<g id="edge19" class="edge">
<title>n139724681572944&#45;&gt;n139724682929424</title>
<path fill="none" stroke="#000000" d="M352.6932,-215.8314C352.6932,-208.131 352.6932,-198.9743 352.6932,-190.4166"/>
<polygon fill="#000000" stroke="#000000" points="356.1933,-190.4132 352.6932,-180.4133 349.1933,-190.4133 356.1933,-190.4132"/>
</g>
<!-- n139724682928144 -->
<g id="node20" class="node">
<title>n139724682928144</title>
<ellipse fill="none" stroke="#000000" cx="76.6932" cy="-90" rx="76.8869" ry="18"/>
<text text-anchor="start" x="25.6932" y="-87.3" font-family="Times,serif" font-size="14.00" fill="#000000"> </text>
<text text-anchor="start" x="29.6932" y="-87.3" font-family="Times,serif" font-weight="bold" font-size="14.00" fill="#000000">LimitsChecking</text>
<text text-anchor="start" x="123.6932" y="-87.3" font-family="Times,serif" font-size="14.00" fill="#000000"> </text>
</g>
<!-- n139724682982288&#45;&gt;n139724682928144 -->
<g id="edge20" class="edge">
<title>n139724682982288&#45;&gt;n139724682928144</title>
<path fill="none" stroke="#000000" d="M121.4109,-144.5708C114.2704,-135.857 105.4919,-125.1441 97.6091,-115.5244"/>
<polygon fill="#000000" stroke="#000000" points="100.2992,-113.2853 91.2538,-107.7689 94.8849,-117.7221 100.2992,-113.2853"/>
</g>
<!-- n139724682929744 -->
<g id="node22" class="node">
<title>n139724682929744</title>
<ellipse fill="none" stroke="#000000" cx="247.6932" cy="-90" rx="76.8869" ry="18"/>
<text text-anchor="start" x="196.6932" y="-87.3" font-family="Times,serif" font-size="14.00" fill="#000000"> </text>
<text text-anchor="start" x="200.6932" y="-87.3" font-family="Times,serif" font-weight="bold" font-size="14.00" fill="#000000">LimitsChecking</text>
<text text-anchor="start" x="294.6932" y="-87.3" font-family="Times,serif" font-size="14.00" fill="#000000"> </text>
</g>
<!-- n139724682982288&#45;&gt;n139724682929744 -->
<g id="edge21" class="edge">
<title>n139724682982288&#45;&gt;n139724682929744</title>
<path fill="none" stroke="#000000" d="M160.5496,-146.0209C175.9159,-136.1426 195.8693,-123.3154 212.8049,-112.4282"/>
<polygon fill="#000000" stroke="#000000" points="214.8266,-115.2894 221.3457,-106.9377 211.0412,-109.4012 214.8266,-115.2894"/>
</g>
<!-- n139730309461648 -->
<g id="node23" class="node">
<title>n139730309461648</title>
<ellipse fill="none" stroke="#000000" cx="247.6932" cy="-18" rx="43.5923" ry="18"/>
<text text-anchor="start" x="222.1932" y="-15.3" font-family="Times,serif" font-size="14.00" fill="#000000"> </text>
<text text-anchor="start" x="226.1932" y="-15.3" font-family="Times,serif" font-weight="bold" font-size="14.00" fill="#000000">Output</text>
<text text-anchor="start" x="269.1932" y="-15.3" font-family="Times,serif" font-size="14.00" fill="#000000"> </text>
</g>
<!-- n139724682928144&#45;&gt;n139730309461648 -->
<g id="edge22" class="edge">
<title>n139724682928144&#45;&gt;n139730309461648</title>
<path fill="none" stroke="#000000" d="M114.2199,-74.1993C141.8345,-62.5721 179.3207,-46.7884 207.5364,-34.9081"/>
<polygon fill="#000000" stroke="#000000" points="209.2406,-37.9882 217.0987,-30.8819 206.5241,-31.5368 209.2406,-37.9882"/>
</g>
<!-- n139724682929424&#45;&gt;n139730309461648 -->
<g id="edge23" class="edge">
<title>n139724682929424&#45;&gt;n139730309461648</title>
<path fill="none" stroke="#000000" d="M352.9007,-143.8063C352.2603,-124.3749 348.6768,-93.4802 333.6932,-72 322.6479,-56.1657 305.3157,-43.997 289.0962,-35.2553"/>
<polygon fill="#000000" stroke="#000000" points="290.2324,-31.907 279.731,-30.5026 287.0645,-38.1492 290.2324,-31.907"/>
</g>
<!-- n139724682929744&#45;&gt;n139730309461648 -->
<g id="edge24" class="edge">
<title>n139724682929744&#45;&gt;n139730309461648</title>
<path fill="none" stroke="#000000" d="M247.6932,-71.8314C247.6932,-64.131 247.6932,-54.9743 247.6932,-46.4166"/>
<polygon fill="#000000" stroke="#000000" points="251.1933,-46.4132 247.6932,-36.4133 244.1933,-46.4133 251.1933,-46.4132"/>
</g>
<!-- n139725001826064 -->
<g id="node24" class="node">
<title>n139725001826064</title>
<ellipse fill="none" stroke="#000000" cx="540.6932" cy="-616.3675" rx="61.5366" ry="25.4118"/>
<text text-anchor="start" x="513.1932" y="-620.1675" font-family="Times,serif" font-size="14.00" fill="#000000"> </text>
<text text-anchor="start" x="517.1932" y="-620.1675" font-family="Times,serif" font-weight="bold" font-size="14.00" fill="#000000">Merging</text>
<text text-anchor="start" x="505.1932" y="-606.1675" font-family="Times,serif" font-weight="bold" font-size="14.00" fill="#000000">Aggregated</text>
<text text-anchor="start" x="572.1932" y="-606.1675" font-family="Times,serif" font-size="14.00" fill="#000000"> </text>
</g>
<!-- n139725001826064&#45;&gt;n139724681561616 -->
<g id="edge25" class="edge">
<title>n139725001826064&#45;&gt;n139724681561616</title>
<path fill="none" stroke="#000000" d="M503.0946,-595.9057C481.6553,-584.238 454.8408,-569.6451 433.2451,-557.8923"/>
<polygon fill="#000000" stroke="#000000" points="434.7968,-554.7521 424.3402,-553.0461 431.4506,-560.9005 434.7968,-554.7521"/>
</g>
</g>
</svg>
