<?xml version="1.0" encoding="UTF-8"?>
<svg xmlns="http://www.w3.org/2000/svg" width="604" height="392" viewBox="0 0 604 392" fill="none"> <path d="M49.6 375.2C77.9 371.6 98.5 369.1 98.5 356.5C98.5 342.4 76 339 48.7 339C16.1 339 0 348 0 363.1H26.8C27.5 358.5 34.9 356.3 50 356.3C67.7 356.3 71.8 357.5 71.8 360.5C71.8 366.3 49.3 370.2 4.1 377.7V390.4H98.7V374.6L38.5 376.6L49.6 375.2ZM174.7 392C208.4 392 224.8 384.5 224.8 365.7C224.8 346.8 208.3 339 174.7 339C140.9 339 124.2 346.8 124.2 365.7C124.2 384.5 140.9 392 174.7 392ZM174.7 376.7C158.6 376.7 150.3 373 150.3 365.7C150.3 358.4 159 354.3 174.7 354.3C190.5 354.3 198.8 358.4 198.8 365.7C198.6 373 190.3 376.7 174.7 376.7ZM300 375.2C328.3 371.6 348.9 369.1 348.9 356.5C348.9 342.4 326.4 339 299.1 339C266.5 339 250.4 348 250.4 363.1H277.2C277.9 358.5 285.3 356.3 300.4 356.3C318.1 356.3 322.2 357.5 322.2 360.5C322.2 366.3 299.7 370.2 254.5 377.7V390.4H349V374.6L288.8 376.6L300 375.2ZM424.9 392C458.6 392 475 384.5 475 365.7C475 346.8 458.5 339 424.9 339C391.1 339 374.4 346.8 374.4 365.7C374.4 384.5 391 392 424.9 392ZM424.9 376.7C408.8 376.7 400.5 373 400.5 365.7C400.5 358.4 409.2 354.3 424.9 354.3C440.7 354.3 449 358.4 449 365.7C449 373 440.5 376.7 424.9 376.7Z" fill="#7D55E1"/> <path d="M604 295.2H0V311.2H604V295.2Z" fill="#7C55E1"/> <path d="M105.8 98.3999L63.9 141.6L22.2 98.3999H0V155.3H22.2V126.2L50.7 155.3H77.4L105.9 126.1V155.3H128V98.3999H105.8Z" fill="white"/> <path d="M338.5 98.3999H276.8V155.3H299V140.6H338.5C356.3 140.6 370.5 138.8 370.5 120.6C370.5 102.4 356.2 98.3999 338.5 98.3999ZM341.9 125.1H299V116.2H341.9C345.5 116.2 348.2 116.9 348.2 120.6C348.2 124.4 345.5 125.1 341.9 125.1Z" fill="white"/> <path d="M492.7 155.3L447 124.9L487.9 98.3999H452.7L416.3 125V98.3999H394V155.3H416.2V125.2L458.7 155.3H492.7Z" fill="white"/> <path d="M536.4 138.1V131H591.5V122.1H536.4V115H603.8V98.1001H514.2V155H604V138.1H536.4Z" fill="white"/> <path d="M252.7 97.3001H231.3L224.9 110.6L222.4 106.3C220.1 103.4 217 100.9 213.5 99.1001C206.6 95.8001 197.5 95.1001 190.3 95.1001C182.8 95.1001 169.4 95.9001 159.1 101.8C151.1 106.4 143.9 115.1 143.9 127.2C143.9 137.8 149.3 144.9 155 149.4C166.2 157.8 179.6 158.2 186.2 158.2C199.7 158.2 206.7 155.9 209.9 154.5C214.2 152.7 217.2 150.8 220.1 147.2L222.8 144.2C223.4 146.9 225.6 152.2 228.3 156H253.9C251 151.3 247.9 147.2 244.6 141.1C241.3 135 240.8 131.7 240.8 128.3L252.7 97.3001ZM216.5 125.7L214.7 130.5C213.5 133.7 210.7 137.8 207.6 140.4C203.1 144.2 198.2 145.6 192.1 145.6C187 145.6 182.1 144.6 177.9 141C174.2 137.8 171.7 132.8 171.7 126.3C171.7 118.1 175.5 113.7 179.1 111.3C183.9 108.1 189.1 107.5 192.9 107.5C197.8 107.5 202.3 108.2 206.4 110.8C211.8 114 213.8 118.4 214.6 120.6L216.5 125.7Z" fill="white"/> <path d="M112.2 197.5V254.4H134.4L193.1 220.5V254.4H215.3V197.5H193.1L134.5 232V197.4H112.2V197.5Z" fill="white"/> <path d="M319.4 197.5V217.1H262.5V197.5H240.3V254.4H262.5V234H319.4V254.4H341.6V197.5H319.4Z" fill="white"/> <path d="M450.7 197.5H368.9V254.4H391.1V214.8H450.7V197.5Z" fill="white"/> <path d="M33 213.5V239.6C33 246.4 36.7 250.1 40.4 252C44.9 254.3 50.5 254.4 55.7 254.4C60.5 254.4 63.6 254.3 67.1 254V242.6H62.2C60.6 242.6 58.4 242.5 57.2 241.6C55.3 240.3 55.2 237.4 55.2 236.4V213.6H90.2V197.5H20.2C11 197.5 5.6 198.2 0 199.9V216C2.3 215.2 4.9 214.6 8.5 214.1C12 213.7 16 213.5 19.4 213.5H33Z" fill="white"/> <path d="M133 57.1998H105.8V36.6998L80.9 57.1998H52.1L27.2 36.7998V57.1998H0V0.299805H25.8L66.4 36.5998L107.2 0.299805H133V57.1998ZM110.8 52.1998H128V5.2998H109.3L66.4 43.7998L23.7 5.2998H5V52.1998H22.2V24.4998L54.2 52.1998H78.8L110.8 24.3998V52.1998Z" fill="white"/> <path d="M252.9 57.1998H222.4L218.5 51.3998H182.5L179.5 57.1998H149L186.9 0.299805H214.3L252.9 57.1998ZM225.1 52.1998H243.5L211.6 5.2998H189.5L158.3 52.1998H176.7L179.7 46.3998H221.1L225.1 52.1998ZM217.3 40.1998H184L200.6 14.4998L217.3 40.1998ZM193.2 35.1998H208.1L200.6 23.6998L193.2 35.1998Z" fill="white"/> <path d="M320.1 57.1998H292.9V22.5998H257.8V0.299805H355.3V22.5998H320.2V57.1998H320.1ZM297.9 52.1998H315.1V17.5998H350.2V5.2998H262.7V17.5998H297.8V52.1998H297.9Z" fill="white"/> <path d="M481.3 57.2H374.3V42.8L403.8 27.4L377.8 14.6V0H477.6V17.7H427.5L448.7 27.3L424 39.4H481.4V57.2H481.3ZM379.3 52.2H476.3V44.6H406.9L438.3 27.4L404.8 12.7H472.5V5H382.7V11.7L413.8 27.4L379.3 45.7V52.2Z" fill="white"/> </svg>