<?xml version="1.0" encoding="utf-8"?>
<!-- Generator: Adobe Illustrator 21.0.2, SVG Export Plug-In . SVG Version: 6.00 Build 0)  -->
<svg version="1.1" id="Layer_1" xmlns="http://www.w3.org/2000/svg" xmlns:xlink="http://www.w3.org/1999/xlink" x="0px" y="0px"
	 viewBox="0 0 60 60" style="enable-background:new 0 0 60 60;" xml:space="preserve">
<style type="text/css">
	
		.st0{clip-path:url(#SVGID_2_);fill:none;stroke:#000000;stroke-width:2.3616;stroke-linecap:round;stroke-linejoin:round;stroke-miterlimit:10;}
	.st1{fill:none;stroke:#000000;stroke-width:2.4238;stroke-miterlimit:10;}
	.st2{fill:none;stroke:#000000;stroke-width:2.4238;stroke-linejoin:round;stroke-miterlimit:10;}
	.st3{fill:none;stroke:#000000;stroke-width:2.4242;stroke-miterlimit:10;}
	.st4{clip-path:url(#SVGID_4_);fill:none;stroke:#000000;stroke-width:1.9669;stroke-miterlimit:10;}
	.st5{clip-path:url(#SVGID_6_);fill:none;stroke:#000000;stroke-width:1.9669;stroke-miterlimit:10;}
	.st6{clip-path:url(#SVGID_8_);fill:#FFFFFF;}
	.st7{clip-path:url(#SVGID_10_);fill:none;stroke:#000000;stroke-width:1.9669;stroke-miterlimit:10;}
	.st8{clip-path:url(#SVGID_12_);fill:#FFFFFF;}
	.st9{clip-path:url(#SVGID_14_);fill:none;stroke:#000000;stroke-width:1.9669;stroke-miterlimit:10;}
	.st10{clip-path:url(#SVGID_16_);fill:#FFFFFF;}
	.st11{clip-path:url(#SVGID_18_);fill:none;stroke:#000000;stroke-width:1.9669;stroke-miterlimit:10;}
	.st12{clip-path:url(#SVGID_20_);fill:none;stroke:#000000;stroke-width:1.9669;stroke-miterlimit:10;}
	.st13{clip-path:url(#SVGID_22_);fill:none;stroke:#000000;stroke-width:1.9669;stroke-miterlimit:10;}
	.st14{clip-path:url(#SVGID_24_);fill:none;stroke:#000000;stroke-width:1.9669;stroke-miterlimit:10;}
	.st15{fill:none;stroke:#12100B;stroke-width:2.4736;stroke-linecap:round;stroke-linejoin:round;stroke-miterlimit:10;}
	.st16{fill:#FFFFFF;}
	.st17{fill:none;stroke:#12100B;stroke-width:2.474;stroke-linecap:round;stroke-linejoin:round;stroke-miterlimit:10;}
	.st18{fill:none;stroke:#1E1B15;stroke-width:2.474;stroke-linecap:round;stroke-linejoin:round;stroke-miterlimit:10;}
	.st19{fill:#1E1B15;}
	.st20{fill:none;stroke:#000000;stroke-width:2.474;stroke-miterlimit:10;}
</style>
<g id="Artwork_9">
	<g>
		<g>
			<path class="st20" d="M56.5,58.8H3.6c-1.3,0-2.4-1.1-2.4-2.3V3.6c0-1.3,1.1-2.3,2.4-2.3h52.9c1.3,0,2.4,1.1,2.4,2.3v52.9
				C58.8,57.8,57.8,58.8,56.5,58.8z"/>
			<path class="st20" d="M11.2,20.6c-0.6,0-1.1,0.6-0.9,1.2c0.9,2.6,3.4,8.7,7.8,13.5c5.3,5.6,7.6,6.4,14,6.5c1.1,0,1.9-0.8,1.9-1.9
				v-2.1c0-0.7,0.6-1.2,1.2-1.2c0.3,0,0.7,0.1,0.9,0.4l3.5,3.5c0.9,0.9,2.2,1.4,3.5,1.4h5c1.1,0,1.7-1.3,0.9-2.1l-4.9-5.3
				c-0.8-0.8-0.9-2.1-0.3-3l5.6-9c0.5-0.7-0.1-1.7-0.9-1.7h-6.7c-0.8,0-1.6,0.5-2,1.2l-3.7,7.4C36,29.7,35.5,30,34.9,30
				c-0.8,0-1.5-0.7-1.5-1.5v-6.6c0-1.4-1.1-2.5-2.5-2.5h-5.7c-1,0-1.8,0.8-1.8,1.8h1.1c0.7,0,1.2,0.6,1.2,1.2v7.1
				c0,0.6-0.5,1.1-1.1,1.1c-0.4,0-0.8-0.2-1-0.6l-4.5-8.4c-0.3-0.6-0.9-1-1.6-1H11.2z"/>
		</g>
	</g>
</g>
</svg>
