<?xml version="1.0" encoding="utf-8"?>
<!-- Generator: Adobe Illustrator 21.0.2, SVG Export Plug-In . SVG Version: 6.00 Build 0)  -->
<svg version="1.1" id="Layer_1" xmlns="http://www.w3.org/2000/svg" xmlns:xlink="http://www.w3.org/1999/xlink" x="0px" y="0px"
	 viewBox="0 0 60 60" style="enable-background:new 0 0 60 60;" xml:space="preserve">
<style type="text/css">
	
		.st0{clip-path:url(#SVGID_2_);fill:none;stroke:#000000;stroke-width:2.3616;stroke-linecap:round;stroke-linejoin:round;stroke-miterlimit:10;}
	.st1{fill:none;stroke:#000000;stroke-width:2.4238;stroke-miterlimit:10;}
	.st2{fill:none;stroke:#000000;stroke-width:2.4238;stroke-linejoin:round;stroke-miterlimit:10;}
	.st3{fill:none;stroke:#000000;stroke-width:2.4242;stroke-miterlimit:10;}
	.st4{clip-path:url(#SVGID_4_);fill:none;stroke:#000000;stroke-width:1.9669;stroke-miterlimit:10;}
	.st5{clip-path:url(#SVGID_6_);fill:none;stroke:#000000;stroke-width:1.9669;stroke-miterlimit:10;}
	.st6{clip-path:url(#SVGID_8_);fill:#FFFFFF;}
	.st7{clip-path:url(#SVGID_10_);fill:none;stroke:#000000;stroke-width:1.9669;stroke-miterlimit:10;}
	.st8{clip-path:url(#SVGID_12_);fill:#FFFFFF;}
	.st9{clip-path:url(#SVGID_14_);fill:none;stroke:#000000;stroke-width:1.9669;stroke-miterlimit:10;}
	.st10{clip-path:url(#SVGID_16_);fill:#FFFFFF;}
	.st11{clip-path:url(#SVGID_18_);fill:none;stroke:#000000;stroke-width:1.9669;stroke-miterlimit:10;}
	.st12{clip-path:url(#SVGID_20_);fill:none;stroke:#000000;stroke-width:1.9669;stroke-miterlimit:10;}
	.st13{clip-path:url(#SVGID_22_);fill:none;stroke:#000000;stroke-width:1.9669;stroke-miterlimit:10;}
	.st14{clip-path:url(#SVGID_24_);fill:none;stroke:#000000;stroke-width:1.9669;stroke-miterlimit:10;}
	.st15{fill:none;stroke:#12100B;stroke-width:2.4736;stroke-linecap:round;stroke-linejoin:round;stroke-miterlimit:10;}
	.st16{fill:#FFFFFF;}
	.st17{fill:none;stroke:#12100B;stroke-width:2.474;stroke-linecap:round;stroke-linejoin:round;stroke-miterlimit:10;}
	.st18{fill:none;stroke:#1E1B15;stroke-width:2.474;stroke-linecap:round;stroke-linejoin:round;stroke-miterlimit:10;}
	.st19{fill:#1E1B15;}
	.st20{fill:none;stroke:#000000;stroke-width:2.474;stroke-miterlimit:10;}
</style>
<g>
	<path class="st1" d="M55.8,58.8H4.2c-1.7,0-3-1.4-3-3V4.2c0-1.7,1.4-3,3-3h51.5c1.7,0,3,1.4,3,3v51.5
		C58.8,57.4,57.4,58.8,55.8,58.8z"/>
	<path class="st2" d="M49.7,19.4l-6.1,1.5l3-6.1c0,0-2.5,2.7-4.5,3.2c-1.4-1.5-3.3-2.3-6.1-2.3c-4.2,0-6.7,3.3-6.7,7.5
		c0,0.4,0,1.2,0.1,1.6c-11.1-0.2-14.7-10-14.7-10c-2.5,6.8,1.4,10.4,1.7,10.6l-4.8,0c0,0,1.9,4.6,7.7,6.1c-1,1-3.8,1.5-4.7,1.5
		c0,0,1.6,4,7.6,4.5c0,0-3.7,6.6-10.6,6.1c0,0,12.5,7.8,25.8-1.5C42.1,39,45,32.3,45,23.9L49.7,19.4z"/>
</g>
</svg>
