<?xml version="1.0" encoding="utf-8"?>
<!-- Generator: Adobe Illustrator 21.0.2, SVG Export Plug-In . SVG Version: 6.00 Build 0)  -->
<svg version="1.1" id="Layer_1" xmlns="http://www.w3.org/2000/svg" xmlns:xlink="http://www.w3.org/1999/xlink" x="0px" y="0px"
	 viewBox="0 0 60 59" style="enable-background:new 0 0 60 59;" xml:space="preserve">
<style type="text/css">
	
		.st0{clip-path:url(#SVGID_2_);fill:none;stroke:#000000;stroke-width:2.3616;stroke-linecap:round;stroke-linejoin:round;stroke-miterlimit:10;}
	.st1{fill:none;stroke:#000000;stroke-width:2.4238;stroke-miterlimit:10;}
	.st2{fill:none;stroke:#000000;stroke-width:2.4238;stroke-linejoin:round;stroke-miterlimit:10;}
	.st3{fill:none;stroke:#000000;stroke-width:2.4242;stroke-miterlimit:10;}
	.st4{clip-path:url(#SVGID_4_);fill:none;stroke:#000000;stroke-width:1.9669;stroke-miterlimit:10;}
	.st5{clip-path:url(#SVGID_6_);fill:none;stroke:#000000;stroke-width:1.9669;stroke-miterlimit:10;}
	.st6{clip-path:url(#SVGID_8_);fill:#FFFFFF;}
	.st7{clip-path:url(#SVGID_10_);fill:none;stroke:#000000;stroke-width:1.9669;stroke-miterlimit:10;}
	.st8{clip-path:url(#SVGID_12_);fill:#FFFFFF;}
	.st9{clip-path:url(#SVGID_14_);fill:none;stroke:#000000;stroke-width:1.9669;stroke-miterlimit:10;}
	.st10{clip-path:url(#SVGID_16_);fill:#FFFFFF;}
	.st11{clip-path:url(#SVGID_18_);fill:none;stroke:#000000;stroke-width:1.9669;stroke-miterlimit:10;}
	.st12{clip-path:url(#SVGID_20_);fill:none;stroke:#000000;stroke-width:1.9669;stroke-miterlimit:10;}
	.st13{clip-path:url(#SVGID_22_);fill:none;stroke:#000000;stroke-width:1.9669;stroke-miterlimit:10;}
	.st14{clip-path:url(#SVGID_24_);fill:none;stroke:#000000;stroke-width:1.9669;stroke-miterlimit:10;}
	.st15{fill:none;stroke:#12100B;stroke-width:2.4736;stroke-linecap:round;stroke-linejoin:round;stroke-miterlimit:10;}
	.st16{fill:#FFFFFF;}
	.st17{fill:none;stroke:#12100B;stroke-width:2.474;stroke-linecap:round;stroke-linejoin:round;stroke-miterlimit:10;}
	.st18{fill:none;stroke:#1E1B15;stroke-width:2.474;stroke-linecap:round;stroke-linejoin:round;stroke-miterlimit:10;}
	.st19{fill:#1E1B15;}
	.st20{fill:none;stroke:#000000;stroke-width:2.474;stroke-miterlimit:10;}
</style>
<g>
	<g>
		<g>
			<defs>
				<rect id="SVGID_3_" x="0" y="0.2" width="59.6" height="58.8"/>
			</defs>
			<clipPath id="SVGID_2_">
				<use xlink:href="#SVGID_3_"  style="overflow:visible;"/>
			</clipPath>
			<path style="clip-path:url(#SVGID_2_);fill:none;stroke:#000000;stroke-width:1.9669;stroke-miterlimit:10;" d="M55.2,58H4.8
				C2.7,58,1,56.3,1,54.2V4.8C1,2.7,2.7,1,4.8,1h50.4C57.3,1,59,2.7,59,4.8v49.4C59,56.3,57.3,58,55.2,58z"/>
		</g>
		<g>
			<defs>
				<rect id="SVGID_5_" x="0" y="0.2" width="59.6" height="58.8"/>
			</defs>
			<clipPath id="SVGID_4_">
				<use xlink:href="#SVGID_5_"  style="overflow:visible;"/>
			</clipPath>
			<line class="st4" x1="2" y1="23.6" x2="58" y2="23.6"/>
		</g>
		<g>
			<defs>
				<rect id="SVGID_7_" x="0" y="0.2" width="59.6" height="58.8"/>
			</defs>
			<clipPath id="SVGID_6_">
				<use xlink:href="#SVGID_7_"  style="overflow:visible;"/>
			</clipPath>
			<path style="clip-path:url(#SVGID_6_);fill:#FFFFFF;" d="M15.7,29.5c0-7.6,6.2-13.8,13.8-13.8s13.8,6.2,13.8,13.8
				s-6.2,13.8-13.8,13.8S15.7,37.1,15.7,29.5"/>
		</g>
		<g>
			<defs>
				<rect id="SVGID_9_" x="0" y="0.2" width="59.6" height="58.8"/>
			</defs>
			<clipPath id="SVGID_8_">
				<use xlink:href="#SVGID_9_"  style="overflow:visible;"/>
			</clipPath>
			
				<ellipse style="clip-path:url(#SVGID_8_);fill:none;stroke:#000000;stroke-width:1.9669;stroke-miterlimit:10;" cx="29.5" cy="29.5" rx="13.8" ry="13.8"/>
		</g>
		<g>
			<defs>
				<rect id="SVGID_11_" x="0" y="0.2" width="59.6" height="58.8"/>
			</defs>
			<clipPath id="SVGID_10_">
				<use xlink:href="#SVGID_11_"  style="overflow:visible;"/>
			</clipPath>
			<path style="clip-path:url(#SVGID_10_);fill:#FFFFFF;" d="M18.7,29.5c0-6,4.8-10.8,10.8-10.8s10.8,4.8,10.8,10.8
				s-4.8,10.8-10.8,10.8S18.7,35.5,18.7,29.5"/>
		</g>
		<g>
			<defs>
				<rect id="SVGID_13_" x="0" y="0.2" width="59.6" height="58.8"/>
			</defs>
			<clipPath id="SVGID_12_">
				<use xlink:href="#SVGID_13_"  style="overflow:visible;"/>
			</clipPath>
			
				<ellipse style="clip-path:url(#SVGID_12_);fill:none;stroke:#000000;stroke-width:1.9669;stroke-miterlimit:10;" cx="29.5" cy="29.5" rx="10.8" ry="10.8"/>
		</g>
		<g>
			<defs>
				<rect id="SVGID_15_" x="0" y="0.2" width="59.6" height="58.8"/>
			</defs>
			<clipPath id="SVGID_14_">
				<use xlink:href="#SVGID_15_"  style="overflow:visible;"/>
			</clipPath>
			<path style="clip-path:url(#SVGID_14_);fill:#FFFFFF;" d="M50.8,7.9h-6.3c-0.7,0-1.3,0.6-1.3,1.3v6.3c0,0.7,0.6,1.3,1.3,1.3h6.3
				c0.7,0,1.3-0.6,1.3-1.3V9.1C52.1,8.4,51.6,7.9,50.8,7.9"/>
		</g>
		<g>
			<defs>
				<rect id="SVGID_17_" x="0" y="0.2" width="59.6" height="58.8"/>
			</defs>
			<clipPath id="SVGID_16_">
				<use xlink:href="#SVGID_17_"  style="overflow:visible;"/>
			</clipPath>
			<path style="clip-path:url(#SVGID_16_);fill:none;stroke:#000000;stroke-width:1.9669;stroke-miterlimit:10;" d="M50.8,7.9h-6.3
				c-0.7,0-1.3,0.6-1.3,1.3v6.3c0,0.7,0.6,1.3,1.3,1.3h6.3c0.7,0,1.3-0.6,1.3-1.3V9.1C52.1,8.4,51.6,7.9,50.8,7.9z"/>
		</g>
		<g>
			<defs>
				<rect id="SVGID_19_" x="0" y="0.2" width="59.6" height="58.8"/>
			</defs>
			<clipPath id="SVGID_18_">
				<use xlink:href="#SVGID_19_"  style="overflow:visible;"/>
			</clipPath>
			<line class="st11" x1="7.9" y1="2" x2="7.9" y2="23.6"/>
		</g>
		<g>
			<defs>
				<rect id="SVGID_21_" x="0" y="0.2" width="59.6" height="58.8"/>
			</defs>
			<clipPath id="SVGID_20_">
				<use xlink:href="#SVGID_21_"  style="overflow:visible;"/>
			</clipPath>
			<line class="st12" x1="11.8" y1="2" x2="11.8" y2="23.6"/>
		</g>
		<g>
			<defs>
				<rect id="SVGID_23_" x="0" y="0.2" width="59.6" height="58.8"/>
			</defs>
			<clipPath id="SVGID_22_">
				<use xlink:href="#SVGID_23_"  style="overflow:visible;"/>
			</clipPath>
			<line class="st13" x1="15.7" y1="2" x2="15.7" y2="23.6"/>
		</g>
	</g>
</g>
</svg>
