<svg id="Layer_1" data-name="Layer 1" xmlns="http://www.w3.org/2000/svg" viewBox="0 0 240 200"><defs><style>.cls-1{fill:#bfbfbf;}.cls-2,.cls-3,.cls-4,.cls-6{fill:none;}.cls-3,.cls-4,.cls-6{stroke:#000;stroke-width:2px;}.cls-3,.cls-6{stroke-linecap:round;}.cls-3,.cls-4{stroke-miterlimit:10;}.cls-5{fill:#ffcc05;}.cls-6{stroke-linejoin:round;}.cls-7{isolation:isolate;font-size:36px;font-family:YandexSansText-Regular, Yandex Sans Text;}.cls-8{letter-spacing:-0.02em;}.cls-9{letter-spacing:0em;}</style></defs><title>блок_под_пиктограммы</title><rect class="cls-1" x="1" y="1" width="238" height="198"/><path d="M2,2H238V198H2ZM0,200H240V0H0Z"/><line class="cls-2" x1="2" y1="1.9" x2="238.4" y2="198.5"/><line class="cls-3" x1="2" y1="1.9" x2="238.4" y2="198.5"/><line class="cls-2" x1="2" y1="198.1" x2="238.4" y2="1.5"/><line class="cls-4" x1="2" y1="198.1" x2="238.4" y2="1.5"/><rect class="cls-1" x="29.1" y="23.8" width="183.1" height="152.3"/><polyline class="cls-5" points="78.7 72.6 78.7 82.7 88.8 82.7"/><polyline class="cls-6" points="78.7 72.6 78.7 82.7 88.8 82.7"/><path d="M78.9,73.2a.71.71,0,0,1,.6.3l8.4,8.4a.86.86,0,0,1,.3.6V126a.9.9,0,0,1-.9.9H46.9a.9.9,0,0,1-.9-.9V74a.9.9,0,0,1,.9-.9l32,.1m0-2h-32A2.9,2.9,0,0,0,44,74.1v52a2.9,2.9,0,0,0,2.9,2.9H87.3a2.9,2.9,0,0,0,2.9-2.9V82.5a2.79,2.79,0,0,0-.8-2L81,72a3.23,3.23,0,0,0-2.1-.8"/><path class="cls-6" d="M81.6,97.9a3.6,3.6,0,1,0-7.2,0v7.2a3.6,3.6,0,0,0,7.2,0v-2.2H78.7"/><path class="cls-6" d="M51.2,104.4v.7a3.6,3.6,0,0,0,7.2,0V94.3"/><path class="cls-6" d="M62.8,108.7V94.3h2.9a4.3,4.3,0,0,1,0,8.6H64.3"/><polyline class="cls-5" points="131.8 72.6 131.8 82.7 141.9 82.7"/><polyline class="cls-6" points="131.8 72.6 131.8 82.7 141.9 82.7"/><path d="M132,73.2a.71.71,0,0,1,.6.3l8.4,8.4a.86.86,0,0,1,.3.6V126a.9.9,0,0,1-.9.9H100a.9.9,0,0,1-.9-.9V74a.9.9,0,0,1,.9-.9l32,.1m0-2H100a2.9,2.9,0,0,0-2.9,2.9v52A2.9,2.9,0,0,0,100,129h40.4a2.9,2.9,0,0,0,2.9-2.9V82.5a2.79,2.79,0,0,0-.8-2l-8.4-8.4a2.88,2.88,0,0,0-2.1-.9"/><path class="cls-6" d="M136.1,97.9a3.6,3.6,0,0,0-7.2,0v7.2a3.6,3.6,0,0,0,7.2,0v-2.2h-2.9"/><polyline class="cls-6" points="117.4 108.7 117.4 94.3 124.6 108.7 124.6 94.3"/><path class="cls-6" d="M105.8,108.7V94.3h2.9a4.3,4.3,0,0,1,0,8.6h-1.4"/><polyline class="cls-5" points="184.9 72.6 184.9 82.7 195 82.7"/><polyline class="cls-6" points="183.8 72.6 183.8 82.7 193.5 82.7"/><path d="M184.1,73.2a.71.71,0,0,1,.6.3l8.1,8.4a.86.86,0,0,1,.3.6V126a.9.9,0,0,1-.9.9H153.1a.9.9,0,0,1-.9-.9V74a.9.9,0,0,1,.9-.9l31,.1m0-2h-31a2.88,2.88,0,0,0-2.8,2.9v52a2.88,2.88,0,0,0,2.8,2.9h39.1a2.88,2.88,0,0,0,2.8-2.9V82.5a2.79,2.79,0,0,0-.8-2l-8.1-8.4a3,3,0,0,0-2-.9"/><path class="cls-6" d="M170.5,94.3v14.4h3.6a3.59,3.59,0,0,0,3.6-3.6V97.9a3.59,3.59,0,0,0-3.6-3.6Z"/><path class="cls-6" d="M158.9,108.7V94.3h2.9a4.3,4.3,0,0,1,0,8.6h-1.4"/><polyline class="cls-6" points="182 108.7 182 94.3 189.2 94.3"/><line class="cls-6" x1="187.8" y1="101.5" x2="183.5" y2="101.5"/><path class="cls-3" d="M28.8,34V25.3a1.37,1.37,0,0,1,1.4-1.4h8.7"/><path class="cls-3" d="M201.9,23.9h8.7a1.37,1.37,0,0,1,1.4,1.4V34"/><path class="cls-3" d="M37.9,176.1H29.2a1.37,1.37,0,0,1-1.4-1.4V166"/><path class="cls-3" d="M211.7,166v8.7a1.37,1.37,0,0,1-1.4,1.4h-8.7"/><rect class="cls-1" x="28.8" y="59.9" width="172.8" height="81"/><text class="cls-7" transform="translate(67.71 41.98)">240 <tspan class="cls-8" x="67.1" y="0">p</tspan><tspan class="cls-9" x="88.6" y="0">x</tspan></text><text class="cls-7" transform="translate(220.36 156.36) rotate(-90)">200 <tspan class="cls-8" x="67.1" y="0">p</tspan><tspan class="cls-9" x="88.6" y="0">x</tspan></text></svg>