<svg id="Layer_1" data-name="Layer 1" xmlns="http://www.w3.org/2000/svg" viewBox="0 0 690.1 540"><defs><style>.cls-1{fill:#bfbfbf;}.cls-2,.cls-3,.cls-4{fill:none;}.cls-3,.cls-4{stroke:#000;stroke-linecap:round;stroke-width:2.2px;}.cls-3{stroke-miterlimit:10;}.cls-4{stroke-linejoin:round;}.cls-5{isolation:isolate;font-size:57px;font-family:YandexSansText-Regular, Yandex Sans Text;}.cls-6{letter-spacing:-0.01em;}</style></defs><title>блок_под_слайд_2_изображения</title><rect class="cls-1" x="1.5" y="1.2" width="687.1" height="537.6"/><path d="M2.2,2.2h685V537.6H2.2ZM0,539.9H689.3V0H0Z" transform="translate(0.4 0.1)"/><line class="cls-2" x1="1.1" y1="1.1" x2="687.7" y2="538"/><line class="cls-3" x1="1.1" y1="1.1" x2="687.7" y2="538"/><line class="cls-2" x1="2.6" y1="537.9" x2="689" y2="1.1"/><line class="cls-3" x1="2.6" y1="537.9" x2="689" y2="1.1"/><rect class="cls-1" x="246.2" y="192.7" width="198.1" height="155.2"/><polyline class="cls-1" points="300.4 239.4 300.4 250.8 311.3 250.8"/><polyline class="cls-4" points="300.4 239.4 300.4 250.8 311.3 250.8"/><path d="M300.3,240a.91.91,0,0,1,.7.3l9.1,9.5a.91.91,0,0,1,.3.7v49a.94.94,0,0,1-1,1H265.8a1,1,0,0,1-1-1V241a.94.94,0,0,1,1-1h34.5m0-2.3H265.8a3.2,3.2,0,0,0-3.1,3.2v58.5a3.14,3.14,0,0,0,3.1,3.2h43.6a3.2,3.2,0,0,0,3.1-3.2v-49a3.17,3.17,0,0,0-.9-2.3l-9.1-9.5a3.6,3.6,0,0,0-2.2-.9" transform="translate(0.4 0.1)"/><path class="cls-4" d="M303.2,267.8a3.9,3.9,0,1,0-7.8,0v8.1a3.9,3.9,0,1,0,7.8,0v-2.4H300" transform="translate(0.4 0.1)"/><path class="cls-4" d="M270.5,275.1v.8a3.9,3.9,0,1,0,7.8,0V263.7" transform="translate(0.4 0.1)"/><path class="cls-4" d="M282.9,280V263.8H286a4.9,4.9,0,0,1,0,9.8h-1.6" transform="translate(0.4 0.1)"/><polyline class="cls-1" points="357.6 239.4 357.6 250.8 368.5 250.8"/><polyline class="cls-4" points="357.6 239.4 357.6 250.8 368.5 250.8"/><path d="M357.5,240a.91.91,0,0,1,.7.3l9.1,9.5a.91.91,0,0,1,.3.7v49a.94.94,0,0,1-1,1H323a1,1,0,0,1-1-1V241a.94.94,0,0,1,1-1h34.5m0-2.3H323a3.2,3.2,0,0,0-3.1,3.2v58.5a3.14,3.14,0,0,0,3.1,3.2h43.6a3.2,3.2,0,0,0,3.1-3.2v-49a3.17,3.17,0,0,0-.9-2.3l-9.1-9.5a3.6,3.6,0,0,0-2.2-.9" transform="translate(0.4 0.1)"/><path class="cls-4" d="M361.9,267.8a3.9,3.9,0,1,0-7.8,0v8.1a3.9,3.9,0,1,0,7.8,0v-2.4h-3.1" transform="translate(0.4 0.1)"/><polyline class="cls-4" points="342.1 280.1 342.1 263.8 349.9 280.1 349.9 263.8"/><path class="cls-4" d="M329.2,280V263.8h3.1a4.9,4.9,0,0,1,0,9.8h-1.6" transform="translate(0.4 0.1)"/><polyline class="cls-1" points="414.8 239.4 414.8 250.8 425.7 250.8"/><polyline class="cls-4" points="414.8 239.4 414.8 250.8 425.7 250.8"/><path d="M414.7,240a.91.91,0,0,1,.7.3l9.1,9.5a.91.91,0,0,1,.3.7v49a.94.94,0,0,1-1,1H380.2a1,1,0,0,1-1-1V241a.94.94,0,0,1,1-1h34.5m0-2.3H380.2a3.2,3.2,0,0,0-3.1,3.2v58.5a3.14,3.14,0,0,0,3.1,3.2h43.6a3.2,3.2,0,0,0,3.1-3.2v-49a3.17,3.17,0,0,0-.9-2.3l-9.1-9.5a3.6,3.6,0,0,0-2.2-.9" transform="translate(0.4 0.1)"/><path class="cls-4" d="M398.9,263.7V280h3.9a4,4,0,0,0,3.9-4.1v-8.1a4,4,0,0,0-3.9-4.1Z" transform="translate(0.4 0.1)"/><path class="cls-4" d="M386.4,280V263.8h3.1a4.9,4.9,0,0,1,0,9.8H388" transform="translate(0.4 0.1)"/><polyline class="cls-4" points="411.7 280.1 411.7 263.8 419.5 263.8"/><line class="cls-4" x1="418" y1="271.9" x2="413.3" y2="271.9"/><path class="cls-3" d="M245.3,204v-9.7a1.58,1.58,0,0,1,1.6-1.6h9.3" transform="translate(0.4 0.1)"/><path class="cls-3" d="M432.7,192.6H442a1.58,1.58,0,0,1,1.6,1.6v9.7" transform="translate(0.4 0.1)"/><path class="cls-3" d="M256.1,347.8h-9.3a1.58,1.58,0,0,1-1.6-1.6v-9.7" transform="translate(0.4 0.1)"/><path class="cls-3" d="M443.3,336.4v9.7a1.58,1.58,0,0,1-1.6,1.6h-9.3" transform="translate(0.4 0.1)"/><text class="cls-5" transform="translate(271.96 63.01)">690 <tspan class="cls-6" x="106.25" y="0">p</tspan><tspan x="140.28" y="0">x</tspan></text><text class="cls-5" transform="translate(503.04 280.1)">540 <tspan class="cls-6" x="106.25" y="0">p</tspan><tspan x="140.28" y="0">x</tspan></text></svg>