<svg id="Layer_1" data-name="Layer 1" xmlns="http://www.w3.org/2000/svg" viewBox="0 0 838.5 714.8"><defs><style>.cls-1{fill:#bfbfbf;}.cls-2,.cls-3,.cls-4{fill:none;}.cls-3,.cls-4{stroke:#000;stroke-linecap:round;stroke-width:1.97px;}.cls-3{stroke-miterlimit:10;}.cls-4{stroke-linejoin:round;}.cls-5{isolation:isolate;font-size:57px;font-family:YandexSansText-Regular, Yandex Sans Text;}.cls-6{letter-spacing:-0.01em;}</style></defs><title>блок_для слайда_текст и изображение</title><rect class="cls-1" x="1.7" y="1.8" width="835" height="711.2"/><path d="M3.5,3.6H835V711.3H3.5ZM0,714.8H838.5V0H0Z"/><line class="cls-2" x1="2.6" y1="2.8" x2="836.1" y2="712.2"/><line class="cls-3" x1="2.6" y1="2.8" x2="836.1" y2="712.2"/><line class="cls-2" x1="3" y1="711.7" x2="835.9" y2="2.8"/><line class="cls-3" x1="3" y1="711.7" x2="835.9" y2="2.8"/><rect class="cls-1" x="259.9" y="221.9" width="320" height="270.8"/><polyline class="cls-1" points="347.9 304.8 347.9 322.1 365.6 322.1"/><polyline class="cls-4" points="347.9 304.8 347.9 322.1 365.6 322.1"/><path d="M348.3,305.8a2.1,2.1,0,0,1,1.1.4l14.7,14.3a1.61,1.61,0,0,1,.5,1.1v74.2a1.56,1.56,0,0,1-1.6,1.5H292.3a1.56,1.56,0,0,1-1.6-1.5V307.2a1.56,1.56,0,0,1,1.6-1.5l56,.1m0-3.4H292.4a4.93,4.93,0,0,0-5,4.9v88.6a5,5,0,0,0,5,4.9H363a4.93,4.93,0,0,0,5-4.9V321.7a4.69,4.69,0,0,0-1.5-3.5l-14.7-14.3a4.54,4.54,0,0,0-3.5-1.5"/><path class="cls-4" d="M352.9,347.9a6.3,6.3,0,0,0-12.6,0v12.3a6.3,6.3,0,0,0,12.6,0v-3.7h-5"/><path class="cls-4" d="M300,359v1.2a6.3,6.3,0,0,0,12.6,0V341.7"/><path class="cls-4" d="M320.1,366.3V341.7h5a7.4,7.4,0,1,1,0,14.8h-2.5"/><polyline class="cls-1" points="440.7 304.8 440.7 322.1 458.3 322.1"/><polyline class="cls-4" points="440.7 304.8 440.7 322.1 458.3 322.1"/><path d="M441.1,305.8a2.1,2.1,0,0,1,1.1.4l14.7,14.3a1.61,1.61,0,0,1,.5,1.1v74.2a1.56,1.56,0,0,1-1.6,1.5H385.1a1.56,1.56,0,0,1-1.6-1.5V307.2a1.56,1.56,0,0,1,1.6-1.5l56,.1m0-3.4H385.2a4.93,4.93,0,0,0-5,4.9v88.6a5,5,0,0,0,5,4.9h70.7a4.93,4.93,0,0,0,5-4.9V321.7a4.69,4.69,0,0,0-1.5-3.5l-14.7-14.3a5.07,5.07,0,0,0-3.6-1.5"/><path class="cls-4" d="M448.2,347.9a6.3,6.3,0,0,0-12.6,0v12.3a6.3,6.3,0,0,0,12.6,0v-3.7h-5"/><polyline class="cls-4" points="415.4 366.3 415.4 341.7 428.1 366.3 428.1 341.7"/><path class="cls-4" d="M395.3,366.3V341.7h5a7.4,7.4,0,1,1,0,14.8h-2.5"/><polyline class="cls-1" points="533.5 304.8 533.5 322.1 551.1 322.1"/><polyline class="cls-4" points="533.5 304.8 533.5 322.1 551.1 322.1"/><path d="M533.9,305.8a2.1,2.1,0,0,1,1.1.4l14.7,14.3a1.61,1.61,0,0,1,.5,1.1v74.2a1.56,1.56,0,0,1-1.6,1.5H477.9a1.56,1.56,0,0,1-1.6-1.5V307.2a1.56,1.56,0,0,1,1.6-1.5l56,.1m0-3.4H478a4.93,4.93,0,0,0-5,4.9v88.6a5,5,0,0,0,5,4.9h70.7a4.93,4.93,0,0,0,5-4.9V321.7a4.69,4.69,0,0,0-1.5-3.5l-14.7-14.3a5.07,5.07,0,0,0-3.6-1.5"/><path class="cls-4" d="M508.2,341.7v24.6h6.3a6.25,6.25,0,0,0,6.3-6.2V347.8a6.25,6.25,0,0,0-6.3-6.2h-6.3Z"/><path class="cls-4" d="M488,366.3V341.7h5a7.4,7.4,0,1,1,0,14.8h-2.5"/><polyline class="cls-4" points="528.4 366.3 528.4 341.7 541 341.7"/><line class="cls-4" x1="538.5" y1="354" x2="530.9" y2="354"/><path class="cls-3" d="M259,237.2V222.4a2.48,2.48,0,0,1,2.5-2.5h15.1"/><path class="cls-3" d="M561.4,220h15.1a2.48,2.48,0,0,1,2.5,2.5v14.8"/><path class="cls-3" d="M276.7,493.1H261.6a2.48,2.48,0,0,1-2.5-2.5V475.8"/><path class="cls-3" d="M579.1,475.9v14.8a2.48,2.48,0,0,1-2.5,2.5H561.5"/><text class="cls-5" transform="translate(349.7 63.92)">840 <tspan class="cls-6" x="106.25" y="0">p</tspan><tspan x="140.28" y="0">x</tspan></text><text class="cls-5" transform="translate(656 363)">720 <tspan class="cls-6" x="106.25" y="0">p</tspan><tspan x="140.28" y="0">x</tspan></text></svg>