<?xml version="1.0" encoding="utf-8"?>
<!-- Generator: Adobe Illustrator 21.0.2, SVG Export Plug-In . SVG Version: 6.00 Build 0)  -->
<svg version="1.1" id="Layer_1" xmlns="http://www.w3.org/2000/svg" xmlns:xlink="http://www.w3.org/1999/xlink" x="0px" y="0px"
	 viewBox="0 0 450 360" style="enable-background:new 0 0 450 360;" xml:space="preserve">
<style type="text/css">
	.st0{fill:#BFBFBF;}
	.st1{fill:none;}
	.st2{fill:none;stroke:#000000;stroke-width:1.9748;stroke-linecap:round;stroke-miterlimit:10;}
	.st3{fill:none;stroke:#000000;stroke-width:1.9748;stroke-linecap:round;stroke-linejoin:round;stroke-miterlimit:10;}
	.st4{font-family:'YandexSansText-Regular';}
	.st5{font-size:53px;}
</style>
<g>
	<rect x="0.9" y="0.9" class="st0" width="448.2" height="358.2"/>
	<path d="M1.8,1.8h446.3v356.4H1.8V1.8z M0,360h450V0H0V360z"/>
	<line class="st1" x1="1.4" y1="1.4" x2="448.7" y2="358.7"/>
	<line class="st2" x1="1.4" y1="1.4" x2="448.7" y2="358.7"/>
	<line class="st1" x1="1.6" y1="358.4" x2="448.6" y2="1.4"/>
	<line class="st2" x1="1.6" y1="358.4" x2="448.6" y2="1.4"/>
	<rect x="141.1" y="111.5" class="st0" width="169.1" height="137"/>
	<polyline class="st0" points="187.7,155.3 187.7,164.4 197,164.4 	"/>
	<polyline class="st3" points="187.7,155.3 187.7,164.4 197,164.4 	"/>
	<path d="M187.8,155.8c0.2,0,0.5,0.1,0.6,0.3l7.8,7.6c0.2,0.2,0.3,0.4,0.3,0.6v39.2c0,0.5-0.4,0.8-0.8,0.8h-37.3
		c-0.5,0-0.8-0.4-0.8-0.8v-46.8c0-0.5,0.4-0.8,0.8-0.8L187.8,155.8 M187.8,154h-29.5c-1.5,0-2.7,1.2-2.7,2.6v46.8
		c0,1.5,1.2,2.6,2.7,2.6h37.3c1.5,0,2.7-1.2,2.7-2.6v-39.2c0-0.6-0.3-1.4-0.7-1.8l-7.8-7.6C189.2,154.2,188.6,154,187.8,154"/>
	<path class="st3" d="M190.3,178.1c0-1.8-1.5-3.2-3.3-3.2c-1.8,0-3.3,1.5-3.3,3.2v6.5c0,1.8,1.5,3.2,3.3,3.2c1.8,0,3.3-1.5,3.3-3.2
		v-1.9h-2.7"/>
	<path class="st3" d="M162.3,183.9v0.6c0,1.8,1.5,3.2,3.3,3.2c1.8,0,3.3-1.5,3.3-3.2v-9.8"/>
	<path class="st3" d="M173,187.8v-13h2.7c2.2,0,4,1.8,4,3.9s-1.8,3.9-4,3.9h-1.3"/>
	<polyline class="st0" points="236.7,155.3 236.7,164.4 246,164.4 	"/>
	<polyline class="st3" points="236.7,155.3 236.7,164.4 246,164.4 	"/>
	<path d="M236.9,155.8c0.2,0,0.5,0.1,0.6,0.3l7.8,7.6c0.2,0.2,0.3,0.4,0.3,0.6v39.2c0,0.5-0.4,0.8-0.8,0.8h-37.3
		c-0.5,0-0.8-0.4-0.8-0.8v-46.8c0-0.5,0.4-0.8,0.8-0.8L236.9,155.8 M236.9,154h-29.5c-1.5,0-2.7,1.2-2.7,2.6v46.8
		c0,1.5,1.2,2.6,2.7,2.6h37.3c1.5,0,2.7-1.2,2.7-2.6v-39.2c0-0.6-0.3-1.4-0.7-1.8l-7.8-7.6C238.2,154.2,237.6,154,236.9,154"/>
	<path class="st3" d="M240.6,178.1c0-1.8-1.5-3.2-3.3-3.2c-1.8,0-3.3,1.5-3.3,3.2v6.5c0,1.8,1.5,3.2,3.3,3.2c1.8,0,3.3-1.5,3.3-3.2
		v-1.9H238"/>
	<polyline class="st3" points="223.4,187.8 223.4,174.8 230,187.8 230,174.8 	"/>
	<path class="st3" d="M212.7,187.8v-13h2.7c2.2,0,4,1.8,4,3.9s-1.8,3.9-4,3.9h-1.3"/>
	<polyline class="st0" points="285.7,155.3 285.7,164.4 295,164.4 	"/>
	<polyline class="st3" points="285.7,155.3 285.7,164.4 295,164.4 	"/>
	<path d="M286,155.8c0.2,0,0.5,0.1,0.6,0.3l7.8,7.6c0.2,0.2,0.3,0.4,0.3,0.6v39.2c0,0.5-0.4,0.8-0.8,0.8h-37.3
		c-0.5,0-0.8-0.4-0.8-0.8v-46.8c0-0.5,0.4-0.8,0.8-0.8L286,155.8 M286,154h-29.5c-1.5,0-2.7,1.2-2.7,2.6v46.8c0,1.5,1.2,2.6,2.7,2.6
		h37.3c1.5,0,2.7-1.2,2.7-2.6v-39.2c0-0.6-0.3-1.4-0.7-1.8l-7.8-7.6C287.4,154.2,286.6,154,286,154"/>
	<path class="st3" d="M272.4,174.8v13h3.3c1.8,0,3.3-1.5,3.3-3.2v-6.5c0-1.8-1.5-3.2-3.3-3.2L272.4,174.8L272.4,174.8z"/>
	<path class="st3" d="M261.7,187.8v-13h2.7c2.2,0,4,1.8,4,3.9s-1.8,3.9-4,3.9h-1.3"/>
	<polyline class="st3" points="283,187.8 283,174.8 289.7,174.8 	"/>
	<line class="st3" x1="288.4" y1="181.3" x2="284.4" y2="181.3"/>
	<path class="st2" d="M141.1,120.6v-7.8c0-0.7,0.6-1.3,1.3-1.3h8"/>
	<path class="st2" d="M300.9,111.5h8c0.7,0,1.3,0.6,1.3,1.3v7.8"/>
	<path class="st2" d="M150.5,248.4h-8c-0.7,0-1.3-0.6-1.3-1.3v-7.8"/>
	<path class="st2" d="M310.2,239.4v7.8c0,0.7-0.6,1.3-1.3,1.3h-8"/>
</g>
<text transform="matrix(1 0 0 1 145.9904 69.4694)" class="st4 st5">450 px</text>
<text transform="matrix(6.123234e-17 -1 1 6.123234e-17 417.5623 256.9033)" class="st4 st5">360 px</text>
</svg>
