<svg id="Layer_1" data-name="Layer 1" xmlns="http://www.w3.org/2000/svg" viewBox="0 0 1920 1080"><defs><style>.cls-1{fill:#bfbfbf;}.cls-2,.cls-3,.cls-4{fill:none;}.cls-3,.cls-4{stroke:#000;stroke-linecap:round;stroke-width:2px;}.cls-3{stroke-miterlimit:10;}.cls-4{stroke-linejoin:round;}.cls-5{isolation:isolate;font-size:57px;font-family:YandexSansText-Regular, Yandex Sans Text;}.cls-6{letter-spacing:-0.01em;}</style></defs><title>блок_под_изображение на весь слайд</title><rect class="cls-1" x="1" y="1" width="1918" height="1078"/><path d="M2,2H1918V1078H2ZM0,1080H1920V0H0Z"/><line class="cls-2" x1="2" y1="2" x2="1918" y2="1078"/><line class="cls-3" x1="2" y1="2" x2="1918" y2="1078"/><line class="cls-2" x1="2" y1="1078" x2="1918" y2="2"/><line class="cls-3" x1="2" y1="1078" x2="1918" y2="2"/><rect class="cls-1" x="868.3" y="488.1" width="184.1" height="103.6"/><polyline class="cls-1" points="918.4 511.7 918.4 521.8 928.6 521.8"/><polyline class="cls-4" points="918.4 511.7 918.4 521.8 928.6 521.8"/><path d="M918.7,512.2a.71.71,0,0,1,.6.3l8.4,8.4a.86.86,0,0,1,.3.6v43.6a.9.9,0,0,1-.9.9H886.7a.9.9,0,0,1-.9-.9v-52a.9.9,0,0,1,.9-.9h32m0-2h-32a2.9,2.9,0,0,0-2.9,2.9v52a2.9,2.9,0,0,0,2.9,2.9h40.4a2.9,2.9,0,0,0,2.9-2.9V521.5a2.79,2.79,0,0,0-.8-2l-8.4-8.4a2.88,2.88,0,0,0-2.1-.9"/><path class="cls-4" d="M921.3,536.9a3.6,3.6,0,0,0-7.2,0v7.2a3.6,3.6,0,1,0,7.2,0V542h-2.9"/><path class="cls-4" d="M891,543.4v.7a3.6,3.6,0,0,0,7.2,0V533.3"/><path class="cls-4" d="M902.6,547.8V533.4h2.9a4.3,4.3,0,1,1,0,8.6H904"/><polyline class="cls-1" points="971.6 511.7 971.6 521.8 981.7 521.8"/><polyline class="cls-4" points="971.6 511.7 971.6 521.8 981.7 521.8"/><path d="M971.8,512.2a.71.71,0,0,1,.6.3l8.4,8.4a.86.86,0,0,1,.3.6v43.6a.9.9,0,0,1-.9.9H939.8a.9.9,0,0,1-.9-.9v-52a.9.9,0,0,1,.9-.9h32m0-2h-32a2.9,2.9,0,0,0-2.9,2.9v52a2.9,2.9,0,0,0,2.9,2.9h40.4a2.9,2.9,0,0,0,2.9-2.9V521.5a2.79,2.79,0,0,0-.8-2l-8.4-8.4a2.88,2.88,0,0,0-2.1-.9"/><path class="cls-4" d="M975.9,536.9a3.6,3.6,0,0,0-7.2,0v7.2a3.6,3.6,0,0,0,7.2,0V542H973"/><polyline class="cls-4" points="957.1 547.8 957.1 533.3 964.3 547.8 964.3 533.3"/><path class="cls-4" d="M945.6,547.8V533.4h2.9a4.3,4.3,0,1,1,0,8.6H947"/><polyline class="cls-1" points="1024.7 511.7 1024.7 521.8 1034.8 521.8"/><polyline class="cls-4" points="1024.7 511.7 1024.7 521.8 1034.8 521.8"/><path d="M1024.9,512.2a.71.71,0,0,1,.6.3l8.4,8.4a.86.86,0,0,1,.3.6v43.6a.9.9,0,0,1-.9.9H992.9a.9.9,0,0,1-.9-.9v-52a.9.9,0,0,1,.9-.9h32m0-2h-32a2.9,2.9,0,0,0-2.9,2.9v52a2.9,2.9,0,0,0,2.9,2.9h40.4a2.9,2.9,0,0,0,2.9-2.9V521.5a2.79,2.79,0,0,0-.8-2l-8.4-8.4a2.88,2.88,0,0,0-2.1-.9"/><path class="cls-4" d="M1010.2,533.3v14.4h3.6a3.58,3.58,0,0,0,3.6-3.6v-7.2a3.58,3.58,0,0,0-3.6-3.6Z"/><path class="cls-4" d="M998.7,547.8V533.4h2.9a4.3,4.3,0,0,1,0,8.6h-1.4"/><polyline class="cls-4" points="1021.8 547.8 1021.8 533.3 1029 533.3"/><line class="cls-4" x1="1027.6" y1="540.6" x2="1023.2" y2="540.6"/><path class="cls-3" d="M867.8,498.1v-8.7a1.37,1.37,0,0,1,1.4-1.4h8.7"/><path class="cls-3" d="M1042,488h8.7a1.37,1.37,0,0,1,1.4,1.4v8.7"/><path class="cls-3" d="M877.9,592h-8.7a1.37,1.37,0,0,1-1.4-1.4v-8.7"/><path class="cls-3" d="M1052.1,581.9v8.7a1.37,1.37,0,0,1-1.4,1.4H1042"/><text class="cls-5" transform="translate(898.2 107.8)">1920 <tspan class="cls-6" x="137.94" y="0">p</tspan><tspan x="171.97" y="0">x</tspan></text><text class="cls-5" transform="translate(1673.43 547.8)">1080 <tspan class="cls-6" x="137.94" y="0">p</tspan><tspan x="171.97" y="0">x</tspan></text></svg>