<?xml version="1.0" encoding="utf-8"?>
<!-- Generator: Adobe Illustrator 21.0.2, SVG Export Plug-In . SVG Version: 6.00 Build 0)  -->
<svg version="1.1" id="Layer_1" xmlns="http://www.w3.org/2000/svg" xmlns:xlink="http://www.w3.org/1999/xlink" x="0px" y="0px"
	 viewBox="0 0 510 220" style="enable-background:new 0 0 510 220;" xml:space="preserve">
<style type="text/css">
	.st0{fill:#FF0000;}
</style>
<g>
	<polygon class="st0" points="86.4,0 52.5,99.5 23.1,17.2 3,17.2 42.9,123.9 42.9,183.4 61.4,183.4 61.4,124.6 104.8,0 	"/>
	<path d="M159.2,156.9c0,5.6,0.2,10.7,0.7,15.3c0.5,4.6,0.9,8.4,1.4,11.2h-15.4c-0.3-1.2-0.6-2.7-0.9-4.4c-0.3-1.7-0.5-3.3-0.7-4.9
		h-1.2c-2.6,3.3-5.7,5.9-9.1,7.9c-3.4,2-7.7,3-12.8,3c-8.4,0-15.2-3-20.4-9.1c-5.2-6-7.8-14.9-7.8-26.5c0-6.2,0.9-11.9,2.6-17
		c1.7-5.1,4.4-9.4,8.1-12.9c3.7-3.5,8.4-6.2,14.1-8.1c5.8-1.9,12.8-2.9,21-2.9h2.6v-7c0-7.8-1.3-13.4-3.9-16.9
		c-2.6-3.4-6.4-5.2-11.6-5.2c-4.7,0-9,1.1-12.8,3.2c-3.9,2.1-7.4,4.6-10.5,7.2l-3.5-16c2.6-2.2,6.5-4.3,11.6-6.3
		c5.1-2,10.5-3,16.5-3c5.1,0,9.7,0.6,13.8,1.9c4,1.2,7.4,3.3,10.2,6.2c2.7,2.9,4.8,6.7,6.2,11.4c1.4,4.7,2.1,10.7,2.1,17.8
		L159.2,156.9L159.2,156.9z M141.3,122.2h-2.1c-5.6,0-10.2,0.6-13.8,1.8c-3.6,1.2-6.4,2.9-8.4,5.2c-2,2.3-3.4,5-4.2,8.1
		c-0.8,3.1-1.2,6.6-1.2,10.3c0,6.9,1.1,12.4,3.4,16.4c2.3,4.1,5.7,6.1,10.4,6.1c3.1,0,6.1-0.9,9-2.7c2.9-1.8,5.2-4,6.9-6.7V122.2z
		 M200.1,183.4h-18.2V66h18.2v10.2h1.2c0.8-1.1,1.9-2.3,3.4-3.7c1.5-1.4,3.2-2.7,5.3-3.8c2-1.2,4.2-2.1,6.7-2.9
		c2.4-0.8,5-1.2,7.8-1.2c15.7,0,23.6,8.8,23.6,26.5v92.3h-18.5V92.7c0-4.5-0.9-7.6-2.8-9.3c-1.9-1.7-4.6-2.6-8.2-2.6
		c-3.9,0-7.4,1.2-10.5,3.6c-3.1,2.4-5.8,5.1-7.9,8L200.1,183.4L200.1,183.4z M301.7,185c-11.7,0-20.6-4.7-26.6-14.2
		c-6.1-9.4-9.1-23.3-9.1-41.6c0-21.7,3.7-37.9,11.1-48.6c7.4-10.7,17-16,28.8-16c2.8,0,5.6,0.4,8.3,1.3c2.7,0.9,4.9,1.9,6.7,3.1
		V17.2h18.2v166.2h-13.5l-1.4-9.3H323c-2.6,3.3-5.6,5.9-9,7.9C310.6,184,306.5,185,301.7,185 M320.9,85.1c-1.9-1.9-3.9-3.3-6-4.2
		c-2.1-0.9-4.7-1.4-7.8-1.4c-3.7,0-7,1.3-9.7,3.9c-2.7,2.6-5,6-6.8,10.3c-1.8,4.3-3.1,9.2-4,14.7c-0.9,5.5-1.3,11.3-1.3,17.4
		c0,13.9,1.4,24.7,4.2,32.6s7.5,11.8,14.2,11.8c4.5,0,8.1-0.9,10.7-2.8c2.6-1.9,4.7-4,6.3-6.3L320.9,85.1L320.9,85.1z M424.8,175.5
		c-3.7,2.9-7.9,5.3-12.5,7c-4.6,1.7-9.8,2.6-15.8,2.6c-12.1,0-21.7-4.7-28.7-14.1c-7-9.4-10.5-23.1-10.5-41.3c0-9.5,0.7-18.1,2-26
		c1.3-7.9,3.4-14.8,6.3-20.6c2.9-5.8,6.6-10.3,11.1-13.6c4.5-3.3,9.9-4.9,16.1-4.9c4.8,0,9.3,1,13.3,2.9c4,1.9,7.5,5.1,10.3,9.4
		c2.8,4.3,5,10,6.5,16.8c1.6,6.9,2.3,15.3,2.3,25.2v10h-49c0,13.3,1.8,23.4,5.5,30.2c3.7,6.8,9.1,10.2,16.5,10.2
		c5.1,0,9.6-0.9,13.3-2.7c3.7-1.8,6.8-3.5,9.1-5.2L424.8,175.5z M392.8,79.5c-5.6,0-9.6,3.1-11.9,9.4c-2.3,6.3-3.8,14.7-4.4,25.2
		h30.1c0-5-0.2-9.6-0.7-13.8c-0.5-4.3-1.2-7.9-2.2-11c-1-3.1-2.4-5.5-4.2-7.2C397.7,80.3,395.4,79.5,392.8,79.5 M504.4,66.2
		l-22,54.8l24.5,62.3h-18.9L469.9,135l-17.8,48.3h-18l24.5-60.7l-22.2-56.5h18.9l15.2,42.5l16.1-42.5H504.4z"/>
</g>
</svg>
