<?xml version="1.0" encoding="UTF-8" standalone="no"?>
<!-- Created with Inkscape (http://www.inkscape.org/) --><svg height="297.63780pt" id="svg2" inkscape:version="0.41" sodipodi:docbase="/home/matthew/media/image/my_pictures/svg" sodipodi:docname="ampelmaennchen.svg" sodipodi:version="0.32" width="419.52756pt" xmlns="http://www.w3.org/2000/svg" xmlns:cc="http://web.resource.org/cc/" xmlns:dc="http://purl.org/dc/elements/1.1/" xmlns:inkscape="http://www.inkscape.org/namespaces/inkscape" xmlns:rdf="http://www.w3.org/1999/02/22-rdf-syntax-ns#" xmlns:sodipodi="http://inkscape.sourceforge.net/DTD/sodipodi-0.dtd" xmlns:svg="http://www.w3.org/2000/svg" xmlns:xlink="http://www.w3.org/1999/xlink">
  <metadata>
    <rdf:RDF xmlns:cc="http://web.resource.org/cc/" xmlns:dc="http://purl.org/dc/elements/1.1/" xmlns:rdf="http://www.w3.org/1999/02/22-rdf-syntax-ns#">
      <cc:Work rdf:about="">
        <dc:title>Ampelmaennchen</dc:title>
        <dc:description>Ampelmaennchen are the little men on traffic signals.  These two are in the East German style (inspired by a wikipedia article).</dc:description>
        <dc:subject>
          <rdf:Bag>
            <rdf:li>roadtravel</rdf:li>
            <rdf:li>traffic signal man stop go sign pedestrian</rdf:li>
            <rdf:li>transport</rdf:li>
            <rdf:li>stop</rdf:li>
            <rdf:li>roadsign</rdf:li>
            <rdf:li>go</rdf:li>
            <rdf:li>pedestrian</rdf:li>
            <rdf:li>city</rdf:li>
            <rdf:li>europe</rdf:li>
          </rdf:Bag>
        </dc:subject>
        <dc:publisher>
          <cc:Agent rdf:about="http://www.openclipart.org/">
            <dc:title>Open Clip Art Library</dc:title>
          </cc:Agent>
        </dc:publisher>
        <dc:creator>
          <cc:Agent>
            <dc:title>Matthew Gates</dc:title>
          </cc:Agent>
        </dc:creator>
        <dc:rights>
          <cc:Agent>
            <dc:title>Publc Domain</dc:title>
          </cc:Agent>
        </dc:rights>
        <dc:date>2005-07-28</dc:date>
        <dc:format>image/svg+xml</dc:format>
        <dc:type rdf:resource="http://purl.org/dc/dcmitype/StillImage"/>
        <cc:license rdf:resource="http://web.resource.org/cc/PublicDomain"/>
        <dc:language>en</dc:language>
      </cc:Work>
      <cc:License rdf:about="http://web.resource.org/cc/PublicDomain">
        <cc:permits rdf:resource="http://web.resource.org/cc/Reproduction"/>
        <cc:permits rdf:resource="http://web.resource.org/cc/Distribution"/>
        <cc:permits rdf:resource="http://web.resource.org/cc/DerivativeWorks"/>
      </cc:License>
    </rdf:RDF>
  </metadata>
  <defs id="defs4">
    <radialGradient cx="298.12531" cy="350.82419" fx="298.12531" fy="350.82419" gradientTransform="matrix(1.000000,0.000000,0.000000,1.112913,4.322236e-14,-39.61257)" gradientUnits="userSpaceOnUse" id="radialGradient3548" inkscape:collect="always" r="340.96289" xlink:href="#linearGradient3528"/>
    <radialGradient cx="298.12531" cy="350.82419" fx="298.12531" fy="350.82419" gradientTransform="matrix(1.000000,0.000000,0.000000,1.112913,4.322236e-14,-39.61257)" gradientUnits="userSpaceOnUse" id="radialGradient3546" inkscape:collect="always" r="340.96289" xlink:href="#linearGradient3528"/>
    <radialGradient cx="298.12531" cy="350.82419" fx="298.12531" fy="350.82419" gradientTransform="matrix(1.000000,0.000000,0.000000,1.112913,4.322236e-14,-39.61257)" gradientUnits="userSpaceOnUse" id="radialGradient3544" inkscape:collect="always" r="340.96289" xlink:href="#linearGradient3528"/>
    <radialGradient cx="298.12531" cy="350.82419" fx="298.12531" fy="350.82419" gradientTransform="matrix(1.000000,0.000000,0.000000,1.112913,4.322236e-14,-39.61257)" gradientUnits="userSpaceOnUse" id="radialGradient3542" inkscape:collect="always" r="340.96289" xlink:href="#linearGradient3528"/>
    <radialGradient cx="298.12531" cy="350.82419" fx="298.12531" fy="350.82419" gradientTransform="matrix(1.000000,0.000000,0.000000,1.112913,4.322236e-14,-39.61257)" gradientUnits="userSpaceOnUse" id="radialGradient3540" inkscape:collect="always" r="340.96289" xlink:href="#linearGradient3528"/>
    <radialGradient cx="298.12531" cy="350.82419" fx="298.12531" fy="350.82419" gradientTransform="matrix(1.000000,0.000000,0.000000,1.112913,4.322236e-14,-39.61257)" gradientUnits="userSpaceOnUse" id="radialGradient3538" inkscape:collect="always" r="340.96289" xlink:href="#linearGradient3528"/>
    <radialGradient cx="298.12531" cy="350.82419" fx="298.12531" fy="350.82419" gradientTransform="matrix(1.000000,0.000000,0.000000,1.112913,4.322236e-14,-39.61257)" gradientUnits="userSpaceOnUse" id="radialGradient3536" inkscape:collect="always" r="340.96289" xlink:href="#linearGradient3528"/>
    <radialGradient cx="298.12531" cy="350.82419" fx="298.12531" fy="350.82419" gradientTransform="matrix(1.000000,0.000000,0.000000,1.112913,4.322236e-14,-39.61257)" gradientUnits="userSpaceOnUse" id="radialGradient3534" inkscape:collect="always" r="340.96289" xlink:href="#linearGradient3528"/>
    <radialGradient cx="298.12531" cy="350.82419" fx="298.12531" fy="350.82419" gradientTransform="matrix(1.000000,0.000000,0.000000,1.112913,-1.312422e-13,-39.61257)" gradientUnits="userSpaceOnUse" id="radialGradient3526" inkscape:collect="always" r="340.96289" xlink:href="#linearGradient3528"/>
    <linearGradient id="linearGradient3528">
      <stop id="stop3530" offset="0.0000000" style="stop-color:#05ff00;stop-opacity:1.0000000;"/>
      <stop id="stop3532" offset="1.0000000" style="stop-color:#0d8d0b;stop-opacity:0.79274613;"/>
    </linearGradient>
    <radialGradient cx="356.63848" cy="420.37049" fx="356.63848" fy="420.37049" gradientTransform="matrix(0.420135,0.000000,0.000000,0.457467,94.65933,78.20887)" gradientUnits="userSpaceOnUse" id="radialGradient2076" inkscape:collect="always" r="312.88067" xlink:href="#linearGradient2070"/>
    <linearGradient id="linearGradient2070">
      <stop id="stop2072" offset="0.0000000" style="stop-color:#ff0000;stop-opacity:1.0000000;"/>
      <stop id="stop2074" offset="1.0000000" style="stop-color:#9a1a00;stop-opacity:1.0000000;"/>
    </linearGradient>
  </defs>
  <sodipodi:namedview bordercolor="#666666" borderopacity="1.0" id="base" inkscape:current-layer="layer1" inkscape:cx="260.71430" inkscape:cy="184.64285" inkscape:document-units="px" inkscape:pageopacity="0.0" inkscape:pageshadow="2" inkscape:window-height="972" inkscape:window-width="1672" inkscape:window-x="0" inkscape:window-y="0" inkscape:zoom="1.9925926" pagecolor="#ffffff" showguides="true"/>
  <g id="layer1" inkscape:groupmode="layer" inkscape:label="Layer 1">
    <g id="g1344" inkscape:label="Layer 1" transform="matrix(1.180066,0.000000,0.000000,1.180066,-19.08430,22.11447)">
      <g id="g1316" style="fill:url(#radialGradient3526);fill-opacity:1.0000000" transform="matrix(0.267932,0.000000,0.000000,0.267932,54.52761,45.26935)">
        <path d="M 498.91743,728.99390 C 496.28466,726.36112 495.91101,721.94801 497.57670,713.15872 C 499.72600,701.81758 504.65649,686.12637 512.50347,665.65445 C 516.13116,656.19019 519.86062,645.41581 520.79114,641.71138 L 522.48300,634.97604 L 514.69735,627.63148 C 505.65495,619.10138 487.58964,604.54309 456.64286,580.84713 C 417.54508,550.90995 381.91305,521.93064 358.36933,500.92188 C 345.74994,489.66123 341.69210,486.99787 339.19285,488.33542 C 335.57944,490.26927 308.73766,518.10451 268.77249,561.36218 C 191.66840,644.81843 144.77937,694.34863 138.94368,698.50401 L 136.04854,700.56553 L 132.29403,698.08092 C 112.58285,685.03668 34.603920,614.50093 14.509629,591.53919 C 7.0791710,583.04840 1.1428600,572.90639 1.1428600,568.70246 C 1.1428600,567.41530 2.0992280,565.40581 3.2681210,564.23692 C 5.1398880,562.36515 6.1239240,562.18675 11.518121,562.74126 C 18.580380,563.46724 37.281870,568.27638 58.142860,574.73094 C 80.596920,581.67841 83.131140,581.79231 91.526660,576.23135 C 97.240610,572.44659 105.49230,562.96556 142.76274,517.36218 C 208.28369,437.19200 212.14286,431.83592 212.14286,421.07048 C 212.14286,413.59269 210.26258,410.08264 204.85441,407.46459 C 199.17317,404.71435 195.67451,404.81268 187.43835,407.95409 C 166.39243,415.98135 161.56871,417.44375 157.47331,417.03854 C 151.43055,416.44065 143.18228,412.26845 118.01518,397.07955 C 105.71041,389.65334 83.942860,376.93757 69.642860,368.82226 C 33.033950,348.04658 29.054600,345.16211 27.620780,338.36218 C 26.215110,331.69577 20.272090,325.01364 -0.85714000,306.34262 C -24.220664,285.69723 -37.014342,272.31003 -40.498540,264.86218 C -44.850549,255.55929 -43.155446,248.75104 -33.191011,235.51209 C -21.879937,220.48397 -14.840948,215.36218 -5.4985240,215.36218 C 3.9430370,215.36218 12.666556,221.09015 32.642860,240.40626 C 54.782260,261.81398 62.959070,267.75336 78.642860,273.81920 C 84.142860,275.94637 99.442860,282.28577 112.64286,287.90675 C 137.64088,298.55171 156.28275,305.11767 164.15443,306.04996 C 172.54351,307.04352 181.43275,300.18602 193.84071,283.14884 C 208.48614,263.03941 213.59816,256.48149 223.75696,244.77098 C 236.87171,229.65299 246.14286,216.84215 246.14286,213.83820 C 246.14286,207.81787 234.54777,198.78998 221.25496,194.46058 C 206.09358,189.52260 191.58707,178.07250 185.92756,166.57642 C 182.84438,160.31359 182.64309,159.25875 182.64656,149.38321 C 182.64920,141.90550 183.49832,134.43742 185.58205,123.56538 L 188.51384,108.26857 L 178.11226,97.831470 C 171.85477,91.552620 168.09557,87.057600 168.67677,86.549100 C 176.26048,79.913870 182.40155,76.614440 190.28524,74.939490 C 194.55857,74.031590 202.09480,64.662060 210.39286,49.940400 C 214.65536,42.378270 218.14286,35.820240 218.14286,35.367010 C 218.14286,34.913780 214.88036,32.742490 210.89286,30.541920 C 197.97139,23.411010 177.24703,8.8081000 167.41375,-0.094540000 C 163.02857,-4.0647000 162.77977,-4.5455100 163.87108,-6.9406600 C 167.57844,-15.077440 192.80552,-12.773600 233.27274,-0.60261000 L 240.90262,1.6921700 L 247.22584,-5.2228300 C 263.63674,-23.169580 270.55602,-28.637820 276.85418,-28.637820 C 278.38923,-28.637820 292.46966,-22.645510 308.14402,-15.321560 C 323.81838,-7.9976200 357.56786,7.6051400 383.14286,19.351250 C 408.71786,31.097350 429.81861,40.843290 430.03341,41.008880 C 430.24822,41.174470 429.63273,50.217910 428.66567,61.105410 C 427.69860,71.992910 427.07286,81.642690 427.27512,82.549360 C 427.50301,83.570920 439.05194,89.907280 457.64286,99.210720 C 474.14286,107.46780 490.78256,116.39228 494.61998,119.04289 C 502.28367,124.33642 504.70702,128.22659 502.01676,130.91685 C 497.89731,135.03630 468.89694,135.26785 443.30281,131.38565 C 427.56426,128.99837 419.08883,128.82164 415.26131,130.80093 C 407.32564,134.90462 366.14286,195.93571 366.14286,203.59233 C 366.14286,206.75405 370.72517,217.39232 383.91935,244.86218 C 407.42217,293.79428 415.26637,312.03756 424.98220,340.36218 C 436.43410,373.74796 437.47859,375.95220 449.50251,392.10849 C 467.18945,415.87407 488.10944,438.85674 562.14940,515.86218 C 624.19384,580.39166 633.28769,590.38278 636.78522,597.86218 C 639.29186,603.22259 639.79639,609.51306 638.08147,614.02365 C 636.12761,619.16268 621.81381,635.64905 602.64286,654.84119 C 568.27955,689.24247 532.26110,719.81324 517.17227,727.38462 C 511.27393,730.34433 501.15952,731.23598 498.91743,728.99390 z " id="path1332" style="fill:url(#radialGradient3534);fill-opacity:1.0000000"/>
        <path d="M 498.91743,728.99390 C 496.28466,726.36112 495.91101,721.94801 497.57670,713.15872 C 499.72600,701.81758 504.65649,686.12637 512.50347,665.65445 C 516.13116,656.19019 519.86062,645.41581 520.79114,641.71138 L 522.48300,634.97604 L 514.69735,627.63148 C 505.65495,619.10138 487.58964,604.54309 456.64286,580.84713 C 417.54508,550.90995 381.91305,521.93064 358.36933,500.92188 C 345.58431,489.51343 341.70586,486.99050 339.09824,488.38606 C 335.45513,490.33580 308.34642,518.46472 268.28705,561.86218 C 193.23040,643.17320 144.80710,694.32888 138.94368,698.50401 L 136.04854,700.56553 L 132.29403,698.08092 C 112.58285,685.03668 34.603920,614.50093 14.509629,591.53919 C 7.0791710,583.04840 1.1428600,572.90639 1.1428600,568.70246 C 1.1428600,567.41530 2.0992280,565.40581 3.2681210,564.23692 C 5.1398880,562.36515 6.1239240,562.18675 11.518121,562.74126 C 18.580380,563.46724 37.281870,568.27638 58.142860,574.73094 C 80.596920,581.67841 83.131140,581.79231 91.526660,576.23135 C 97.240610,572.44659 105.49230,562.96556 142.76274,517.36218 C 208.28369,437.19200 212.14286,431.83592 212.14286,421.07048 C 212.14286,413.59269 210.26258,410.08264 204.85441,407.46459 C 199.17317,404.71435 195.67451,404.81268 187.43835,407.95409 C 166.39243,415.98135 161.56871,417.44375 157.47331,417.03854 C 151.48080,416.44562 143.42133,412.38405 119.12425,397.71251 C 107.30948,390.57828 85.492860,377.83593 70.642860,369.39615 C 32.505340,347.72127 28.769310,345.02961 27.653260,338.42374 C 26.771080,333.20215 21.349680,326.56734 8.1428600,314.54656 C -29.824983,279.98841 -36.714328,272.95135 -40.498540,264.86218 C -44.989898,255.26141 -42.935014,247.89720 -31.848413,233.86218 C -20.513959,219.51339 -14.601307,215.36218 -5.4985240,215.36218 C 3.9430370,215.36218 12.666556,221.09015 32.642860,240.40626 C 54.782260,261.81398 62.959070,267.75336 78.642860,273.81920 C 84.142860,275.94637 99.442860,282.28577 112.64286,287.90675 C 137.64088,298.55171 156.28275,305.11767 164.15443,306.04996 C 172.54351,307.04352 181.43275,300.18602 193.84071,283.14884 C 208.43447,263.11037 213.59338,256.48370 223.75696,244.72116 C 242.43280,223.10718 246.90171,216.52183 245.81951,212.20998 C 244.37636,206.46000 233.11589,198.32363 221.25496,194.46058 C 206.09358,189.52260 191.58707,178.07250 185.92756,166.57642 C 182.84438,160.31359 182.64309,159.25875 182.64656,149.38321 C 182.64920,141.90550 183.49832,134.43742 185.58205,123.56538 L 188.51384,108.26857 L 178.11226,97.831470 C 171.85477,91.552620 168.09557,87.057600 168.67677,86.549100 C 176.26048,79.913870 182.40155,76.614440 190.28524,74.939490 C 194.55857,74.031590 202.09480,64.662060 210.39286,49.940400 C 214.65536,42.378270 218.14286,35.820240 218.14286,35.367010 C 218.14286,34.913780 214.88036,32.742490 210.89286,30.541920 C 197.97139,23.411010 177.24703,8.8081000 167.41375,-0.094540000 C 163.02219,-4.0704800 162.77849,-4.5427100 163.87564,-6.9506900 C 165.55275,-10.631540 171.44559,-11.981690 183.14286,-11.365150 C 194.77323,-10.752130 203.84221,-8.9178600 224.78625,-2.9424700 L 240.92964,1.6632800 L 247.23935,-5.2372700 C 263.63399,-23.167100 270.55752,-28.637820 276.85418,-28.637820 C 278.38923,-28.637820 292.46966,-22.643850 308.14402,-15.317880 C 323.81838,-7.9919200 357.56786,7.6118200 383.14286,19.357090 C 408.71786,31.102370 429.81861,40.846640 430.03341,41.011040 C 430.24822,41.175440 429.63273,50.217910 428.66567,61.105410 C 427.69860,71.992910 427.07286,81.642690 427.27512,82.549360 C 427.50301,83.570920 439.05194,89.907280 457.64286,99.210720 C 474.14286,107.46780 490.78256,116.39228 494.61998,119.04289 C 502.28367,124.33642 504.70702,128.22659 502.01676,130.91685 C 497.89731,135.03630 468.89694,135.26785 443.30281,131.38565 C 427.56426,128.99837 419.08883,128.82164 415.26131,130.80093 C 407.32564,134.90462 366.14286,195.93571 366.14286,203.59233 C 366.14286,206.74687 370.71345,217.36368 383.90973,244.86218 C 407.64922,294.33066 415.27347,312.05827 424.98220,340.36218 C 432.80967,363.18165 436.41912,372.45149 439.57142,377.83049 C 443.51358,384.55727 455.82108,400.77838 466.20084,412.92769 C 487.17711,437.48001 500.56410,451.84244 561.67837,515.36218 C 622.45874,578.53487 633.33288,590.47941 636.78522,597.86218 C 639.29186,603.22259 639.79639,609.51306 638.08147,614.02365 C 636.12761,619.16268 621.81381,635.64905 602.64286,654.84119 C 568.27955,689.24247 532.26110,719.81324 517.17227,727.38462 C 511.27393,730.34433 501.15952,731.23598 498.91743,728.99390 z " id="path1330" style="fill:url(#radialGradient3536);fill-opacity:1.0000000"/>
        <path d="M 498.91743,728.99390 C 496.28466,726.36112 495.91101,721.94801 497.57670,713.15872 C 499.72600,701.81758 504.65649,686.12637 512.50347,665.65445 C 516.13116,656.19019 519.85809,645.42587 520.78553,641.73372 L 522.47178,635.02073 L 515.05732,627.93041 C 506.55718,619.80187 488.17667,604.98922 456.64286,580.85488 C 418.56742,551.71390 381.80237,521.80722 358.36933,500.91388 C 345.58002,489.51067 341.70447,486.99125 339.09824,488.38606 C 335.45513,490.33580 308.34642,518.46472 268.28705,561.86218 C 193.71835,642.64460 144.75559,694.36557 138.90829,698.52921 L 136.04854,700.56553 L 132.29403,698.08092 C 112.58285,685.03668 34.603920,614.50093 14.509629,591.53919 C 7.0791710,583.04840 1.1428600,572.90639 1.1428600,568.70246 C 1.1428600,567.41530 2.0992280,565.40581 3.2681210,564.23692 C 5.1398880,562.36515 6.1239240,562.18675 11.518121,562.74126 C 18.670430,563.47649 37.492630,568.33274 58.501830,574.86337 C 77.503420,580.76994 81.354860,581.24669 87.633330,578.46942 C 94.602250,575.38674 101.42318,567.88138 138.68910,522.29062 C 210.01197,435.03492 212.14286,432.09853 212.14286,421.07048 C 212.14286,413.59269 210.26258,410.08264 204.85441,407.46459 C 199.17317,404.71435 195.67451,404.81268 187.43835,407.95409 C 166.39243,415.98135 161.56871,417.44375 157.47331,417.03854 C 151.48080,416.44562 143.42133,412.38405 119.12425,397.71251 C 107.30948,390.57828 85.492860,377.83593 70.642860,369.39615 C 32.505340,347.72127 28.769310,345.02961 27.653260,338.42374 C 26.749870,333.07663 21.255780,326.43758 7.1428600,313.63903 C -28.365139,281.43796 -36.894778,272.69403 -40.589927,264.70707 C -44.963051,255.25469 -42.847169,247.74239 -31.957478,234.05812 C -20.255514,219.35313 -14.607429,215.36218 -5.4985240,215.36218 C 3.9430370,215.36218 12.666556,221.09015 32.642860,240.40626 C 54.846850,261.87644 63.187730,267.94027 78.642860,273.84832 C 84.142860,275.95081 99.442860,282.27356 112.64286,287.89887 C 137.62727,298.54623 156.27345,305.11657 164.15443,306.04996 C 170.07974,306.75172 175.17586,304.24795 182.06304,297.25128 C 187.01315,292.22247 188.81041,289.93391 206.32098,266.36218 C 211.01958,260.03718 219.31417,249.74869 224.75338,243.49888 C 242.17400,223.48206 246.89043,216.47689 245.81951,212.20998 C 244.37636,206.46000 233.11589,198.32363 221.25496,194.46058 C 206.09358,189.52260 191.58707,178.07250 185.92756,166.57642 C 182.84438,160.31359 182.64309,159.25875 182.64656,149.38321 C 182.64920,141.90550 183.49832,134.43742 185.58205,123.56538 L 188.51384,108.26857 L 178.11226,97.831470 C 171.85477,91.552620 168.09557,87.057600 168.67677,86.549100 C 176.26048,79.913870 182.40155,76.614440 190.28524,74.939490 C 194.55857,74.031590 202.09480,64.662060 210.39286,49.940400 C 214.65536,42.378270 218.14286,35.820240 218.14286,35.367010 C 218.14286,34.913780 214.88036,32.742490 210.89286,30.541920 C 197.97139,23.411010 177.24703,8.8081000 167.41375,-0.094540000 C 163.02219,-4.0704800 162.77849,-4.5427100 163.87564,-6.9506900 C 165.55275,-10.631540 171.44559,-11.981690 183.14286,-11.365150 C 194.77323,-10.752130 203.84221,-8.9178600 224.78625,-2.9424700 L 240.92964,1.6632800 L 247.23935,-5.2372700 C 263.63399,-23.167100 270.55752,-28.637820 276.85418,-28.637820 C 278.38923,-28.637820 292.46966,-22.643850 308.14402,-15.317880 C 323.81838,-7.9919200 357.56786,7.6118200 383.14286,19.357090 C 408.71786,31.102370 429.81861,40.846640 430.03341,41.011040 C 430.24822,41.175440 429.63273,50.217910 428.66567,61.105410 C 427.69860,71.992910 427.07286,81.642690 427.27512,82.549360 C 427.50301,83.570920 439.05194,89.907280 457.64286,99.210720 C 474.14286,107.46780 490.78256,116.39228 494.61998,119.04289 C 502.28367,124.33642 504.70702,128.22659 502.01676,130.91685 C 497.89731,135.03630 468.89694,135.26785 443.30281,131.38565 C 427.56426,128.99837 419.08883,128.82164 415.26131,130.80093 C 407.28739,134.92440 366.14286,195.89880 366.14286,203.59233 C 366.14286,206.74687 370.71345,217.36368 383.90973,244.86218 C 407.72733,294.49343 415.58160,312.76731 425.05345,340.58783 C 432.52808,362.54216 436.33497,372.30791 439.57142,377.83049 C 443.51358,384.55727 455.82108,400.77838 466.20084,412.92769 C 487.17711,437.48001 500.56410,451.84244 561.67837,515.36218 C 622.45874,578.53487 633.33288,590.47941 636.78522,597.86218 C 639.29186,603.22259 639.79639,609.51306 638.08147,614.02365 C 636.12761,619.16268 621.81381,635.64905 602.64286,654.84119 C 568.27955,689.24247 532.26110,719.81324 517.17227,727.38462 C 511.27393,730.34433 501.15952,731.23598 498.91743,728.99390 z " id="path1328" style="fill:url(#radialGradient3538);fill-opacity:1.0000000"/>
        <path d="M 499.45542,729.64406 C 493.33755,725.40596 497.18153,706.47726 512.40805,665.86218 C 516.53193,654.86218 520.47462,643.41452 521.16958,640.42293 L 522.43314,634.98369 L 515.03800,627.90530 C 507.48849,620.67916 483.94745,601.62698 460.64286,583.88236 C 425.77222,557.33110 397.16252,534.30944 371.81522,512.40450 C 347.05397,491.00601 344.08189,488.57950 341.95102,488.02226 C 338.22276,487.04730 323.31490,502.05837 262.66005,567.86218 C 188.27012,648.56703 138.91321,700.38018 136.43568,700.36808 C 129.99952,700.33664 37.352190,617.64138 14.509629,591.53919 C 7.0791710,583.04840 1.1428600,572.90639 1.1428600,568.70246 C 1.1428600,567.41530 2.0992280,565.40581 3.2681210,564.23692 C 5.1398880,562.36515 6.1239240,562.18675 11.518121,562.74126 C 18.670430,563.47649 37.492630,568.33274 58.501830,574.86337 C 77.503420,580.76994 81.354860,581.24669 87.633330,578.46942 C 94.630940,575.37405 101.75207,567.53979 138.82790,522.14815 C 210.64023,434.22889 212.14286,432.15915 212.14286,421.16358 C 212.14286,413.59354 210.27919,410.09068 204.85441,407.46459 C 199.17317,404.71435 195.67451,404.81268 187.43835,407.95409 C 170.94651,414.24435 161.42865,417.34324 158.64286,417.32950 C 153.49720,417.30413 145.03395,413.10392 119.92830,398.11593 C 106.57131,390.14184 84.392860,377.20766 70.642860,369.37329 C 32.758610,347.78790 29.043630,345.11007 27.620780,338.36218 C 26.208860,331.66610 19.127840,323.74051 -1.8571400,305.36837 C -32.120988,278.87267 -42.837602,265.92653 -42.837602,255.86218 C -42.837602,248.56462 -35.975523,237.37282 -23.637708,224.54784 C -17.047864,217.69780 -12.435656,215.36218 -5.4985240,215.36218 C 4.1184340,215.36218 12.094538,220.69210 34.142860,241.85197 C 55.789670,262.62651 63.171160,267.93394 78.642860,273.84832 C 84.142860,275.95081 99.442860,282.27932 112.64286,287.91168 C 145.68855,302.01207 162.30912,307.31625 169.27657,305.98540 C 176.01064,304.69912 186.26057,294.26387 200.35366,274.34641 C 208.48695,262.85182 216.90867,252.31695 229.11997,238.36218 C 239.38112,226.63598 246.14621,216.89896 246.13627,213.87052 C 246.11577,207.62078 235.72986,199.52622 221.21201,194.44508 C 205.24906,188.85816 191.58306,178.06436 185.92756,166.57642 C 182.84438,160.31359 182.64309,159.25875 182.64656,149.38321 C 182.64920,141.90550 183.49832,134.43742 185.58205,123.56538 L 188.51384,108.26857 L 178.11226,97.831470 C 171.85477,91.552620 168.09557,87.057600 168.67677,86.549100 C 176.26048,79.913870 182.40155,76.614440 190.28524,74.939490 C 194.55857,74.031590 202.09480,64.662060 210.39286,49.940400 C 214.65536,42.378270 218.14286,35.791130 218.14286,35.302300 C 218.14286,34.813480 216.68036,33.672320 214.89286,32.766390 C 204.68409,27.592430 185.20279,14.466870 172.60767,4.2766500 C 163.15683,-3.3696500 162.58621,-4.1207000 163.95138,-7.1169200 C 165.54618,-10.617130 171.65966,-11.970410 183.14286,-11.365150 C 194.77323,-10.752130 203.84221,-8.9178600 224.78625,-2.9424700 L 240.92964,1.6632800 L 247.23935,-5.2372700 C 263.63399,-23.167100 270.55752,-28.637820 276.85418,-28.637820 C 278.38923,-28.637820 292.69466,-22.534900 308.64402,-15.075760 C 324.59338,-7.6166300 358.34286,7.9844200 383.64286,19.593250 C 408.94286,31.202080 429.82138,40.840180 430.03958,41.011250 C 430.34744,41.252610 427.66596,75.605410 426.82013,82.256070 C 426.70662,83.148640 437.81654,89.262750 457.71077,99.256070 C 497.92222,119.45519 506.98093,125.95268 501.94784,130.98577 C 497.89601,135.03760 468.69178,135.23673 443.30281,131.38565 C 427.41266,128.97537 419.09298,128.81949 415.15061,130.85817 C 407.23422,134.95190 366.14286,195.93706 366.14286,203.59233 C 366.14286,206.74687 370.71345,217.36368 383.90973,244.86218 C 407.58322,294.19313 415.61192,312.84381 424.65620,339.51620 C 436.65986,374.91608 440.68543,382.38493 460.68493,406.36218 C 482.18043,432.13296 497.95640,449.16296 561.65854,515.36218 C 622.63015,578.72383 633.33055,590.47442 636.78522,597.86218 C 639.51283,603.69515 639.80955,610.15497 637.56694,614.88093 C 628.43663,634.12163 541.92278,714.96514 517.17227,727.38462 C 512.51797,729.72008 501.57898,731.11515 499.45542,729.64406 z " id="path1326" style="fill:url(#radialGradient3540);fill-opacity:1.0000000"/>
        <path d="M 499.45542,729.64406 C 493.33755,725.40596 497.18153,706.47726 512.40805,665.86218 C 516.53193,654.86218 520.47678,643.40548 521.17439,640.40285 L 522.44277,634.94353 L 514.48865,627.40285 C 506.03715,619.39066 486.28781,603.57184 445.64286,572.25877 C 415.65328,549.15464 394.43529,531.95259 371.81522,512.40450 C 347.05397,491.00601 344.08189,488.57950 341.95102,488.02226 C 338.22276,487.04730 323.31490,502.05837 262.66005,567.86218 C 188.27012,648.56703 138.91321,700.38018 136.43568,700.36808 C 130.00701,700.33667 37.394940,617.66999 14.513909,591.53919 C 7.0809260,583.05051 1.1428600,572.90874 1.1428600,568.70246 C 1.1428600,567.41530 2.0992280,565.40581 3.2681210,564.23692 C 5.1398880,562.36515 6.1239240,562.18675 11.518121,562.74126 C 18.670430,563.47649 37.492630,568.33274 58.501830,574.86337 C 77.503420,580.76994 81.354860,581.24669 87.633330,578.46942 C 94.630290,575.37433 101.74983,567.54219 138.83018,522.14815 C 211.03572,433.75359 212.14286,432.22856 212.14286,421.16358 C 212.14286,413.47821 210.29650,410.09906 204.58701,407.33515 C 198.63000,404.45141 193.44694,405.01419 182.41176,409.74297 C 172.32725,414.06437 161.82743,417.37021 158.28752,417.33844 C 153.49930,417.29547 144.52830,412.80193 119.92830,398.12446 C 106.57131,390.15508 84.392860,377.21228 70.642860,369.36270 C 32.514360,347.59593 29.039890,345.09233 27.620780,338.36218 C 26.208860,331.66610 19.127840,323.74051 -1.8571400,305.36837 C -32.120988,278.87267 -42.837602,265.92653 -42.837602,255.86218 C -42.837602,248.56462 -35.975523,237.37282 -23.637708,224.54784 C -17.047864,217.69780 -12.435656,215.36218 -5.4985240,215.36218 C 4.1200970,215.36218 12.070909,220.70539 34.642860,242.33850 C 56.022810,262.82919 63.268710,267.99172 79.300960,274.15631 C 85.162910,276.41031 100.51994,282.75227 113.42768,288.24957 C 135.54696,297.66998 149.43101,302.74965 160.42215,305.44314 C 173.21920,308.57920 178.37486,304.21272 205.97608,266.86218 C 210.85333,260.26218 219.29860,249.74869 224.74334,243.49888 C 242.39868,223.23295 246.89693,216.50276 245.77483,212.03197 C 244.29654,206.14199 234.34782,199.04252 221.05057,194.38858 C 205.25361,188.85975 191.55964,178.01678 185.92882,166.57896 C 182.84847,160.32188 182.64529,159.25837 182.64411,149.38575 C 182.64322,141.88062 183.48484,134.47465 185.57835,123.56538 L 188.51384,108.26857 L 178.10526,97.824450 L 167.69668,87.380320 L 171.16977,84.390740 C 175.64603,80.537640 185.77829,75.362180 188.84542,75.362180 C 194.18764,75.362180 203.58495,63.165300 215.73301,40.464440 C 218.18516,35.882160 218.39654,34.935310 217.13220,34.196990 C 196.90310,22.384060 185.73271,14.875860 172.60767,4.2697700 C 163.15961,-3.3650300 162.58581,-4.1198200 163.95138,-7.1169200 C 165.54618,-10.617130 171.65966,-11.970410 183.14286,-11.365150 C 194.77323,-10.752130 203.84221,-8.9178600 224.78625,-2.9424700 L 240.92964,1.6632800 L 247.23935,-5.2372700 C 263.63399,-23.167100 270.55752,-28.637820 276.85418,-28.637820 C 278.38923,-28.637820 292.69466,-22.534900 308.64402,-15.075760 C 324.59338,-7.6166300 358.34286,7.9844200 383.64286,19.593250 C 408.94286,31.202080 429.82138,40.840180 430.03958,41.011250 C 430.34744,41.252610 427.66596,75.605410 426.82013,82.256070 C 426.70662,83.148640 437.81654,89.262750 457.71077,99.256070 C 497.92222,119.45519 506.98093,125.95268 501.94784,130.98577 C 497.89601,135.03760 468.69178,135.23673 443.30281,131.38565 C 428.74529,129.17751 419.67628,128.82868 415.73950,130.32544 C 408.62434,133.03062 366.14286,195.77809 366.14286,203.58239 C 366.14286,206.85854 370.78913,217.53284 387.15790,251.86218 C 410.37414,300.55237 415.53358,312.61277 424.65595,339.51548 C 436.47520,374.37151 440.02724,381.15506 457.82591,402.86218 C 478.92377,428.59296 491.28967,442.03829 552.09690,505.36218 C 625.00365,581.28635 633.24156,590.28413 636.78522,597.86218 C 639.51283,603.69515 639.80955,610.15497 637.56694,614.88093 C 628.44473,634.10456 541.90083,714.97615 517.17227,727.38462 C 512.51797,729.72008 501.57898,731.11515 499.45542,729.64406 z " id="path1324" style="fill:url(#radialGradient3542);fill-opacity:1.0000000"/>
        <path d="M 499.45542,729.64406 C 493.33755,725.40596 497.18153,706.47726 512.40805,665.86218 C 516.53193,654.86218 520.46335,643.46150 521.14453,640.52733 L 522.38305,635.19248 L 518.51296,631.15028 C 516.38440,628.92707 509.46786,622.77715 503.14286,617.48378 C 492.43469,608.52215 484.11040,601.99074 438.14286,566.48341 C 414.82061,548.46829 392.28510,530.09441 371.81522,512.40450 C 347.05397,491.00601 344.08189,488.57950 341.95102,488.02226 C 338.22245,487.04722 323.30644,502.06674 262.66134,567.86218 C 195.78025,640.42319 144.54307,694.51689 138.86568,698.55955 L 136.00276,700.59813 L 130.49410,696.80417 C 120.39137,689.84615 88.488590,662.57261 65.142860,640.93570 C 25.077920,603.80335 9.2179760,587.20247 4.1844360,577.12947 C 0.59114700,569.93866 0.39043300,567.11461 3.2681210,564.23692 C 5.1398880,562.36515 6.1239240,562.18675 11.518121,562.74126 C 18.670430,563.47649 37.492630,568.33274 58.501830,574.86337 C 76.446340,580.44135 81.304550,581.15712 86.496340,578.98785 C 95.312810,575.30409 98.416270,571.84001 153.80425,503.85874 C 208.35810,436.90125 212.14286,431.53634 212.14286,421.16358 C 212.14286,413.48435 210.29553,410.09859 204.60170,407.34225 C 198.44069,404.35976 194.21445,404.94359 179.83311,410.76390 C 173.48053,413.33487 165.84159,415.95047 162.85769,416.57635 C 157.98735,417.59792 156.80175,417.47846 151.26683,415.40854 C 147.87576,414.14037 135.32311,407.26413 123.37205,400.12802 C 111.42100,392.99191 89.042860,379.93959 73.642860,371.12288 C 32.123650,347.35255 29.056030,345.16887 27.620780,338.36218 C 26.204260,331.64427 19.553220,324.21542 -2.3571400,304.87845 C -33.109482,277.73799 -42.837602,265.95858 -42.837602,255.86218 C -42.837602,248.56462 -35.975523,237.37282 -23.637708,224.54784 C -17.047864,217.69780 -12.435656,215.36218 -5.4985240,215.36218 C 4.1358880,215.36218 12.281793,220.84053 34.642860,242.35840 C 55.663540,262.58642 63.238750,267.98020 79.300960,274.15631 C 85.162910,276.41031 100.51994,282.75227 113.42768,288.24957 C 135.54696,297.66998 149.43101,302.74965 160.42215,305.44314 C 173.21920,308.57920 178.37486,304.21272 205.97608,266.86218 C 210.85333,260.26218 219.29860,249.74869 224.74334,243.49888 C 242.39868,223.23295 246.89693,216.50276 245.77483,212.03197 C 244.29654,206.14199 234.34782,199.04252 221.05057,194.38858 C 205.25361,188.85975 191.55964,178.01678 185.92882,166.57896 C 182.84847,160.32188 182.64529,159.25837 182.64411,149.38575 C 182.64322,141.88062 183.48484,134.47465 185.57835,123.56538 L 188.51384,108.26857 L 178.10526,97.824450 L 167.69668,87.380320 L 171.16977,84.390740 C 175.64603,80.537640 185.77829,75.362180 188.84542,75.362180 C 194.18764,75.362180 203.58495,63.165300 215.73301,40.464440 C 218.18516,35.882160 218.39654,34.935310 217.13220,34.196990 C 190.43692,18.608090 164.18969,-0.44057000 163.34236,-4.8404300 C 162.85146,-7.3894700 167.02151,-10.497080 171.91831,-11.231400 C 182.82110,-12.866370 198.76348,-10.366840 224.78625,-2.9424700 L 240.92964,1.6632800 L 247.23935,-5.2372700 C 263.63578,-23.169060 270.56188,-28.641360 276.85302,-28.635000 C 278.38743,-28.633450 292.46786,-22.631920 308.14286,-15.298270 C 323.81786,-7.9646200 357.56786,7.6374300 383.14286,19.372950 C 408.71786,31.108470 429.82138,40.847960 430.03958,41.016270 C 430.34746,41.253760 427.66540,75.609830 426.82013,82.256070 C 426.70662,83.148640 437.81654,89.262750 457.71077,99.256070 C 497.92222,119.45519 506.98093,125.95268 501.94784,130.98577 C 497.89601,135.03760 468.69178,135.23673 443.30281,131.38565 C 428.74529,129.17751 419.67628,128.82868 415.73950,130.32544 C 408.62434,133.03062 366.14286,195.77809 366.14286,203.58239 C 366.14286,206.85854 370.78913,217.53284 387.15790,251.86218 C 410.37414,300.55237 415.53358,312.61277 424.65595,339.51548 C 436.82775,375.41121 440.77611,382.64518 462.02021,407.97216 C 483.69649,433.81440 498.69665,449.98710 561.16050,514.86218 C 622.43032,578.49713 633.31707,590.44561 636.78522,597.86218 C 639.51283,603.69515 639.80955,610.15497 637.56694,614.88093 C 628.44473,634.10456 541.90083,714.97615 517.17227,727.38462 C 512.51797,729.72008 501.57898,731.11515 499.45542,729.64406 z " id="path1322" style="fill:url(#radialGradient3544);fill-opacity:1.0000000"/>
        <path d="M 499.45542,729.64406 C 493.33755,725.40596 497.18153,706.47726 512.40805,665.86218 C 516.53193,654.86218 520.46377,643.45971 521.14548,640.52337 L 522.38495,635.18456 L 518.01391,630.67654 C 509.75794,622.16185 498.57063,613.16851 438.64286,566.87112 C 415.19223,548.75427 392.69593,530.41371 371.81522,512.38855 C 346.95307,490.92643 344.07521,488.57775 341.96272,488.02532 C 338.15432,487.02940 324.59178,500.68422 262.66539,567.86218 C 195.35911,640.87626 146.14531,692.83472 139.47665,697.92115 L 135.98395,700.58517 L 130.48470,696.79769 C 120.39087,689.84581 88.479120,662.56383 65.142860,640.93570 C 25.077920,603.80335 9.2179760,587.20247 4.1844360,577.12947 C 0.59114700,569.93866 0.39043300,567.11461 3.2681210,564.23692 C 5.1398880,562.36515 6.1239240,562.18675 11.518121,562.74126 C 18.670430,563.47649 37.492630,568.33274 58.501830,574.86337 C 76.446340,580.44135 81.304550,581.15712 86.496340,578.98785 C 95.317980,575.30193 98.512990,571.73599 153.80730,503.86218 C 208.35686,436.90255 212.14286,431.53538 212.14286,421.16358 C 212.14286,413.48435 210.29553,410.09859 204.60170,407.34225 C 198.44069,404.35976 194.21445,404.94359 179.83311,410.76390 C 173.48053,413.33487 165.84159,415.95047 162.85769,416.57635 C 157.98735,417.59792 156.80175,417.47846 151.26683,415.40854 C 147.87576,414.14037 135.32311,407.26413 123.37205,400.12802 C 111.42100,392.99191 89.042860,379.93959 73.642860,371.12288 C 32.123650,347.35255 29.056030,345.16887 27.620780,338.36218 C 26.204260,331.64427 19.553220,324.21542 -2.3571400,304.87845 C -39.649085,271.96647 -46.993208,261.06911 -40.910758,247.67179 C -36.700993,238.39928 -21.448553,220.73761 -14.646978,217.25946 C -9.8797390,214.82162 -1.6445580,214.81461 3.6428600,217.24389 C 9.8960270,220.11688 19.496880,227.81365 33.116660,240.87233 C 56.136000,262.94332 62.995080,267.88650 79.300960,274.15631 C 85.162910,276.41031 100.46291,282.71303 113.30096,288.16237 C 126.13900,293.61171 138.66786,298.80404 141.14286,299.70087 C 149.31908,302.66359 163.31696,306.36218 166.35360,306.36218 C 174.42108,306.36218 182.90342,298.36865 200.63576,274.05561 C 207.53263,264.59923 217.67834,251.68718 223.18179,245.36218 C 242.17803,223.53020 246.91150,216.56081 245.78675,212.07948 C 244.29656,206.14207 234.39060,199.05749 221.05057,194.38858 C 205.25361,188.85975 191.55964,178.01678 185.92882,166.57896 C 182.84847,160.32188 182.64529,159.25837 182.64411,149.38575 C 182.64322,141.88062 183.48484,134.47465 185.57835,123.56538 L 188.51384,108.26857 L 178.19813,97.917640 L 167.88241,87.566700 L 171.26264,84.470410 C 175.33814,80.737250 185.60946,75.362180 188.66772,75.362180 C 193.39633,75.362180 198.83498,69.555440 206.93162,55.862180 C 217.50591,37.978640 218.82186,35.183680 217.13220,34.196990 C 190.43692,18.608090 164.18969,-0.44057000 163.34236,-4.8404300 C 162.85146,-7.3894700 167.02151,-10.497080 171.91831,-11.231400 C 182.81905,-12.866060 198.76387,-10.366700 224.77231,-2.9464900 L 240.90176,1.6552400 L 247.73252,-5.7412900 C 264.39025,-23.778730 270.56293,-28.637820 276.81879,-28.637820 C 278.33437,-28.637820 294.88980,-21.494290 313.60863,-12.763320 C 332.32746,-4.0323400 366.09286,11.577680 388.64286,21.925620 C 411.19286,32.273550 429.82138,40.871050 430.03958,41.031160 C 430.34752,41.257140 427.66373,75.622940 426.82013,82.256070 C 426.70662,83.148640 437.81654,89.262750 457.71077,99.256070 C 497.92222,119.45519 506.98093,125.95268 501.94784,130.98577 C 497.89601,135.03760 468.69178,135.23673 443.30281,131.38565 C 428.74529,129.17751 419.67628,128.82868 415.73950,130.32544 C 408.62434,133.03062 366.14286,195.77809 366.14286,203.58239 C 366.14286,206.87432 370.81991,217.60038 387.19505,251.86218 C 406.99035,293.28003 416.23586,314.87362 424.47176,338.92483 C 434.30340,367.63606 436.86107,373.71608 443.08400,383.16922 C 456.83727,404.06159 486.54468,437.51143 546.69539,499.83322 C 617.04199,572.71889 633.33943,590.45096 636.79321,597.86218 C 639.51209,603.69640 639.80605,610.16235 637.56694,614.88093 C 628.45641,634.07994 541.86915,714.99205 517.17227,727.38462 C 512.51797,729.72008 501.57898,731.11515 499.45542,729.64406 z " id="path1320" style="fill:url(#radialGradient3546);fill-opacity:1.0000000"/>
        <path d="M 499.45542,729.64406 C 493.33755,725.40596 497.18153,706.47726 512.40805,665.86218 C 516.53193,654.86218 520.47462,643.41452 521.16958,640.42293 L 522.43314,634.98369 L 515.03800,627.90471 C 506.06873,619.31891 491.11033,607.24773 456.14286,580.37734 C 415.36855,549.04473 376.46064,517.34630 355.66832,498.52031 C 345.56080,489.36865 341.65611,487.01713 338.96177,488.45909 C 335.29487,490.42156 309.02102,517.68700 268.05569,562.04120 C 191.49899,644.93109 146.23906,692.76321 139.49855,697.90445 L 136.02774,700.55177 L 132.33530,698.09252 C 112.42987,684.83505 34.433990,614.30006 14.511198,591.53919 C 7.0798150,583.04918 1.1428600,572.90725 1.1428600,568.70246 C 1.1428600,567.41530 2.0992280,565.40581 3.2681210,564.23692 C 5.1398880,562.36515 6.1239240,562.18675 11.518121,562.74126 C 18.670430,563.47649 37.492630,568.33274 58.501830,574.86337 C 77.503420,580.76994 81.354860,581.24669 87.633330,578.46942 C 94.746380,575.32298 101.76008,567.54015 143.37561,516.61435 C 210.16010,434.88878 212.14286,432.13665 212.14286,421.16358 C 212.14286,413.48435 210.29553,410.09859 204.60170,407.34225 C 198.44069,404.35976 194.21445,404.94359 179.83311,410.76390 C 173.48053,413.33487 165.84159,415.95047 162.85769,416.57635 C 157.98735,417.59792 156.80175,417.47846 151.26683,415.40854 C 147.87576,414.14037 135.32311,407.26413 123.37205,400.12802 C 111.42100,392.99191 89.042860,379.93959 73.642860,371.12288 C 32.123650,347.35255 29.056030,345.16887 27.620780,338.36218 C 26.204260,331.64427 19.553220,324.21542 -2.3571400,304.87845 C -39.649085,271.96647 -46.993208,261.06911 -40.910758,247.67179 C -36.700993,238.39928 -21.448553,220.73761 -14.646978,217.25946 C -9.8797390,214.82162 -1.6445580,214.81461 3.6428600,217.24389 C 9.8960270,220.11688 19.496880,227.81365 33.116660,240.87233 C 56.209860,263.01413 62.917390,267.83593 79.642860,274.31828 C 85.692860,276.66310 100.99286,282.96654 113.64286,288.32593 C 126.29286,293.68531 138.66786,298.80404 141.14286,299.70087 C 149.31908,302.66359 163.31696,306.36218 166.35360,306.36218 C 174.42576,306.36218 182.83155,298.51927 199.77807,275.17593 C 211.46429,259.07850 216.23690,253.12616 230.31173,237.09466 C 239.04511,227.14717 246.14286,216.78775 246.14286,213.98856 C 246.14286,210.60613 242.18687,205.58587 236.59855,201.87655 C 231.37103,198.40672 227.56899,196.67262 216.79990,192.84643 C 210.13417,190.47814 198.47443,182.49314 192.75769,176.38149 C 190.14260,173.58574 186.80990,168.72518 185.35169,165.58025 C 181.53314,157.34470 181.60364,144.27756 185.57835,123.56538 L 188.51384,108.26857 L 178.19813,97.917640 L 167.88241,87.566700 L 171.26264,84.470410 C 175.33814,80.737250 185.60946,75.362180 188.66772,75.362180 C 193.39633,75.362180 198.83498,69.555440 206.93162,55.862180 C 217.50591,37.978640 218.82186,35.183680 217.13220,34.196990 C 190.43692,18.608090 164.18969,-0.44057000 163.34236,-4.8404300 C 162.85041,-7.3949300 167.02536,-10.497650 171.94787,-11.235830 C 182.67440,-12.844370 199.13097,-10.261970 224.77231,-2.9464900 L 240.90176,1.6552400 L 247.72363,-5.7412900 C 263.87462,-23.252840 270.71266,-28.637820 276.79846,-28.637820 C 278.30286,-28.637820 297.78329,-20.141010 320.08830,-9.7560200 C 342.39331,0.62896000 376.16786,16.238860 395.14286,24.932630 C 414.11786,33.626400 429.82138,40.870610 430.03958,41.030890 C 430.34679,41.256540 427.68442,75.368000 426.82013,82.279870 C 426.70468,83.203190 437.47927,89.131460 457.71750,99.279870 C 497.41907,119.18814 506.49498,125.61819 502.19934,130.79412 C 498.70966,134.99894 469.08558,135.29647 443.30281,131.38565 C 428.05714,129.07313 418.75091,128.83169 415.14286,130.65508 C 407.75469,134.38881 368.00523,193.27314 366.46471,202.76625 C 365.85707,206.51071 370.73177,217.89933 390.90359,259.86218 C 407.38374,294.14534 416.21499,314.95219 424.43431,338.86218 C 428.02662,349.31218 432.40481,361.60035 434.16364,366.16922 C 442.54477,387.94079 468.48617,418.71072 548.14286,501.36368 C 619.99661,575.92019 633.33306,590.43730 636.79321,597.86218 C 639.51209,603.69640 639.80605,610.16235 637.56694,614.88093 C 628.55785,633.86617 542.28440,714.62873 517.71057,727.08124 C 512.52714,729.70788 501.73471,731.22302 499.45542,729.64406 z " id="path1318" style="fill:url(#radialGradient3548);fill-opacity:1.0000000"/>
      </g>
    </g>
    <g id="g1369" inkscape:label="Layer 1" transform="matrix(0.838607,0.000000,0.000000,0.838607,175.1909,-40.45176)">
      <path d="M 237.08507,413.39984 C 228.29817,412.72562 218.52647,410.90872 215.62905,409.41040 L 214.31284,408.72977 L 215.23212,407.75124 C 215.73772,407.21304 217.29306,406.16421 218.68842,405.42049 C 222.35094,403.46839 222.80048,402.90448 222.80048,400.26224 C 222.80048,399.03519 221.57191,390.70427 220.07032,381.74908 C 216.60508,361.08301 214.47255,346.09952 212.31928,327.28909 C 207.53438,285.48930 206.95173,282.28028 202.64362,273.99955 C 199.18594,267.35345 193.79792,262.94256 185.83564,260.23976 C 177.45437,257.39472 166.28344,255.77358 151.37754,255.23916 C 147.33374,255.09418 143.22152,254.77534 142.23926,254.53062 C 140.39390,254.07087 138.80344,252.58862 137.42760,250.04633 C 136.74241,248.78022 136.59983,248.72385 134.08235,248.72385 C 132.63609,248.72385 128.98012,249.12959 125.95796,249.62549 C 120.69411,250.48923 120.39876,250.49658 118.93190,249.80051 C 118.01293,249.36443 116.81206,248.20596 115.92859,246.90323 C 110.51760,238.92444 113.09169,226.12013 120.53588,223.98517 C 121.94102,223.58218 124.25628,224.13159 128.06005,225.77066 C 129.99548,226.60464 131.29463,226.85921 133.65446,226.86686 C 136.89630,226.87738 137.66320,226.61985 140.03390,224.72463 C 143.49457,221.95805 151.09302,220.47450 174.27489,218.03928 C 192.52450,216.12219 191.00511,216.53751 214.18761,207.12892 C 218.80903,205.25332 223.01563,203.31906 223.53561,202.83057 C 224.27089,202.13981 224.48102,201.47684 224.48102,199.84775 C 224.48102,197.84863 224.37051,197.64595 222.05830,195.40453 C 220.72580,194.11282 218.43099,192.02930 216.95872,190.77448 C 213.65463,187.95839 211.42064,184.45580 205.80237,173.79011 C 200.18410,163.12441 201.24463,164.36970 191.39561,160.43970 C 185.18631,157.96204 183.30779,156.99943 183.30779,156.29527 C 183.30779,155.15517 188.97256,153.35304 198.35051,151.50973 C 206.79185,149.85052 207.29399,149.58939 214.18771,143.27384 C 227.34294,131.22193 237.27783,126.67453 248.71554,127.46975 C 259.54990,128.22302 270.35844,133.66613 280.35897,142.46174 C 290.35951,151.25736 290.24865,150.94276 299.31424,153.11170 C 305.80978,154.66576 310.03134,156.04865 310.96937,156.92964 C 311.44261,157.37411 311.22725,157.64878 309.70897,158.53713 C 308.70182,159.12642 305.56081,160.59437 302.72889,161.79925 C 299.89697,163.00413 296.85624,164.60940 295.97173,165.36652 C 294.86161,166.31676 293.49987,168.42108 291.57506,172.16080 C 286.45026,182.11783 282.35071,186.95715 274.68959,192.09345 C 268.51020,196.23633 267.75492,197.06510 267.75492,199.70306 C 267.75492,201.65978 269.07465,203.08084 272.20630,204.49613 C 279.86985,207.95954 298.30222,215.60115 300.73552,216.32363 C 304.67193,217.49241 307.10018,217.82685 320.90199,219.10109 C 341.31274,220.98551 348.40012,222.17574 351.57184,224.25166 C 353.72533,225.66114 356.65056,225.91890 360.67751,225.05399 C 367.68977,223.54789 369.57295,223.72577 371.96763,226.12045 C 375.93681,230.08963 377.03757,236.79524 374.81602,243.47217 C 373.75518,246.66059 372.36827,248.49257 370.16399,249.61711 C 367.87056,250.78712 365.85799,250.53290 360.00282,248.33361 C 357.49831,247.39287 355.04943,246.62699 354.56085,246.63166 C 353.96380,246.63736 352.70814,247.80470 350.73157,250.19155 C 347.29542,254.34096 348.34109,254.02876 336.65705,254.39373 C 322.18290,254.84585 311.30086,256.05541 306.16416,257.78309 C 300.26102,259.76854 296.09752,263.03078 294.12373,267.21722 C 291.57510,272.62282 289.75357,283.42395 287.92548,303.97160 C 285.63095,329.76116 282.50506,350.67376 276.34097,381.47255 C 274.60825,390.13016 273.07429,398.58904 272.93221,400.27007 L 272.67382,403.32648 L 274.52078,404.10752 C 275.53658,404.53709 277.26262,405.21484 278.35644,405.61363 C 279.45026,406.01242 280.76419,406.67798 281.27629,407.09265 L 282.20740,407.84660 L 280.91414,408.51537 C 277.87967,410.08455 267.12823,412.19410 259.56229,412.96218 C 251.99636,413.73026 242.50246,413.81552 237.08507,413.39984 z " id="path1371" sodipodi:nodetypes="ccccssssssssssssssssssssssszssssszsssssssssssssssssssssssscccsccccc" style="fill:url(#radialGradient2076);fill-opacity:1.0000000"/>
    </g>
  </g>
</svg>
