<?xml version="1.0" encoding="UTF-8"?>
<!-- Generator: Adobe Illustrator 13.0.1, SVG Export Plug-In  -->
<!DOCTYPE svg PUBLIC "-//W3C//DTD SVG 1.1//EN" "http://www.w3.org/Graphics/SVG/1.1/DTD/svg11.dtd">
<svg version="1.1" xmlns="http://www.w3.org/2000/svg" xmlns:xlink="http://www.w3.org/1999/xlink" xmlns:a="http://ns.adobe.com/AdobeSVGViewerExtensions/3.0/" x="0px" y="0px" width="446px" height="271px" viewBox="-9.144 -15.712 446 271" enable-background="new -9.144 -15.712 446 271" xml:space="preserve">
<defs>
</defs>
<polyline fill="none" stroke="#0000FF" stroke-width="1.75" points="33.668,207.832 34.668,207.824 35.668,207.816 36.668,207.807   37.668,207.796 38.668,207.784 39.668,207.771 40.668,207.756 41.668,207.738 42.668,207.719 43.668,207.698 44.668,207.675   45.668,207.648 46.668,207.619 47.668,207.585 48.668,207.544 49.668,207.495 50.668,207.438 51.668,207.377 52.668,207.313   53.668,207.248 54.668,207.184 55.668,207.118 56.668,207.043 57.668,206.951 58.668,206.838 59.668,206.695 60.668,206.527   61.668,206.334 62.668,206.119 63.668,205.888 64.668,205.642 65.668,205.372 66.668,205.064 67.668,204.703 68.668,204.271   69.668,203.749 70.668,203.143 71.668,202.48 72.668,201.793 73.668,201.107 74.668,200.443 75.668,199.756 76.668,198.977   77.668,198.039 78.668,196.873 79.668,195.432 80.668,193.723 81.668,191.762 82.668,189.566 83.668,187.152 84.668,184.523   85.668,181.631 86.668,178.415 87.668,174.813 88.668,170.763 89.668,166.271 90.668,161.346 91.668,155.923 92.668,149.939   93.668,143.332 94.668,136.044 95.668,128.221 96.668,120.108 97.668,111.949 98.668,103.987 99.668,96.356 100.668,89.043   101.668,82.08 102.668,75.5 103.668,69.333 104.668,63.629 105.668,58.412 106.668,53.673 107.668,49.404 108.668,45.597   109.668,42.252 110.668,39.363 111.668,36.905 112.668,34.854 113.668,33.187 114.668,31.888 115.668,30.93 116.668,30.266   117.668,29.849 118.668,29.633 119.668,29.596 120.668,29.723 121.668,29.973 122.668,30.306 123.668,30.682 124.668,31.067   125.668,31.489 126.668,31.998 127.668,32.646 128.668,33.482 129.668,34.537 130.668,35.807 131.668,37.299 132.668,39.019   133.668,40.973 134.668,43.14 135.668,45.551 136.668,48.291 137.668,51.44 138.668,55.083 139.668,59.281 140.668,63.94   141.668,68.905 142.668,74.019 143.668,79.128 144.668,84.15 145.668,89.11 146.668,94.017 147.668,98.878 148.668,103.703   149.668,108.473 150.668,113.158 151.668,117.747 152.668,122.23 153.668,126.598 154.668,130.841 155.668,134.948 156.668,138.901   157.668,142.682 158.668,146.272 159.668,149.66 160.668,152.852 161.668,155.859 162.668,158.695 163.668,161.375 164.668,163.9   165.668,166.274 166.668,168.504 167.668,170.598 168.668,172.563 169.668,174.406 170.668,176.137 171.668,177.759   172.668,179.275 173.668,180.692 174.668,182.011 175.668,183.244 176.668,184.416 177.668,185.547 178.668,186.662   179.668,187.775 180.668,188.881 181.668,189.971 182.668,191.037 183.668,192.072 184.668,193.078 185.668,194.055   186.668,194.993 187.668,195.885 188.668,196.723 189.668,197.502 190.668,198.226 191.668,198.895 192.668,199.508   193.668,200.067 194.668,200.572 195.668,201.025 196.668,201.436 197.668,201.813 198.668,202.168 199.668,202.502   200.668,202.818 201.668,203.117 202.668,203.402 203.668,203.677 204.668,203.941 205.668,204.199 206.668,204.447   207.668,204.684 208.668,204.908 209.668,205.121 210.668,205.323 211.668,205.514 212.668,205.693 213.668,205.863   214.668,206.021 215.668,206.168 216.668,206.307 217.668,206.434 218.668,206.553 219.668,206.662 220.668,206.762   221.668,206.855 222.668,206.939 223.668,207.018 224.668,207.089 225.668,207.154 226.668,207.214 227.668,207.269   228.668,207.317 229.668,207.362 230.668,207.402 231.668,207.439 232.668,207.473 233.668,207.502 234.668,207.53 235.668,207.556   236.668,207.578 237.668,207.6 238.668,207.617 239.668,207.635 240.668,207.648 241.668,207.662 242.668,207.673 243.668,207.683   244.668,207.691 245.668,207.697 246.668,207.703 247.668,207.709 248.668,207.713 249.668,207.716 250.668,207.719   251.668,207.722 252.668,207.725 253.668,207.728 254.668,207.731 255.668,207.736 256.668,207.741 257.668,207.746   258.668,207.752 259.668,207.759 260.668,207.766 261.668,207.771 262.668,207.777 263.668,207.783 264.668,207.785   265.668,207.787 266.668,207.789 267.668,207.791 268.668,207.793 269.668,207.796 270.668,207.8 271.668,207.804 272.668,207.809   273.668,207.813 274.668,207.816 275.668,207.82 276.668,207.824 277.668,207.828 278.668,207.832 279.668,207.838 280.668,207.844   281.668,207.85 282.668,207.854 283.668,207.858 284.668,207.861 285.668,207.864 286.668,207.866 287.668,207.867 288.668,207.869   289.668,207.869 290.668,207.871 291.668,207.871 292.668,207.873 293.668,207.873 294.668,207.875 295.668,207.877   296.668,207.879 297.668,207.881 298.668,207.883 299.668,207.884 300.668,207.885 301.668,207.887 302.668,207.887   303.668,207.888 304.668,207.889 305.668,207.889 306.668,207.889 307.668,207.889 308.668,207.89 309.668,207.89 310.668,207.891   311.668,207.891 312.668,207.891 313.668,207.891 314.668,207.891 315.668,207.891 316.668,207.891 317.668,207.892   318.668,207.892 319.668,207.892 320.668,207.893 321.668,207.893 322.668,207.893 323.668,207.893 324.668,207.893   325.668,207.893 326.668,207.893 327.668,207.893 328.668,207.893 329.668,207.893 330.668,207.893 331.668,207.893   332.668,207.893 333.668,207.893 334.668,207.893 335.668,207.893 336.668,207.893 337.668,207.893 338.668,207.893   339.668,207.893 340.668,207.893 341.668,207.893 342.668,207.893 343.668,207.893 344.668,207.893 345.668,207.893   346.668,207.893 347.668,207.893 348.668,207.893 349.668,207.893 350.668,207.893 351.668,207.893 352.668,207.893   353.668,207.893 354.668,207.893 355.668,207.893 356.668,207.893 357.668,207.893 358.668,207.893 359.668,207.893   360.668,207.893 361.668,207.893 362.668,207.893 363.668,207.893 364.668,207.893 365.668,207.893 366.668,207.893   367.668,207.893 368.668,207.893 369.668,207.893 370.668,207.893 371.668,207.893 372.668,207.893 373.668,207.893   374.668,207.893 375.668,207.893 376.668,207.893 377.668,207.893 378.668,207.893 379.668,207.893 380.668,207.893   381.668,207.893 382.668,207.893 383.668,207.893 384.668,207.893 385.668,207.893 386.668,207.893 387.668,207.893   388.668,207.893 389.668,207.893 390.668,207.893 391.668,207.893 392.668,207.893 393.668,207.893 394.668,207.893   395.668,207.893 396.668,207.893 397.668,207.893 398.668,207.893 399.668,207.893 400.668,207.893 401.668,207.893   402.668,207.893 403.668,207.893 404.668,207.893 405.668,207.893 406.668,207.893 407.668,207.893 408.668,207.893   409.668,207.893 410.668,207.893 411.668,207.893 412.668,207.893 413.668,207.893 414.668,207.893 415.668,207.893   416.668,207.893 417.668,207.893 418.668,207.893 419.668,207.893 420.668,207.893 421.668,207.893 422.668,207.893   423.668,207.893 "/>
<polyline fill="none" stroke="#00FF00" stroke-width="1.75" points="33.668,207.893 34.668,207.893 35.668,207.893 36.668,207.893   37.668,207.893 38.668,207.893 39.668,207.892 40.668,207.892 41.668,207.892 42.668,207.892 43.668,207.892 44.668,207.891   45.668,207.891 46.668,207.891 47.668,207.891 48.668,207.891 49.668,207.891 50.668,207.89 51.668,207.89 52.668,207.889   53.668,207.889 54.668,207.889 55.668,207.888 56.668,207.887 57.668,207.887 58.668,207.887 59.668,207.885 60.668,207.885   61.668,207.883 62.668,207.882 63.668,207.881 64.668,207.879 65.668,207.877 66.668,207.875 67.668,207.873 68.668,207.871   69.668,207.867 70.668,207.864 71.668,207.861 72.668,207.857 73.668,207.854 74.668,207.85 75.668,207.846 76.668,207.841   77.668,207.836 78.668,207.828 79.668,207.82 80.668,207.811 81.668,207.799 82.668,207.785 83.668,207.771 84.668,207.756   85.668,207.739 86.668,207.721 87.668,207.699 88.668,207.675 89.668,207.646 90.668,207.616 91.668,207.581 92.668,207.54   93.668,207.492 94.668,207.438 95.668,207.377 96.668,207.31 97.668,207.238 98.668,207.162 99.668,207.084 100.668,207.002   101.668,206.916 102.668,206.826 103.668,206.732 104.668,206.635 105.668,206.534 106.668,206.43 107.668,206.321 108.668,206.209   109.668,206.092 110.668,205.971 111.668,205.848 112.668,205.721 113.668,205.593 114.668,205.463 115.668,205.332   116.668,205.197 117.668,205.058 118.668,204.912 119.668,204.762 120.668,204.604 121.668,204.44 122.668,204.27 123.668,204.093   124.668,203.908 125.668,203.716 126.668,203.516 127.668,203.309 128.668,203.093 129.668,202.868 130.668,202.635   131.668,202.395 132.668,202.146 133.668,201.893 134.668,201.633 135.668,201.365 136.668,201.088 137.668,200.801   138.668,200.502 139.668,200.191 140.668,199.865 141.668,199.525 142.668,199.17 143.668,198.795 144.668,198.4 145.668,197.988   146.668,197.556 147.668,197.104 148.668,196.633 149.668,196.139 150.668,195.625 151.668,195.094 152.668,194.547 153.668,193.99   154.668,193.425 155.668,192.846 156.668,192.246 157.668,191.621 158.668,190.963 159.668,190.268 160.668,189.537   161.668,188.766 162.668,187.951 163.668,187.091 164.668,186.181 165.668,185.219 166.668,184.207 167.668,183.145   168.668,182.033 169.668,180.874 170.668,179.663 171.668,178.388 172.668,177.035 173.668,175.593 174.668,174.053   175.668,172.424 176.668,170.723 177.668,168.964 178.668,167.162 179.668,165.33 180.668,163.461 181.668,161.553 182.668,159.599   183.668,157.593 184.668,155.535 185.668,153.441 186.668,151.324 187.668,149.196 188.668,147.072 189.668,144.958   190.668,142.861 191.668,140.805 192.668,138.809 193.668,136.893 194.668,135.074 195.668,133.346 196.668,131.695   197.668,130.109 198.668,128.572 199.668,127.082 200.668,125.643 201.668,124.262 202.668,122.943 203.668,121.692   204.668,120.512 205.668,119.396 206.668,118.343 207.668,117.348 208.668,116.408 209.668,115.519 210.668,114.684 211.668,113.9   212.668,113.17 213.668,112.493 214.668,111.867 215.668,111.292 216.668,110.767 217.668,110.291 218.668,109.862 219.668,109.483   220.668,109.151 221.668,108.861 222.668,108.611 223.668,108.397 224.668,108.222 225.668,108.083 226.668,107.981   227.668,107.918 228.668,107.893 229.668,107.907 230.668,107.962 231.668,108.06 232.668,108.203 233.668,108.393 234.668,108.632   235.668,108.918 236.668,109.248 237.668,109.62 238.668,110.033 239.668,110.484 240.668,110.976 241.668,111.507 242.668,112.079   243.668,112.692 244.668,113.348 245.668,114.042 246.668,114.776 247.668,115.547 248.668,116.353 249.668,117.192   250.668,118.065 251.668,118.972 252.668,119.915 253.668,120.893 254.668,121.906 255.668,122.953 256.668,124.03 257.668,125.135   258.668,126.263 259.668,127.413 260.668,128.584 261.668,129.773 262.668,130.977 263.668,132.192 264.668,133.417 265.668,134.65   266.668,135.893 267.668,137.143 268.668,138.402 269.668,139.671 270.668,140.945 271.668,142.225 272.668,143.508   273.668,144.793 274.668,146.077 275.668,147.361 276.668,148.645 277.668,149.929 278.668,151.213 279.668,152.496   280.668,153.779 281.668,155.057 282.668,156.329 283.668,157.593 284.668,158.846 285.668,160.09 286.668,161.324 287.668,162.553   288.668,163.772 289.668,164.984 290.668,166.189 291.668,167.39 292.668,168.59 293.668,169.793 294.668,171.001 295.668,172.21   296.668,173.415 297.668,174.611 298.668,175.793 299.668,176.959 300.668,178.107 301.668,179.233 302.668,180.33 303.668,181.393   304.668,182.416 305.668,183.404 306.668,184.359 307.668,185.287 308.668,186.192 309.668,187.076 310.668,187.938   311.668,188.777 312.668,189.596 313.668,190.393 314.668,191.17 315.668,191.928 316.668,192.665 317.668,193.38 318.668,194.072   319.668,194.742 320.668,195.391 321.668,196.015 322.668,196.615 323.668,197.192 324.668,197.745 325.668,198.273 326.668,198.78   327.668,199.266 328.668,199.732 329.668,200.181 330.668,200.609 331.668,201.021 332.668,201.416 333.668,201.793   334.668,202.152 335.668,202.497 336.668,202.825 337.668,203.138 338.668,203.435 339.668,203.717 340.668,203.984   341.668,204.236 342.668,204.473 343.668,204.692 344.668,204.896 345.668,205.085 346.668,205.26 347.668,205.422 348.668,205.572   349.668,205.713 350.668,205.842 351.668,205.965 352.668,206.08 353.668,206.192 354.668,206.303 355.668,206.408 356.668,206.512   357.668,206.609 358.668,206.701 359.668,206.785 360.668,206.865 361.668,206.939 362.668,207.008 363.668,207.072   364.668,207.131 365.668,207.184 366.668,207.233 367.668,207.279 368.668,207.32 369.668,207.358 370.668,207.393 371.668,207.425   372.668,207.455 373.668,207.482 374.668,207.509 375.668,207.533 376.668,207.557 377.668,207.579 378.668,207.6 379.668,207.619   380.668,207.637 381.668,207.653 382.668,207.669 383.668,207.684 384.668,207.697 385.668,207.71 386.668,207.723 387.668,207.733   388.668,207.744 389.668,207.754 390.668,207.764 391.668,207.771 392.668,207.78 393.668,207.788 394.668,207.795 395.668,207.801   396.668,207.808 397.668,207.813 398.668,207.818 399.668,207.824 400.668,207.828 401.668,207.832 402.668,207.837   403.668,207.841 404.668,207.844 405.668,207.848 406.668,207.851 407.668,207.854 408.668,207.856 409.668,207.859   410.668,207.861 411.668,207.863 412.668,207.865 413.668,207.867 414.668,207.869 415.668,207.871 416.668,207.873   417.668,207.874 418.668,207.875 419.668,207.877 420.668,207.878 421.668,207.879 422.668,207.88 423.668,207.881 "/>
<polyline fill="none" stroke="#FF0000" stroke-width="1.75" points="33.668,207.879 34.668,207.878 35.668,207.876 36.668,207.874   37.668,207.872 38.668,207.869 39.668,207.867 40.668,207.863 41.668,207.859 42.668,207.855 43.668,207.852 44.668,207.846   45.668,207.841 46.668,207.834 47.668,207.827 48.668,207.818 49.668,207.809 50.668,207.796 51.668,207.783 52.668,207.77   53.668,207.756 54.668,207.742 55.668,207.729 56.668,207.713 57.668,207.693 58.668,207.669 59.668,207.639 60.668,207.604   61.668,207.563 62.668,207.518 63.668,207.469 64.668,207.416 65.668,207.359 66.668,207.295 67.668,207.219 68.668,207.127   69.668,207.018 70.668,206.89 71.668,206.75 72.668,206.605 73.668,206.461 74.668,206.322 75.668,206.178 76.668,206.015   77.668,205.818 78.668,205.574 79.668,205.271 80.668,204.914 81.668,204.504 82.668,204.046 83.668,203.541 84.668,202.993   85.668,202.391 86.668,201.721 87.668,200.971 88.668,200.129 89.668,199.197 90.668,198.175 91.668,197.052 92.668,195.816   93.668,194.455 94.668,192.957 95.668,191.354 96.668,189.694 97.668,188.031 98.668,186.416 99.668,184.874 100.668,183.404   101.668,182.015 102.668,180.712 103.668,179.502 104.668,178.398 105.668,177.402 106.668,176.514 107.668,175.729   108.668,175.043 109.668,174.457 110.668,173.972 111.668,173.58 112.668,173.279 113.668,173.064 114.668,172.933 115.668,172.878   116.668,172.891 117.668,172.964 118.668,173.086 119.668,173.256 120.668,173.467 121.668,173.712 122.668,173.983   123.668,174.272 124.668,174.572 125.668,174.889 126.668,175.229 127.668,175.604 128.668,176.022 129.668,176.49 130.668,177.004   131.668,177.563 132.668,178.167 133.668,178.813 134.668,179.496 135.668,180.221 136.668,181.001 137.668,181.851   138.668,182.783 139.668,183.808 140.668,184.907 141.668,186.052 142.668,187.211 143.668,188.356 144.668,189.471 145.668,190.56   146.668,191.624 147.668,192.664 148.668,193.683 149.668,194.675 150.668,195.636 151.668,196.564 152.668,197.463   153.668,198.328 154.668,199.162 155.668,199.962 156.668,200.721 157.668,201.435 158.668,202.098 159.668,202.707   160.668,203.265 161.668,203.777 162.668,204.252 163.668,204.691 164.668,205.102 165.668,205.479 166.668,205.824   167.668,206.139 168.668,206.422 169.668,206.676 170.668,206.9 171.668,207.096 172.668,207.263 173.668,207.402 174.668,207.515   175.668,207.598 176.668,207.65 177.668,207.669 178.668,207.652 179.668,207.6 180.668,207.509 181.668,207.375 182.668,207.194   183.668,206.963 184.668,206.678 185.668,206.339 186.668,205.945 187.668,205.493 188.668,204.982 189.668,204.411   190.668,203.781 191.668,203.094 192.668,202.354 193.668,201.565 194.668,200.729 195.668,199.846 196.668,198.918   197.668,197.947 198.668,196.933 199.668,195.876 200.668,194.781 201.668,193.656 202.668,192.508 203.668,191.343   204.668,190.167 205.668,188.979 206.668,187.775 207.668,186.557 208.668,185.317 209.668,184.061 210.668,182.786   211.668,181.493 212.668,180.183 213.668,178.853 214.668,177.504 215.668,176.135 216.668,174.748 217.668,173.344   218.668,171.923 219.668,170.484 220.668,169.029 221.668,167.555 222.668,166.062 223.668,164.548 224.668,163.014   225.668,161.459 226.668,159.887 227.668,158.295 228.668,156.688 229.668,155.063 230.668,153.424 231.668,151.771 232.668,150.11   233.668,148.442 234.668,146.771 235.668,145.095 236.668,143.416 237.668,141.735 238.668,140.053 239.668,138.369   240.668,136.687 241.668,135.01 242.668,133.341 243.668,131.683 244.668,130.038 245.668,128.41 246.668,126.8 247.668,125.21   248.668,123.643 249.668,122.1 250.668,120.584 251.668,119.103 252.668,117.661 253.668,116.263 254.668,114.913 255.668,113.613   256.668,112.365 257.668,111.171 258.668,110.033 259.668,108.954 260.668,107.938 261.668,106.983 262.668,106.092   263.668,105.263 264.668,104.494 265.668,103.794 266.668,103.174 267.668,102.646 268.668,102.223 269.668,101.913   270.668,101.713 271.668,101.612 272.668,101.602 273.668,101.673 274.668,101.819 275.668,102.048 276.668,102.37 277.668,102.795   278.668,103.333 279.668,103.989 280.668,104.756 281.668,105.626 282.668,106.588 283.668,107.633 284.668,108.756   285.668,109.959 286.668,111.243 287.668,112.608 288.668,114.053 289.668,115.573 290.668,117.168 291.668,118.842   292.668,120.601 293.668,122.447 294.668,124.385 295.668,126.398 296.668,128.475 297.668,130.598 298.668,132.752   299.668,134.934 300.668,137.134 301.668,139.332 302.668,141.512 303.668,143.652 304.668,145.741 305.668,147.781   306.668,149.782 307.668,151.753 308.668,153.703 309.668,155.633 310.668,157.538 311.668,159.418 312.668,161.273   313.668,163.103 314.668,164.906 315.668,166.683 316.668,168.428 317.668,170.139 318.668,171.813 319.668,173.447   320.668,175.041 321.668,176.591 322.668,178.092 323.668,179.543 324.668,180.938 325.668,182.281 326.668,183.574 327.668,184.82   328.668,186.022 329.668,187.183 330.668,188.301 331.668,189.375 332.668,190.409 333.668,191.402 334.668,192.355 335.668,193.27   336.668,194.144 337.668,194.979 338.668,195.772 339.668,196.529 340.668,197.246 341.668,197.924 342.668,198.56 343.668,199.152   344.668,199.703 345.668,200.212 346.668,200.686 347.668,201.124 348.668,201.533 349.668,201.912 350.668,202.264   351.668,202.596 352.668,202.91 353.668,203.216 354.668,203.514 355.668,203.805 356.668,204.086 357.668,204.352 358.668,204.603   359.668,204.836 360.668,205.055 361.668,205.258 362.668,205.447 363.668,205.623 364.668,205.784 365.668,205.933   366.668,206.068 367.668,206.193 368.668,206.309 369.668,206.414 370.668,206.51 371.668,206.598 372.668,206.68 373.668,206.757   374.668,206.83 375.668,206.898 376.668,206.964 377.668,207.025 378.668,207.082 379.668,207.135 380.668,207.184 381.668,207.23   382.668,207.273 383.668,207.313 384.668,207.352 385.668,207.387 386.668,207.421 387.668,207.452 388.668,207.481 389.668,207.51   390.668,207.535 391.668,207.559 392.668,207.582 393.668,207.603 394.668,207.622 395.668,207.641 396.668,207.657   397.668,207.673 398.668,207.688 399.668,207.701 400.668,207.715 401.668,207.727 402.668,207.738 403.668,207.748   404.668,207.759 405.668,207.768 406.668,207.777 407.668,207.785 408.668,207.793 409.668,207.8 410.668,207.807 411.668,207.813   412.668,207.818 413.668,207.824 414.668,207.828 415.668,207.833 416.668,207.838 417.668,207.842 418.668,207.845   419.668,207.848 420.668,207.852 421.668,207.854 422.668,207.857 423.668,207.859 "/>
<polyline fill="none" stroke="#000000" stroke-width="1.5" points="423.668,207.832 33.668,207.832 33.668,7.832 "/>
<line fill="none" stroke="#000000" stroke-width="1.5" x1="373.668" y1="215.332" x2="373.668" y2="200.332"/>
<line fill="none" stroke="#000000" stroke-width="1.5" x1="273.668" y1="215.332" x2="273.668" y2="200.332"/>
<line fill="none" stroke="#000000" stroke-width="1.5" x1="173.668" y1="215.332" x2="173.668" y2="200.332"/>
<line fill="none" stroke="#000000" stroke-width="1.5" x1="73.668" y1="215.332" x2="73.668" y2="200.332"/>
<line fill="none" stroke="#000000" x1="83.668" y1="211.582" x2="83.668" y2="204.082"/>
<line fill="none" stroke="#000000" x1="63.668" y1="211.582" x2="63.668" y2="204.082"/>
<line fill="none" stroke="#000000" x1="53.668" y1="211.582" x2="53.668" y2="204.082"/>
<line fill="none" stroke="#000000" x1="43.668" y1="211.582" x2="43.668" y2="204.082"/>
<line fill="none" stroke="#000000" x1="93.668" y1="211.582" x2="93.668" y2="204.082"/>
<line fill="none" stroke="#000000" x1="103.668" y1="211.582" x2="103.668" y2="204.082"/>
<line fill="none" stroke="#000000" x1="113.668" y1="211.582" x2="113.668" y2="204.082"/>
<line fill="none" stroke="#000000" x1="123.668" y1="211.582" x2="123.668" y2="204.082"/>
<line fill="none" stroke="#000000" x1="133.668" y1="211.582" x2="133.668" y2="204.082"/>
<line fill="none" stroke="#000000" x1="143.668" y1="211.582" x2="143.668" y2="204.082"/>
<line fill="none" stroke="#000000" x1="153.668" y1="211.582" x2="153.668" y2="204.082"/>
<line fill="none" stroke="#000000" x1="163.668" y1="211.582" x2="163.668" y2="204.082"/>
<line fill="none" stroke="#000000" x1="183.668" y1="211.582" x2="183.668" y2="204.082"/>
<line fill="none" stroke="#000000" x1="193.668" y1="211.582" x2="193.668" y2="204.082"/>
<line fill="none" stroke="#000000" x1="203.668" y1="211.582" x2="203.668" y2="204.082"/>
<line fill="none" stroke="#000000" x1="213.668" y1="211.582" x2="213.668" y2="204.082"/>
<line fill="none" stroke="#000000" x1="223.668" y1="211.582" x2="223.668" y2="204.082"/>
<line fill="none" stroke="#000000" x1="233.668" y1="211.582" x2="233.668" y2="204.082"/>
<line fill="none" stroke="#000000" x1="243.668" y1="211.582" x2="243.668" y2="204.082"/>
<line fill="none" stroke="#000000" x1="253.668" y1="211.582" x2="253.668" y2="204.082"/>
<line fill="none" stroke="#000000" x1="263.668" y1="211.582" x2="263.668" y2="204.082"/>
<line fill="none" stroke="#000000" x1="283.668" y1="211.582" x2="283.668" y2="204.082"/>
<line fill="none" stroke="#000000" x1="293.668" y1="211.582" x2="293.668" y2="204.082"/>
<line fill="none" stroke="#000000" x1="303.668" y1="211.582" x2="303.668" y2="204.082"/>
<line fill="none" stroke="#000000" x1="313.668" y1="211.582" x2="313.668" y2="204.082"/>
<line fill="none" stroke="#000000" x1="323.668" y1="211.582" x2="323.668" y2="204.082"/>
<line fill="none" stroke="#000000" x1="333.668" y1="211.582" x2="333.668" y2="204.082"/>
<line fill="none" stroke="#000000" x1="343.668" y1="211.582" x2="343.668" y2="204.082"/>
<line fill="none" stroke="#000000" x1="353.668" y1="211.582" x2="353.668" y2="204.082"/>
<line fill="none" stroke="#000000" x1="363.668" y1="211.582" x2="363.668" y2="204.082"/>
<line fill="none" stroke="#000000" x1="383.668" y1="211.582" x2="383.668" y2="204.082"/>
<line fill="none" stroke="#000000" x1="393.668" y1="211.582" x2="393.668" y2="204.082"/>
<line fill="none" stroke="#000000" x1="403.668" y1="211.582" x2="403.668" y2="204.082"/>
<line fill="none" stroke="#000000" x1="413.668" y1="211.582" x2="413.668" y2="204.082"/>
<line fill="none" stroke="#000000" x1="423.668" y1="211.582" x2="423.668" y2="204.082"/>
<line fill="none" stroke="#000000" stroke-width="1.5" x1="26.168" y1="157.832" x2="41.168" y2="157.832"/>
<line fill="none" stroke="#000000" stroke-width="1.5" x1="26.168" y1="207.832" x2="41.168" y2="207.832"/>
<line fill="none" stroke="#000000" stroke-width="1.5" x1="26.168" y1="107.832" x2="41.168" y2="107.832"/>
<line fill="none" stroke="#000000" stroke-width="1.5" x1="26.168" y1="57.832" x2="41.168" y2="57.832"/>
<line fill="none" stroke="#000000" stroke-width="1.5" x1="26.168" y1="7.832" x2="41.168" y2="7.832"/>
<line fill="none" stroke="#000000" x1="29.918" y1="17.832" x2="37.418" y2="17.832"/>
<line fill="none" stroke="#000000" x1="29.918" y1="27.832" x2="37.418" y2="27.832"/>
<line fill="none" stroke="#000000" x1="29.918" y1="37.832" x2="37.418" y2="37.832"/>
<line fill="none" stroke="#000000" x1="29.918" y1="47.832" x2="37.418" y2="47.832"/>
<line fill="none" stroke="#000000" x1="29.918" y1="67.832" x2="37.418" y2="67.832"/>
<line fill="none" stroke="#000000" x1="29.918" y1="77.832" x2="37.418" y2="77.832"/>
<line fill="none" stroke="#000000" x1="29.918" y1="87.832" x2="37.418" y2="87.832"/>
<line fill="none" stroke="#000000" x1="29.918" y1="97.832" x2="37.418" y2="97.832"/>
<line fill="none" stroke="#000000" x1="29.918" y1="117.832" x2="37.418" y2="117.832"/>
<line fill="none" stroke="#000000" x1="29.918" y1="127.832" x2="37.418" y2="127.832"/>
<line fill="none" stroke="#000000" x1="29.918" y1="137.832" x2="37.418" y2="137.832"/>
<line fill="none" stroke="#000000" x1="29.918" y1="147.832" x2="37.418" y2="147.832"/>
<line fill="none" stroke="#000000" x1="29.918" y1="167.832" x2="37.418" y2="167.832"/>
<line fill="none" stroke="#000000" x1="29.918" y1="177.832" x2="37.418" y2="177.832"/>
<line fill="none" stroke="#000000" x1="29.918" y1="187.832" x2="37.418" y2="187.832"/>
<line fill="none" stroke="#000000" x1="29.918" y1="197.832" x2="37.418" y2="197.832"/>
<g>
	<path d="M4.344,163.457c-1.125,0-1.962-0.442-2.512-1.328c-0.549-0.885-0.824-2.229-0.824-4.031c0-0.958,0.084-1.786,0.254-2.484   c0.169-0.698,0.406-1.274,0.711-1.73c0.305-0.456,0.67-0.793,1.098-1.012s0.893-0.328,1.398-0.328c1.141,0,1.99,0.44,2.547,1.32   c0.557,0.88,0.836,2.211,0.836,3.992c0,1.844-0.298,3.238-0.895,4.184S5.49,163.457,4.344,163.457z M2.531,157.863   c0,1.698,0.158,2.944,0.473,3.738c0.315,0.794,0.803,1.191,1.465,1.191c0.63,0,1.098-0.374,1.402-1.121   c0.305-0.747,0.457-1.905,0.457-3.473c0-1.198-0.078-2.168-0.234-2.91s-0.374-1.274-0.652-1.598   c-0.279-0.323-0.616-0.484-1.012-0.484c-0.359,0-0.66,0.107-0.902,0.32c-0.242,0.214-0.438,0.521-0.586,0.922   c-0.148,0.401-0.254,0.89-0.316,1.465C2.563,156.49,2.531,157.14,2.531,157.863z"/>
	<path d="M11.289,161.52v1.813H9.711v-1.813H11.289z"/>
	<path d="M13.313,162.902v-1.656h0.945c0.156,0.531,0.392,0.922,0.707,1.172s0.723,0.375,1.223,0.375   c0.693,0,1.216-0.208,1.57-0.625c0.354-0.417,0.531-1.039,0.531-1.867c0-0.552-0.094-1.009-0.281-1.371   c-0.188-0.362-0.44-0.624-0.758-0.785c-0.318-0.161-0.688-0.242-1.109-0.242c-0.354,0-0.659,0.022-0.914,0.066   c-0.255,0.044-0.529,0.113-0.82,0.207l-0.625-0.367v-5.141h4.305c0.177,0,0.305-0.014,0.383-0.043   c0.078-0.028,0.141-0.073,0.188-0.133c0.047-0.06,0.102-0.173,0.164-0.34h0.609l-0.117,1.813H14.82v3.43   c0.271-0.114,0.565-0.2,0.883-0.258c0.318-0.057,0.635-0.086,0.953-0.086c0.62,0,1.169,0.126,1.648,0.379   c0.479,0.253,0.849,0.612,1.109,1.078c0.26,0.466,0.391,1.007,0.391,1.621c0,0.698-0.146,1.297-0.438,1.797   s-0.713,0.88-1.266,1.141c-0.552,0.261-1.206,0.391-1.961,0.391C15.24,163.457,14.297,163.272,13.313,162.902z"/>
</g>
<g>
	<path d="M4.344,213.457c-1.125,0-1.962-0.442-2.512-1.328c-0.549-0.885-0.824-2.229-0.824-4.031c0-0.958,0.084-1.786,0.254-2.484   c0.169-0.698,0.406-1.274,0.711-1.73c0.305-0.456,0.67-0.793,1.098-1.012s0.893-0.328,1.398-0.328c1.141,0,1.99,0.44,2.547,1.32   c0.557,0.88,0.836,2.211,0.836,3.992c0,1.844-0.298,3.238-0.895,4.184S5.49,213.457,4.344,213.457z M2.531,207.863   c0,1.698,0.158,2.944,0.473,3.738c0.315,0.794,0.803,1.191,1.465,1.191c0.63,0,1.098-0.374,1.402-1.121   c0.305-0.747,0.457-1.905,0.457-3.473c0-1.198-0.078-2.168-0.234-2.91s-0.374-1.274-0.652-1.598   c-0.279-0.323-0.616-0.484-1.012-0.484c-0.359,0-0.66,0.107-0.902,0.32c-0.242,0.214-0.438,0.521-0.586,0.922   c-0.148,0.401-0.254,0.89-0.316,1.465C2.563,206.49,2.531,207.14,2.531,207.863z"/>
	<path d="M11.289,211.52v1.813H9.711v-1.813H11.289z"/>
	<path d="M16.484,213.457c-1.125,0-1.962-0.442-2.512-1.328c-0.549-0.885-0.824-2.229-0.824-4.031c0-0.958,0.084-1.786,0.254-2.484   c0.169-0.698,0.406-1.274,0.711-1.73c0.305-0.456,0.67-0.793,1.098-1.012s0.893-0.328,1.398-0.328c1.141,0,1.99,0.44,2.547,1.32   c0.557,0.88,0.836,2.211,0.836,3.992c0,1.844-0.298,3.238-0.895,4.184S17.63,213.457,16.484,213.457z M14.672,207.863   c0,1.698,0.158,2.944,0.473,3.738c0.315,0.794,0.803,1.191,1.465,1.191c0.63,0,1.098-0.374,1.402-1.121   c0.305-0.747,0.457-1.905,0.457-3.473c0-1.198-0.078-2.168-0.234-2.91s-0.374-1.274-0.652-1.598   c-0.279-0.323-0.616-0.484-1.012-0.484c-0.359,0-0.66,0.107-0.902,0.32c-0.242,0.214-0.438,0.521-0.586,0.922   c-0.148,0.401-0.254,0.89-0.316,1.465C14.703,206.49,14.672,207.14,14.672,207.863z"/>
</g>
<g>
	<path d="M5.43,111.293c0,0.302,0.017,0.53,0.051,0.684c0.034,0.154,0.094,0.279,0.18,0.375c0.086,0.097,0.209,0.172,0.371,0.227   s0.365,0.097,0.609,0.125c0.245,0.029,0.568,0.048,0.969,0.059v0.57H1.836v-0.57c0.578-0.026,0.991-0.061,1.238-0.105   c0.248-0.044,0.436-0.11,0.566-0.199c0.13-0.088,0.225-0.213,0.285-0.375c0.06-0.161,0.09-0.424,0.09-0.789v-6.336   c0-0.208-0.037-0.36-0.109-0.457c-0.073-0.096-0.18-0.145-0.32-0.145c-0.167,0-0.404,0.086-0.711,0.258s-0.688,0.409-1.141,0.711   l-0.344-0.602l3.656-2.18h0.43c-0.031,0.5-0.047,1.193-0.047,2.078V111.293z"/>
	<path d="M11.289,111.52v1.813H9.711v-1.813H11.289z"/>
	<path d="M16.484,113.457c-1.125,0-1.962-0.442-2.512-1.328c-0.549-0.885-0.824-2.229-0.824-4.031c0-0.958,0.084-1.786,0.254-2.484   c0.169-0.698,0.406-1.274,0.711-1.73c0.305-0.456,0.67-0.793,1.098-1.012s0.893-0.328,1.398-0.328c1.141,0,1.99,0.44,2.547,1.32   c0.557,0.88,0.836,2.211,0.836,3.992c0,1.844-0.298,3.238-0.895,4.184S17.63,113.457,16.484,113.457z M14.672,107.863   c0,1.698,0.158,2.944,0.473,3.738c0.315,0.794,0.803,1.191,1.465,1.191c0.63,0,1.098-0.374,1.402-1.121   c0.305-0.747,0.457-1.905,0.457-3.473c0-1.198-0.078-2.168-0.234-2.91s-0.374-1.274-0.652-1.598   c-0.279-0.323-0.616-0.484-1.012-0.484c-0.359,0-0.66,0.107-0.902,0.32c-0.242,0.214-0.438,0.521-0.586,0.922   c-0.148,0.401-0.254,0.89-0.316,1.465C14.703,106.49,14.672,107.14,14.672,107.863z"/>
</g>
<g>
	<path d="M5.43,61.293c0,0.302,0.017,0.53,0.051,0.684c0.034,0.154,0.094,0.279,0.18,0.375c0.086,0.097,0.209,0.172,0.371,0.227   s0.365,0.097,0.609,0.125c0.245,0.029,0.568,0.048,0.969,0.059v0.57H1.836v-0.57c0.578-0.026,0.991-0.061,1.238-0.105   c0.248-0.044,0.436-0.11,0.566-0.199c0.13-0.088,0.225-0.213,0.285-0.375c0.06-0.161,0.09-0.424,0.09-0.789v-6.336   c0-0.208-0.037-0.36-0.109-0.457c-0.073-0.096-0.18-0.145-0.32-0.145c-0.167,0-0.404,0.086-0.711,0.258s-0.688,0.409-1.141,0.711   l-0.344-0.602l3.656-2.18h0.43c-0.031,0.5-0.047,1.193-0.047,2.078V61.293z"/>
	<path d="M11.289,61.52v1.813H9.711V61.52H11.289z"/>
	<path d="M13.313,62.902v-1.656h0.945c0.156,0.531,0.392,0.922,0.707,1.172s0.723,0.375,1.223,0.375c0.693,0,1.216-0.208,1.57-0.625   c0.354-0.417,0.531-1.039,0.531-1.867c0-0.552-0.094-1.009-0.281-1.371c-0.188-0.362-0.44-0.624-0.758-0.785   c-0.318-0.161-0.688-0.242-1.109-0.242c-0.354,0-0.659,0.022-0.914,0.066c-0.255,0.044-0.529,0.113-0.82,0.207l-0.625-0.367v-5.141   h4.305c0.177,0,0.305-0.014,0.383-0.043c0.078-0.028,0.141-0.073,0.188-0.133c0.047-0.06,0.102-0.173,0.164-0.34h0.609   l-0.117,1.813H14.82v3.43c0.271-0.114,0.565-0.2,0.883-0.258c0.318-0.057,0.635-0.086,0.953-0.086c0.62,0,1.169,0.126,1.648,0.379   c0.479,0.253,0.849,0.612,1.109,1.078c0.26,0.466,0.391,1.007,0.391,1.621c0,0.698-0.146,1.297-0.438,1.797   s-0.713,0.88-1.266,1.141c-0.552,0.261-1.206,0.391-1.961,0.391C15.24,63.457,14.297,63.272,13.313,62.902z"/>
</g>
<g>
	<path d="M5.484,12.082c0.255,0,0.461-0.016,0.617-0.047s0.281-0.083,0.375-0.156c0.094-0.073,0.168-0.168,0.223-0.285   s0.124-0.298,0.207-0.543H7.57l-0.133,2.281h-6.43v-0.375c0.224-0.547,0.526-1.106,0.906-1.68c0.38-0.573,0.919-1.247,1.617-2.023   C4.135,8.587,4.57,8.082,4.836,7.738c0.292-0.375,0.509-0.699,0.652-0.973s0.246-0.531,0.309-0.773s0.094-0.485,0.094-0.73   c0-0.391-0.063-0.735-0.188-1.035C5.578,3.927,5.387,3.691,5.129,3.52S4.547,3.262,4.156,3.262c-0.974,0-1.63,0.542-1.969,1.625   H1.242v-1.5c0.63-0.297,1.22-0.512,1.77-0.645s1.043-0.199,1.48-0.199c0.969,0,1.701,0.212,2.195,0.637   C7.182,3.604,7.43,4.22,7.43,5.027c0,0.276-0.027,0.53-0.082,0.762C7.293,6.021,7.207,6.25,7.09,6.477s-0.275,0.47-0.473,0.73   C6.419,7.468,6.201,7.732,5.961,8c-0.24,0.269-0.654,0.715-1.242,1.34c-0.99,1.047-1.716,1.961-2.18,2.742H5.484z"/>
	<path d="M11.289,11.52v1.813H9.711V11.52H11.289z"/>
	<path d="M16.484,13.457c-1.125,0-1.962-0.442-2.512-1.328c-0.549-0.885-0.824-2.229-0.824-4.031c0-0.958,0.084-1.786,0.254-2.484   c0.169-0.698,0.406-1.274,0.711-1.73c0.305-0.456,0.67-0.793,1.098-1.012s0.893-0.328,1.398-0.328c1.141,0,1.99,0.44,2.547,1.32   c0.557,0.88,0.836,2.211,0.836,3.992c0,1.844-0.298,3.238-0.895,4.184S17.63,13.457,16.484,13.457z M14.672,7.863   c0,1.698,0.158,2.944,0.473,3.738c0.315,0.794,0.803,1.191,1.465,1.191c0.63,0,1.098-0.374,1.402-1.121   c0.305-0.747,0.457-1.905,0.457-3.473c0-1.198-0.078-2.168-0.234-2.91s-0.374-1.274-0.652-1.598   c-0.279-0.323-0.616-0.484-1.012-0.484c-0.359,0-0.66,0.107-0.902,0.32c-0.242,0.214-0.438,0.521-0.586,0.922   c-0.148,0.401-0.254,0.89-0.316,1.465C14.703,6.49,14.672,7.14,14.672,7.863z"/>
</g>
<g>
	<path d="M392.06,18.301c-0.078-0.411-0.158-0.807-0.242-1.188c-0.084-0.38-0.17-0.734-0.258-1.063s-0.162-0.543-0.219-0.645   s-0.119-0.172-0.184-0.211s-0.146-0.059-0.246-0.059c-0.109,0-0.209,0.025-0.297,0.074c-0.088,0.05-0.186,0.136-0.289,0.258   c-0.104,0.123-0.242,0.314-0.414,0.574l-0.508-0.336c0.328-0.495,0.643-0.864,0.945-1.109c0.303-0.245,0.658-0.367,1.07-0.367   c0.162,0,0.303,0.019,0.426,0.055c0.123,0.037,0.23,0.093,0.324,0.168c0.094,0.076,0.178,0.173,0.25,0.293   c0.072,0.12,0.143,0.283,0.211,0.488c0.068,0.206,0.131,0.461,0.191,0.766s0.113,0.621,0.16,0.949h0.078   c0.5-0.703,0.879-1.217,1.137-1.543c0.258-0.325,0.475-0.567,0.652-0.727c0.178-0.159,0.348-0.271,0.512-0.336   c0.164-0.065,0.381-0.098,0.652-0.098c0.244,0,0.445,0.031,0.602,0.094l-0.313,1.414h-0.547c-0.031-0.219-0.123-0.328-0.273-0.328   c-0.047,0-0.096,0.008-0.148,0.023s-0.115,0.05-0.191,0.102c-0.076,0.052-0.186,0.154-0.332,0.305   c-0.146,0.151-0.311,0.336-0.492,0.555s-0.369,0.448-0.563,0.688l-0.531,0.664c0.094,0.5,0.182,0.933,0.266,1.297   c0.084,0.365,0.158,0.668,0.223,0.91s0.123,0.434,0.172,0.574s0.104,0.246,0.16,0.316s0.115,0.12,0.176,0.148   c0.061,0.029,0.129,0.043,0.207,0.043c0.141,0,0.277-0.055,0.41-0.164s0.324-0.356,0.574-0.742l0.508,0.336   c-0.365,0.542-0.693,0.923-0.988,1.145s-0.645,0.332-1.051,0.332c-0.225,0-0.414-0.041-0.57-0.121s-0.291-0.209-0.406-0.387   c-0.115-0.177-0.217-0.453-0.305-0.828c-0.162-0.667-0.26-1.177-0.297-1.531h-0.078c-0.553,0.776-0.963,1.333-1.23,1.672   c-0.268,0.339-0.49,0.589-0.664,0.75c-0.174,0.162-0.344,0.275-0.508,0.34s-0.381,0.098-0.652,0.098   c-0.244,0-0.445-0.031-0.602-0.094l0.313-1.414h0.547c0.031,0.219,0.123,0.328,0.273,0.328c0.072,0,0.15-0.02,0.23-0.059   s0.197-0.133,0.348-0.281s0.359-0.381,0.625-0.699C391.169,19.413,391.554,18.937,392.06,18.301z"/>
	<path d="M396.532,12.48h-6.883v-0.828h6.883V12.48z"/>
	<path d="M400.49,17.879c0,1.823,0.293,3.326,0.879,4.508s1.48,1.974,2.684,2.375l-0.188,0.602c-1.525-0.401-2.695-1.265-3.508-2.59   s-1.219-2.931-1.219-4.816c0-1.88,0.408-3.485,1.223-4.816c0.814-1.331,1.982-2.196,3.504-2.598l0.211,0.602   c-1.219,0.401-2.121,1.184-2.707,2.348S400.49,16.119,400.49,17.879z"/>
	<path d="M403.837,21.449c0.238-0.292,0.479-0.595,0.719-0.91c0.238-0.315,0.531-0.715,0.875-1.199l3.5-4.969   c-0.006-0.531-0.029-0.977-0.07-1.336c-0.043-0.359-0.1-0.645-0.172-0.855c-0.074-0.211-0.17-0.366-0.289-0.465   c-0.121-0.099-0.285-0.148-0.492-0.148c-0.172,0-0.348,0.05-0.523,0.148c-0.178,0.099-0.436,0.302-0.773,0.609l-0.406-0.453   c0.479-0.474,0.875-0.795,1.191-0.965c0.314-0.169,0.629-0.254,0.941-0.254c0.4,0,0.707,0.094,0.922,0.281   c0.213,0.188,0.363,0.483,0.453,0.887c0.088,0.404,0.133,0.994,0.133,1.77c0,0.255-0.006,0.625-0.016,1.109l-0.031,1.234   c-0.043,1.172-0.063,2.094-0.063,2.766c0,0.542,0.012,0.965,0.035,1.27s0.061,0.535,0.113,0.691   c0.051,0.156,0.117,0.262,0.195,0.316s0.174,0.082,0.289,0.082c0.135,0,0.279-0.045,0.434-0.137   c0.152-0.091,0.342-0.256,0.566-0.496l0.438,0.438c-0.34,0.344-0.674,0.612-1.004,0.805c-0.332,0.192-0.625,0.289-0.879,0.289   c-0.297,0-0.523-0.06-0.68-0.18s-0.27-0.317-0.34-0.594c-0.07-0.276-0.105-0.682-0.105-1.219c0-0.739,0.055-1.95,0.164-3.633   h-0.078c-1.563,2.292-2.742,4.125-3.539,5.5h-1.586L403.837,21.449z"/>
	<path d="M415.399,17.879c0-1.76-0.292-3.223-0.875-4.387s-1.487-1.946-2.711-2.348l0.211-0.602   c1.521,0.401,2.688,1.267,3.504,2.598c0.815,1.331,1.223,2.937,1.223,4.816c0,1.886-0.406,3.491-1.219,4.816   s-1.981,2.188-3.508,2.59l-0.188-0.602c1.203-0.401,2.098-1.193,2.684-2.375S415.399,19.702,415.399,17.879z"/>
</g>
<g>
	<path d="M392.154,43.348c-0.15-0.911-0.357-2.01-0.617-3.297c-0.275-1.375-0.459-2.227-0.547-2.555   c-0.109-0.396-0.225-0.648-0.344-0.758c-0.072-0.067-0.164-0.102-0.273-0.102c-0.166,0-0.322,0.068-0.469,0.203   c-0.146,0.136-0.326,0.37-0.539,0.703l-0.508-0.336c0.359-0.536,0.695-0.915,1.008-1.137c0.313-0.221,0.662-0.332,1.047-0.332   c0.213,0,0.396,0.029,0.547,0.086c0.104,0.042,0.209,0.111,0.313,0.207c0.104,0.097,0.197,0.23,0.277,0.402s0.15,0.365,0.211,0.578   c0.061,0.214,0.127,0.521,0.199,0.922c0.125,0.672,0.246,1.379,0.363,2.121s0.217,1.431,0.301,2.066   c0.506-0.729,0.934-1.442,1.285-2.141c0.352-0.698,0.604-1.305,0.758-1.82s0.23-0.935,0.23-1.258c0-0.245-0.053-0.411-0.156-0.5   c-0.104-0.088-0.281-0.141-0.531-0.156l0.078-0.383h2.055l0.211,0.391c-0.396,1.083-0.932,2.242-1.609,3.477   c-0.666,1.208-1.43,2.412-2.289,3.609c-0.822,1.141-1.508,1.966-2.055,2.477c-0.381,0.349-0.748,0.599-1.102,0.75   c-0.281,0.114-0.58,0.172-0.898,0.172c-0.109,0-0.236-0.009-0.379-0.027c-0.143-0.019-0.254-0.043-0.332-0.074l0.336-1.516h0.617   c0,0.333,0.115,0.5,0.344,0.5c0.303,0,0.654-0.189,1.055-0.566C391.14,44.677,391.613,44.108,392.154,43.348z"/>
	<path d="M396.969,33.98h-6.883v-0.828h6.883V33.98z"/>
	<path d="M400.927,39.379c0,1.823,0.293,3.326,0.879,4.508s1.48,1.974,2.684,2.375l-0.188,0.602   c-1.525-0.401-2.695-1.265-3.508-2.59s-1.219-2.931-1.219-4.816c0-1.88,0.408-3.485,1.223-4.816   c0.814-1.331,1.982-2.196,3.504-2.598l0.211,0.602c-1.219,0.401-2.121,1.184-2.707,2.348S400.927,37.619,400.927,39.379z"/>
	<path d="M404.275,42.949c0.238-0.292,0.479-0.595,0.719-0.91c0.238-0.315,0.531-0.715,0.875-1.199l3.5-4.969   c-0.006-0.531-0.029-0.977-0.07-1.336c-0.043-0.359-0.1-0.645-0.172-0.855c-0.074-0.211-0.17-0.366-0.289-0.465   c-0.121-0.099-0.285-0.148-0.492-0.148c-0.172,0-0.348,0.05-0.523,0.148c-0.178,0.099-0.436,0.302-0.773,0.609l-0.406-0.453   c0.479-0.474,0.875-0.795,1.191-0.965c0.314-0.169,0.629-0.254,0.941-0.254c0.4,0,0.707,0.094,0.922,0.281   c0.213,0.188,0.363,0.483,0.453,0.887c0.088,0.404,0.133,0.994,0.133,1.77c0,0.255-0.006,0.625-0.016,1.109l-0.031,1.234   c-0.043,1.172-0.063,2.094-0.063,2.766c0,0.542,0.012,0.965,0.035,1.27s0.061,0.535,0.113,0.691   c0.051,0.156,0.117,0.262,0.195,0.316s0.174,0.082,0.289,0.082c0.135,0,0.279-0.045,0.434-0.137   c0.152-0.091,0.342-0.256,0.566-0.496l0.438,0.438c-0.34,0.344-0.674,0.612-1.004,0.805c-0.332,0.192-0.625,0.289-0.879,0.289   c-0.297,0-0.523-0.06-0.68-0.18s-0.27-0.317-0.34-0.594c-0.07-0.276-0.105-0.682-0.105-1.219c0-0.739,0.055-1.95,0.164-3.633   h-0.078c-1.563,2.292-2.742,4.125-3.539,5.5h-1.586L404.275,42.949z"/>
	<path d="M415.836,39.379c0-1.76-0.292-3.223-0.875-4.387s-1.487-1.946-2.711-2.348l0.211-0.602   c1.521,0.401,2.688,1.267,3.504,2.598c0.815,1.331,1.223,2.937,1.223,4.816c0,1.886-0.406,3.491-1.219,4.816   s-1.981,2.188-3.508,2.59l-0.188-0.602c1.203-0.401,2.098-1.193,2.684-2.375S415.836,41.202,415.836,39.379z"/>
</g>
<g>
	<path d="M394.81,62.637l-0.477,2.195h-5.656l-0.148-0.383l4.273-4.922c0.604-0.692,1.047-1.185,1.328-1.477l-0.047-0.055h-1.828   c-0.271,0-0.469,0.019-0.594,0.055c-0.125,0.037-0.25,0.101-0.375,0.191c-0.125,0.091-0.26,0.227-0.402,0.406   s-0.303,0.437-0.48,0.77h-0.695l0.461-2.055h5.555l0.148,0.391l-3.727,4.281c-0.725,0.828-1.352,1.531-1.883,2.109l0.047,0.055   h1.766c0.313,0,0.553-0.017,0.719-0.051c0.166-0.034,0.313-0.098,0.438-0.191s0.254-0.235,0.387-0.426   c0.133-0.19,0.299-0.488,0.496-0.895H394.81z"/>
	<path d="M395.75,55.48h-6.883v-0.828h6.883V55.48z"/>
	<path d="M399.708,60.879c0,1.823,0.293,3.326,0.879,4.508s1.48,1.974,2.684,2.375l-0.188,0.602   c-1.525-0.401-2.695-1.265-3.508-2.59s-1.219-2.931-1.219-4.816c0-1.88,0.408-3.485,1.223-4.816   c0.814-1.331,1.982-2.196,3.504-2.598l0.211,0.602c-1.219,0.401-2.121,1.184-2.707,2.348S399.708,59.119,399.708,60.879z"/>
	<path d="M403.056,64.449c0.238-0.292,0.479-0.595,0.719-0.91c0.238-0.315,0.531-0.715,0.875-1.199l3.5-4.969   c-0.006-0.531-0.029-0.977-0.07-1.336c-0.043-0.359-0.1-0.645-0.172-0.855c-0.074-0.211-0.17-0.366-0.289-0.465   c-0.121-0.099-0.285-0.148-0.492-0.148c-0.172,0-0.348,0.05-0.523,0.148c-0.178,0.099-0.436,0.302-0.773,0.609l-0.406-0.453   c0.479-0.474,0.875-0.795,1.191-0.965c0.314-0.169,0.629-0.254,0.941-0.254c0.4,0,0.707,0.094,0.922,0.281   c0.213,0.188,0.363,0.483,0.453,0.887c0.088,0.404,0.133,0.994,0.133,1.77c0,0.255-0.006,0.625-0.016,1.109l-0.031,1.234   c-0.043,1.172-0.063,2.094-0.063,2.766c0,0.542,0.012,0.965,0.035,1.27s0.061,0.535,0.113,0.691   c0.051,0.156,0.117,0.262,0.195,0.316s0.174,0.082,0.289,0.082c0.135,0,0.279-0.045,0.434-0.137   c0.152-0.091,0.342-0.256,0.566-0.496l0.438,0.438c-0.34,0.344-0.674,0.612-1.004,0.805c-0.332,0.192-0.625,0.289-0.879,0.289   c-0.297,0-0.523-0.06-0.68-0.18s-0.27-0.317-0.34-0.594c-0.07-0.276-0.105-0.682-0.105-1.219c0-0.739,0.055-1.95,0.164-3.633   h-0.078c-1.563,2.292-2.742,4.125-3.539,5.5h-1.586L403.056,64.449z"/>
	<path d="M414.618,60.879c0-1.76-0.292-3.223-0.875-4.387s-1.487-1.946-2.711-2.348l0.211-0.602   c1.521,0.401,2.688,1.267,3.504,2.598c0.815,1.331,1.223,2.937,1.223,4.816c0,1.886-0.406,3.491-1.219,4.816   s-1.981,2.188-3.508,2.59l-0.188-0.602c1.203-0.401,2.098-1.193,2.684-2.375S414.618,62.702,414.618,60.879z"/>
</g>
<g>
	<path d="M64.411,231.505c0.323-0.083,0.539-0.176,0.648-0.277s0.181-0.246,0.215-0.434c0.034-0.188,0.051-0.474,0.051-0.859v-1.281   h-4.344v-0.586l4.57-6.898h1.117v6.727h0.164c0.302,0,0.518-0.022,0.648-0.066c0.13-0.044,0.238-0.122,0.324-0.234   s0.165-0.296,0.238-0.551h0.594l-0.094,1.609h-1.875v1.281c0,0.349,0.012,0.604,0.035,0.766s0.063,0.289,0.117,0.383   s0.135,0.172,0.242,0.234c0.106,0.063,0.28,0.125,0.52,0.188v0.383h-3.172V231.505z M62.27,227.896h3.055v-1.945   c0-0.489,0.008-1.038,0.023-1.645s0.034-1.063,0.055-1.371h-0.078l-3.055,4.852V227.896z"/>
	<path d="M73.583,232.013c-1.125,0-1.962-0.442-2.512-1.328c-0.55-0.886-0.824-2.229-0.824-4.031c0-0.958,0.084-1.786,0.254-2.484   c0.169-0.698,0.406-1.274,0.711-1.73s0.67-0.793,1.098-1.012c0.427-0.219,0.893-0.328,1.398-0.328c1.141,0,1.989,0.44,2.547,1.32   c0.557,0.88,0.836,2.211,0.836,3.992c0,1.844-0.298,3.238-0.895,4.184C75.599,231.54,74.728,232.013,73.583,232.013z    M71.77,226.419c0,1.698,0.157,2.944,0.473,3.738c0.315,0.794,0.803,1.191,1.465,1.191c0.63,0,1.098-0.374,1.402-1.121   s0.457-1.905,0.457-3.473c0-1.198-0.078-2.168-0.234-2.91s-0.374-1.274-0.652-1.598c-0.279-0.323-0.616-0.484-1.012-0.484   c-0.359,0-0.66,0.106-0.902,0.32s-0.438,0.521-0.586,0.922s-0.254,0.89-0.316,1.465S71.77,225.695,71.77,226.419z"/>
	<path d="M82.442,232.013c-1.125,0-1.962-0.442-2.512-1.328c-0.55-0.886-0.824-2.229-0.824-4.031c0-0.958,0.084-1.786,0.254-2.484   c0.169-0.698,0.406-1.274,0.711-1.73s0.67-0.793,1.098-1.012c0.427-0.219,0.893-0.328,1.398-0.328c1.141,0,1.989,0.44,2.547,1.32   c0.557,0.88,0.836,2.211,0.836,3.992c0,1.844-0.298,3.238-0.895,4.184C84.458,231.54,83.587,232.013,82.442,232.013z    M80.629,226.419c0,1.698,0.157,2.944,0.473,3.738c0.315,0.794,0.803,1.191,1.465,1.191c0.63,0,1.098-0.374,1.402-1.121   s0.457-1.905,0.457-3.473c0-1.198-0.078-2.168-0.234-2.91s-0.374-1.274-0.652-1.598c-0.279-0.323-0.616-0.484-1.012-0.484   c-0.359,0-0.66,0.106-0.902,0.32s-0.438,0.521-0.586,0.922s-0.254,0.89-0.316,1.465S80.629,225.695,80.629,226.419z"/>
</g>
<g>
	<path d="M161.551,231.458v-1.656h0.945c0.156,0.531,0.392,0.922,0.707,1.172c0.315,0.25,0.723,0.375,1.223,0.375   c0.692,0,1.216-0.208,1.57-0.625c0.354-0.417,0.531-1.039,0.531-1.867c0-0.552-0.094-1.009-0.281-1.371s-0.44-0.624-0.758-0.785   c-0.318-0.161-0.688-0.242-1.109-0.242c-0.354,0-0.659,0.022-0.914,0.066c-0.255,0.044-0.529,0.113-0.82,0.207l-0.625-0.367v-5.141   h4.305c0.177,0,0.305-0.015,0.383-0.043s0.141-0.073,0.188-0.133s0.102-0.173,0.164-0.34h0.609l-0.117,1.813h-4.492v3.43   c0.271-0.114,0.565-0.2,0.883-0.258c0.317-0.058,0.635-0.086,0.953-0.086c0.62,0,1.169,0.126,1.648,0.379   c0.479,0.253,0.849,0.612,1.109,1.078c0.26,0.466,0.391,1.007,0.391,1.621c0,0.698-0.146,1.297-0.438,1.797   c-0.292,0.5-0.714,0.88-1.266,1.141c-0.552,0.261-1.206,0.391-1.961,0.391C163.478,232.013,162.536,231.828,161.551,231.458z"/>
	<path d="M173.583,232.013c-1.125,0-1.962-0.442-2.512-1.328c-0.55-0.886-0.824-2.229-0.824-4.031c0-0.958,0.084-1.786,0.254-2.484   c0.169-0.698,0.406-1.274,0.711-1.73s0.67-0.793,1.098-1.012c0.427-0.219,0.893-0.328,1.398-0.328c1.141,0,1.989,0.44,2.547,1.32   c0.557,0.88,0.836,2.211,0.836,3.992c0,1.844-0.298,3.238-0.895,4.184C175.599,231.54,174.728,232.013,173.583,232.013z    M171.77,226.419c0,1.698,0.157,2.944,0.473,3.738c0.315,0.794,0.803,1.191,1.465,1.191c0.63,0,1.098-0.374,1.402-1.121   s0.457-1.905,0.457-3.473c0-1.198-0.078-2.168-0.234-2.91s-0.374-1.274-0.652-1.598c-0.279-0.323-0.616-0.484-1.012-0.484   c-0.359,0-0.66,0.106-0.902,0.32s-0.438,0.521-0.586,0.922s-0.254,0.89-0.316,1.465S171.77,225.695,171.77,226.419z"/>
	<path d="M182.442,232.013c-1.125,0-1.962-0.442-2.512-1.328c-0.55-0.886-0.824-2.229-0.824-4.031c0-0.958,0.084-1.786,0.254-2.484   c0.169-0.698,0.406-1.274,0.711-1.73s0.67-0.793,1.098-1.012c0.427-0.219,0.893-0.328,1.398-0.328c1.141,0,1.989,0.44,2.547,1.32   c0.557,0.88,0.836,2.211,0.836,3.992c0,1.844-0.298,3.238-0.895,4.184C184.458,231.54,183.587,232.013,182.442,232.013z    M180.629,226.419c0,1.698,0.157,2.944,0.473,3.738c0.315,0.794,0.803,1.191,1.465,1.191c0.63,0,1.098-0.374,1.402-1.121   s0.457-1.905,0.457-3.473c0-1.198-0.078-2.168-0.234-2.91s-0.374-1.274-0.652-1.598c-0.279-0.323-0.616-0.484-1.012-0.484   c-0.359,0-0.66,0.106-0.902,0.32s-0.438,0.521-0.586,0.922s-0.254,0.89-0.316,1.465S180.629,225.695,180.629,226.419z"/>
</g>
<g>
	<path d="M202.576,244.957c0.27-0.328,0.539-0.669,0.809-1.023s0.598-0.805,0.984-1.35l3.938-5.59   c-0.006-0.598-0.032-1.099-0.079-1.503s-0.111-0.726-0.193-0.962c-0.082-0.238-0.19-0.412-0.325-0.523s-0.319-0.167-0.554-0.167   c-0.193,0-0.39,0.056-0.589,0.167s-0.489,0.34-0.87,0.686l-0.457-0.51c0.539-0.533,0.986-0.895,1.34-1.086   c0.354-0.189,0.708-0.285,1.059-0.285c0.451,0,0.797,0.105,1.037,0.316s0.41,0.544,0.51,0.998s0.149,1.117,0.149,1.99   c0,0.287-0.006,0.703-0.018,1.248l-0.035,1.389c-0.047,1.318-0.07,2.355-0.07,3.111c0,0.609,0.013,1.086,0.04,1.428   c0.026,0.344,0.069,0.603,0.127,0.778s0.132,0.294,0.22,0.356c0.088,0.061,0.196,0.092,0.325,0.092   c0.152,0,0.315-0.051,0.488-0.154c0.173-0.102,0.385-0.288,0.637-0.558l0.492,0.492c-0.381,0.387-0.757,0.688-1.129,0.905   s-0.702,0.325-0.989,0.325c-0.334,0-0.589-0.067-0.765-0.202s-0.303-0.357-0.382-0.668s-0.119-0.768-0.119-1.371   c0-0.832,0.062-2.194,0.185-4.087h-0.088c-1.758,2.578-3.085,4.641-3.981,6.188h-1.784L202.576,244.957z"/>
	<path d="M219.725,232.811l-6.346,16.356H212l6.363-16.356H219.725z"/>
	<path d="M229.229,245.388h-3.463v-0.431c0.229-0.07,0.393-0.132,0.492-0.185s0.183-0.126,0.25-0.22s0.12-0.238,0.158-0.436   c0.038-0.195,0.057-0.493,0.057-0.892v-2.303c0-0.41-0.012-0.782-0.035-1.116s-0.063-0.607-0.119-0.822   c-0.056-0.213-0.123-0.38-0.202-0.5s-0.173-0.223-0.281-0.309c-0.108-0.084-0.233-0.151-0.374-0.201s-0.325-0.075-0.554-0.075   s-0.445,0.046-0.65,0.136c-0.205,0.092-0.431,0.248-0.677,0.471s-0.425,0.442-0.536,0.659s-0.167,0.466-0.167,0.747v3.278   c0,0.504,0.023,0.854,0.07,1.05c0.047,0.197,0.136,0.347,0.268,0.449s0.347,0.191,0.646,0.268v0.431h-3.445v-0.431   c0.229-0.07,0.391-0.132,0.488-0.185s0.179-0.126,0.246-0.22s0.12-0.237,0.158-0.431s0.057-0.495,0.057-0.905v-3.832   c0-0.375-0.006-0.677-0.018-0.905s-0.053-0.411-0.123-0.55c-0.07-0.137-0.177-0.239-0.321-0.307s-0.347-0.125-0.611-0.172v-0.466   l2.057-0.079h0.536l-0.097,1.433l0.123,0.035c0.434-0.439,0.784-0.753,1.05-0.94s0.536-0.332,0.809-0.436   c0.272-0.102,0.561-0.153,0.866-0.153c0.316,0,0.599,0.037,0.848,0.11s0.469,0.186,0.659,0.338s0.347,0.342,0.47,0.566   c0.123,0.227,0.215,0.497,0.277,0.813s0.092,0.718,0.092,1.204v3.313c0,0.404,0.012,0.697,0.035,0.879s0.064,0.322,0.123,0.422   s0.144,0.184,0.255,0.251s0.305,0.139,0.58,0.215V245.388z"/>
	<path d="M233.23,238.339l0.123,0.035c0.352-0.352,0.64-0.616,0.866-0.796c0.226-0.178,0.444-0.321,0.655-0.43   s0.409-0.187,0.593-0.233s0.374-0.07,0.567-0.07c0.586,0,1.063,0.135,1.433,0.404s0.624,0.683,0.765,1.239   c0.439-0.445,0.795-0.773,1.068-0.984s0.551-0.373,0.835-0.488c0.284-0.113,0.59-0.171,0.918-0.171   c0.393,0,0.731,0.058,1.015,0.171c0.284,0.115,0.524,0.291,0.721,0.527c0.196,0.238,0.34,0.535,0.431,0.893   s0.136,0.838,0.136,1.441v3.313c0,0.445,0.015,0.753,0.044,0.923s0.072,0.302,0.127,0.396s0.139,0.175,0.25,0.241   c0.111,0.068,0.299,0.137,0.563,0.207v0.431h-3.454v-0.431c0.229-0.07,0.393-0.132,0.492-0.185s0.183-0.126,0.25-0.22   s0.12-0.238,0.158-0.436c0.038-0.195,0.057-0.493,0.057-0.892v-2.303c0-0.498-0.013-0.909-0.04-1.235   c-0.026-0.324-0.067-0.584-0.123-0.777s-0.123-0.346-0.202-0.457s-0.168-0.208-0.268-0.29s-0.217-0.146-0.352-0.193   s-0.313-0.07-0.536-0.07c-0.234,0-0.453,0.047-0.655,0.141s-0.422,0.252-0.659,0.475s-0.409,0.447-0.514,0.673   s-0.158,0.49-0.158,0.795v3.208c0,0.445,0.015,0.753,0.044,0.923s0.072,0.302,0.127,0.396s0.139,0.175,0.25,0.241   c0.111,0.068,0.299,0.137,0.563,0.207v0.431h-3.454v-0.431c0.229-0.07,0.393-0.132,0.492-0.185s0.183-0.126,0.25-0.22   s0.12-0.238,0.158-0.436c0.038-0.195,0.057-0.493,0.057-0.892v-2.303c0-0.521-0.015-0.946-0.044-1.274s-0.075-0.592-0.136-0.791   s-0.141-0.36-0.237-0.483s-0.195-0.217-0.294-0.281s-0.217-0.112-0.352-0.146c-0.135-0.031-0.287-0.048-0.457-0.048   c-0.24,0-0.466,0.055-0.677,0.163s-0.426,0.265-0.646,0.47s-0.385,0.419-0.497,0.642s-0.167,0.463-0.167,0.721v3.296   c0,0.334,0.009,0.589,0.026,0.765s0.045,0.313,0.083,0.413s0.086,0.181,0.145,0.241c0.059,0.063,0.142,0.121,0.25,0.176   c0.108,0.057,0.271,0.113,0.488,0.172v0.431h-3.445v-0.431c0.223-0.07,0.382-0.132,0.479-0.185s0.18-0.126,0.25-0.22   s0.123-0.237,0.158-0.431s0.053-0.495,0.053-0.905v-3.832c0-0.375-0.006-0.677-0.018-0.905s-0.053-0.411-0.123-0.55   c-0.07-0.137-0.177-0.239-0.321-0.307s-0.347-0.125-0.611-0.172v-0.466l2.057-0.079h0.536L233.23,238.339z"/>
</g>
<g>
	<path d="M267.497,221.528v0.383c-0.802,0-1.513,0.172-2.133,0.516c-0.62,0.344-1.134,0.849-1.543,1.516   c-0.409,0.667-0.697,1.458-0.863,2.375l0.078,0.031c0.438-0.313,0.868-0.542,1.293-0.688c0.424-0.146,0.884-0.219,1.379-0.219   c0.588,0,1.09,0.129,1.504,0.387s0.725,0.62,0.934,1.086c0.208,0.466,0.313,1.012,0.313,1.637c0,0.677-0.13,1.274-0.391,1.793   c-0.261,0.519-0.663,0.926-1.207,1.223c-0.544,0.297-1.215,0.445-2.012,0.445c-1.141,0-2.001-0.354-2.582-1.063   c-0.581-0.708-0.871-1.753-0.871-3.133c0-0.927,0.146-1.794,0.438-2.602c0.292-0.808,0.706-1.512,1.242-2.113   c0.536-0.602,1.159-1.075,1.867-1.422c0.708-0.347,1.453-0.54,2.234-0.582L267.497,221.528z M265.168,226.263   c-0.255,0-0.501,0.028-0.738,0.086c-0.237,0.058-0.46,0.141-0.668,0.25c-0.208,0.109-0.412,0.247-0.609,0.414   c-0.063,0.058-0.109,0.117-0.141,0.18c-0.052,0.099-0.086,0.222-0.102,0.367s-0.023,0.391-0.023,0.734   c0,0.995,0.167,1.753,0.5,2.273c0.333,0.521,0.838,0.781,1.516,0.781c0.391,0,0.719-0.067,0.984-0.203s0.48-0.321,0.645-0.559   s0.281-0.516,0.352-0.836s0.105-0.668,0.105-1.043c0-0.771-0.159-1.371-0.477-1.801   C266.194,226.478,265.747,226.263,265.168,226.263z"/>
	<path d="M273.583,232.013c-1.125,0-1.962-0.442-2.512-1.328c-0.55-0.886-0.824-2.229-0.824-4.031c0-0.958,0.084-1.786,0.254-2.484   c0.169-0.698,0.406-1.274,0.711-1.73s0.67-0.793,1.098-1.012c0.427-0.219,0.893-0.328,1.398-0.328c1.141,0,1.989,0.44,2.547,1.32   c0.557,0.88,0.836,2.211,0.836,3.992c0,1.844-0.298,3.238-0.895,4.184C275.599,231.54,274.728,232.013,273.583,232.013z    M271.77,226.419c0,1.698,0.157,2.944,0.473,3.738c0.315,0.794,0.803,1.191,1.465,1.191c0.63,0,1.098-0.374,1.402-1.121   s0.457-1.905,0.457-3.473c0-1.198-0.078-2.168-0.234-2.91s-0.374-1.274-0.652-1.598c-0.279-0.323-0.616-0.484-1.012-0.484   c-0.359,0-0.66,0.106-0.902,0.32s-0.438,0.521-0.586,0.922s-0.254,0.89-0.316,1.465S271.77,225.695,271.77,226.419z"/>
	<path d="M282.442,232.013c-1.125,0-1.962-0.442-2.512-1.328c-0.55-0.886-0.824-2.229-0.824-4.031c0-0.958,0.084-1.786,0.254-2.484   c0.169-0.698,0.406-1.274,0.711-1.73s0.67-0.793,1.098-1.012c0.427-0.219,0.893-0.328,1.398-0.328c1.141,0,1.989,0.44,2.547,1.32   c0.557,0.88,0.836,2.211,0.836,3.992c0,1.844-0.298,3.238-0.895,4.184C284.458,231.54,283.587,232.013,282.442,232.013z    M280.629,226.419c0,1.698,0.157,2.944,0.473,3.738c0.315,0.794,0.803,1.191,1.465,1.191c0.63,0,1.098-0.374,1.402-1.121   s0.457-1.905,0.457-3.473c0-1.198-0.078-2.168-0.234-2.91s-0.374-1.274-0.652-1.598c-0.279-0.323-0.616-0.484-1.012-0.484   c-0.359,0-0.66,0.106-0.902,0.32s-0.438,0.521-0.586,0.922s-0.254,0.89-0.316,1.465S280.629,225.695,280.629,226.419z"/>
</g>
<g>
	<path d="M368.395,221.599l-4.547,10.344h-1.133v-0.383l4.211-8.914v-0.117h-3.438c-0.214,0-0.384,0.02-0.512,0.059   s-0.234,0.095-0.32,0.168s-0.157,0.169-0.215,0.289s-0.136,0.356-0.234,0.711h-0.672l0.156-2.531h6.703V221.599z"/>
	<path d="M373.583,232.013c-1.125,0-1.962-0.442-2.512-1.328s-0.824-2.229-0.824-4.031c0-0.958,0.085-1.786,0.254-2.484   s0.406-1.274,0.711-1.73s0.671-0.793,1.098-1.012s0.894-0.328,1.398-0.328c1.141,0,1.989,0.44,2.547,1.32s0.836,2.211,0.836,3.992   c0,1.844-0.298,3.238-0.895,4.184S374.728,232.013,373.583,232.013z M371.77,226.419c0,1.698,0.157,2.944,0.473,3.738   s0.804,1.191,1.465,1.191c0.63,0,1.098-0.374,1.402-1.121s0.457-1.905,0.457-3.473c0-1.198-0.078-2.168-0.234-2.91   s-0.374-1.274-0.652-1.598s-0.616-0.484-1.012-0.484c-0.359,0-0.66,0.106-0.902,0.32s-0.438,0.521-0.586,0.922   s-0.254,0.89-0.316,1.465S371.77,225.695,371.77,226.419z"/>
	<path d="M382.442,232.013c-1.125,0-1.962-0.442-2.512-1.328s-0.824-2.229-0.824-4.031c0-0.958,0.085-1.786,0.254-2.484   s0.406-1.274,0.711-1.73s0.671-0.793,1.098-1.012s0.894-0.328,1.398-0.328c1.141,0,1.989,0.44,2.547,1.32s0.836,2.211,0.836,3.992   c0,1.844-0.298,3.238-0.895,4.184S383.587,232.013,382.442,232.013z M380.629,226.419c0,1.698,0.157,2.944,0.473,3.738   s0.804,1.191,1.465,1.191c0.63,0,1.098-0.374,1.402-1.121s0.457-1.905,0.457-3.473c0-1.198-0.078-2.168-0.234-2.91   s-0.374-1.274-0.652-1.598s-0.616-0.484-1.012-0.484c-0.359,0-0.66,0.106-0.902,0.32s-0.438,0.521-0.586,0.922   s-0.254,0.89-0.316,1.465S380.629,225.695,380.629,226.419z"/>
</g>
<line fill="none" stroke="#FF0000" stroke-width="1.75" x1="378.333" y1="17.332" x2="348.333" y2="17.332"/>
<line fill="none" stroke="#00FF00" stroke-width="1.75" x1="378.333" y1="38.832" x2="348.333" y2="38.832"/>
<line fill="none" stroke="#0000FF" stroke-width="1.75" x1="378.333" y1="60.332" x2="348.333" y2="60.332"/>
</svg>