<?xml version="1.0" encoding="utf-8"?>
<!-- Generator: Adobe Illustrator 21.0.2, SVG Export Plug-In . SVG Version: 6.00 Build 0)  -->
<svg version="1.1" id="Layer_1" xmlns="http://www.w3.org/2000/svg" xmlns:xlink="http://www.w3.org/1999/xlink" x="0px" y="0px"
	 viewBox="0 0 47.9 59.3" style="enable-background:new 0 0 47.9 59.3;" xml:space="preserve">
<style type="text/css">
	
		.st0{clip-path:url(#SVGID_2_);fill:none;stroke:#000000;stroke-width:2.3616;stroke-linecap:round;stroke-linejoin:round;stroke-miterlimit:10;}
	.st1{fill:none;stroke:#000000;stroke-width:2.4238;stroke-miterlimit:10;}
	.st2{fill:none;stroke:#000000;stroke-width:2.4238;stroke-linejoin:round;stroke-miterlimit:10;}
	.st3{fill:none;stroke:#000000;stroke-width:2.4242;stroke-miterlimit:10;}
	.st4{clip-path:url(#SVGID_4_);fill:none;stroke:#000000;stroke-width:1.9669;stroke-miterlimit:10;}
	.st5{clip-path:url(#SVGID_6_);fill:none;stroke:#000000;stroke-width:1.9669;stroke-miterlimit:10;}
	.st6{clip-path:url(#SVGID_8_);fill:#FFFFFF;}
	.st7{clip-path:url(#SVGID_10_);fill:none;stroke:#000000;stroke-width:1.9669;stroke-miterlimit:10;}
	.st8{clip-path:url(#SVGID_12_);fill:#FFFFFF;}
	.st9{clip-path:url(#SVGID_14_);fill:none;stroke:#000000;stroke-width:1.9669;stroke-miterlimit:10;}
	.st10{clip-path:url(#SVGID_16_);fill:#FFFFFF;}
	.st11{clip-path:url(#SVGID_18_);fill:none;stroke:#000000;stroke-width:1.9669;stroke-miterlimit:10;}
	.st12{clip-path:url(#SVGID_20_);fill:none;stroke:#000000;stroke-width:1.9669;stroke-miterlimit:10;}
	.st13{clip-path:url(#SVGID_22_);fill:none;stroke:#000000;stroke-width:1.9669;stroke-miterlimit:10;}
	.st14{clip-path:url(#SVGID_24_);fill:none;stroke:#000000;stroke-width:1.9669;stroke-miterlimit:10;}
	.st15{fill:none;stroke:#12100B;stroke-width:2.4736;stroke-linecap:round;stroke-linejoin:round;stroke-miterlimit:10;}
	.st16{fill:#FFFFFF;}
	.st17{fill:none;stroke:#12100B;stroke-width:2.474;stroke-linecap:round;stroke-linejoin:round;stroke-miterlimit:10;}
	.st18{fill:none;stroke:#1E1B15;stroke-width:2.474;stroke-linecap:round;stroke-linejoin:round;stroke-miterlimit:10;}
	.st19{fill:#1E1B15;}
	.st20{fill:none;stroke:#000000;stroke-width:2.474;stroke-miterlimit:10;}
</style>
<g>
	<g>
		<g>
			<path class="st16" d="M34.4,32.6H13.5c-6.8,0-12.3-5.5-12.3-12.3c0-6.8,5.5-12.3,12.3-12.3h20.8c6.8,0,12.3,5.5,12.3,12.3
				C46.7,27.1,41.2,32.6,34.4,32.6"/>
		</g>
	</g>
	<g>
		<g>
			<path class="st18" d="M34.4,32.6H13.5c-6.8,0-12.3-5.5-12.3-12.3c0-6.8,5.5-12.3,12.3-12.3h20.8c6.8,0,12.3,5.5,12.3,12.3
				C46.7,27.1,41.2,32.6,34.4,32.6z"/>
		</g>
	</g>
	<g>
		<g>
			<path class="st16" d="M32.8,32.6H15.6c-4,0-7.2-3.2-7.2-7.2c0-4,3.2-7.2,7.2-7.2h17.1c4,0,7.2,3.2,7.2,7.2
				C40,29.3,36.8,32.6,32.8,32.6"/>
		</g>
	</g>
	<g>
		<g>
			<path class="st18" d="M32.8,32.6H15.6c-4,0-7.2-3.2-7.2-7.2c0-4,3.2-7.2,7.2-7.2h17.1c4,0,7.2,3.2,7.2,7.2
				C40,29.3,36.8,32.6,32.8,32.6z"/>
		</g>
	</g>
	<g>
		<g>
			<path class="st16" d="M27.4,39.5v14.1c0,2.5,2,4.5,4.5,4.5"/>
		</g>
	</g>
	<g>
		<g>
			<path class="st18" d="M27.4,39.5v14.1c0,2.5,2,4.5,4.5,4.5"/>
		</g>
	</g>
	<g>
		<g>
			<path class="st16" d="M21,39.5v14.1c0,2.5-2,4.5-4.5,4.5"/>
		</g>
	</g>
	<g>
		<g>
			<path class="st18" d="M10.1,53.6L10.1,53.6c2.5,0,4.5-2,4.5-4.5v-7.6c0-1.7,1.4-3.1,3.1-3.1h13c1.7,0,3.1,1.4,3.1,3.1v7.6
				c0,2.5,2,4.5,4.5,4.5 M21,39.5v14.1c0,2.5-2,4.5-4.5,4.5"/>
			<path class="st16" d="M14.6,43.7H9.9c-1.8,0-3.2-1.4-3.2-3.2c0-1.8-1.4-3.2-3.2-3.2H2.2"/>
			<path class="st18" d="M42.2,10.6V1.2L34,7.9 M6.1,10.3V1.6l8.2,6.3 M14.6,43.7H9.9c-1.8,0-3.2-1.4-3.2-3.2c0-1.8-1.4-3.2-3.2-3.2
				H2.2"/>
		</g>
	</g>
	<g>
		<g>
			<path class="st19" d="M17.1,25.3c0,0.9-0.8,1.7-1.7,1.7c-0.9,0-1.7-0.8-1.7-1.7c0-0.9,0.8-1.7,1.7-1.7
				C16.4,23.6,17.1,24.4,17.1,25.3"/>
			<path class="st19" d="M34.7,25.3c0,0.9-0.8,1.7-1.7,1.7s-1.7-0.8-1.7-1.7c0-0.9,0.8-1.7,1.7-1.7S34.7,24.4,34.7,25.3"/>
		</g>
	</g>
</g>
</svg>
