<?xml version="1.0" encoding="utf-8"?>
<!-- Generator: Adobe Illustrator 21.0.2, SVG Export Plug-In . SVG Version: 6.00 Build 0)  -->
<svg version="1.1" id="Layer_1" xmlns="http://www.w3.org/2000/svg" xmlns:xlink="http://www.w3.org/1999/xlink" x="0px" y="0px"
	 viewBox="0 0 60 60" style="enable-background:new 0 0 60 60;" xml:space="preserve">
<style type="text/css">
	
		.st0{clip-path:url(#SVGID_2_);fill:none;stroke:#000000;stroke-width:2.3616;stroke-linecap:round;stroke-linejoin:round;stroke-miterlimit:10;}
	.st1{fill:none;stroke:#000000;stroke-width:2.4238;stroke-miterlimit:10;}
	.st2{fill:none;stroke:#000000;stroke-width:2.4238;stroke-linejoin:round;stroke-miterlimit:10;}
	.st3{fill:none;stroke:#000000;stroke-width:2.4242;stroke-miterlimit:10;}
	.st4{clip-path:url(#SVGID_4_);fill:none;stroke:#000000;stroke-width:1.9669;stroke-miterlimit:10;}
	.st5{clip-path:url(#SVGID_6_);fill:none;stroke:#000000;stroke-width:1.9669;stroke-miterlimit:10;}
	.st6{clip-path:url(#SVGID_8_);fill:#FFFFFF;}
	.st7{clip-path:url(#SVGID_10_);fill:none;stroke:#000000;stroke-width:1.9669;stroke-miterlimit:10;}
	.st8{clip-path:url(#SVGID_12_);fill:#FFFFFF;}
	.st9{clip-path:url(#SVGID_14_);fill:none;stroke:#000000;stroke-width:1.9669;stroke-miterlimit:10;}
	.st10{clip-path:url(#SVGID_16_);fill:#FFFFFF;}
	.st11{clip-path:url(#SVGID_18_);fill:none;stroke:#000000;stroke-width:1.9669;stroke-miterlimit:10;}
	.st12{clip-path:url(#SVGID_20_);fill:none;stroke:#000000;stroke-width:1.9669;stroke-miterlimit:10;}
	.st13{clip-path:url(#SVGID_22_);fill:none;stroke:#000000;stroke-width:1.9669;stroke-miterlimit:10;}
	.st14{clip-path:url(#SVGID_24_);fill:none;stroke:#000000;stroke-width:1.9669;stroke-miterlimit:10;}
	.st15{fill:none;stroke:#12100B;stroke-width:2.4736;stroke-linecap:round;stroke-linejoin:round;stroke-miterlimit:10;}
	.st16{fill:#FFFFFF;}
	.st17{fill:none;stroke:#12100B;stroke-width:2.474;stroke-linecap:round;stroke-linejoin:round;stroke-miterlimit:10;}
	.st18{fill:none;stroke:#1E1B15;stroke-width:2.474;stroke-linecap:round;stroke-linejoin:round;stroke-miterlimit:10;}
	.st19{fill:#1E1B15;}
	.st20{fill:none;stroke:#000000;stroke-width:2.474;stroke-miterlimit:10;}
</style>
<g>
	<path class="st3" d="M42.1,57.8V40.1c0-0.5,0.4-1,1-1H48c0.5,0,0.9-0.4,1-0.9l0.8-7.1c0.1-0.6-0.4-1.1-1-1.1h-5.6c-0.5,0-1-0.4-1-1
		v-6.5c0-1.4,1.1-2.5,2.5-2.5h3.6c0.8,0,1.5-0.7,1.5-1.5v-6.7c0-0.8-0.7-1.5-1.5-1.5h-5.9c-5.9,0-10.8,4.8-10.8,10.8V29
		c0,0.5-0.4,1-1,1h-5.6c-0.5,0-1,0.4-1,1v7.1c0,0.5,0.4,1,1,1h5.6c0.5,0,1,0.4,1,1v17.7c0,0.5-0.4,1-1,1H4.2c-1.7,0-3-1.4-3-3V4.2
		c0-1.7,1.4-3,3-3h51.5c1.7,0,3,1.4,3,3v51.5c0,1.7-1.4,3-3,3H43.1C42.6,58.8,42.1,58.3,42.1,57.8z"/>
</g>
</svg>
