<?xml version="1.0" encoding="utf-8"?>
<!-- Generator: Adobe Illustrator 20.0.0, SVG Export Plug-In . SVG Version: 6.00 Build 0)  -->
<svg version="1.1" id="Layer_1" xmlns="http://www.w3.org/2000/svg" xmlns:xlink="http://www.w3.org/1999/xlink" x="0px" y="0px"
	 viewBox="0 0 37.702 64.435" enable-background="new 0 0 37.702 64.435" xml:space="preserve">
<g>
	<path d="M31.151,3.874c1.193,0,2.164,0.959,2.164,2.138v51.837c0,1.179-0.971,2.138-2.164,2.138H6.424
		c-1.193,0-2.164-0.959-2.164-2.138V6.013c0-1.179,0.971-2.138,2.164-2.138H31.151 M31.151,1.431H6.424
		c-2.561,0-4.636,2.051-4.636,4.582v51.837c0,2.531,2.076,4.582,4.636,4.582h24.727c2.561,0,4.636-2.051,4.636-4.582V6.013
		C35.788,3.482,33.712,1.431,31.151,1.431"/>
	<path fill="#FFCC05" d="M7.971,52.047c-0.171,0-0.309-0.137-0.309-0.305V12.035c0-0.169,0.138-0.305,0.309-0.305h21.636
		c0.171,0,0.309,0.137,0.309,0.305v39.707c0,0.169-0.138,0.305-0.309,0.305H7.971z"/>
	<path d="M28.68,50.826H8.898V12.951H28.68V50.826z M29.607,10.508H7.971c-0.854,0-1.545,0.683-1.545,1.527v39.707
		c0,0.844,0.692,1.527,1.545,1.527h21.636c0.853,0,1.545-0.683,1.545-1.527V12.035C31.153,11.191,30.461,10.508,29.607,10.508"/>
	
		<line fill="none" stroke="#000000" stroke-width="2.4581" stroke-linecap="round" stroke-miterlimit="10" x1="18.789" y1="7.454" x2="23.426" y2="7.454"/>
	<path d="M20.335,56.324c0,0.844-0.692,1.527-1.545,1.527c-0.854,0-1.545-0.683-1.545-1.527s0.692-1.527,1.545-1.527
		C19.643,54.796,20.335,55.48,20.335,56.324"/>
	<path d="M15.698,7.454c0,0.844-0.692,1.527-1.545,1.527c-0.854,0-1.545-0.683-1.545-1.527c0-0.844,0.692-1.527,1.545-1.527
		C15.007,5.926,15.698,6.61,15.698,7.454"/>
</g>
</svg>
