<?xml version="1.0" encoding="utf-8"?>
<!-- Generator: Adobe Illustrator 21.0.2, SVG Export Plug-In . SVG Version: 6.00 Build 0)  -->
<svg version="1.1" id="Layer_1" xmlns="http://www.w3.org/2000/svg" xmlns:xlink="http://www.w3.org/1999/xlink" x="0px" y="0px"
	 viewBox="0 0 60 60" style="enable-background:new 0 0 60 60;" xml:space="preserve">
<style type="text/css">
	
		.st0{clip-path:url(#SVGID_2_);fill:none;stroke:#000000;stroke-width:2.3616;stroke-linecap:round;stroke-linejoin:round;stroke-miterlimit:10;}
	.st1{fill:none;stroke:#000000;stroke-width:2.4238;stroke-miterlimit:10;}
	.st2{fill:none;stroke:#000000;stroke-width:2.4238;stroke-linejoin:round;stroke-miterlimit:10;}
	.st3{fill:none;stroke:#000000;stroke-width:2.4242;stroke-miterlimit:10;}
	.st4{clip-path:url(#SVGID_4_);fill:none;stroke:#000000;stroke-width:1.9669;stroke-miterlimit:10;}
	.st5{clip-path:url(#SVGID_6_);fill:none;stroke:#000000;stroke-width:1.9669;stroke-miterlimit:10;}
	.st6{clip-path:url(#SVGID_8_);fill:#FFFFFF;}
	.st7{clip-path:url(#SVGID_10_);fill:none;stroke:#000000;stroke-width:1.9669;stroke-miterlimit:10;}
	.st8{clip-path:url(#SVGID_12_);fill:#FFFFFF;}
	.st9{clip-path:url(#SVGID_14_);fill:none;stroke:#000000;stroke-width:1.9669;stroke-miterlimit:10;}
	.st10{clip-path:url(#SVGID_16_);fill:#FFFFFF;}
	.st11{clip-path:url(#SVGID_18_);fill:none;stroke:#000000;stroke-width:1.9669;stroke-miterlimit:10;}
	.st12{clip-path:url(#SVGID_20_);fill:none;stroke:#000000;stroke-width:1.9669;stroke-miterlimit:10;}
	.st13{clip-path:url(#SVGID_22_);fill:none;stroke:#000000;stroke-width:1.9669;stroke-miterlimit:10;}
	.st14{clip-path:url(#SVGID_24_);fill:none;stroke:#000000;stroke-width:1.9669;stroke-miterlimit:10;}
	.st15{fill:none;stroke:#12100B;stroke-width:2.4736;stroke-linecap:round;stroke-linejoin:round;stroke-miterlimit:10;}
	.st16{fill:#FFFFFF;}
	.st17{fill:none;stroke:#12100B;stroke-width:2.474;stroke-linecap:round;stroke-linejoin:round;stroke-miterlimit:10;}
	.st18{fill:none;stroke:#1E1B15;stroke-width:2.474;stroke-linecap:round;stroke-linejoin:round;stroke-miterlimit:10;}
	.st19{fill:#1E1B15;}
	.st20{fill:none;stroke:#000000;stroke-width:2.474;stroke-miterlimit:10;}
</style>
<g>
	<g>
		<g>
			<defs>
				<rect id="SVGID_1_" x="-0.4" y="-2" width="62" height="62"/>
			</defs>
			<clipPath id="SVGID_2_">
				<use xlink:href="#SVGID_1_"  style="overflow:visible;"/>
			</clipPath>
			<path class="st0" d="M56.8,34.8c0,0.1,0,0.2,0,0.3l-0.1-0.6C56.7,34.6,56.7,34.7,56.8,34.8c0.3-1.6,0.5-3.3,0.5-4.9
				c0-3.7-0.7-7.3-2.1-10.6c-1.4-3.2-3.3-6.2-5.8-8.7c-2.5-2.5-5.4-4.5-8.7-5.8C37.3,3.3,33.7,2.6,30,2.6c-1.7,0-3.5,0.2-5.2,0.5
				c0,0,0,0,0,0c0.1,0.1,0.2,0.1,0.3,0.1l-0.6-0.1c0.1,0,0.2,0,0.3-0.1c-2.3-1.2-4.9-1.9-7.6-1.9C13,1.2,8.9,2.9,5.9,5.9
				c-3,3-4.7,7.1-4.7,11.4c0,2.7,0.7,5.4,2,7.8c0-0.1,0-0.2,0-0.3l0.1,0.6c-0.1-0.1-0.1-0.2-0.1-0.3c-0.3,1.5-0.4,3.1-0.4,4.7
				c0,3.7,0.7,7.3,2.1,10.6c1.4,3.2,3.3,6.2,5.8,8.7c2.5,2.5,5.4,4.5,8.7,5.8c3.4,1.4,6.9,2.1,10.6,2.1c1.6,0,3.2-0.1,4.8-0.4
				c-0.1-0.1-0.2-0.1-0.3-0.2l0.6,0.1c-0.1,0-0.2,0-0.3,0c2.4,1.4,5.1,2.1,7.9,2.1c4.3,0,8.3-1.7,11.4-4.7c3-3,4.7-7.1,4.7-11.4
				C58.8,39.9,58.1,37.2,56.8,34.8z M30.1,46.6c-9.7,0-14-4.8-14-8.3c0-1.8,1.3-3.1,3.2-3.1c4.1,0,3.1,6,10.8,6c4,0,6.1-2.2,6.1-4.4
				c0-1.3-0.7-2.8-3.3-3.4l-8.6-2.2c-6.9-1.7-8.2-5.5-8.2-9c0-7.3,6.9-10.1,13.3-10.1c6,0,13,3.3,13,7.7c0,1.9-1.6,3-3.5,3
				c-3.5,0-2.9-4.9-10-4.9c-3.5,0-5.5,1.6-5.5,3.9c0,2.3,2.8,3,5.2,3.6l6.4,1.4c7,1.6,8.7,5.6,8.7,9.5
				C43.9,42.1,39.3,46.6,30.1,46.6z M34.5,56.6c0.1,0.1,0.2,0.1,0.3,0.2c0.1,0,0.2,0,0.3,0L34.5,56.6z M56.7,35.1c0-0.1,0-0.2,0-0.3
				c0-0.1-0.1-0.2-0.1-0.3L56.7,35.1z M3.3,24.9c0,0.1,0,0.2,0,0.3c0.1,0.1,0.1,0.2,0.1,0.3L3.3,24.9z M25.1,3.2
				c-0.1-0.1-0.2-0.1-0.3-0.1c-0.1,0-0.2,0-0.3,0.1L25.1,3.2z"/>
		</g>
	</g>
</g>
</svg>
