<svg id="Layer_1" data-name="Layer 1" xmlns="http://www.w3.org/2000/svg" viewBox="0 0 1740 720"><defs><style>.cls-1{fill:#bfbfbf;}.cls-2,.cls-3,.cls-4{fill:none;}.cls-3,.cls-4{stroke:#000;stroke-linecap:round;stroke-width:1.99px;}.cls-3{stroke-miterlimit:10;}.cls-4{stroke-linejoin:round;}.cls-5{isolation:isolate;font-size:57px;font-family:YandexSansText-Regular, Yandex Sans Text;}.cls-6{letter-spacing:-0.01em;}</style></defs><title>блок_под_слайд_изображение и заголовок</title><rect class="cls-1" x="1" y="1" width="1738" height="718"/><path d="M2,2H1738V718H2ZM0,720H1740V0H0Z"/><line class="cls-2" x1="1.8" y1="1.3" x2="1738.2" y2="718.7"/><line class="cls-3" x1="1.8" y1="1.3" x2="1738.2" y2="718.7"/><line class="cls-2" x1="1.8" y1="718.7" x2="1738.2" y2="1.3"/><line class="cls-3" x1="1.8" y1="718.7" x2="1738.2" y2="1.3"/><rect class="cls-1" x="755.8" y="312.7" width="228.5" height="94.6"/><polyline class="cls-1" points="830.8 333.6 830.8 343.8 840.8 343.8"/><polyline class="cls-4" points="830.8 333.6 830.8 343.8 840.8 343.8"/><path d="M831,334.2a.71.71,0,0,1,.6.3l8.3,8.4a.86.86,0,0,1,.3.6v43.6a.9.9,0,0,1-.9.9h-40a.9.9,0,0,1-.9-.9v-52a.9.9,0,0,1,.9-.9H831m0-2H799.3a2.9,2.9,0,0,0-2.9,2.9v52a2.9,2.9,0,0,0,2.9,2.9h40a2.9,2.9,0,0,0,2.9-2.9V343.5a2.79,2.79,0,0,0-.8-2l-8.3-8.4a2.88,2.88,0,0,0-2.1-.9"/><path class="cls-4" d="M833.7,358.9a3.6,3.6,0,1,0-7.2,0v7.2a3.6,3.6,0,1,0,7.2,0V364h-2.9"/><path class="cls-4" d="M803.7,365.4v.7a3.6,3.6,0,1,0,7.2,0V355.3"/><path class="cls-4" d="M815.1,369.8V355.4H818a4.3,4.3,0,1,1,0,8.6h-1.4"/><polyline class="cls-1" points="883.3 333.6 883.3 343.8 893.3 343.8"/><polyline class="cls-4" points="883.3 333.6 883.3 343.8 893.3 343.8"/><path d="M883.5,334.2a.71.71,0,0,1,.6.3l8.3,8.4a.86.86,0,0,1,.3.6v43.6a.9.9,0,0,1-.9.9h-40a.9.9,0,0,1-.9-.9v-52a.9.9,0,0,1,.9-.9h31.7m0-2H851.8a2.9,2.9,0,0,0-2.9,2.9v52a2.9,2.9,0,0,0,2.9,2.9h40a2.9,2.9,0,0,0,2.9-2.9V343.5a2.79,2.79,0,0,0-.8-2l-8.3-8.4a2.88,2.88,0,0,0-2.1-.9"/><path class="cls-4" d="M887.6,358.9a3.6,3.6,0,1,0-7.2,0v7.2a3.6,3.6,0,1,0,7.2,0V364h-2.9"/><polyline class="cls-4" points="869 369.8 869 355.3 876.2 369.8 876.2 355.3"/><path class="cls-4" d="M857.6,369.8V355.4h2.9a4.3,4.3,0,1,1,0,8.6H859"/><polyline class="cls-1" points="935.8 333.6 935.8 343.8 945.8 343.8"/><polyline class="cls-4" points="935.8 333.6 935.8 343.8 945.8 343.8"/><path d="M936.1,334.2a.71.71,0,0,1,.6.3l8.3,8.4a.86.86,0,0,1,.3.6v43.6a.9.9,0,0,1-.9.9h-40a.9.9,0,0,1-.9-.9v-52a.9.9,0,0,1,.9-.9h31.7m0-2H904.4a2.9,2.9,0,0,0-2.9,2.9v52a2.9,2.9,0,0,0,2.9,2.9h40a2.9,2.9,0,0,0,2.9-2.9V343.5a2.79,2.79,0,0,0-.8-2l-8.3-8.4a3.24,3.24,0,0,0-2.1-.9"/><path class="cls-4" d="M921.5,355.3v14.4h3.6a3.59,3.59,0,0,0,3.6-3.6v-7.2a3.59,3.59,0,0,0-3.6-3.6Z"/><path class="cls-4" d="M910.1,369.8V355.4H913a4.3,4.3,0,1,1,0,8.6h-1.4"/><polyline class="cls-4" points="933 369.8 933 355.3 940.1 355.3"/><line class="cls-4" x1="938.7" y1="362.5" x2="934.4" y2="362.5"/><path class="cls-3" d="M755.8,322.8v-8.7a1.37,1.37,0,0,1,1.4-1.4h8.6"/><path class="cls-3" d="M974.7,312.7h8.6a1.37,1.37,0,0,1,1.4,1.4v8.7"/><path class="cls-3" d="M765.8,407h-8.6a1.37,1.37,0,0,1-1.4-1.4v-8.7"/><path class="cls-3" d="M984.7,397.2v8.7a1.37,1.37,0,0,1-1.4,1.4h-8.6"/><text class="cls-5" transform="translate(778.8 71.83)">1740 <tspan class="cls-6" x="137.94" y="0">p</tspan><tspan x="171.97" y="0">x</tspan></text><text class="cls-5" transform="translate(1540.94 369.8)">720 <tspan class="cls-6" x="106.25" y="0">p</tspan><tspan x="140.28" y="0">x</tspan></text></svg>