<?xml version="1.0" encoding="utf-8"?>
<!-- Generator: Adobe Illustrator 21.0.2, SVG Export Plug-In . SVG Version: 6.00 Build 0)  -->
<svg version="1.1" id="Layer_1" xmlns="http://www.w3.org/2000/svg" xmlns:xlink="http://www.w3.org/1999/xlink" x="0px" y="0px"
	 viewBox="0 0 510 220" style="enable-background:new 0 0 510 220;" xml:space="preserve">
<style type="text/css">
	.st0{fill:#FF0000;}
</style>
<g>
	<path class="st0" d="M51,105.6l-29.2,65.6H0.5l32.1-70.2c-7.5-3.8-13.6-9.5-18.2-16.9c-4.6-7.4-6.9-17.5-6.9-30.3
		c0-8.9,1.3-16.8,4-23.6c2.6-6.8,6.2-12.4,10.8-16.9C26.7,8.9,32,5.6,38.1,3.4C44.2,1.1,50.5,0,57.2,0h27.5v171.3H66.3v-65.6
		C66.3,105.6,51,105.6,51,105.6z M66.3,15.3h-9.8c-3.7,0-7.3,0.7-10.8,2c-3.5,1.4-6.6,3.5-9.3,6.5c-2.7,3-4.9,6.9-6.6,11.8
		c-1.7,4.9-2.5,10.9-2.5,18.1c0,6.9,0.8,12.7,2.3,17.3c1.5,4.7,3.6,8.4,6.2,11.3c2.6,2.9,5.7,4.9,9.3,6.1c3.6,1.2,7.4,1.8,11.4,1.8
		h9.8V15.3z"/>
	<path d="M173.6,50.5v120.7h-18.4v-54.1h-27.8v54.1h-18.7V50.5h18.7v51.3h27.8V50.5H173.6z M269.6,195h-16.8v-23.7h-51.7V195h-16.8
		v-39h7.4c2.7-6.4,4.9-13.5,6.5-21.2c1.6-7.7,2.8-15.7,3.7-24c0.9-8.2,1.4-16.6,1.7-25.2c0.2-8.5,0.4-16.8,0.4-24.8V50.5h56V156h9.6
		L269.6,195L269.6,195z M241.6,65.9h-20.8V68c0,6.4-0.1,13.3-0.4,20.9c-0.2,7.6-0.8,15.3-1.6,23.1c-0.8,7.8-1.9,15.5-3.4,23.1
		c-1.4,7.6-3.4,14.5-6,20.9h32.1L241.6,65.9L241.6,65.9z M350.8,163.1c-3.8,3-8.2,5.4-13.2,7.2c-4.9,1.8-10.5,2.6-16.5,2.6
		c-12.4,0-22.3-4.8-29.4-14.5c-7.2-9.7-10.8-23.8-10.8-42.5c0-9.7,0.7-18.7,2-26.8c1.4-8.1,3.5-15.2,6.5-21.2c3-6,6.7-10.7,11.4-14
		c4.6-3.4,10.1-5,16.5-5c4.9,0,9.5,1,13.6,3c4.1,2,7.7,5.2,10.5,9.7c2.9,4.5,5.1,10.3,6.7,17.4c1.6,7.1,2.4,15.8,2.4,26v10.3h-50.3
		c0,13.7,1.9,24.1,5.6,31.1c3.7,7,9.4,10.5,16.9,10.5c5.3,0,9.9-0.9,14-2.8c4.1-1.8,7.3-3.6,9.7-5.4L350.8,163.1z M317.2,64.2
		c-5.7,0-9.8,3.2-12.2,9.7c-2.4,6.5-3.9,15.1-4.5,26h30.9c0-5.1-0.2-9.9-0.7-14.3c-0.5-4.4-1.2-8.2-2.3-11.4c-1-3.2-2.5-5.7-4.3-7.4
		C322.2,65.1,320,64.2,317.2,64.2 M388.4,111.2v60.1h-18.7V50.5h18.7v55.8l29-55.8h18.9l-29.9,56.8l34.2,64h-20.4L388.4,111.2z
		 M484.4,173c-12.9,0-23.1-5.2-30.4-15.5c-7.3-10.3-11-25.8-11-46.6c0-9.4,0.9-18,2.8-25.6c1.8-7.7,4.5-14.2,8.1-19.5
		c3.6-5.3,8.1-9.5,13.4-12.5c5.3-3,11.5-4.4,18.6-4.4c5.4,0,9.8,0.6,13.2,1.8c3.4,1.2,6.4,2.7,9.1,4.4l-2.6,17.7
		c-2.6-2.3-5.5-4.3-9-6c-3.4-1.7-7.1-2.6-10.9-2.6c-6.7,0-12.2,3.8-16.5,11.3c-4.3,7.5-6.5,19-6.5,34.4c0,15.3,1.8,27,5.4,35.3
		c3.6,8.3,9.2,12.4,16.9,12.4c4.6,0,8.6-0.8,12-2.3c3.4-1.6,6.1-3.3,8.4-5.3l4.3,13.9c-3.2,2.7-6.8,4.9-10.8,6.6
		C494.7,172.1,489.9,173,484.4,173"/>
</g>
</svg>
