<?xml version="1.0" encoding="utf-8"?>
<!-- Generator: Adobe Illustrator 20.0.0, SVG Export Plug-In . SVG Version: 6.00 Build 0)  -->
<svg version="1.1" id="Layer_1" xmlns="http://www.w3.org/2000/svg" xmlns:xlink="http://www.w3.org/1999/xlink" x="0px" y="0px"
	 viewBox="0 0 130.74 94.674" enable-background="new 0 0 130.74 94.674" xml:space="preserve">
<g>
	<polyline fill="#FFCC05" points="105.08,9.834 105.08,27.609 122.78,27.609 	"/>
	
		<polyline fill="none" stroke="#000000" stroke-width="3.9417" stroke-linecap="round" stroke-linejoin="round" stroke-miterlimit="10" points="
		105.08,9.834 105.08,27.609 122.78,27.609 	"/>
	<path d="M105.418,11.809L105.418,11.809l15.396,15.461v55.639H10.68v-71.1H105.418 M105.418,7.859H10.68
		c-2.172,0-3.933,1.769-3.933,3.95v71.1c0,2.181,1.761,3.95,3.933,3.95h110.133c2.172,0,3.933-1.769,3.933-3.95V27.27
		c0-1.048-0.415-2.052-1.152-2.794l-15.396-15.46C107.461,8.275,106.461,7.859,105.418,7.859"/>
	
		<polyline fill="none" stroke="#000000" stroke-width="3.9417" stroke-linecap="round" stroke-linejoin="round" stroke-miterlimit="10" points="
		97.213,63.159 87.38,31.559 77.547,63.159 	"/>
	
		<line fill="none" stroke="#000000" stroke-width="3.9417" stroke-linecap="round" stroke-linejoin="round" stroke-miterlimit="10" x1="81.48" y1="53.284" x2="93.28" y2="53.284"/>
	
		<path fill="none" stroke="#000000" stroke-width="3.9417" stroke-linecap="round" stroke-linejoin="round" stroke-miterlimit="10" d="
		M57.88,31.559v31.6h6.883c4.888,0,8.85-3.979,8.85-8.888V40.447c0-4.909-3.962-8.887-8.85-8.887H57.88z"/>
	
		<polyline fill="none" stroke="#000000" stroke-width="3.9417" stroke-linecap="round" stroke-linejoin="round" stroke-miterlimit="10" points="
		34.28,63.159 34.28,31.559 50.013,63.159 50.013,31.559 	"/>
</g>
</svg>
