<?xml version="1.0" encoding="utf-8"?>
<!-- Generator: Adobe Illustrator 21.0.0, SVG Export Plug-In . SVG Version: 6.00 Build 0)  -->
<svg version="1.0" id="Layer_2" xmlns="http://www.w3.org/2000/svg" xmlns:xlink="http://www.w3.org/1999/xlink" x="0px" y="0px"
	 viewBox="0 0 109 40.5" style="enable-background:new 0 0 109 40.5;" xml:space="preserve">
<style type="text/css">
	.st0{fill:#FFFFFF;}
	.st1{fill:#F48120;}
	.st2{fill:#FAAD3F;}
	.st3{fill:#404041;}
</style>
<path class="st0" d="M98.6,14.2L93,12.9l-1-0.4l-25.7,0.2v12.4l32.3,0.1L98.6,14.2z"/>
<path class="st1" d="M88.1,24c0.3-1,0.2-2-0.3-2.6s-1.2-1-2.1-1.1l-17.4-0.2c-0.1,0-0.2-0.1-0.3-0.1c-0.1-0.1-0.1-0.2,0-0.3
	c0.1-0.2,0.2-0.3,0.4-0.3l17.5-0.2c2.1-0.1,4.3-1.8,5.1-3.8l1-2.6c0-0.1,0.1-0.2,0-0.3c-1.1-5.1-5.7-8.9-11.1-8.9
	c-5,0-9.3,3.2-10.8,7.7c-1-0.7-2.2-1.1-3.6-1c-2.4,0.2-4.3,2.2-4.6,4.6c-0.1,0.6,0,1.2,0.1,1.8c-3.9,0.1-7.1,3.3-7.1,7.3
	c0,0.4,0,0.7,0.1,1.1c0,0.2,0.2,0.3,0.3,0.3h32.1c0.2,0,0.4-0.1,0.4-0.3L88.1,24z"/>
<path class="st2" d="M93.6,12.8h-0.5c-0.1,0-0.2,0.1-0.3,0.2l-0.7,2.4c-0.3,1-0.2,2,0.3,2.6s1.2,1,2.1,1.1l3.7,0.2
	c0.1,0,0.2,0.1,0.3,0.1c0.1,0.1,0.1,0.2,0,0.3c-0.1,0.2-0.2,0.3-0.4,0.3l-3.8,0.2C92.2,20.3,90,22,89.2,24L89,24.9
	c-0.1,0.1,0,0.3,0.2,0.3h13.2c0.2,0,0.3-0.1,0.3-0.3c0.2-0.8,0.4-1.7,0.4-2.6C103.1,17.1,98.8,12.8,93.6,12.8"/>
<path class="st3" d="M104.4,30.8c-0.5,0-0.9-0.4-0.9-0.9s0.4-0.9,0.9-0.9s0.9,0.4,0.9,0.9S104.9,30.8,104.4,30.8 M104.4,29.2
	c-0.4,0-0.7,0.3-0.7,0.7c0,0.4,0.3,0.7,0.7,0.7c0.4,0,0.7-0.3,0.7-0.7C105.1,29.5,104.8,29.2,104.4,29.2 M104.8,30.4h-0.2l-0.2-0.3
	h-0.2v0.3H104v-0.9h0.5c0.2,0,0.3,0.1,0.3,0.3c0,0.1-0.1,0.2-0.2,0.3L104.8,30.4L104.8,30.4z M104.5,29.9c0.1,0,0.1,0,0.1-0.1
	s-0.1-0.1-0.1-0.1h-0.3V30L104.5,29.9L104.5,29.9z M14.8,29H17v6h3.8v1.9h-6L14.8,29z M23.1,32.9c0-2.3,1.8-4.1,4.3-4.1
	s4.2,1.8,4.2,4.1S29.8,37,27.3,37C24.9,37,23.1,35.2,23.1,32.9 M29.4,32.9c0-1.2-0.8-2.2-2-2.2s-2,1-2,2.1s0.8,2.1,2,2.1
	C28.6,35.1,29.4,34.1,29.4,32.9 M34.3,33.4V29h2.2v4.4c0,1.1,0.6,1.7,1.5,1.7s1.5-0.5,1.5-1.6V29h2.2v4.4c0,2.6-1.5,3.7-3.7,3.7
	C35.7,37,34.3,35.9,34.3,33.4 M45,29h3.1c2.8,0,4.5,1.6,4.5,3.9s-1.7,4-4.5,4h-3L45,29L45,29z M48.1,34.9c1.3,0,2.2-0.7,2.2-2
	s-0.9-2-2.2-2h-0.9v4H48.1z M55.7,29H62v1.9h-4.1v1.3h3.7V34h-3.7v2.9h-2.2V29z M65.1,29h2.2v6h3.8v1.9h-6V29z M76.8,28.9H79l3.4,8
	H80l-0.6-1.4h-3.1l-0.6,1.4h-2.3C73.4,36.9,76.8,28.9,76.8,28.9z M78.8,33.8l-0.9-2.2L77,33.8H78.8z M85.2,29h3.7
	c1.2,0,2,0.3,2.6,0.9c0.5,0.5,0.7,1.1,0.7,1.8c0,1.2-0.6,2-1.6,2.4l1.9,2.8H90l-1.6-2.4h-1v2.4h-2.2C85.2,36.9,85.2,29,85.2,29z
	 M88.8,32.8c0.7,0,1.2-0.4,1.2-0.9c0-0.6-0.5-0.9-1.2-0.9h-1.4v1.9h1.4V32.8z M95.3,29h6.4v1.8h-4.2V32h3.8v1.8h-3.8V35h4.3v1.9
	h-6.5L95.3,29z M10,33.9c-0.3,0.7-1,1.2-1.8,1.2c-1.2,0-2-1-2-2.1s0.8-2.1,2-2.1c0.9,0,1.6,0.6,1.9,1.3h2.3c-0.4-1.9-2-3.3-4.2-3.3
	c-2.4,0-4.3,1.8-4.3,4.1s1.8,4.1,4.2,4.1c2.1,0,3.7-1.4,4.2-3.2H10z"/>
</svg>
